%TF.GenerationSoftware,KiCad,Pcbnew,7.0.10*%
%TF.CreationDate,2024-03-12T16:09:29+01:00*%
%TF.ProjectId,DaisyPedal,44616973-7950-4656-9461-6c2e6b696361,1.0*%
%TF.SameCoordinates,Original*%
%TF.FileFunction,Legend,Bot*%
%TF.FilePolarity,Positive*%
%FSLAX46Y46*%
G04 Gerber Fmt 4.6, Leading zero omitted, Abs format (unit mm)*
G04 Created by KiCad (PCBNEW 7.0.10) date 2024-03-12 16:09:29*
%MOMM*%
%LPD*%
G01*
G04 APERTURE LIST*
%ADD10C,0.160000*%
%ADD11C,0.150000*%
%ADD12C,0.120000*%
G04 APERTURE END LIST*
D10*
X57483739Y-72882727D02*
X57369453Y-72920822D01*
X57369453Y-72920822D02*
X57331358Y-72958918D01*
X57331358Y-72958918D02*
X57293262Y-73035108D01*
X57293262Y-73035108D02*
X57293262Y-73149394D01*
X57293262Y-73149394D02*
X57331358Y-73225584D01*
X57331358Y-73225584D02*
X57369453Y-73263680D01*
X57369453Y-73263680D02*
X57445643Y-73301775D01*
X57445643Y-73301775D02*
X57750405Y-73301775D01*
X57750405Y-73301775D02*
X57750405Y-72501775D01*
X57750405Y-72501775D02*
X57483739Y-72501775D01*
X57483739Y-72501775D02*
X57407548Y-72539870D01*
X57407548Y-72539870D02*
X57369453Y-72577965D01*
X57369453Y-72577965D02*
X57331358Y-72654156D01*
X57331358Y-72654156D02*
X57331358Y-72730346D01*
X57331358Y-72730346D02*
X57369453Y-72806537D01*
X57369453Y-72806537D02*
X57407548Y-72844632D01*
X57407548Y-72844632D02*
X57483739Y-72882727D01*
X57483739Y-72882727D02*
X57750405Y-72882727D01*
X56569453Y-73301775D02*
X56950405Y-73301775D01*
X56950405Y-73301775D02*
X56950405Y-72501775D01*
X58017072Y-75877775D02*
X58283739Y-75496822D01*
X58474215Y-75877775D02*
X58474215Y-75077775D01*
X58474215Y-75077775D02*
X58169453Y-75077775D01*
X58169453Y-75077775D02*
X58093263Y-75115870D01*
X58093263Y-75115870D02*
X58055168Y-75153965D01*
X58055168Y-75153965D02*
X58017072Y-75230156D01*
X58017072Y-75230156D02*
X58017072Y-75344441D01*
X58017072Y-75344441D02*
X58055168Y-75420632D01*
X58055168Y-75420632D02*
X58093263Y-75458727D01*
X58093263Y-75458727D02*
X58169453Y-75496822D01*
X58169453Y-75496822D02*
X58474215Y-75496822D01*
X57712311Y-75839680D02*
X57598025Y-75877775D01*
X57598025Y-75877775D02*
X57407549Y-75877775D01*
X57407549Y-75877775D02*
X57331358Y-75839680D01*
X57331358Y-75839680D02*
X57293263Y-75801584D01*
X57293263Y-75801584D02*
X57255168Y-75725394D01*
X57255168Y-75725394D02*
X57255168Y-75649203D01*
X57255168Y-75649203D02*
X57293263Y-75573013D01*
X57293263Y-75573013D02*
X57331358Y-75534918D01*
X57331358Y-75534918D02*
X57407549Y-75496822D01*
X57407549Y-75496822D02*
X57559930Y-75458727D01*
X57559930Y-75458727D02*
X57636120Y-75420632D01*
X57636120Y-75420632D02*
X57674215Y-75382537D01*
X57674215Y-75382537D02*
X57712311Y-75306346D01*
X57712311Y-75306346D02*
X57712311Y-75230156D01*
X57712311Y-75230156D02*
X57674215Y-75153965D01*
X57674215Y-75153965D02*
X57636120Y-75115870D01*
X57636120Y-75115870D02*
X57559930Y-75077775D01*
X57559930Y-75077775D02*
X57369453Y-75077775D01*
X57369453Y-75077775D02*
X57255168Y-75115870D01*
X57026596Y-75077775D02*
X56569453Y-75077775D01*
X56798025Y-75877775D02*
X56798025Y-75077775D01*
X57902786Y-78453775D02*
X57902786Y-77653775D01*
X57902786Y-77653775D02*
X57712310Y-77653775D01*
X57712310Y-77653775D02*
X57598024Y-77691870D01*
X57598024Y-77691870D02*
X57521834Y-77768060D01*
X57521834Y-77768060D02*
X57483739Y-77844251D01*
X57483739Y-77844251D02*
X57445643Y-77996632D01*
X57445643Y-77996632D02*
X57445643Y-78110918D01*
X57445643Y-78110918D02*
X57483739Y-78263299D01*
X57483739Y-78263299D02*
X57521834Y-78339489D01*
X57521834Y-78339489D02*
X57598024Y-78415680D01*
X57598024Y-78415680D02*
X57712310Y-78453775D01*
X57712310Y-78453775D02*
X57902786Y-78453775D01*
X56645643Y-78377584D02*
X56683739Y-78415680D01*
X56683739Y-78415680D02*
X56798024Y-78453775D01*
X56798024Y-78453775D02*
X56874215Y-78453775D01*
X56874215Y-78453775D02*
X56988501Y-78415680D01*
X56988501Y-78415680D02*
X57064691Y-78339489D01*
X57064691Y-78339489D02*
X57102786Y-78263299D01*
X57102786Y-78263299D02*
X57140882Y-78110918D01*
X57140882Y-78110918D02*
X57140882Y-77996632D01*
X57140882Y-77996632D02*
X57102786Y-77844251D01*
X57102786Y-77844251D02*
X57064691Y-77768060D01*
X57064691Y-77768060D02*
X56988501Y-77691870D01*
X56988501Y-77691870D02*
X56874215Y-77653775D01*
X56874215Y-77653775D02*
X56798024Y-77653775D01*
X56798024Y-77653775D02*
X56683739Y-77691870D01*
X56683739Y-77691870D02*
X56645643Y-77729965D01*
X57407548Y-80953584D02*
X57445644Y-80991680D01*
X57445644Y-80991680D02*
X57559929Y-81029775D01*
X57559929Y-81029775D02*
X57636120Y-81029775D01*
X57636120Y-81029775D02*
X57750406Y-80991680D01*
X57750406Y-80991680D02*
X57826596Y-80915489D01*
X57826596Y-80915489D02*
X57864691Y-80839299D01*
X57864691Y-80839299D02*
X57902787Y-80686918D01*
X57902787Y-80686918D02*
X57902787Y-80572632D01*
X57902787Y-80572632D02*
X57864691Y-80420251D01*
X57864691Y-80420251D02*
X57826596Y-80344060D01*
X57826596Y-80344060D02*
X57750406Y-80267870D01*
X57750406Y-80267870D02*
X57636120Y-80229775D01*
X57636120Y-80229775D02*
X57559929Y-80229775D01*
X57559929Y-80229775D02*
X57445644Y-80267870D01*
X57445644Y-80267870D02*
X57407548Y-80305965D01*
X57102787Y-80991680D02*
X56988501Y-81029775D01*
X56988501Y-81029775D02*
X56798025Y-81029775D01*
X56798025Y-81029775D02*
X56721834Y-80991680D01*
X56721834Y-80991680D02*
X56683739Y-80953584D01*
X56683739Y-80953584D02*
X56645644Y-80877394D01*
X56645644Y-80877394D02*
X56645644Y-80801203D01*
X56645644Y-80801203D02*
X56683739Y-80725013D01*
X56683739Y-80725013D02*
X56721834Y-80686918D01*
X56721834Y-80686918D02*
X56798025Y-80648822D01*
X56798025Y-80648822D02*
X56950406Y-80610727D01*
X56950406Y-80610727D02*
X57026596Y-80572632D01*
X57026596Y-80572632D02*
X57064691Y-80534537D01*
X57064691Y-80534537D02*
X57102787Y-80458346D01*
X57102787Y-80458346D02*
X57102787Y-80382156D01*
X57102787Y-80382156D02*
X57064691Y-80305965D01*
X57064691Y-80305965D02*
X57026596Y-80267870D01*
X57026596Y-80267870D02*
X56950406Y-80229775D01*
X56950406Y-80229775D02*
X56759929Y-80229775D01*
X56759929Y-80229775D02*
X56645644Y-80267870D01*
X58093262Y-83529584D02*
X58131358Y-83567680D01*
X58131358Y-83567680D02*
X58245643Y-83605775D01*
X58245643Y-83605775D02*
X58321834Y-83605775D01*
X58321834Y-83605775D02*
X58436120Y-83567680D01*
X58436120Y-83567680D02*
X58512310Y-83491489D01*
X58512310Y-83491489D02*
X58550405Y-83415299D01*
X58550405Y-83415299D02*
X58588501Y-83262918D01*
X58588501Y-83262918D02*
X58588501Y-83148632D01*
X58588501Y-83148632D02*
X58550405Y-82996251D01*
X58550405Y-82996251D02*
X58512310Y-82920060D01*
X58512310Y-82920060D02*
X58436120Y-82843870D01*
X58436120Y-82843870D02*
X58321834Y-82805775D01*
X58321834Y-82805775D02*
X58245643Y-82805775D01*
X58245643Y-82805775D02*
X58131358Y-82843870D01*
X58131358Y-82843870D02*
X58093262Y-82881965D01*
X57369453Y-83605775D02*
X57750405Y-83605775D01*
X57750405Y-83605775D02*
X57750405Y-82805775D01*
X57102786Y-83605775D02*
X57102786Y-82805775D01*
X56645643Y-83605775D02*
X56988501Y-83148632D01*
X56645643Y-82805775D02*
X57102786Y-83262918D01*
X58321833Y-86181775D02*
X58321833Y-85381775D01*
X58321833Y-85381775D02*
X58131357Y-85381775D01*
X58131357Y-85381775D02*
X58017071Y-85419870D01*
X58017071Y-85419870D02*
X57940881Y-85496060D01*
X57940881Y-85496060D02*
X57902786Y-85572251D01*
X57902786Y-85572251D02*
X57864690Y-85724632D01*
X57864690Y-85724632D02*
X57864690Y-85838918D01*
X57864690Y-85838918D02*
X57902786Y-85991299D01*
X57902786Y-85991299D02*
X57940881Y-86067489D01*
X57940881Y-86067489D02*
X58017071Y-86143680D01*
X58017071Y-86143680D02*
X58131357Y-86181775D01*
X58131357Y-86181775D02*
X58321833Y-86181775D01*
X57521833Y-86181775D02*
X57521833Y-85381775D01*
X57140881Y-86181775D02*
X57140881Y-85381775D01*
X57140881Y-85381775D02*
X56683738Y-86181775D01*
X56683738Y-86181775D02*
X56683738Y-85381775D01*
X57598024Y-87957775D02*
X57521834Y-87957775D01*
X57521834Y-87957775D02*
X57445643Y-87995870D01*
X57445643Y-87995870D02*
X57407548Y-88033965D01*
X57407548Y-88033965D02*
X57369453Y-88110156D01*
X57369453Y-88110156D02*
X57331358Y-88262537D01*
X57331358Y-88262537D02*
X57331358Y-88453013D01*
X57331358Y-88453013D02*
X57369453Y-88605394D01*
X57369453Y-88605394D02*
X57407548Y-88681584D01*
X57407548Y-88681584D02*
X57445643Y-88719680D01*
X57445643Y-88719680D02*
X57521834Y-88757775D01*
X57521834Y-88757775D02*
X57598024Y-88757775D01*
X57598024Y-88757775D02*
X57674215Y-88719680D01*
X57674215Y-88719680D02*
X57712310Y-88681584D01*
X57712310Y-88681584D02*
X57750405Y-88605394D01*
X57750405Y-88605394D02*
X57788501Y-88453013D01*
X57788501Y-88453013D02*
X57788501Y-88262537D01*
X57788501Y-88262537D02*
X57750405Y-88110156D01*
X57750405Y-88110156D02*
X57712310Y-88033965D01*
X57712310Y-88033965D02*
X57674215Y-87995870D01*
X57674215Y-87995870D02*
X57598024Y-87957775D01*
X57102786Y-87957775D02*
X56836119Y-88757775D01*
X56836119Y-88757775D02*
X56569453Y-87957775D01*
X59883738Y-91029013D02*
X59274215Y-91029013D01*
X59578976Y-91333775D02*
X59578976Y-90724251D01*
X58969453Y-90533775D02*
X58474215Y-90533775D01*
X58474215Y-90533775D02*
X58740881Y-90838537D01*
X58740881Y-90838537D02*
X58626596Y-90838537D01*
X58626596Y-90838537D02*
X58550405Y-90876632D01*
X58550405Y-90876632D02*
X58512310Y-90914727D01*
X58512310Y-90914727D02*
X58474215Y-90990918D01*
X58474215Y-90990918D02*
X58474215Y-91181394D01*
X58474215Y-91181394D02*
X58512310Y-91257584D01*
X58512310Y-91257584D02*
X58550405Y-91295680D01*
X58550405Y-91295680D02*
X58626596Y-91333775D01*
X58626596Y-91333775D02*
X58855167Y-91333775D01*
X58855167Y-91333775D02*
X58931358Y-91295680D01*
X58931358Y-91295680D02*
X58969453Y-91257584D01*
X58131357Y-91257584D02*
X58093262Y-91295680D01*
X58093262Y-91295680D02*
X58131357Y-91333775D01*
X58131357Y-91333775D02*
X58169453Y-91295680D01*
X58169453Y-91295680D02*
X58131357Y-91257584D01*
X58131357Y-91257584D02*
X58131357Y-91333775D01*
X57826596Y-90533775D02*
X57331358Y-90533775D01*
X57331358Y-90533775D02*
X57598024Y-90838537D01*
X57598024Y-90838537D02*
X57483739Y-90838537D01*
X57483739Y-90838537D02*
X57407548Y-90876632D01*
X57407548Y-90876632D02*
X57369453Y-90914727D01*
X57369453Y-90914727D02*
X57331358Y-90990918D01*
X57331358Y-90990918D02*
X57331358Y-91181394D01*
X57331358Y-91181394D02*
X57369453Y-91257584D01*
X57369453Y-91257584D02*
X57407548Y-91295680D01*
X57407548Y-91295680D02*
X57483739Y-91333775D01*
X57483739Y-91333775D02*
X57712310Y-91333775D01*
X57712310Y-91333775D02*
X57788501Y-91295680D01*
X57788501Y-91295680D02*
X57826596Y-91257584D01*
X57102786Y-90533775D02*
X56836119Y-91333775D01*
X56836119Y-91333775D02*
X56569453Y-90533775D01*
D11*
X50177819Y-77457541D02*
X51177819Y-77695636D01*
X51177819Y-77695636D02*
X50463533Y-77886112D01*
X50463533Y-77886112D02*
X51177819Y-78076588D01*
X51177819Y-78076588D02*
X50177819Y-78314684D01*
X51177819Y-79124207D02*
X50654009Y-79124207D01*
X50654009Y-79124207D02*
X50558771Y-79076588D01*
X50558771Y-79076588D02*
X50511152Y-78981350D01*
X50511152Y-78981350D02*
X50511152Y-78790874D01*
X50511152Y-78790874D02*
X50558771Y-78695636D01*
X51130200Y-79124207D02*
X51177819Y-79028969D01*
X51177819Y-79028969D02*
X51177819Y-78790874D01*
X51177819Y-78790874D02*
X51130200Y-78695636D01*
X51130200Y-78695636D02*
X51034961Y-78648017D01*
X51034961Y-78648017D02*
X50939723Y-78648017D01*
X50939723Y-78648017D02*
X50844485Y-78695636D01*
X50844485Y-78695636D02*
X50796866Y-78790874D01*
X50796866Y-78790874D02*
X50796866Y-79028969D01*
X50796866Y-79028969D02*
X50749247Y-79124207D01*
X50511152Y-79505160D02*
X51177819Y-79743255D01*
X51177819Y-79743255D02*
X50511152Y-79981350D01*
X51130200Y-80743255D02*
X51177819Y-80648017D01*
X51177819Y-80648017D02*
X51177819Y-80457541D01*
X51177819Y-80457541D02*
X51130200Y-80362303D01*
X51130200Y-80362303D02*
X51034961Y-80314684D01*
X51034961Y-80314684D02*
X50654009Y-80314684D01*
X50654009Y-80314684D02*
X50558771Y-80362303D01*
X50558771Y-80362303D02*
X50511152Y-80457541D01*
X50511152Y-80457541D02*
X50511152Y-80648017D01*
X50511152Y-80648017D02*
X50558771Y-80743255D01*
X50558771Y-80743255D02*
X50654009Y-80790874D01*
X50654009Y-80790874D02*
X50749247Y-80790874D01*
X50749247Y-80790874D02*
X50844485Y-80314684D01*
X51130200Y-81171827D02*
X51177819Y-81267065D01*
X51177819Y-81267065D02*
X51177819Y-81457541D01*
X51177819Y-81457541D02*
X51130200Y-81552779D01*
X51130200Y-81552779D02*
X51034961Y-81600398D01*
X51034961Y-81600398D02*
X50987342Y-81600398D01*
X50987342Y-81600398D02*
X50892104Y-81552779D01*
X50892104Y-81552779D02*
X50844485Y-81457541D01*
X50844485Y-81457541D02*
X50844485Y-81314684D01*
X50844485Y-81314684D02*
X50796866Y-81219446D01*
X50796866Y-81219446D02*
X50701628Y-81171827D01*
X50701628Y-81171827D02*
X50654009Y-81171827D01*
X50654009Y-81171827D02*
X50558771Y-81219446D01*
X50558771Y-81219446D02*
X50511152Y-81314684D01*
X50511152Y-81314684D02*
X50511152Y-81457541D01*
X50511152Y-81457541D02*
X50558771Y-81552779D01*
X51177819Y-82028970D02*
X50177819Y-82028970D01*
X51177819Y-82457541D02*
X50654009Y-82457541D01*
X50654009Y-82457541D02*
X50558771Y-82409922D01*
X50558771Y-82409922D02*
X50511152Y-82314684D01*
X50511152Y-82314684D02*
X50511152Y-82171827D01*
X50511152Y-82171827D02*
X50558771Y-82076589D01*
X50558771Y-82076589D02*
X50606390Y-82028970D01*
X51177819Y-83362303D02*
X50654009Y-83362303D01*
X50654009Y-83362303D02*
X50558771Y-83314684D01*
X50558771Y-83314684D02*
X50511152Y-83219446D01*
X50511152Y-83219446D02*
X50511152Y-83028970D01*
X50511152Y-83028970D02*
X50558771Y-82933732D01*
X51130200Y-83362303D02*
X51177819Y-83267065D01*
X51177819Y-83267065D02*
X51177819Y-83028970D01*
X51177819Y-83028970D02*
X51130200Y-82933732D01*
X51130200Y-82933732D02*
X51034961Y-82886113D01*
X51034961Y-82886113D02*
X50939723Y-82886113D01*
X50939723Y-82886113D02*
X50844485Y-82933732D01*
X50844485Y-82933732D02*
X50796866Y-83028970D01*
X50796866Y-83028970D02*
X50796866Y-83267065D01*
X50796866Y-83267065D02*
X50749247Y-83362303D01*
X51177819Y-83838494D02*
X50511152Y-83838494D01*
X50701628Y-83838494D02*
X50606390Y-83886113D01*
X50606390Y-83886113D02*
X50558771Y-83933732D01*
X50558771Y-83933732D02*
X50511152Y-84028970D01*
X50511152Y-84028970D02*
X50511152Y-84124208D01*
X51130200Y-84838494D02*
X51177819Y-84743256D01*
X51177819Y-84743256D02*
X51177819Y-84552780D01*
X51177819Y-84552780D02*
X51130200Y-84457542D01*
X51130200Y-84457542D02*
X51034961Y-84409923D01*
X51034961Y-84409923D02*
X50654009Y-84409923D01*
X50654009Y-84409923D02*
X50558771Y-84457542D01*
X50558771Y-84457542D02*
X50511152Y-84552780D01*
X50511152Y-84552780D02*
X50511152Y-84743256D01*
X50511152Y-84743256D02*
X50558771Y-84838494D01*
X50558771Y-84838494D02*
X50654009Y-84886113D01*
X50654009Y-84886113D02*
X50749247Y-84886113D01*
X50749247Y-84886113D02*
X50844485Y-84409923D01*
X50273057Y-86028971D02*
X50225438Y-86076590D01*
X50225438Y-86076590D02*
X50177819Y-86171828D01*
X50177819Y-86171828D02*
X50177819Y-86409923D01*
X50177819Y-86409923D02*
X50225438Y-86505161D01*
X50225438Y-86505161D02*
X50273057Y-86552780D01*
X50273057Y-86552780D02*
X50368295Y-86600399D01*
X50368295Y-86600399D02*
X50463533Y-86600399D01*
X50463533Y-86600399D02*
X50606390Y-86552780D01*
X50606390Y-86552780D02*
X51177819Y-85981352D01*
X51177819Y-85981352D02*
X51177819Y-86600399D01*
X50511152Y-87028971D02*
X51511152Y-87028971D01*
X50558771Y-87028971D02*
X50511152Y-87124209D01*
X50511152Y-87124209D02*
X50511152Y-87314685D01*
X50511152Y-87314685D02*
X50558771Y-87409923D01*
X50558771Y-87409923D02*
X50606390Y-87457542D01*
X50606390Y-87457542D02*
X50701628Y-87505161D01*
X50701628Y-87505161D02*
X50987342Y-87505161D01*
X50987342Y-87505161D02*
X51082580Y-87457542D01*
X51082580Y-87457542D02*
X51130200Y-87409923D01*
X51130200Y-87409923D02*
X51177819Y-87314685D01*
X51177819Y-87314685D02*
X51177819Y-87124209D01*
X51177819Y-87124209D02*
X51130200Y-87028971D01*
X51177819Y-89171828D02*
X51177819Y-88695638D01*
X51177819Y-88695638D02*
X50177819Y-88695638D01*
X51082580Y-90076590D02*
X51130200Y-90028971D01*
X51130200Y-90028971D02*
X51177819Y-89886114D01*
X51177819Y-89886114D02*
X51177819Y-89790876D01*
X51177819Y-89790876D02*
X51130200Y-89648019D01*
X51130200Y-89648019D02*
X51034961Y-89552781D01*
X51034961Y-89552781D02*
X50939723Y-89505162D01*
X50939723Y-89505162D02*
X50749247Y-89457543D01*
X50749247Y-89457543D02*
X50606390Y-89457543D01*
X50606390Y-89457543D02*
X50415914Y-89505162D01*
X50415914Y-89505162D02*
X50320676Y-89552781D01*
X50320676Y-89552781D02*
X50225438Y-89648019D01*
X50225438Y-89648019D02*
X50177819Y-89790876D01*
X50177819Y-89790876D02*
X50177819Y-89886114D01*
X50177819Y-89886114D02*
X50225438Y-90028971D01*
X50225438Y-90028971D02*
X50273057Y-90076590D01*
X51177819Y-90505162D02*
X50177819Y-90505162D01*
X50177819Y-90505162D02*
X50177819Y-90743257D01*
X50177819Y-90743257D02*
X50225438Y-90886114D01*
X50225438Y-90886114D02*
X50320676Y-90981352D01*
X50320676Y-90981352D02*
X50415914Y-91028971D01*
X50415914Y-91028971D02*
X50606390Y-91076590D01*
X50606390Y-91076590D02*
X50749247Y-91076590D01*
X50749247Y-91076590D02*
X50939723Y-91028971D01*
X50939723Y-91028971D02*
X51034961Y-90981352D01*
X51034961Y-90981352D02*
X51130200Y-90886114D01*
X51130200Y-90886114D02*
X51177819Y-90743257D01*
X51177819Y-90743257D02*
X51177819Y-90505162D01*
X34353332Y-82195200D02*
X34210475Y-82242819D01*
X34210475Y-82242819D02*
X33972380Y-82242819D01*
X33972380Y-82242819D02*
X33877142Y-82195200D01*
X33877142Y-82195200D02*
X33829523Y-82147580D01*
X33829523Y-82147580D02*
X33781904Y-82052342D01*
X33781904Y-82052342D02*
X33781904Y-81957104D01*
X33781904Y-81957104D02*
X33829523Y-81861866D01*
X33829523Y-81861866D02*
X33877142Y-81814247D01*
X33877142Y-81814247D02*
X33972380Y-81766628D01*
X33972380Y-81766628D02*
X34162856Y-81719009D01*
X34162856Y-81719009D02*
X34258094Y-81671390D01*
X34258094Y-81671390D02*
X34305713Y-81623771D01*
X34305713Y-81623771D02*
X34353332Y-81528533D01*
X34353332Y-81528533D02*
X34353332Y-81433295D01*
X34353332Y-81433295D02*
X34305713Y-81338057D01*
X34305713Y-81338057D02*
X34258094Y-81290438D01*
X34258094Y-81290438D02*
X34162856Y-81242819D01*
X34162856Y-81242819D02*
X33924761Y-81242819D01*
X33924761Y-81242819D02*
X33781904Y-81290438D01*
X33448570Y-81242819D02*
X33210475Y-82242819D01*
X33210475Y-82242819D02*
X33019999Y-81528533D01*
X33019999Y-81528533D02*
X32829523Y-82242819D01*
X32829523Y-82242819D02*
X32591428Y-81242819D01*
X31781904Y-81576152D02*
X31781904Y-82242819D01*
X32019999Y-81195200D02*
X32258094Y-81909485D01*
X32258094Y-81909485D02*
X31639047Y-81909485D01*
X51420638Y-42517219D02*
X51753971Y-42041028D01*
X51992066Y-42517219D02*
X51992066Y-41517219D01*
X51992066Y-41517219D02*
X51611114Y-41517219D01*
X51611114Y-41517219D02*
X51515876Y-41564838D01*
X51515876Y-41564838D02*
X51468257Y-41612457D01*
X51468257Y-41612457D02*
X51420638Y-41707695D01*
X51420638Y-41707695D02*
X51420638Y-41850552D01*
X51420638Y-41850552D02*
X51468257Y-41945790D01*
X51468257Y-41945790D02*
X51515876Y-41993409D01*
X51515876Y-41993409D02*
X51611114Y-42041028D01*
X51611114Y-42041028D02*
X51992066Y-42041028D01*
X51134923Y-41517219D02*
X50801590Y-42517219D01*
X50801590Y-42517219D02*
X50468257Y-41517219D01*
X49611114Y-42517219D02*
X50182542Y-42517219D01*
X49896828Y-42517219D02*
X49896828Y-41517219D01*
X49896828Y-41517219D02*
X49992066Y-41660076D01*
X49992066Y-41660076D02*
X50087304Y-41755314D01*
X50087304Y-41755314D02*
X50182542Y-41802933D01*
X79182838Y-36649819D02*
X79516171Y-36173628D01*
X79754266Y-36649819D02*
X79754266Y-35649819D01*
X79754266Y-35649819D02*
X79373314Y-35649819D01*
X79373314Y-35649819D02*
X79278076Y-35697438D01*
X79278076Y-35697438D02*
X79230457Y-35745057D01*
X79230457Y-35745057D02*
X79182838Y-35840295D01*
X79182838Y-35840295D02*
X79182838Y-35983152D01*
X79182838Y-35983152D02*
X79230457Y-36078390D01*
X79230457Y-36078390D02*
X79278076Y-36126009D01*
X79278076Y-36126009D02*
X79373314Y-36173628D01*
X79373314Y-36173628D02*
X79754266Y-36173628D01*
X78897123Y-35649819D02*
X78563790Y-36649819D01*
X78563790Y-36649819D02*
X78230457Y-35649819D01*
X77944742Y-35745057D02*
X77897123Y-35697438D01*
X77897123Y-35697438D02*
X77801885Y-35649819D01*
X77801885Y-35649819D02*
X77563790Y-35649819D01*
X77563790Y-35649819D02*
X77468552Y-35697438D01*
X77468552Y-35697438D02*
X77420933Y-35745057D01*
X77420933Y-35745057D02*
X77373314Y-35840295D01*
X77373314Y-35840295D02*
X77373314Y-35935533D01*
X77373314Y-35935533D02*
X77420933Y-36078390D01*
X77420933Y-36078390D02*
X77992361Y-36649819D01*
X77992361Y-36649819D02*
X77373314Y-36649819D01*
X52692132Y-58293800D02*
X52549275Y-58341419D01*
X52549275Y-58341419D02*
X52311180Y-58341419D01*
X52311180Y-58341419D02*
X52215942Y-58293800D01*
X52215942Y-58293800D02*
X52168323Y-58246180D01*
X52168323Y-58246180D02*
X52120704Y-58150942D01*
X52120704Y-58150942D02*
X52120704Y-58055704D01*
X52120704Y-58055704D02*
X52168323Y-57960466D01*
X52168323Y-57960466D02*
X52215942Y-57912847D01*
X52215942Y-57912847D02*
X52311180Y-57865228D01*
X52311180Y-57865228D02*
X52501656Y-57817609D01*
X52501656Y-57817609D02*
X52596894Y-57769990D01*
X52596894Y-57769990D02*
X52644513Y-57722371D01*
X52644513Y-57722371D02*
X52692132Y-57627133D01*
X52692132Y-57627133D02*
X52692132Y-57531895D01*
X52692132Y-57531895D02*
X52644513Y-57436657D01*
X52644513Y-57436657D02*
X52596894Y-57389038D01*
X52596894Y-57389038D02*
X52501656Y-57341419D01*
X52501656Y-57341419D02*
X52263561Y-57341419D01*
X52263561Y-57341419D02*
X52120704Y-57389038D01*
X51787370Y-57341419D02*
X51549275Y-58341419D01*
X51549275Y-58341419D02*
X51358799Y-57627133D01*
X51358799Y-57627133D02*
X51168323Y-58341419D01*
X51168323Y-58341419D02*
X50930228Y-57341419D01*
X50025466Y-58341419D02*
X50596894Y-58341419D01*
X50311180Y-58341419D02*
X50311180Y-57341419D01*
X50311180Y-57341419D02*
X50406418Y-57484276D01*
X50406418Y-57484276D02*
X50501656Y-57579514D01*
X50501656Y-57579514D02*
X50596894Y-57627133D01*
X80987732Y-57684200D02*
X80844875Y-57731819D01*
X80844875Y-57731819D02*
X80606780Y-57731819D01*
X80606780Y-57731819D02*
X80511542Y-57684200D01*
X80511542Y-57684200D02*
X80463923Y-57636580D01*
X80463923Y-57636580D02*
X80416304Y-57541342D01*
X80416304Y-57541342D02*
X80416304Y-57446104D01*
X80416304Y-57446104D02*
X80463923Y-57350866D01*
X80463923Y-57350866D02*
X80511542Y-57303247D01*
X80511542Y-57303247D02*
X80606780Y-57255628D01*
X80606780Y-57255628D02*
X80797256Y-57208009D01*
X80797256Y-57208009D02*
X80892494Y-57160390D01*
X80892494Y-57160390D02*
X80940113Y-57112771D01*
X80940113Y-57112771D02*
X80987732Y-57017533D01*
X80987732Y-57017533D02*
X80987732Y-56922295D01*
X80987732Y-56922295D02*
X80940113Y-56827057D01*
X80940113Y-56827057D02*
X80892494Y-56779438D01*
X80892494Y-56779438D02*
X80797256Y-56731819D01*
X80797256Y-56731819D02*
X80559161Y-56731819D01*
X80559161Y-56731819D02*
X80416304Y-56779438D01*
X80082970Y-56731819D02*
X79844875Y-57731819D01*
X79844875Y-57731819D02*
X79654399Y-57017533D01*
X79654399Y-57017533D02*
X79463923Y-57731819D01*
X79463923Y-57731819D02*
X79225828Y-56731819D01*
X78892494Y-56827057D02*
X78844875Y-56779438D01*
X78844875Y-56779438D02*
X78749637Y-56731819D01*
X78749637Y-56731819D02*
X78511542Y-56731819D01*
X78511542Y-56731819D02*
X78416304Y-56779438D01*
X78416304Y-56779438D02*
X78368685Y-56827057D01*
X78368685Y-56827057D02*
X78321066Y-56922295D01*
X78321066Y-56922295D02*
X78321066Y-57017533D01*
X78321066Y-57017533D02*
X78368685Y-57160390D01*
X78368685Y-57160390D02*
X78940113Y-57731819D01*
X78940113Y-57731819D02*
X78321066Y-57731819D01*
X108368932Y-58674800D02*
X108226075Y-58722419D01*
X108226075Y-58722419D02*
X107987980Y-58722419D01*
X107987980Y-58722419D02*
X107892742Y-58674800D01*
X107892742Y-58674800D02*
X107845123Y-58627180D01*
X107845123Y-58627180D02*
X107797504Y-58531942D01*
X107797504Y-58531942D02*
X107797504Y-58436704D01*
X107797504Y-58436704D02*
X107845123Y-58341466D01*
X107845123Y-58341466D02*
X107892742Y-58293847D01*
X107892742Y-58293847D02*
X107987980Y-58246228D01*
X107987980Y-58246228D02*
X108178456Y-58198609D01*
X108178456Y-58198609D02*
X108273694Y-58150990D01*
X108273694Y-58150990D02*
X108321313Y-58103371D01*
X108321313Y-58103371D02*
X108368932Y-58008133D01*
X108368932Y-58008133D02*
X108368932Y-57912895D01*
X108368932Y-57912895D02*
X108321313Y-57817657D01*
X108321313Y-57817657D02*
X108273694Y-57770038D01*
X108273694Y-57770038D02*
X108178456Y-57722419D01*
X108178456Y-57722419D02*
X107940361Y-57722419D01*
X107940361Y-57722419D02*
X107797504Y-57770038D01*
X107464170Y-57722419D02*
X107226075Y-58722419D01*
X107226075Y-58722419D02*
X107035599Y-58008133D01*
X107035599Y-58008133D02*
X106845123Y-58722419D01*
X106845123Y-58722419D02*
X106607028Y-57722419D01*
X106321313Y-57722419D02*
X105702266Y-57722419D01*
X105702266Y-57722419D02*
X106035599Y-58103371D01*
X106035599Y-58103371D02*
X105892742Y-58103371D01*
X105892742Y-58103371D02*
X105797504Y-58150990D01*
X105797504Y-58150990D02*
X105749885Y-58198609D01*
X105749885Y-58198609D02*
X105702266Y-58293847D01*
X105702266Y-58293847D02*
X105702266Y-58531942D01*
X105702266Y-58531942D02*
X105749885Y-58627180D01*
X105749885Y-58627180D02*
X105797504Y-58674800D01*
X105797504Y-58674800D02*
X105892742Y-58722419D01*
X105892742Y-58722419D02*
X106178456Y-58722419D01*
X106178456Y-58722419D02*
X106273694Y-58674800D01*
X106273694Y-58674800D02*
X106321313Y-58627180D01*
X106716438Y-38046819D02*
X107049771Y-37570628D01*
X107287866Y-38046819D02*
X107287866Y-37046819D01*
X107287866Y-37046819D02*
X106906914Y-37046819D01*
X106906914Y-37046819D02*
X106811676Y-37094438D01*
X106811676Y-37094438D02*
X106764057Y-37142057D01*
X106764057Y-37142057D02*
X106716438Y-37237295D01*
X106716438Y-37237295D02*
X106716438Y-37380152D01*
X106716438Y-37380152D02*
X106764057Y-37475390D01*
X106764057Y-37475390D02*
X106811676Y-37523009D01*
X106811676Y-37523009D02*
X106906914Y-37570628D01*
X106906914Y-37570628D02*
X107287866Y-37570628D01*
X106430723Y-37046819D02*
X106097390Y-38046819D01*
X106097390Y-38046819D02*
X105764057Y-37046819D01*
X105525961Y-37046819D02*
X104906914Y-37046819D01*
X104906914Y-37046819D02*
X105240247Y-37427771D01*
X105240247Y-37427771D02*
X105097390Y-37427771D01*
X105097390Y-37427771D02*
X105002152Y-37475390D01*
X105002152Y-37475390D02*
X104954533Y-37523009D01*
X104954533Y-37523009D02*
X104906914Y-37618247D01*
X104906914Y-37618247D02*
X104906914Y-37856342D01*
X104906914Y-37856342D02*
X104954533Y-37951580D01*
X104954533Y-37951580D02*
X105002152Y-37999200D01*
X105002152Y-37999200D02*
X105097390Y-38046819D01*
X105097390Y-38046819D02*
X105383104Y-38046819D01*
X105383104Y-38046819D02*
X105478342Y-37999200D01*
X105478342Y-37999200D02*
X105525961Y-37951580D01*
X50254819Y-72898095D02*
X51064342Y-72898095D01*
X51064342Y-72898095D02*
X51159580Y-72945714D01*
X51159580Y-72945714D02*
X51207200Y-72993333D01*
X51207200Y-72993333D02*
X51254819Y-73088571D01*
X51254819Y-73088571D02*
X51254819Y-73279047D01*
X51254819Y-73279047D02*
X51207200Y-73374285D01*
X51207200Y-73374285D02*
X51159580Y-73421904D01*
X51159580Y-73421904D02*
X51064342Y-73469523D01*
X51064342Y-73469523D02*
X50254819Y-73469523D01*
X50254819Y-73850476D02*
X50254819Y-74469523D01*
X50254819Y-74469523D02*
X50635771Y-74136190D01*
X50635771Y-74136190D02*
X50635771Y-74279047D01*
X50635771Y-74279047D02*
X50683390Y-74374285D01*
X50683390Y-74374285D02*
X50731009Y-74421904D01*
X50731009Y-74421904D02*
X50826247Y-74469523D01*
X50826247Y-74469523D02*
X51064342Y-74469523D01*
X51064342Y-74469523D02*
X51159580Y-74421904D01*
X51159580Y-74421904D02*
X51207200Y-74374285D01*
X51207200Y-74374285D02*
X51254819Y-74279047D01*
X51254819Y-74279047D02*
X51254819Y-73993333D01*
X51254819Y-73993333D02*
X51207200Y-73898095D01*
X51207200Y-73898095D02*
X51159580Y-73850476D01*
D12*
%TO.C,SW4*%
X46600000Y-89800000D02*
X46600000Y-89200000D01*
X46300000Y-89500000D02*
X46600000Y-89800000D01*
X46600000Y-89200000D02*
X46300000Y-89500000D01*
X48400000Y-88100000D02*
X36600000Y-88100000D01*
X36600000Y-84000000D02*
X36600000Y-88100000D01*
X48400000Y-84000000D02*
X48400000Y-88100000D01*
X42500000Y-82500000D02*
X42500000Y-81500000D01*
X43000000Y-82000000D02*
X42000000Y-82000000D01*
X48400000Y-80000000D02*
X48400000Y-75900000D01*
X36600000Y-75900000D02*
X36600000Y-80000000D01*
X39000000Y-75900000D02*
X36600000Y-75900000D01*
X43800000Y-75900000D02*
X41200000Y-75900000D01*
X48400000Y-75900000D02*
X46000000Y-75900000D01*
X45500000Y-82000000D02*
G75*
G03*
X39500000Y-82000000I-3000000J0D01*
G01*
X39500000Y-82000000D02*
G75*
G03*
X45500000Y-82000000I3000000J0D01*
G01*
%TO.C,RV1*%
X37630000Y-41620000D02*
X39120000Y-41620000D01*
X37630000Y-41620000D02*
X37630000Y-36900000D01*
X40840000Y-41620000D02*
X41670000Y-41620000D01*
X43290000Y-41620000D02*
X43820000Y-41620000D01*
X46190000Y-41620000D02*
X47370000Y-41620000D01*
X47380000Y-41620000D02*
X47380000Y-36900000D01*
X37630000Y-33090000D02*
X37630000Y-30030000D01*
X47370000Y-33090000D02*
X47370000Y-30030000D01*
X37630000Y-30030000D02*
X47370000Y-30030000D01*
%TO.C,RV2*%
X65130000Y-41620000D02*
X66620000Y-41620000D01*
X65130000Y-41620000D02*
X65130000Y-36900000D01*
X68340000Y-41620000D02*
X69170000Y-41620000D01*
X70790000Y-41620000D02*
X71320000Y-41620000D01*
X73690000Y-41620000D02*
X74870000Y-41620000D01*
X74880000Y-41620000D02*
X74880000Y-36900000D01*
X65130000Y-33090000D02*
X65130000Y-30030000D01*
X74870000Y-33090000D02*
X74870000Y-30030000D01*
X65130000Y-30030000D02*
X74870000Y-30030000D01*
%TO.C,SW1*%
X46600000Y-61800000D02*
X46600000Y-61200000D01*
X46300000Y-61500000D02*
X46600000Y-61800000D01*
X46600000Y-61200000D02*
X46300000Y-61500000D01*
X48400000Y-60100000D02*
X36600000Y-60100000D01*
X36600000Y-56000000D02*
X36600000Y-60100000D01*
X48400000Y-56000000D02*
X48400000Y-60100000D01*
X42500000Y-54500000D02*
X42500000Y-53500000D01*
X43000000Y-54000000D02*
X42000000Y-54000000D01*
X48400000Y-52000000D02*
X48400000Y-47900000D01*
X36600000Y-47900000D02*
X36600000Y-52000000D01*
X39000000Y-47900000D02*
X36600000Y-47900000D01*
X43800000Y-47900000D02*
X41200000Y-47900000D01*
X48400000Y-47900000D02*
X46000000Y-47900000D01*
X45500000Y-54000000D02*
G75*
G03*
X39500000Y-54000000I-3000000J0D01*
G01*
X39500000Y-54000000D02*
G75*
G03*
X45500000Y-54000000I3000000J0D01*
G01*
%TO.C,SW2*%
X74100000Y-61800000D02*
X74100000Y-61200000D01*
X73800000Y-61500000D02*
X74100000Y-61800000D01*
X74100000Y-61200000D02*
X73800000Y-61500000D01*
X75900000Y-60100000D02*
X64100000Y-60100000D01*
X64100000Y-56000000D02*
X64100000Y-60100000D01*
X75900000Y-56000000D02*
X75900000Y-60100000D01*
X70000000Y-54500000D02*
X70000000Y-53500000D01*
X70500000Y-54000000D02*
X69500000Y-54000000D01*
X75900000Y-52000000D02*
X75900000Y-47900000D01*
X64100000Y-47900000D02*
X64100000Y-52000000D01*
X66500000Y-47900000D02*
X64100000Y-47900000D01*
X71300000Y-47900000D02*
X68700000Y-47900000D01*
X75900000Y-47900000D02*
X73500000Y-47900000D01*
X73000000Y-54000000D02*
G75*
G03*
X67000000Y-54000000I-3000000J0D01*
G01*
X67000000Y-54000000D02*
G75*
G03*
X73000000Y-54000000I3000000J0D01*
G01*
%TO.C,SW3*%
X101600000Y-61800000D02*
X101600000Y-61200000D01*
X101300000Y-61500000D02*
X101600000Y-61800000D01*
X101600000Y-61200000D02*
X101300000Y-61500000D01*
X103400000Y-60100000D02*
X91600000Y-60100000D01*
X91600000Y-56000000D02*
X91600000Y-60100000D01*
X103400000Y-56000000D02*
X103400000Y-60100000D01*
X97500000Y-54500000D02*
X97500000Y-53500000D01*
X98000000Y-54000000D02*
X97000000Y-54000000D01*
X103400000Y-52000000D02*
X103400000Y-47900000D01*
X91600000Y-47900000D02*
X91600000Y-52000000D01*
X94000000Y-47900000D02*
X91600000Y-47900000D01*
X98800000Y-47900000D02*
X96200000Y-47900000D01*
X103400000Y-47900000D02*
X101000000Y-47900000D01*
X100500000Y-54000000D02*
G75*
G03*
X94500000Y-54000000I-3000000J0D01*
G01*
X94500000Y-54000000D02*
G75*
G03*
X100500000Y-54000000I3000000J0D01*
G01*
%TO.C,RV3*%
X92630000Y-41620000D02*
X94120000Y-41620000D01*
X92630000Y-41620000D02*
X92630000Y-36900000D01*
X95840000Y-41620000D02*
X96670000Y-41620000D01*
X98290000Y-41620000D02*
X98820000Y-41620000D01*
X101190000Y-41620000D02*
X102370000Y-41620000D01*
X102380000Y-41620000D02*
X102380000Y-36900000D01*
X92630000Y-33090000D02*
X92630000Y-30030000D01*
X102370000Y-33090000D02*
X102370000Y-30030000D01*
X92630000Y-30030000D02*
X102370000Y-30030000D01*
%TO.C,U3*%
X52670000Y-71810000D02*
X55330000Y-71810000D01*
X52670000Y-89650000D02*
X52670000Y-71810000D01*
X52670000Y-89650000D02*
X55330000Y-89650000D01*
X52670000Y-90920000D02*
X52670000Y-92250000D01*
X52670000Y-92250000D02*
X54000000Y-92250000D01*
X55330000Y-89650000D02*
X55330000Y-71810000D01*
%TD*%
M02*
