%TF.GenerationSoftware,KiCad,Pcbnew,7.0.10*%
%TF.CreationDate,2024-03-12T16:09:05+01:00*%
%TF.ProjectId,DaisyPedal,44616973-7950-4656-9461-6c2e6b696361,1.0*%
%TF.SameCoordinates,Original*%
%TF.FileFunction,Drillmap*%
%TF.FilePolarity,Positive*%
%FSLAX45Y45*%
G04 Gerber Fmt 4.5, Leading zero omitted, Abs format (unit mm)*
G04 Created by KiCad (PCBNEW 7.0.10) date 2024-03-12 16:09:05*
%MOMM*%
%LPD*%
G01*
G04 APERTURE LIST*
%ADD10C,0.100000*%
%ADD11C,0.200000*%
%ADD12C,0.230000*%
G04 APERTURE END LIST*
D10*
X2940000Y-2940000D02*
X11060000Y-2940000D01*
X11060000Y-11660000D01*
X2940000Y-11660000D01*
X2940000Y-2940000D01*
D11*
D12*
X5291000Y-6585000D02*
X5521000Y-6815000D01*
X5521000Y-6585000D02*
X5291000Y-6815000D01*
X5291000Y-9585000D02*
X5521000Y-9815000D01*
X5521000Y-9585000D02*
X5291000Y-9815000D01*
X10591000Y-6585000D02*
X10821000Y-6815000D01*
X10821000Y-6585000D02*
X10591000Y-6815000D01*
X10591000Y-9585000D02*
X10821000Y-9815000D01*
X10821000Y-9585000D02*
X10591000Y-9815000D01*
D11*
X3195777Y-11976484D02*
X3195777Y-11776484D01*
X3195777Y-11776484D02*
X3243396Y-11776484D01*
X3243396Y-11776484D02*
X3271967Y-11786008D01*
X3271967Y-11786008D02*
X3291015Y-11805055D01*
X3291015Y-11805055D02*
X3300539Y-11824103D01*
X3300539Y-11824103D02*
X3310062Y-11862198D01*
X3310062Y-11862198D02*
X3310062Y-11890769D01*
X3310062Y-11890769D02*
X3300539Y-11928865D01*
X3300539Y-11928865D02*
X3291015Y-11947912D01*
X3291015Y-11947912D02*
X3271967Y-11966960D01*
X3271967Y-11966960D02*
X3243396Y-11976484D01*
X3243396Y-11976484D02*
X3195777Y-11976484D01*
X3395777Y-11976484D02*
X3395777Y-11843150D01*
X3395777Y-11881246D02*
X3405301Y-11862198D01*
X3405301Y-11862198D02*
X3414824Y-11852674D01*
X3414824Y-11852674D02*
X3433872Y-11843150D01*
X3433872Y-11843150D02*
X3452920Y-11843150D01*
X3519586Y-11976484D02*
X3519586Y-11843150D01*
X3519586Y-11776484D02*
X3510062Y-11786008D01*
X3510062Y-11786008D02*
X3519586Y-11795531D01*
X3519586Y-11795531D02*
X3529110Y-11786008D01*
X3529110Y-11786008D02*
X3519586Y-11776484D01*
X3519586Y-11776484D02*
X3519586Y-11795531D01*
X3643396Y-11976484D02*
X3624348Y-11966960D01*
X3624348Y-11966960D02*
X3614824Y-11947912D01*
X3614824Y-11947912D02*
X3614824Y-11776484D01*
X3748158Y-11976484D02*
X3729110Y-11966960D01*
X3729110Y-11966960D02*
X3719586Y-11947912D01*
X3719586Y-11947912D02*
X3719586Y-11776484D01*
X3976729Y-11976484D02*
X3976729Y-11776484D01*
X3976729Y-11776484D02*
X4043396Y-11919341D01*
X4043396Y-11919341D02*
X4110062Y-11776484D01*
X4110062Y-11776484D02*
X4110062Y-11976484D01*
X4291015Y-11976484D02*
X4291015Y-11871722D01*
X4291015Y-11871722D02*
X4281491Y-11852674D01*
X4281491Y-11852674D02*
X4262444Y-11843150D01*
X4262444Y-11843150D02*
X4224348Y-11843150D01*
X4224348Y-11843150D02*
X4205301Y-11852674D01*
X4291015Y-11966960D02*
X4271967Y-11976484D01*
X4271967Y-11976484D02*
X4224348Y-11976484D01*
X4224348Y-11976484D02*
X4205301Y-11966960D01*
X4205301Y-11966960D02*
X4195777Y-11947912D01*
X4195777Y-11947912D02*
X4195777Y-11928865D01*
X4195777Y-11928865D02*
X4205301Y-11909817D01*
X4205301Y-11909817D02*
X4224348Y-11900293D01*
X4224348Y-11900293D02*
X4271967Y-11900293D01*
X4271967Y-11900293D02*
X4291015Y-11890769D01*
X4386253Y-11843150D02*
X4386253Y-12043150D01*
X4386253Y-11852674D02*
X4405301Y-11843150D01*
X4405301Y-11843150D02*
X4443396Y-11843150D01*
X4443396Y-11843150D02*
X4462444Y-11852674D01*
X4462444Y-11852674D02*
X4471967Y-11862198D01*
X4471967Y-11862198D02*
X4481491Y-11881246D01*
X4481491Y-11881246D02*
X4481491Y-11938388D01*
X4481491Y-11938388D02*
X4471967Y-11957436D01*
X4471967Y-11957436D02*
X4462444Y-11966960D01*
X4462444Y-11966960D02*
X4443396Y-11976484D01*
X4443396Y-11976484D02*
X4405301Y-11976484D01*
X4405301Y-11976484D02*
X4386253Y-11966960D01*
X4567205Y-11957436D02*
X4576729Y-11966960D01*
X4576729Y-11966960D02*
X4567205Y-11976484D01*
X4567205Y-11976484D02*
X4557682Y-11966960D01*
X4557682Y-11966960D02*
X4567205Y-11957436D01*
X4567205Y-11957436D02*
X4567205Y-11976484D01*
X4567205Y-11852674D02*
X4576729Y-11862198D01*
X4576729Y-11862198D02*
X4567205Y-11871722D01*
X4567205Y-11871722D02*
X4557682Y-11862198D01*
X4557682Y-11862198D02*
X4567205Y-11852674D01*
X4567205Y-11852674D02*
X4567205Y-11871722D01*
X2735000Y-12205000D02*
X2935000Y-12405000D01*
X2935000Y-12205000D02*
X2735000Y-12405000D01*
X3186253Y-12215531D02*
X3195777Y-12206008D01*
X3195777Y-12206008D02*
X3214824Y-12196484D01*
X3214824Y-12196484D02*
X3262443Y-12196484D01*
X3262443Y-12196484D02*
X3281491Y-12206008D01*
X3281491Y-12206008D02*
X3291015Y-12215531D01*
X3291015Y-12215531D02*
X3300539Y-12234579D01*
X3300539Y-12234579D02*
X3300539Y-12253627D01*
X3300539Y-12253627D02*
X3291015Y-12282198D01*
X3291015Y-12282198D02*
X3176729Y-12396484D01*
X3176729Y-12396484D02*
X3300539Y-12396484D01*
X3386253Y-12377436D02*
X3395777Y-12386960D01*
X3395777Y-12386960D02*
X3386253Y-12396484D01*
X3386253Y-12396484D02*
X3376729Y-12386960D01*
X3376729Y-12386960D02*
X3386253Y-12377436D01*
X3386253Y-12377436D02*
X3386253Y-12396484D01*
X3462443Y-12196484D02*
X3586253Y-12196484D01*
X3586253Y-12196484D02*
X3519586Y-12272674D01*
X3519586Y-12272674D02*
X3548158Y-12272674D01*
X3548158Y-12272674D02*
X3567205Y-12282198D01*
X3567205Y-12282198D02*
X3576729Y-12291722D01*
X3576729Y-12291722D02*
X3586253Y-12310769D01*
X3586253Y-12310769D02*
X3586253Y-12358388D01*
X3586253Y-12358388D02*
X3576729Y-12377436D01*
X3576729Y-12377436D02*
X3567205Y-12386960D01*
X3567205Y-12386960D02*
X3548158Y-12396484D01*
X3548158Y-12396484D02*
X3491015Y-12396484D01*
X3491015Y-12396484D02*
X3471967Y-12386960D01*
X3471967Y-12386960D02*
X3462443Y-12377436D01*
X3710062Y-12196484D02*
X3729110Y-12196484D01*
X3729110Y-12196484D02*
X3748158Y-12206008D01*
X3748158Y-12206008D02*
X3757682Y-12215531D01*
X3757682Y-12215531D02*
X3767205Y-12234579D01*
X3767205Y-12234579D02*
X3776729Y-12272674D01*
X3776729Y-12272674D02*
X3776729Y-12320293D01*
X3776729Y-12320293D02*
X3767205Y-12358388D01*
X3767205Y-12358388D02*
X3757682Y-12377436D01*
X3757682Y-12377436D02*
X3748158Y-12386960D01*
X3748158Y-12386960D02*
X3729110Y-12396484D01*
X3729110Y-12396484D02*
X3710062Y-12396484D01*
X3710062Y-12396484D02*
X3691015Y-12386960D01*
X3691015Y-12386960D02*
X3681491Y-12377436D01*
X3681491Y-12377436D02*
X3671967Y-12358388D01*
X3671967Y-12358388D02*
X3662443Y-12320293D01*
X3662443Y-12320293D02*
X3662443Y-12272674D01*
X3662443Y-12272674D02*
X3671967Y-12234579D01*
X3671967Y-12234579D02*
X3681491Y-12215531D01*
X3681491Y-12215531D02*
X3691015Y-12206008D01*
X3691015Y-12206008D02*
X3710062Y-12196484D01*
X3900539Y-12196484D02*
X3919586Y-12196484D01*
X3919586Y-12196484D02*
X3938634Y-12206008D01*
X3938634Y-12206008D02*
X3948158Y-12215531D01*
X3948158Y-12215531D02*
X3957682Y-12234579D01*
X3957682Y-12234579D02*
X3967205Y-12272674D01*
X3967205Y-12272674D02*
X3967205Y-12320293D01*
X3967205Y-12320293D02*
X3957682Y-12358388D01*
X3957682Y-12358388D02*
X3948158Y-12377436D01*
X3948158Y-12377436D02*
X3938634Y-12386960D01*
X3938634Y-12386960D02*
X3919586Y-12396484D01*
X3919586Y-12396484D02*
X3900539Y-12396484D01*
X3900539Y-12396484D02*
X3881491Y-12386960D01*
X3881491Y-12386960D02*
X3871967Y-12377436D01*
X3871967Y-12377436D02*
X3862443Y-12358388D01*
X3862443Y-12358388D02*
X3852920Y-12320293D01*
X3852920Y-12320293D02*
X3852920Y-12272674D01*
X3852920Y-12272674D02*
X3862443Y-12234579D01*
X3862443Y-12234579D02*
X3871967Y-12215531D01*
X3871967Y-12215531D02*
X3881491Y-12206008D01*
X3881491Y-12206008D02*
X3900539Y-12196484D01*
X4052920Y-12396484D02*
X4052920Y-12263150D01*
X4052920Y-12282198D02*
X4062443Y-12272674D01*
X4062443Y-12272674D02*
X4081491Y-12263150D01*
X4081491Y-12263150D02*
X4110063Y-12263150D01*
X4110063Y-12263150D02*
X4129110Y-12272674D01*
X4129110Y-12272674D02*
X4138634Y-12291722D01*
X4138634Y-12291722D02*
X4138634Y-12396484D01*
X4138634Y-12291722D02*
X4148158Y-12272674D01*
X4148158Y-12272674D02*
X4167205Y-12263150D01*
X4167205Y-12263150D02*
X4195777Y-12263150D01*
X4195777Y-12263150D02*
X4214825Y-12272674D01*
X4214825Y-12272674D02*
X4224348Y-12291722D01*
X4224348Y-12291722D02*
X4224348Y-12396484D01*
X4319586Y-12396484D02*
X4319586Y-12263150D01*
X4319586Y-12282198D02*
X4329110Y-12272674D01*
X4329110Y-12272674D02*
X4348158Y-12263150D01*
X4348158Y-12263150D02*
X4376729Y-12263150D01*
X4376729Y-12263150D02*
X4395777Y-12272674D01*
X4395777Y-12272674D02*
X4405301Y-12291722D01*
X4405301Y-12291722D02*
X4405301Y-12396484D01*
X4405301Y-12291722D02*
X4414825Y-12272674D01*
X4414825Y-12272674D02*
X4433872Y-12263150D01*
X4433872Y-12263150D02*
X4462444Y-12263150D01*
X4462444Y-12263150D02*
X4481491Y-12272674D01*
X4481491Y-12272674D02*
X4491015Y-12291722D01*
X4491015Y-12291722D02*
X4491015Y-12396484D01*
X4881491Y-12186960D02*
X4710063Y-12444103D01*
X5138634Y-12196484D02*
X5157682Y-12196484D01*
X5157682Y-12196484D02*
X5176729Y-12206008D01*
X5176729Y-12206008D02*
X5186253Y-12215531D01*
X5186253Y-12215531D02*
X5195777Y-12234579D01*
X5195777Y-12234579D02*
X5205301Y-12272674D01*
X5205301Y-12272674D02*
X5205301Y-12320293D01*
X5205301Y-12320293D02*
X5195777Y-12358388D01*
X5195777Y-12358388D02*
X5186253Y-12377436D01*
X5186253Y-12377436D02*
X5176729Y-12386960D01*
X5176729Y-12386960D02*
X5157682Y-12396484D01*
X5157682Y-12396484D02*
X5138634Y-12396484D01*
X5138634Y-12396484D02*
X5119587Y-12386960D01*
X5119587Y-12386960D02*
X5110063Y-12377436D01*
X5110063Y-12377436D02*
X5100539Y-12358388D01*
X5100539Y-12358388D02*
X5091015Y-12320293D01*
X5091015Y-12320293D02*
X5091015Y-12272674D01*
X5091015Y-12272674D02*
X5100539Y-12234579D01*
X5100539Y-12234579D02*
X5110063Y-12215531D01*
X5110063Y-12215531D02*
X5119587Y-12206008D01*
X5119587Y-12206008D02*
X5138634Y-12196484D01*
X5291015Y-12377436D02*
X5300539Y-12386960D01*
X5300539Y-12386960D02*
X5291015Y-12396484D01*
X5291015Y-12396484D02*
X5281491Y-12386960D01*
X5281491Y-12386960D02*
X5291015Y-12377436D01*
X5291015Y-12377436D02*
X5291015Y-12396484D01*
X5424348Y-12196484D02*
X5443396Y-12196484D01*
X5443396Y-12196484D02*
X5462444Y-12206008D01*
X5462444Y-12206008D02*
X5471968Y-12215531D01*
X5471968Y-12215531D02*
X5481491Y-12234579D01*
X5481491Y-12234579D02*
X5491015Y-12272674D01*
X5491015Y-12272674D02*
X5491015Y-12320293D01*
X5491015Y-12320293D02*
X5481491Y-12358388D01*
X5481491Y-12358388D02*
X5471968Y-12377436D01*
X5471968Y-12377436D02*
X5462444Y-12386960D01*
X5462444Y-12386960D02*
X5443396Y-12396484D01*
X5443396Y-12396484D02*
X5424348Y-12396484D01*
X5424348Y-12396484D02*
X5405301Y-12386960D01*
X5405301Y-12386960D02*
X5395777Y-12377436D01*
X5395777Y-12377436D02*
X5386253Y-12358388D01*
X5386253Y-12358388D02*
X5376729Y-12320293D01*
X5376729Y-12320293D02*
X5376729Y-12272674D01*
X5376729Y-12272674D02*
X5386253Y-12234579D01*
X5386253Y-12234579D02*
X5395777Y-12215531D01*
X5395777Y-12215531D02*
X5405301Y-12206008D01*
X5405301Y-12206008D02*
X5424348Y-12196484D01*
X5586253Y-12396484D02*
X5624348Y-12396484D01*
X5624348Y-12396484D02*
X5643396Y-12386960D01*
X5643396Y-12386960D02*
X5652920Y-12377436D01*
X5652920Y-12377436D02*
X5671967Y-12348865D01*
X5671967Y-12348865D02*
X5681491Y-12310769D01*
X5681491Y-12310769D02*
X5681491Y-12234579D01*
X5681491Y-12234579D02*
X5671967Y-12215531D01*
X5671967Y-12215531D02*
X5662444Y-12206008D01*
X5662444Y-12206008D02*
X5643396Y-12196484D01*
X5643396Y-12196484D02*
X5605301Y-12196484D01*
X5605301Y-12196484D02*
X5586253Y-12206008D01*
X5586253Y-12206008D02*
X5576729Y-12215531D01*
X5576729Y-12215531D02*
X5567206Y-12234579D01*
X5567206Y-12234579D02*
X5567206Y-12282198D01*
X5567206Y-12282198D02*
X5576729Y-12301246D01*
X5576729Y-12301246D02*
X5586253Y-12310769D01*
X5586253Y-12310769D02*
X5605301Y-12320293D01*
X5605301Y-12320293D02*
X5643396Y-12320293D01*
X5643396Y-12320293D02*
X5662444Y-12310769D01*
X5662444Y-12310769D02*
X5671967Y-12301246D01*
X5671967Y-12301246D02*
X5681491Y-12282198D01*
X5805301Y-12196484D02*
X5824348Y-12196484D01*
X5824348Y-12196484D02*
X5843396Y-12206008D01*
X5843396Y-12206008D02*
X5852920Y-12215531D01*
X5852920Y-12215531D02*
X5862444Y-12234579D01*
X5862444Y-12234579D02*
X5871967Y-12272674D01*
X5871967Y-12272674D02*
X5871967Y-12320293D01*
X5871967Y-12320293D02*
X5862444Y-12358388D01*
X5862444Y-12358388D02*
X5852920Y-12377436D01*
X5852920Y-12377436D02*
X5843396Y-12386960D01*
X5843396Y-12386960D02*
X5824348Y-12396484D01*
X5824348Y-12396484D02*
X5805301Y-12396484D01*
X5805301Y-12396484D02*
X5786253Y-12386960D01*
X5786253Y-12386960D02*
X5776729Y-12377436D01*
X5776729Y-12377436D02*
X5767206Y-12358388D01*
X5767206Y-12358388D02*
X5757682Y-12320293D01*
X5757682Y-12320293D02*
X5757682Y-12272674D01*
X5757682Y-12272674D02*
X5767206Y-12234579D01*
X5767206Y-12234579D02*
X5776729Y-12215531D01*
X5776729Y-12215531D02*
X5786253Y-12206008D01*
X5786253Y-12206008D02*
X5805301Y-12196484D01*
X6043396Y-12196484D02*
X6005301Y-12196484D01*
X6005301Y-12196484D02*
X5986253Y-12206008D01*
X5986253Y-12206008D02*
X5976729Y-12215531D01*
X5976729Y-12215531D02*
X5957682Y-12244103D01*
X5957682Y-12244103D02*
X5948158Y-12282198D01*
X5948158Y-12282198D02*
X5948158Y-12358388D01*
X5948158Y-12358388D02*
X5957682Y-12377436D01*
X5957682Y-12377436D02*
X5967206Y-12386960D01*
X5967206Y-12386960D02*
X5986253Y-12396484D01*
X5986253Y-12396484D02*
X6024348Y-12396484D01*
X6024348Y-12396484D02*
X6043396Y-12386960D01*
X6043396Y-12386960D02*
X6052920Y-12377436D01*
X6052920Y-12377436D02*
X6062444Y-12358388D01*
X6062444Y-12358388D02*
X6062444Y-12310769D01*
X6062444Y-12310769D02*
X6052920Y-12291722D01*
X6052920Y-12291722D02*
X6043396Y-12282198D01*
X6043396Y-12282198D02*
X6024348Y-12272674D01*
X6024348Y-12272674D02*
X5986253Y-12272674D01*
X5986253Y-12272674D02*
X5967206Y-12282198D01*
X5967206Y-12282198D02*
X5957682Y-12291722D01*
X5957682Y-12291722D02*
X5948158Y-12310769D01*
X6138634Y-12196484D02*
X6138634Y-12234579D01*
X6214825Y-12196484D02*
X6214825Y-12234579D01*
X6510063Y-12472674D02*
X6500539Y-12463150D01*
X6500539Y-12463150D02*
X6481491Y-12434579D01*
X6481491Y-12434579D02*
X6471968Y-12415531D01*
X6471968Y-12415531D02*
X6462444Y-12386960D01*
X6462444Y-12386960D02*
X6452920Y-12339341D01*
X6452920Y-12339341D02*
X6452920Y-12301246D01*
X6452920Y-12301246D02*
X6462444Y-12253627D01*
X6462444Y-12253627D02*
X6471968Y-12225055D01*
X6471968Y-12225055D02*
X6481491Y-12206008D01*
X6481491Y-12206008D02*
X6500539Y-12177436D01*
X6500539Y-12177436D02*
X6510063Y-12167912D01*
X6671968Y-12263150D02*
X6671968Y-12396484D01*
X6624348Y-12186960D02*
X6576729Y-12329817D01*
X6576729Y-12329817D02*
X6700539Y-12329817D01*
X6929110Y-12396484D02*
X6929110Y-12196484D01*
X7014825Y-12396484D02*
X7014825Y-12291722D01*
X7014825Y-12291722D02*
X7005301Y-12272674D01*
X7005301Y-12272674D02*
X6986253Y-12263150D01*
X6986253Y-12263150D02*
X6957682Y-12263150D01*
X6957682Y-12263150D02*
X6938634Y-12272674D01*
X6938634Y-12272674D02*
X6929110Y-12282198D01*
X7138634Y-12396484D02*
X7119587Y-12386960D01*
X7119587Y-12386960D02*
X7110063Y-12377436D01*
X7110063Y-12377436D02*
X7100539Y-12358388D01*
X7100539Y-12358388D02*
X7100539Y-12301246D01*
X7100539Y-12301246D02*
X7110063Y-12282198D01*
X7110063Y-12282198D02*
X7119587Y-12272674D01*
X7119587Y-12272674D02*
X7138634Y-12263150D01*
X7138634Y-12263150D02*
X7167206Y-12263150D01*
X7167206Y-12263150D02*
X7186253Y-12272674D01*
X7186253Y-12272674D02*
X7195777Y-12282198D01*
X7195777Y-12282198D02*
X7205301Y-12301246D01*
X7205301Y-12301246D02*
X7205301Y-12358388D01*
X7205301Y-12358388D02*
X7195777Y-12377436D01*
X7195777Y-12377436D02*
X7186253Y-12386960D01*
X7186253Y-12386960D02*
X7167206Y-12396484D01*
X7167206Y-12396484D02*
X7138634Y-12396484D01*
X7319587Y-12396484D02*
X7300539Y-12386960D01*
X7300539Y-12386960D02*
X7291015Y-12367912D01*
X7291015Y-12367912D02*
X7291015Y-12196484D01*
X7471968Y-12386960D02*
X7452920Y-12396484D01*
X7452920Y-12396484D02*
X7414825Y-12396484D01*
X7414825Y-12396484D02*
X7395777Y-12386960D01*
X7395777Y-12386960D02*
X7386253Y-12367912D01*
X7386253Y-12367912D02*
X7386253Y-12291722D01*
X7386253Y-12291722D02*
X7395777Y-12272674D01*
X7395777Y-12272674D02*
X7414825Y-12263150D01*
X7414825Y-12263150D02*
X7452920Y-12263150D01*
X7452920Y-12263150D02*
X7471968Y-12272674D01*
X7471968Y-12272674D02*
X7481491Y-12291722D01*
X7481491Y-12291722D02*
X7481491Y-12310769D01*
X7481491Y-12310769D02*
X7386253Y-12329817D01*
X7557682Y-12386960D02*
X7576730Y-12396484D01*
X7576730Y-12396484D02*
X7614825Y-12396484D01*
X7614825Y-12396484D02*
X7633872Y-12386960D01*
X7633872Y-12386960D02*
X7643396Y-12367912D01*
X7643396Y-12367912D02*
X7643396Y-12358388D01*
X7643396Y-12358388D02*
X7633872Y-12339341D01*
X7633872Y-12339341D02*
X7614825Y-12329817D01*
X7614825Y-12329817D02*
X7586253Y-12329817D01*
X7586253Y-12329817D02*
X7567206Y-12320293D01*
X7567206Y-12320293D02*
X7557682Y-12301246D01*
X7557682Y-12301246D02*
X7557682Y-12291722D01*
X7557682Y-12291722D02*
X7567206Y-12272674D01*
X7567206Y-12272674D02*
X7586253Y-12263150D01*
X7586253Y-12263150D02*
X7614825Y-12263150D01*
X7614825Y-12263150D02*
X7633872Y-12272674D01*
X7710063Y-12472674D02*
X7719587Y-12463150D01*
X7719587Y-12463150D02*
X7738634Y-12434579D01*
X7738634Y-12434579D02*
X7748158Y-12415531D01*
X7748158Y-12415531D02*
X7757682Y-12386960D01*
X7757682Y-12386960D02*
X7767206Y-12339341D01*
X7767206Y-12339341D02*
X7767206Y-12301246D01*
X7767206Y-12301246D02*
X7757682Y-12253627D01*
X7757682Y-12253627D02*
X7748158Y-12225055D01*
X7748158Y-12225055D02*
X7738634Y-12206008D01*
X7738634Y-12206008D02*
X7719587Y-12177436D01*
X7719587Y-12177436D02*
X7710063Y-12167912D01*
X8071968Y-12472674D02*
X8062444Y-12463150D01*
X8062444Y-12463150D02*
X8043396Y-12434579D01*
X8043396Y-12434579D02*
X8033872Y-12415531D01*
X8033872Y-12415531D02*
X8024349Y-12386960D01*
X8024349Y-12386960D02*
X8014825Y-12339341D01*
X8014825Y-12339341D02*
X8014825Y-12301246D01*
X8014825Y-12301246D02*
X8024349Y-12253627D01*
X8024349Y-12253627D02*
X8033872Y-12225055D01*
X8033872Y-12225055D02*
X8043396Y-12206008D01*
X8043396Y-12206008D02*
X8062444Y-12177436D01*
X8062444Y-12177436D02*
X8071968Y-12167912D01*
X8148158Y-12263150D02*
X8148158Y-12396484D01*
X8148158Y-12282198D02*
X8157682Y-12272674D01*
X8157682Y-12272674D02*
X8176730Y-12263150D01*
X8176730Y-12263150D02*
X8205301Y-12263150D01*
X8205301Y-12263150D02*
X8224349Y-12272674D01*
X8224349Y-12272674D02*
X8233872Y-12291722D01*
X8233872Y-12291722D02*
X8233872Y-12396484D01*
X8357682Y-12396484D02*
X8338634Y-12386960D01*
X8338634Y-12386960D02*
X8329111Y-12377436D01*
X8329111Y-12377436D02*
X8319587Y-12358388D01*
X8319587Y-12358388D02*
X8319587Y-12301246D01*
X8319587Y-12301246D02*
X8329111Y-12282198D01*
X8329111Y-12282198D02*
X8338634Y-12272674D01*
X8338634Y-12272674D02*
X8357682Y-12263150D01*
X8357682Y-12263150D02*
X8386253Y-12263150D01*
X8386253Y-12263150D02*
X8405301Y-12272674D01*
X8405301Y-12272674D02*
X8414825Y-12282198D01*
X8414825Y-12282198D02*
X8424349Y-12301246D01*
X8424349Y-12301246D02*
X8424349Y-12358388D01*
X8424349Y-12358388D02*
X8414825Y-12377436D01*
X8414825Y-12377436D02*
X8405301Y-12386960D01*
X8405301Y-12386960D02*
X8386253Y-12396484D01*
X8386253Y-12396484D02*
X8357682Y-12396484D01*
X8481492Y-12263150D02*
X8557682Y-12263150D01*
X8510063Y-12196484D02*
X8510063Y-12367912D01*
X8510063Y-12367912D02*
X8519587Y-12386960D01*
X8519587Y-12386960D02*
X8538634Y-12396484D01*
X8538634Y-12396484D02*
X8557682Y-12396484D01*
X8776730Y-12263150D02*
X8776730Y-12463150D01*
X8776730Y-12272674D02*
X8795777Y-12263150D01*
X8795777Y-12263150D02*
X8833873Y-12263150D01*
X8833873Y-12263150D02*
X8852920Y-12272674D01*
X8852920Y-12272674D02*
X8862444Y-12282198D01*
X8862444Y-12282198D02*
X8871968Y-12301246D01*
X8871968Y-12301246D02*
X8871968Y-12358388D01*
X8871968Y-12358388D02*
X8862444Y-12377436D01*
X8862444Y-12377436D02*
X8852920Y-12386960D01*
X8852920Y-12386960D02*
X8833873Y-12396484D01*
X8833873Y-12396484D02*
X8795777Y-12396484D01*
X8795777Y-12396484D02*
X8776730Y-12386960D01*
X8986254Y-12396484D02*
X8967206Y-12386960D01*
X8967206Y-12386960D02*
X8957682Y-12367912D01*
X8957682Y-12367912D02*
X8957682Y-12196484D01*
X9148158Y-12396484D02*
X9148158Y-12291722D01*
X9148158Y-12291722D02*
X9138635Y-12272674D01*
X9138635Y-12272674D02*
X9119587Y-12263150D01*
X9119587Y-12263150D02*
X9081492Y-12263150D01*
X9081492Y-12263150D02*
X9062444Y-12272674D01*
X9148158Y-12386960D02*
X9129111Y-12396484D01*
X9129111Y-12396484D02*
X9081492Y-12396484D01*
X9081492Y-12396484D02*
X9062444Y-12386960D01*
X9062444Y-12386960D02*
X9052920Y-12367912D01*
X9052920Y-12367912D02*
X9052920Y-12348865D01*
X9052920Y-12348865D02*
X9062444Y-12329817D01*
X9062444Y-12329817D02*
X9081492Y-12320293D01*
X9081492Y-12320293D02*
X9129111Y-12320293D01*
X9129111Y-12320293D02*
X9148158Y-12310769D01*
X9214825Y-12263150D02*
X9291015Y-12263150D01*
X9243396Y-12196484D02*
X9243396Y-12367912D01*
X9243396Y-12367912D02*
X9252920Y-12386960D01*
X9252920Y-12386960D02*
X9271968Y-12396484D01*
X9271968Y-12396484D02*
X9291015Y-12396484D01*
X9433873Y-12386960D02*
X9414825Y-12396484D01*
X9414825Y-12396484D02*
X9376730Y-12396484D01*
X9376730Y-12396484D02*
X9357682Y-12386960D01*
X9357682Y-12386960D02*
X9348158Y-12367912D01*
X9348158Y-12367912D02*
X9348158Y-12291722D01*
X9348158Y-12291722D02*
X9357682Y-12272674D01*
X9357682Y-12272674D02*
X9376730Y-12263150D01*
X9376730Y-12263150D02*
X9414825Y-12263150D01*
X9414825Y-12263150D02*
X9433873Y-12272674D01*
X9433873Y-12272674D02*
X9443396Y-12291722D01*
X9443396Y-12291722D02*
X9443396Y-12310769D01*
X9443396Y-12310769D02*
X9348158Y-12329817D01*
X9614825Y-12396484D02*
X9614825Y-12196484D01*
X9614825Y-12386960D02*
X9595777Y-12396484D01*
X9595777Y-12396484D02*
X9557682Y-12396484D01*
X9557682Y-12396484D02*
X9538635Y-12386960D01*
X9538635Y-12386960D02*
X9529111Y-12377436D01*
X9529111Y-12377436D02*
X9519587Y-12358388D01*
X9519587Y-12358388D02*
X9519587Y-12301246D01*
X9519587Y-12301246D02*
X9529111Y-12282198D01*
X9529111Y-12282198D02*
X9538635Y-12272674D01*
X9538635Y-12272674D02*
X9557682Y-12263150D01*
X9557682Y-12263150D02*
X9595777Y-12263150D01*
X9595777Y-12263150D02*
X9614825Y-12272674D01*
X9691016Y-12472674D02*
X9700539Y-12463150D01*
X9700539Y-12463150D02*
X9719587Y-12434579D01*
X9719587Y-12434579D02*
X9729111Y-12415531D01*
X9729111Y-12415531D02*
X9738635Y-12386960D01*
X9738635Y-12386960D02*
X9748158Y-12339341D01*
X9748158Y-12339341D02*
X9748158Y-12301246D01*
X9748158Y-12301246D02*
X9738635Y-12253627D01*
X9738635Y-12253627D02*
X9729111Y-12225055D01*
X9729111Y-12225055D02*
X9719587Y-12206008D01*
X9719587Y-12206008D02*
X9700539Y-12177436D01*
X9700539Y-12177436D02*
X9691016Y-12167912D01*
M02*
