%TF.GenerationSoftware,KiCad,Pcbnew,7.0.10*%
%TF.CreationDate,2024-03-12T16:09:29+01:00*%
%TF.ProjectId,DaisyPedal,44616973-7950-4656-9461-6c2e6b696361,1.0*%
%TF.SameCoordinates,Original*%
%TF.FileFunction,Soldermask,Top*%
%TF.FilePolarity,Negative*%
%FSLAX46Y46*%
G04 Gerber Fmt 4.6, Leading zero omitted, Abs format (unit mm)*
G04 Created by KiCad (PCBNEW 7.0.10) date 2024-03-12 16:09:29*
%MOMM*%
%LPD*%
G01*
G04 APERTURE LIST*
%ADD10C,1.600000*%
%ADD11O,1.600000X1.600000*%
%ADD12R,1.500000X1.500000*%
%ADD13O,1.500000X1.500000*%
%ADD14R,1.700000X1.700000*%
%ADD15C,1.700000*%
%ADD16R,1.600000X1.600000*%
%ADD17R,2.200000X2.200000*%
%ADD18O,2.200000X2.200000*%
%ADD19O,1.700000X1.700000*%
%ADD20R,2.000000X2.000000*%
%ADD21C,2.000000*%
%ADD22R,2.000000X3.200000*%
%ADD23O,2.720000X3.240000*%
%ADD24R,1.800000X1.800000*%
%ADD25C,1.800000*%
%ADD26C,4.000000*%
G04 APERTURE END LIST*
D10*
%TO.C,R13*%
X98044000Y-75692000D03*
D11*
X98044000Y-65532000D03*
%TD*%
D12*
%TO.C,D4*%
X92964000Y-68580000D03*
D13*
X82804000Y-68580000D03*
%TD*%
D10*
%TO.C,R2*%
X31496000Y-71882000D03*
D11*
X41656000Y-71882000D03*
%TD*%
D14*
%TO.C,A1*%
X80000000Y-112860000D03*
D15*
X80000000Y-110320000D03*
X80000000Y-107780000D03*
X80000000Y-105240000D03*
X80000000Y-102700000D03*
X80000000Y-100160000D03*
X80000000Y-97620000D03*
X80000000Y-95080000D03*
X80000000Y-92540000D03*
X80000000Y-90000000D03*
X80000000Y-87460000D03*
X80000000Y-84920000D03*
X80000000Y-82380000D03*
X80000000Y-79840000D03*
X80000000Y-77300000D03*
X80000000Y-74760000D03*
X80000000Y-72220000D03*
X80000000Y-69680000D03*
X80000000Y-67140000D03*
X80000000Y-64600000D03*
X64760000Y-64600000D03*
X64760000Y-67140000D03*
X64760000Y-69680000D03*
X64760000Y-72220000D03*
X64760000Y-74760000D03*
X64760000Y-77300000D03*
X64760000Y-79840000D03*
X64760000Y-82380000D03*
X64760000Y-84920000D03*
X64760000Y-87460000D03*
X64760000Y-90000000D03*
X64760000Y-92540000D03*
X64760000Y-95080000D03*
X64760000Y-97620000D03*
X64760000Y-100160000D03*
X64760000Y-102700000D03*
X64760000Y-105240000D03*
X64760000Y-107780000D03*
X64760000Y-110320000D03*
X64760000Y-112860000D03*
%TD*%
D16*
%TO.C,D2*%
X34290000Y-101854000D03*
D11*
X34290000Y-109474000D03*
%TD*%
D10*
%TO.C,R14*%
X80264000Y-42672000D03*
D11*
X80264000Y-52832000D03*
%TD*%
D10*
%TO.C,R3*%
X94488000Y-72009000D03*
D11*
X84328000Y-72009000D03*
%TD*%
D10*
%TO.C,C7*%
X55158000Y-42672000D03*
X60158000Y-42672000D03*
%TD*%
D16*
%TO.C,U2*%
X37338000Y-103378000D03*
D11*
X37338000Y-105918000D03*
X37338000Y-108458000D03*
X44958000Y-108458000D03*
X44958000Y-105918000D03*
X44958000Y-103378000D03*
%TD*%
D17*
%TO.C,D1*%
X32385000Y-53975000D03*
D18*
X32385000Y-43815000D03*
%TD*%
D14*
%TO.C,J2*%
X52705000Y-33020000D03*
D19*
X57785000Y-33020000D03*
%TD*%
D14*
%TO.C,J7*%
X58420000Y-108981000D03*
D19*
X58420000Y-114061000D03*
%TD*%
D10*
%TO.C,C8*%
X88392000Y-58848000D03*
X88392000Y-53848000D03*
%TD*%
D16*
%TO.C,C2*%
X31536000Y-61722000D03*
D10*
X34036000Y-61722000D03*
%TD*%
%TO.C,R10*%
X88392000Y-89535000D03*
D11*
X88392000Y-79375000D03*
%TD*%
D10*
%TO.C,R12*%
X102616000Y-82296000D03*
D11*
X102616000Y-72136000D03*
%TD*%
D16*
%TO.C,C4*%
X40680000Y-66548000D03*
D10*
X43180000Y-66548000D03*
%TD*%
%TO.C,R7*%
X84328000Y-80137000D03*
D11*
X84328000Y-90297000D03*
%TD*%
D10*
%TO.C,C5*%
X47498000Y-66548000D03*
X47498000Y-71548000D03*
%TD*%
D14*
%TO.C,J5*%
X86995000Y-111125000D03*
D19*
X89535000Y-111125000D03*
X92075000Y-111125000D03*
X94615000Y-111125000D03*
X97155000Y-111125000D03*
X99695000Y-111125000D03*
X102235000Y-111125000D03*
X104775000Y-111125000D03*
%TD*%
D14*
%TO.C,J3*%
X55118000Y-47259000D03*
D19*
X55118000Y-52339000D03*
%TD*%
D10*
%TO.C,R1*%
X34290000Y-94996000D03*
D11*
X44450000Y-94996000D03*
%TD*%
D10*
%TO.C,R6*%
X84328000Y-75565000D03*
D11*
X94488000Y-75565000D03*
%TD*%
D14*
%TO.C,J1*%
X32385000Y-38085000D03*
D19*
X32385000Y-33005000D03*
%TD*%
D10*
%TO.C,R8*%
X50546000Y-38100000D03*
D11*
X60706000Y-38100000D03*
%TD*%
D12*
%TO.C,D3*%
X82804000Y-66040000D03*
D13*
X92964000Y-66040000D03*
%TD*%
D10*
%TO.C,C1*%
X97028000Y-80137000D03*
X92028000Y-80137000D03*
%TD*%
D16*
%TO.C,C6*%
X85344000Y-94020000D03*
D10*
X85344000Y-96520000D03*
%TD*%
%TO.C,C9*%
X84328000Y-35640000D03*
X84328000Y-40640000D03*
%TD*%
%TO.C,C3*%
X31536000Y-68072000D03*
X36536000Y-68072000D03*
%TD*%
D16*
%TO.C,U1*%
X91948000Y-84455000D03*
D11*
X91948000Y-86995000D03*
X91948000Y-89535000D03*
X91948000Y-92075000D03*
X99568000Y-92075000D03*
X99568000Y-89535000D03*
X99568000Y-86995000D03*
X99568000Y-84455000D03*
%TD*%
D14*
%TO.C,J4*%
X84074000Y-46736000D03*
D19*
X84074000Y-51816000D03*
%TD*%
D10*
%TO.C,R9*%
X59690000Y-46228000D03*
D11*
X59690000Y-56388000D03*
%TD*%
D10*
%TO.C,R15*%
X91440000Y-96012000D03*
D11*
X101600000Y-96012000D03*
%TD*%
D14*
%TO.C,J6*%
X54102000Y-108981000D03*
D19*
X54102000Y-114061000D03*
%TD*%
D16*
%TO.C,RN1*%
X89500000Y-106500000D03*
D11*
X92040000Y-106500000D03*
X94580000Y-106500000D03*
X97120000Y-106500000D03*
X99660000Y-106500000D03*
X102200000Y-106500000D03*
X104740000Y-106500000D03*
%TD*%
D10*
%TO.C,R4*%
X99568000Y-99568000D03*
D11*
X89408000Y-99568000D03*
%TD*%
D10*
%TO.C,R11*%
X106934000Y-79375000D03*
D11*
X106934000Y-89535000D03*
%TD*%
D10*
%TO.C,R5*%
X34290000Y-98806000D03*
D11*
X44450000Y-98806000D03*
%TD*%
D20*
%TO.C,SW4*%
X45000000Y-89500000D03*
D21*
X40000000Y-89500000D03*
X42500000Y-89500000D03*
D22*
X36900000Y-82000000D03*
X48100000Y-82000000D03*
D21*
X40000000Y-75000000D03*
X45000000Y-75000000D03*
%TD*%
D23*
%TO.C,RV1*%
X37700000Y-35000000D03*
X47300000Y-35000000D03*
D24*
X45000000Y-42500000D03*
D25*
X42500000Y-42500000D03*
X40000000Y-42500000D03*
%TD*%
D23*
%TO.C,RV2*%
X65200000Y-35000000D03*
X74800000Y-35000000D03*
D24*
X72500000Y-42500000D03*
D25*
X70000000Y-42500000D03*
X67500000Y-42500000D03*
%TD*%
D20*
%TO.C,SW1*%
X45000000Y-61500000D03*
D21*
X40000000Y-61500000D03*
X42500000Y-61500000D03*
D22*
X36900000Y-54000000D03*
X48100000Y-54000000D03*
D21*
X40000000Y-47000000D03*
X45000000Y-47000000D03*
%TD*%
D20*
%TO.C,SW2*%
X72500000Y-61500000D03*
D21*
X67500000Y-61500000D03*
X70000000Y-61500000D03*
D22*
X64400000Y-54000000D03*
X75600000Y-54000000D03*
D21*
X67500000Y-47000000D03*
X72500000Y-47000000D03*
%TD*%
D20*
%TO.C,SW3*%
X100000000Y-61500000D03*
D21*
X95000000Y-61500000D03*
X97500000Y-61500000D03*
D22*
X91900000Y-54000000D03*
X103100000Y-54000000D03*
D21*
X95000000Y-47000000D03*
X100000000Y-47000000D03*
%TD*%
D23*
%TO.C,RV3*%
X92700000Y-35000000D03*
X102300000Y-35000000D03*
D24*
X100000000Y-42500000D03*
D25*
X97500000Y-42500000D03*
X95000000Y-42500000D03*
%TD*%
D26*
%TO.C,U3*%
X54060000Y-67000000D03*
X54060000Y-97000000D03*
X107060000Y-67000000D03*
X107060000Y-97000000D03*
D14*
X54000000Y-90920000D03*
D19*
X54000000Y-88380000D03*
X54000000Y-85840000D03*
X54000000Y-83300000D03*
X54000000Y-80760000D03*
X54000000Y-78220000D03*
X54000000Y-75680000D03*
X54000000Y-73140000D03*
%TD*%
M02*
