%TF.GenerationSoftware,KiCad,Pcbnew,7.0.10*%
%TF.CreationDate,2024-03-12T16:09:29+01:00*%
%TF.ProjectId,DaisyPedal,44616973-7950-4656-9461-6c2e6b696361,1.0*%
%TF.SameCoordinates,Original*%
%TF.FileFunction,Legend,Top*%
%TF.FilePolarity,Positive*%
%FSLAX46Y46*%
G04 Gerber Fmt 4.6, Leading zero omitted, Abs format (unit mm)*
G04 Created by KiCad (PCBNEW 7.0.10) date 2024-03-12 16:09:29*
%MOMM*%
%LPD*%
G01*
G04 APERTURE LIST*
%ADD10C,0.200000*%
%ADD11C,0.150000*%
%ADD12C,0.400000*%
%ADD13C,0.120000*%
%ADD14C,0.100000*%
G04 APERTURE END LIST*
D10*
X86862266Y-51954421D02*
X86862266Y-51192517D01*
X86243219Y-49763945D02*
X86243219Y-49573469D01*
X86243219Y-49573469D02*
X86290838Y-49478231D01*
X86290838Y-49478231D02*
X86386076Y-49382993D01*
X86386076Y-49382993D02*
X86576552Y-49335374D01*
X86576552Y-49335374D02*
X86909885Y-49335374D01*
X86909885Y-49335374D02*
X87100361Y-49382993D01*
X87100361Y-49382993D02*
X87195600Y-49478231D01*
X87195600Y-49478231D02*
X87243219Y-49573469D01*
X87243219Y-49573469D02*
X87243219Y-49763945D01*
X87243219Y-49763945D02*
X87195600Y-49859183D01*
X87195600Y-49859183D02*
X87100361Y-49954421D01*
X87100361Y-49954421D02*
X86909885Y-50002040D01*
X86909885Y-50002040D02*
X86576552Y-50002040D01*
X86576552Y-50002040D02*
X86386076Y-49954421D01*
X86386076Y-49954421D02*
X86290838Y-49859183D01*
X86290838Y-49859183D02*
X86243219Y-49763945D01*
X86576552Y-48478231D02*
X87243219Y-48478231D01*
X86576552Y-48906802D02*
X87100361Y-48906802D01*
X87100361Y-48906802D02*
X87195600Y-48859183D01*
X87195600Y-48859183D02*
X87243219Y-48763945D01*
X87243219Y-48763945D02*
X87243219Y-48621088D01*
X87243219Y-48621088D02*
X87195600Y-48525850D01*
X87195600Y-48525850D02*
X87147980Y-48478231D01*
X86576552Y-48144897D02*
X86576552Y-47763945D01*
X86243219Y-48002040D02*
X87100361Y-48002040D01*
X87100361Y-48002040D02*
X87195600Y-47954421D01*
X87195600Y-47954421D02*
X87243219Y-47859183D01*
X87243219Y-47859183D02*
X87243219Y-47763945D01*
X86862266Y-46668706D02*
X86862266Y-45906802D01*
X87243219Y-46287754D02*
X86481314Y-46287754D01*
X51169673Y-35554266D02*
X51931578Y-35554266D01*
X53169673Y-35935219D02*
X53169673Y-34935219D01*
X53169673Y-34935219D02*
X53503006Y-35649504D01*
X53503006Y-35649504D02*
X53836339Y-34935219D01*
X53836339Y-34935219D02*
X53836339Y-35935219D01*
X54312530Y-35935219D02*
X54312530Y-34935219D01*
X54788720Y-35935219D02*
X54788720Y-34935219D01*
X54788720Y-34935219D02*
X55026815Y-34935219D01*
X55026815Y-34935219D02*
X55169672Y-34982838D01*
X55169672Y-34982838D02*
X55264910Y-35078076D01*
X55264910Y-35078076D02*
X55312529Y-35173314D01*
X55312529Y-35173314D02*
X55360148Y-35363790D01*
X55360148Y-35363790D02*
X55360148Y-35506647D01*
X55360148Y-35506647D02*
X55312529Y-35697123D01*
X55312529Y-35697123D02*
X55264910Y-35792361D01*
X55264910Y-35792361D02*
X55169672Y-35887600D01*
X55169672Y-35887600D02*
X55026815Y-35935219D01*
X55026815Y-35935219D02*
X54788720Y-35935219D01*
X55788720Y-35935219D02*
X55788720Y-34935219D01*
X57026815Y-35935219D02*
X57026815Y-34935219D01*
X57503005Y-35268552D02*
X57503005Y-35935219D01*
X57503005Y-35363790D02*
X57550624Y-35316171D01*
X57550624Y-35316171D02*
X57645862Y-35268552D01*
X57645862Y-35268552D02*
X57788719Y-35268552D01*
X57788719Y-35268552D02*
X57883957Y-35316171D01*
X57883957Y-35316171D02*
X57931576Y-35411409D01*
X57931576Y-35411409D02*
X57931576Y-35935219D01*
X59169672Y-35554266D02*
X59931577Y-35554266D01*
X59550624Y-35935219D02*
X59550624Y-35173314D01*
X51810266Y-53732421D02*
X51810266Y-52970517D01*
X52191219Y-51732421D02*
X51191219Y-51732421D01*
X51524552Y-51256231D02*
X52191219Y-51256231D01*
X51619790Y-51256231D02*
X51572171Y-51208612D01*
X51572171Y-51208612D02*
X51524552Y-51113374D01*
X51524552Y-51113374D02*
X51524552Y-50970517D01*
X51524552Y-50970517D02*
X51572171Y-50875279D01*
X51572171Y-50875279D02*
X51667409Y-50827660D01*
X51667409Y-50827660D02*
X52191219Y-50827660D01*
X51524552Y-50351469D02*
X52524552Y-50351469D01*
X51572171Y-50351469D02*
X51524552Y-50256231D01*
X51524552Y-50256231D02*
X51524552Y-50065755D01*
X51524552Y-50065755D02*
X51572171Y-49970517D01*
X51572171Y-49970517D02*
X51619790Y-49922898D01*
X51619790Y-49922898D02*
X51715028Y-49875279D01*
X51715028Y-49875279D02*
X52000742Y-49875279D01*
X52000742Y-49875279D02*
X52095980Y-49922898D01*
X52095980Y-49922898D02*
X52143600Y-49970517D01*
X52143600Y-49970517D02*
X52191219Y-50065755D01*
X52191219Y-50065755D02*
X52191219Y-50256231D01*
X52191219Y-50256231D02*
X52143600Y-50351469D01*
X51524552Y-49018136D02*
X52191219Y-49018136D01*
X51524552Y-49446707D02*
X52048361Y-49446707D01*
X52048361Y-49446707D02*
X52143600Y-49399088D01*
X52143600Y-49399088D02*
X52191219Y-49303850D01*
X52191219Y-49303850D02*
X52191219Y-49160993D01*
X52191219Y-49160993D02*
X52143600Y-49065755D01*
X52143600Y-49065755D02*
X52095980Y-49018136D01*
X51524552Y-48684802D02*
X51524552Y-48303850D01*
X51191219Y-48541945D02*
X52048361Y-48541945D01*
X52048361Y-48541945D02*
X52143600Y-48494326D01*
X52143600Y-48494326D02*
X52191219Y-48399088D01*
X52191219Y-48399088D02*
X52191219Y-48303850D01*
X51810266Y-47208611D02*
X51810266Y-46446707D01*
X52191219Y-46827659D02*
X51429314Y-46827659D01*
D11*
X94380207Y-114582580D02*
X94332588Y-114630200D01*
X94332588Y-114630200D02*
X94189731Y-114677819D01*
X94189731Y-114677819D02*
X94094493Y-114677819D01*
X94094493Y-114677819D02*
X93951636Y-114630200D01*
X93951636Y-114630200D02*
X93856398Y-114534961D01*
X93856398Y-114534961D02*
X93808779Y-114439723D01*
X93808779Y-114439723D02*
X93761160Y-114249247D01*
X93761160Y-114249247D02*
X93761160Y-114106390D01*
X93761160Y-114106390D02*
X93808779Y-113915914D01*
X93808779Y-113915914D02*
X93856398Y-113820676D01*
X93856398Y-113820676D02*
X93951636Y-113725438D01*
X93951636Y-113725438D02*
X94094493Y-113677819D01*
X94094493Y-113677819D02*
X94189731Y-113677819D01*
X94189731Y-113677819D02*
X94332588Y-113725438D01*
X94332588Y-113725438D02*
X94380207Y-113773057D01*
X95237350Y-114677819D02*
X95237350Y-114154009D01*
X95237350Y-114154009D02*
X95189731Y-114058771D01*
X95189731Y-114058771D02*
X95094493Y-114011152D01*
X95094493Y-114011152D02*
X94904017Y-114011152D01*
X94904017Y-114011152D02*
X94808779Y-114058771D01*
X95237350Y-114630200D02*
X95142112Y-114677819D01*
X95142112Y-114677819D02*
X94904017Y-114677819D01*
X94904017Y-114677819D02*
X94808779Y-114630200D01*
X94808779Y-114630200D02*
X94761160Y-114534961D01*
X94761160Y-114534961D02*
X94761160Y-114439723D01*
X94761160Y-114439723D02*
X94808779Y-114344485D01*
X94808779Y-114344485D02*
X94904017Y-114296866D01*
X94904017Y-114296866D02*
X95142112Y-114296866D01*
X95142112Y-114296866D02*
X95237350Y-114249247D01*
X95713541Y-114677819D02*
X95713541Y-114011152D01*
X95713541Y-114201628D02*
X95761160Y-114106390D01*
X95761160Y-114106390D02*
X95808779Y-114058771D01*
X95808779Y-114058771D02*
X95904017Y-114011152D01*
X95904017Y-114011152D02*
X95999255Y-114011152D01*
X96189732Y-114011152D02*
X96570684Y-114011152D01*
X96332589Y-113677819D02*
X96332589Y-114534961D01*
X96332589Y-114534961D02*
X96380208Y-114630200D01*
X96380208Y-114630200D02*
X96475446Y-114677819D01*
X96475446Y-114677819D02*
X96570684Y-114677819D01*
X97284970Y-114630200D02*
X97189732Y-114677819D01*
X97189732Y-114677819D02*
X96999256Y-114677819D01*
X96999256Y-114677819D02*
X96904018Y-114630200D01*
X96904018Y-114630200D02*
X96856399Y-114534961D01*
X96856399Y-114534961D02*
X96856399Y-114154009D01*
X96856399Y-114154009D02*
X96904018Y-114058771D01*
X96904018Y-114058771D02*
X96999256Y-114011152D01*
X96999256Y-114011152D02*
X97189732Y-114011152D01*
X97189732Y-114011152D02*
X97284970Y-114058771D01*
X97284970Y-114058771D02*
X97332589Y-114154009D01*
X97332589Y-114154009D02*
X97332589Y-114249247D01*
X97332589Y-114249247D02*
X96856399Y-114344485D01*
X98475447Y-114630200D02*
X98618304Y-114677819D01*
X98618304Y-114677819D02*
X98856399Y-114677819D01*
X98856399Y-114677819D02*
X98951637Y-114630200D01*
X98951637Y-114630200D02*
X98999256Y-114582580D01*
X98999256Y-114582580D02*
X99046875Y-114487342D01*
X99046875Y-114487342D02*
X99046875Y-114392104D01*
X99046875Y-114392104D02*
X98999256Y-114296866D01*
X98999256Y-114296866D02*
X98951637Y-114249247D01*
X98951637Y-114249247D02*
X98856399Y-114201628D01*
X98856399Y-114201628D02*
X98665923Y-114154009D01*
X98665923Y-114154009D02*
X98570685Y-114106390D01*
X98570685Y-114106390D02*
X98523066Y-114058771D01*
X98523066Y-114058771D02*
X98475447Y-113963533D01*
X98475447Y-113963533D02*
X98475447Y-113868295D01*
X98475447Y-113868295D02*
X98523066Y-113773057D01*
X98523066Y-113773057D02*
X98570685Y-113725438D01*
X98570685Y-113725438D02*
X98665923Y-113677819D01*
X98665923Y-113677819D02*
X98904018Y-113677819D01*
X98904018Y-113677819D02*
X99046875Y-113725438D01*
X99475447Y-114677819D02*
X99475447Y-113677819D01*
X99475447Y-113677819D02*
X99713542Y-113677819D01*
X99713542Y-113677819D02*
X99856399Y-113725438D01*
X99856399Y-113725438D02*
X99951637Y-113820676D01*
X99951637Y-113820676D02*
X99999256Y-113915914D01*
X99999256Y-113915914D02*
X100046875Y-114106390D01*
X100046875Y-114106390D02*
X100046875Y-114249247D01*
X100046875Y-114249247D02*
X99999256Y-114439723D01*
X99999256Y-114439723D02*
X99951637Y-114534961D01*
X99951637Y-114534961D02*
X99856399Y-114630200D01*
X99856399Y-114630200D02*
X99713542Y-114677819D01*
X99713542Y-114677819D02*
X99475447Y-114677819D01*
D10*
X35046266Y-40270326D02*
X35046266Y-39508422D01*
X35427219Y-39889374D02*
X34665314Y-39889374D01*
X35141504Y-38317945D02*
X35141504Y-37841755D01*
X35427219Y-38413183D02*
X34427219Y-38079850D01*
X34427219Y-38079850D02*
X35427219Y-37746517D01*
X35427219Y-37270326D02*
X35379600Y-37365564D01*
X35379600Y-37365564D02*
X35284361Y-37413183D01*
X35284361Y-37413183D02*
X34427219Y-37413183D01*
X35427219Y-36889373D02*
X34760552Y-36889373D01*
X34427219Y-36889373D02*
X34474838Y-36936992D01*
X34474838Y-36936992D02*
X34522457Y-36889373D01*
X34522457Y-36889373D02*
X34474838Y-36841754D01*
X34474838Y-36841754D02*
X34427219Y-36889373D01*
X34427219Y-36889373D02*
X34522457Y-36889373D01*
X35427219Y-36413183D02*
X34760552Y-36413183D01*
X34855790Y-36413183D02*
X34808171Y-36365564D01*
X34808171Y-36365564D02*
X34760552Y-36270326D01*
X34760552Y-36270326D02*
X34760552Y-36127469D01*
X34760552Y-36127469D02*
X34808171Y-36032231D01*
X34808171Y-36032231D02*
X34903409Y-35984612D01*
X34903409Y-35984612D02*
X35427219Y-35984612D01*
X34903409Y-35984612D02*
X34808171Y-35936993D01*
X34808171Y-35936993D02*
X34760552Y-35841755D01*
X34760552Y-35841755D02*
X34760552Y-35698898D01*
X34760552Y-35698898D02*
X34808171Y-35603659D01*
X34808171Y-35603659D02*
X34903409Y-35556040D01*
X34903409Y-35556040D02*
X35427219Y-35556040D01*
X35427219Y-34270326D02*
X35427219Y-34079850D01*
X35427219Y-34079850D02*
X35379600Y-33984612D01*
X35379600Y-33984612D02*
X35331980Y-33936993D01*
X35331980Y-33936993D02*
X35189123Y-33841755D01*
X35189123Y-33841755D02*
X34998647Y-33794136D01*
X34998647Y-33794136D02*
X34617695Y-33794136D01*
X34617695Y-33794136D02*
X34522457Y-33841755D01*
X34522457Y-33841755D02*
X34474838Y-33889374D01*
X34474838Y-33889374D02*
X34427219Y-33984612D01*
X34427219Y-33984612D02*
X34427219Y-34175088D01*
X34427219Y-34175088D02*
X34474838Y-34270326D01*
X34474838Y-34270326D02*
X34522457Y-34317945D01*
X34522457Y-34317945D02*
X34617695Y-34365564D01*
X34617695Y-34365564D02*
X34855790Y-34365564D01*
X34855790Y-34365564D02*
X34951028Y-34317945D01*
X34951028Y-34317945D02*
X34998647Y-34270326D01*
X34998647Y-34270326D02*
X35046266Y-34175088D01*
X35046266Y-34175088D02*
X35046266Y-33984612D01*
X35046266Y-33984612D02*
X34998647Y-33889374D01*
X34998647Y-33889374D02*
X34951028Y-33841755D01*
X34951028Y-33841755D02*
X34855790Y-33794136D01*
X34427219Y-33508421D02*
X35427219Y-33175088D01*
X35427219Y-33175088D02*
X34427219Y-32841755D01*
X35046266Y-31746516D02*
X35046266Y-30984612D01*
X61319409Y-113596993D02*
X61319409Y-113930326D01*
X61843219Y-113930326D02*
X60843219Y-113930326D01*
X60843219Y-113930326D02*
X60843219Y-113454136D01*
X61843219Y-112930326D02*
X61795600Y-113025564D01*
X61795600Y-113025564D02*
X61747980Y-113073183D01*
X61747980Y-113073183D02*
X61652742Y-113120802D01*
X61652742Y-113120802D02*
X61367028Y-113120802D01*
X61367028Y-113120802D02*
X61271790Y-113073183D01*
X61271790Y-113073183D02*
X61224171Y-113025564D01*
X61224171Y-113025564D02*
X61176552Y-112930326D01*
X61176552Y-112930326D02*
X61176552Y-112787469D01*
X61176552Y-112787469D02*
X61224171Y-112692231D01*
X61224171Y-112692231D02*
X61271790Y-112644612D01*
X61271790Y-112644612D02*
X61367028Y-112596993D01*
X61367028Y-112596993D02*
X61652742Y-112596993D01*
X61652742Y-112596993D02*
X61747980Y-112644612D01*
X61747980Y-112644612D02*
X61795600Y-112692231D01*
X61795600Y-112692231D02*
X61843219Y-112787469D01*
X61843219Y-112787469D02*
X61843219Y-112930326D01*
X61843219Y-112025564D02*
X61795600Y-112120802D01*
X61795600Y-112120802D02*
X61747980Y-112168421D01*
X61747980Y-112168421D02*
X61652742Y-112216040D01*
X61652742Y-112216040D02*
X61367028Y-112216040D01*
X61367028Y-112216040D02*
X61271790Y-112168421D01*
X61271790Y-112168421D02*
X61224171Y-112120802D01*
X61224171Y-112120802D02*
X61176552Y-112025564D01*
X61176552Y-112025564D02*
X61176552Y-111882707D01*
X61176552Y-111882707D02*
X61224171Y-111787469D01*
X61224171Y-111787469D02*
X61271790Y-111739850D01*
X61271790Y-111739850D02*
X61367028Y-111692231D01*
X61367028Y-111692231D02*
X61652742Y-111692231D01*
X61652742Y-111692231D02*
X61747980Y-111739850D01*
X61747980Y-111739850D02*
X61795600Y-111787469D01*
X61795600Y-111787469D02*
X61843219Y-111882707D01*
X61843219Y-111882707D02*
X61843219Y-112025564D01*
X61176552Y-111406516D02*
X61176552Y-111025564D01*
X60843219Y-111263659D02*
X61700361Y-111263659D01*
X61700361Y-111263659D02*
X61795600Y-111216040D01*
X61795600Y-111216040D02*
X61843219Y-111120802D01*
X61843219Y-111120802D02*
X61843219Y-111025564D01*
X61795600Y-110739849D02*
X61843219Y-110644611D01*
X61843219Y-110644611D02*
X61843219Y-110454135D01*
X61843219Y-110454135D02*
X61795600Y-110358897D01*
X61795600Y-110358897D02*
X61700361Y-110311278D01*
X61700361Y-110311278D02*
X61652742Y-110311278D01*
X61652742Y-110311278D02*
X61557504Y-110358897D01*
X61557504Y-110358897D02*
X61509885Y-110454135D01*
X61509885Y-110454135D02*
X61509885Y-110596992D01*
X61509885Y-110596992D02*
X61462266Y-110692230D01*
X61462266Y-110692230D02*
X61367028Y-110739849D01*
X61367028Y-110739849D02*
X61319409Y-110739849D01*
X61319409Y-110739849D02*
X61224171Y-110692230D01*
X61224171Y-110692230D02*
X61176552Y-110596992D01*
X61176552Y-110596992D02*
X61176552Y-110454135D01*
X61176552Y-110454135D02*
X61224171Y-110358897D01*
X61176552Y-109977944D02*
X61843219Y-109787468D01*
X61843219Y-109787468D02*
X61367028Y-109596992D01*
X61367028Y-109596992D02*
X61843219Y-109406516D01*
X61843219Y-109406516D02*
X61176552Y-109216040D01*
X61843219Y-108835087D02*
X61176552Y-108835087D01*
X60843219Y-108835087D02*
X60890838Y-108882706D01*
X60890838Y-108882706D02*
X60938457Y-108835087D01*
X60938457Y-108835087D02*
X60890838Y-108787468D01*
X60890838Y-108787468D02*
X60843219Y-108835087D01*
X60843219Y-108835087D02*
X60938457Y-108835087D01*
X61176552Y-108501754D02*
X61176552Y-108120802D01*
X60843219Y-108358897D02*
X61700361Y-108358897D01*
X61700361Y-108358897D02*
X61795600Y-108311278D01*
X61795600Y-108311278D02*
X61843219Y-108216040D01*
X61843219Y-108216040D02*
X61843219Y-108120802D01*
X61795600Y-107358897D02*
X61843219Y-107454135D01*
X61843219Y-107454135D02*
X61843219Y-107644611D01*
X61843219Y-107644611D02*
X61795600Y-107739849D01*
X61795600Y-107739849D02*
X61747980Y-107787468D01*
X61747980Y-107787468D02*
X61652742Y-107835087D01*
X61652742Y-107835087D02*
X61367028Y-107835087D01*
X61367028Y-107835087D02*
X61271790Y-107787468D01*
X61271790Y-107787468D02*
X61224171Y-107739849D01*
X61224171Y-107739849D02*
X61176552Y-107644611D01*
X61176552Y-107644611D02*
X61176552Y-107454135D01*
X61176552Y-107454135D02*
X61224171Y-107358897D01*
X61843219Y-106930325D02*
X60843219Y-106930325D01*
X61843219Y-106501754D02*
X61319409Y-106501754D01*
X61319409Y-106501754D02*
X61224171Y-106549373D01*
X61224171Y-106549373D02*
X61176552Y-106644611D01*
X61176552Y-106644611D02*
X61176552Y-106787468D01*
X61176552Y-106787468D02*
X61224171Y-106882706D01*
X61224171Y-106882706D02*
X61271790Y-106930325D01*
X60938457Y-105311277D02*
X60890838Y-105263658D01*
X60890838Y-105263658D02*
X60843219Y-105168420D01*
X60843219Y-105168420D02*
X60843219Y-104930325D01*
X60843219Y-104930325D02*
X60890838Y-104835087D01*
X60890838Y-104835087D02*
X60938457Y-104787468D01*
X60938457Y-104787468D02*
X61033695Y-104739849D01*
X61033695Y-104739849D02*
X61128933Y-104739849D01*
X61128933Y-104739849D02*
X61271790Y-104787468D01*
X61271790Y-104787468D02*
X61843219Y-105358896D01*
X61843219Y-105358896D02*
X61843219Y-104739849D01*
G36*
X59764378Y-94984314D02*
G01*
X59882908Y-95043579D01*
X59997597Y-95158268D01*
X60056428Y-95334761D01*
X60056428Y-95575679D01*
X58756428Y-95575679D01*
X58756428Y-95334763D01*
X58815259Y-95158269D01*
X58929948Y-95043579D01*
X59048476Y-94984314D01*
X59311594Y-94918536D01*
X59501262Y-94918536D01*
X59764378Y-94984314D01*
G37*
G36*
X60056428Y-92984999D02*
G01*
X60056428Y-93223500D01*
X60002814Y-93330727D01*
X59954334Y-93379207D01*
X59847107Y-93432821D01*
X59465749Y-93432821D01*
X59358520Y-93379207D01*
X59310044Y-93330730D01*
X59256428Y-93223498D01*
X59256428Y-92985001D01*
X59289661Y-92918536D01*
X60023196Y-92918536D01*
X60056428Y-92984999D01*
G37*
G36*
X60056428Y-90056427D02*
G01*
X60056428Y-90366357D01*
X60010464Y-90458285D01*
X59918535Y-90504249D01*
X59822892Y-90504249D01*
X59730963Y-90458285D01*
X59685000Y-90366357D01*
X59685000Y-90032821D01*
X59677876Y-90010897D01*
X59674724Y-89989964D01*
X60023196Y-89989964D01*
X60056428Y-90056427D01*
G37*
G36*
X59534448Y-84147106D02*
G01*
X59394321Y-84147106D01*
X59302393Y-84101142D01*
X59256428Y-84009212D01*
X59256428Y-83770714D01*
X59302393Y-83678784D01*
X59394321Y-83632821D01*
X59431591Y-83632821D01*
X59534448Y-84147106D01*
G37*
G36*
X59240048Y-78900720D02*
G01*
X59288528Y-78949200D01*
X59342142Y-79056427D01*
X59342142Y-79504250D01*
X58756428Y-79504250D01*
X58756428Y-79056429D01*
X58810044Y-78949197D01*
X58858520Y-78900720D01*
X58965749Y-78847107D01*
X59132821Y-78847107D01*
X59240048Y-78900720D01*
G37*
G36*
X59534448Y-78075678D02*
G01*
X59394321Y-78075678D01*
X59302393Y-78029714D01*
X59256428Y-77937784D01*
X59256428Y-77699286D01*
X59302393Y-77607356D01*
X59394321Y-77561393D01*
X59431591Y-77561393D01*
X59534448Y-78075678D01*
G37*
G36*
X60056428Y-76342142D02*
G01*
X60056428Y-76580643D01*
X60002814Y-76687870D01*
X59954334Y-76736350D01*
X59847107Y-76789964D01*
X59465749Y-76789964D01*
X59358520Y-76736350D01*
X59310044Y-76687873D01*
X59256428Y-76580641D01*
X59256428Y-76342144D01*
X59289661Y-76275679D01*
X60023196Y-76275679D01*
X60056428Y-76342142D01*
G37*
G36*
X60056428Y-74984999D02*
G01*
X60056428Y-75294929D01*
X60010464Y-75386857D01*
X59918535Y-75432821D01*
X59822892Y-75432821D01*
X59730963Y-75386857D01*
X59685000Y-75294929D01*
X59685000Y-74961393D01*
X59677876Y-74939469D01*
X59674724Y-74918536D01*
X60023196Y-74918536D01*
X60056428Y-74984999D01*
G37*
G36*
X59835807Y-68127172D02*
G01*
X59954337Y-68186438D01*
X60002814Y-68234914D01*
X60056428Y-68342142D01*
X60056428Y-68437786D01*
X60002813Y-68545015D01*
X59954337Y-68593491D01*
X59835807Y-68652757D01*
X59572691Y-68718536D01*
X59240166Y-68718536D01*
X58977047Y-68652757D01*
X58858519Y-68593492D01*
X58810042Y-68545014D01*
X58756428Y-68437786D01*
X58756428Y-68342144D01*
X58810043Y-68234914D01*
X58858519Y-68186437D01*
X58977046Y-68127173D01*
X59240166Y-68061393D01*
X59572690Y-68061393D01*
X59835807Y-68127172D01*
G37*
G36*
X60970714Y-95989965D02*
G01*
X58342142Y-95989965D01*
X58342142Y-95675679D01*
X58556428Y-95675679D01*
X58561322Y-95690741D01*
X58561322Y-95706581D01*
X58570631Y-95719394D01*
X58575526Y-95734458D01*
X58588339Y-95743767D01*
X58597649Y-95756581D01*
X58612712Y-95761475D01*
X58625526Y-95770785D01*
X58641365Y-95770785D01*
X58656428Y-95775679D01*
X60156428Y-95775679D01*
X60171491Y-95770785D01*
X60187330Y-95770785D01*
X60200143Y-95761475D01*
X60215207Y-95756581D01*
X60224516Y-95743767D01*
X60237330Y-95734458D01*
X60242224Y-95719394D01*
X60251534Y-95706581D01*
X60251534Y-95690741D01*
X60256428Y-95675679D01*
X60256428Y-95318536D01*
X60251419Y-95303120D01*
X60251296Y-95286913D01*
X60179868Y-95072627D01*
X60166175Y-95054078D01*
X60155710Y-95033539D01*
X60012852Y-94890682D01*
X59998411Y-94883324D01*
X59986863Y-94871950D01*
X59844007Y-94800521D01*
X59832984Y-94798860D01*
X59823538Y-94792950D01*
X59537824Y-94721522D01*
X59525408Y-94722382D01*
X59513571Y-94718536D01*
X59299285Y-94718536D01*
X59287447Y-94722382D01*
X59275031Y-94721522D01*
X58989318Y-94792950D01*
X58979871Y-94798860D01*
X58968849Y-94800521D01*
X58825992Y-94871950D01*
X58814442Y-94883325D01*
X58800003Y-94890683D01*
X58657146Y-95033539D01*
X58646679Y-95054080D01*
X58632989Y-95072627D01*
X58561560Y-95286913D01*
X58561436Y-95303120D01*
X58556428Y-95318536D01*
X58556428Y-95675679D01*
X58342142Y-95675679D01*
X58342142Y-94191323D01*
X58557659Y-94191323D01*
X58561322Y-94198511D01*
X58561322Y-94206581D01*
X58566064Y-94213108D01*
X58567327Y-94221078D01*
X58578527Y-94232278D01*
X58585718Y-94246390D01*
X58657147Y-94317818D01*
X58671257Y-94325007D01*
X58682458Y-94336208D01*
X58698102Y-94338685D01*
X58712214Y-94345876D01*
X58727857Y-94343398D01*
X58743500Y-94345876D01*
X58757611Y-94338685D01*
X58773257Y-94336208D01*
X58784456Y-94325008D01*
X58798568Y-94317818D01*
X58869995Y-94246390D01*
X58877184Y-94232279D01*
X58888386Y-94221079D01*
X58889648Y-94213108D01*
X58894391Y-94206581D01*
X59061322Y-94206581D01*
X59097649Y-94256581D01*
X59156428Y-94275679D01*
X60156428Y-94275679D01*
X60215207Y-94256581D01*
X60251534Y-94206581D01*
X60251534Y-94144777D01*
X60215207Y-94094777D01*
X60156428Y-94075679D01*
X59156428Y-94075679D01*
X59097649Y-94094777D01*
X59061322Y-94144777D01*
X59061322Y-94206581D01*
X58894391Y-94206581D01*
X58894391Y-94198511D01*
X58898054Y-94191323D01*
X58895576Y-94175679D01*
X58898054Y-94160036D01*
X58894391Y-94152846D01*
X58894391Y-94144777D01*
X58889648Y-94138248D01*
X58888386Y-94130280D01*
X58877185Y-94119079D01*
X58869996Y-94104969D01*
X58798568Y-94033540D01*
X58784456Y-94026349D01*
X58773256Y-94015149D01*
X58757612Y-94012671D01*
X58743501Y-94005481D01*
X58727857Y-94007958D01*
X58712214Y-94005481D01*
X58698101Y-94012671D01*
X58682459Y-94015149D01*
X58671259Y-94026347D01*
X58657146Y-94033539D01*
X58585717Y-94104968D01*
X58578525Y-94119081D01*
X58567327Y-94130281D01*
X58566065Y-94138248D01*
X58561322Y-94144777D01*
X58561322Y-94152846D01*
X58557659Y-94160036D01*
X58560136Y-94175679D01*
X58557659Y-94191323D01*
X58342142Y-94191323D01*
X58342142Y-93247107D01*
X59056428Y-93247107D01*
X59063551Y-93269030D01*
X59066985Y-93291829D01*
X59138414Y-93434685D01*
X59149788Y-93446233D01*
X59157146Y-93460674D01*
X59228574Y-93532103D01*
X59243015Y-93539461D01*
X59254564Y-93550836D01*
X59397421Y-93622264D01*
X59420218Y-93625697D01*
X59442142Y-93632821D01*
X59870714Y-93632821D01*
X59892637Y-93625697D01*
X59915435Y-93622264D01*
X60058292Y-93550836D01*
X60069839Y-93539462D01*
X60084282Y-93532104D01*
X60155711Y-93460675D01*
X60163069Y-93446232D01*
X60174443Y-93434685D01*
X60245871Y-93291828D01*
X60249304Y-93269030D01*
X60256428Y-93247107D01*
X60256428Y-92961393D01*
X60249304Y-92939469D01*
X60246152Y-92918536D01*
X60347107Y-92918536D01*
X60454334Y-92972149D01*
X60502814Y-93020629D01*
X60556428Y-93127856D01*
X60556428Y-93294929D01*
X60495557Y-93416672D01*
X60486352Y-93477786D01*
X60514828Y-93532639D01*
X60570107Y-93560278D01*
X60631074Y-93550147D01*
X60674443Y-93506114D01*
X60745871Y-93363257D01*
X60749304Y-93340459D01*
X60756428Y-93318536D01*
X60756428Y-93104250D01*
X60749304Y-93082326D01*
X60745871Y-93059529D01*
X60674443Y-92916672D01*
X60663069Y-92905124D01*
X60655711Y-92890682D01*
X60584282Y-92819253D01*
X60569839Y-92811894D01*
X60558292Y-92800521D01*
X60415435Y-92729093D01*
X60392637Y-92725659D01*
X60370714Y-92718536D01*
X59156428Y-92718536D01*
X59097649Y-92737634D01*
X59061322Y-92787634D01*
X59061322Y-92849438D01*
X59084589Y-92881462D01*
X59066985Y-92916671D01*
X59063551Y-92939469D01*
X59056428Y-92961393D01*
X59056428Y-93247107D01*
X58342142Y-93247107D01*
X58342142Y-92119894D01*
X58557659Y-92119894D01*
X58561322Y-92127082D01*
X58561322Y-92135152D01*
X58566064Y-92141679D01*
X58567327Y-92149649D01*
X58578527Y-92160849D01*
X58585718Y-92174961D01*
X58657147Y-92246389D01*
X58671257Y-92253578D01*
X58682458Y-92264779D01*
X58698102Y-92267256D01*
X58712214Y-92274447D01*
X58727857Y-92271969D01*
X58743500Y-92274447D01*
X58757611Y-92267256D01*
X58773257Y-92264779D01*
X58784456Y-92253579D01*
X58798568Y-92246389D01*
X58869995Y-92174961D01*
X58877184Y-92160850D01*
X58888386Y-92149650D01*
X58889648Y-92141679D01*
X58894391Y-92135152D01*
X59061322Y-92135152D01*
X59097649Y-92185152D01*
X59156428Y-92204250D01*
X60156428Y-92204250D01*
X60215207Y-92185152D01*
X60251534Y-92135152D01*
X60251534Y-92073348D01*
X60215207Y-92023348D01*
X60156428Y-92004250D01*
X59156428Y-92004250D01*
X59097649Y-92023348D01*
X59061322Y-92073348D01*
X59061322Y-92135152D01*
X58894391Y-92135152D01*
X58894391Y-92127082D01*
X58898054Y-92119894D01*
X58895576Y-92104250D01*
X58898054Y-92088607D01*
X58894391Y-92081417D01*
X58894391Y-92073348D01*
X58889648Y-92066819D01*
X58888386Y-92058851D01*
X58877185Y-92047650D01*
X58869996Y-92033540D01*
X58798568Y-91962111D01*
X58784456Y-91954920D01*
X58773256Y-91943720D01*
X58757612Y-91941242D01*
X58743501Y-91934052D01*
X58727857Y-91936529D01*
X58712214Y-91934052D01*
X58698101Y-91941242D01*
X58682459Y-91943720D01*
X58671259Y-91954918D01*
X58657146Y-91962110D01*
X58585717Y-92033539D01*
X58578525Y-92047652D01*
X58567327Y-92058852D01*
X58566065Y-92066819D01*
X58561322Y-92073348D01*
X58561322Y-92081417D01*
X58557659Y-92088607D01*
X58560136Y-92104250D01*
X58557659Y-92119894D01*
X58342142Y-92119894D01*
X58342142Y-91420866D01*
X58561322Y-91420866D01*
X58597649Y-91470866D01*
X58656428Y-91489964D01*
X59056428Y-91489964D01*
X59056428Y-91604249D01*
X59075526Y-91663028D01*
X59125526Y-91699355D01*
X59187330Y-91699355D01*
X59237330Y-91663028D01*
X59256428Y-91604249D01*
X59256428Y-91489964D01*
X59942142Y-91489964D01*
X59964065Y-91482840D01*
X59986863Y-91479407D01*
X60129721Y-91407978D01*
X60130287Y-91407419D01*
X60131074Y-91407289D01*
X60152251Y-91385786D01*
X60173754Y-91364609D01*
X60173884Y-91363822D01*
X60174443Y-91363256D01*
X60245871Y-91220399D01*
X60249304Y-91197601D01*
X60256428Y-91175678D01*
X60256428Y-91032821D01*
X60237330Y-90974042D01*
X60187330Y-90937715D01*
X60125526Y-90937715D01*
X60075526Y-90974042D01*
X60056428Y-91032821D01*
X60056428Y-91152071D01*
X60010464Y-91243999D01*
X59918535Y-91289964D01*
X59256428Y-91289964D01*
X59256428Y-91032821D01*
X59237330Y-90974042D01*
X59187330Y-90937715D01*
X59125526Y-90937715D01*
X59075526Y-90974042D01*
X59056428Y-91032821D01*
X59056428Y-91289964D01*
X58656428Y-91289964D01*
X58597649Y-91309062D01*
X58561322Y-91359062D01*
X58561322Y-91420866D01*
X58342142Y-91420866D01*
X58342142Y-90389964D01*
X59056428Y-90389964D01*
X59063551Y-90411887D01*
X59066985Y-90434686D01*
X59138414Y-90577542D01*
X59181783Y-90621575D01*
X59242750Y-90631706D01*
X59298029Y-90604066D01*
X59326505Y-90549214D01*
X59317300Y-90488099D01*
X59256428Y-90366355D01*
X59256428Y-90127857D01*
X59302393Y-90035927D01*
X59394321Y-89989964D01*
X59451767Y-89989964D01*
X59485000Y-90056428D01*
X59485000Y-90389964D01*
X59492123Y-90411887D01*
X59495557Y-90434685D01*
X59566985Y-90577542D01*
X59567543Y-90578108D01*
X59567674Y-90578895D01*
X59589176Y-90600072D01*
X59610354Y-90621575D01*
X59611140Y-90621705D01*
X59611707Y-90622264D01*
X59754564Y-90693692D01*
X59777361Y-90697125D01*
X59799285Y-90704249D01*
X59942142Y-90704249D01*
X59964065Y-90697125D01*
X59986863Y-90693692D01*
X60129721Y-90622264D01*
X60130287Y-90621705D01*
X60131074Y-90621575D01*
X60152235Y-90600089D01*
X60173754Y-90578896D01*
X60173884Y-90578108D01*
X60174443Y-90577542D01*
X60245871Y-90434685D01*
X60249304Y-90411887D01*
X60256428Y-90389964D01*
X60256428Y-90032821D01*
X60249304Y-90010897D01*
X60245871Y-89988100D01*
X60228266Y-89952890D01*
X60251534Y-89920866D01*
X60251534Y-89859062D01*
X60215207Y-89809062D01*
X60156428Y-89789964D01*
X59370714Y-89789964D01*
X59348790Y-89797087D01*
X59325993Y-89800521D01*
X59183136Y-89871949D01*
X59182569Y-89872507D01*
X59181783Y-89872638D01*
X59160605Y-89894140D01*
X59139103Y-89915318D01*
X59138972Y-89916104D01*
X59138414Y-89916671D01*
X59066985Y-90059527D01*
X59063551Y-90082325D01*
X59056428Y-90104249D01*
X59056428Y-90389964D01*
X58342142Y-90389964D01*
X58342142Y-89206580D01*
X58561322Y-89206580D01*
X58597649Y-89256580D01*
X58656428Y-89275678D01*
X59942142Y-89275678D01*
X59964065Y-89268554D01*
X59986863Y-89265121D01*
X60129721Y-89193692D01*
X60130287Y-89193133D01*
X60131074Y-89193003D01*
X60152251Y-89171500D01*
X60173754Y-89150323D01*
X60173884Y-89149536D01*
X60174443Y-89148970D01*
X60245871Y-89006113D01*
X60255076Y-88944998D01*
X60226600Y-88890146D01*
X60171321Y-88862507D01*
X60110354Y-88872638D01*
X60066985Y-88916671D01*
X60010464Y-89029713D01*
X59918535Y-89075678D01*
X58656428Y-89075678D01*
X58597649Y-89094776D01*
X58561322Y-89144776D01*
X58561322Y-89206580D01*
X58342142Y-89206580D01*
X58342142Y-87247107D01*
X58556428Y-87247107D01*
X58561322Y-87262169D01*
X58561322Y-87278009D01*
X58570631Y-87290822D01*
X58575526Y-87305886D01*
X58588339Y-87315195D01*
X58597649Y-87328009D01*
X58612712Y-87332903D01*
X58625526Y-87342213D01*
X58641365Y-87342213D01*
X58656428Y-87347107D01*
X60156428Y-87347107D01*
X60171491Y-87342213D01*
X60187330Y-87342213D01*
X60200143Y-87332903D01*
X60215207Y-87328009D01*
X60224516Y-87315195D01*
X60237330Y-87305886D01*
X60242224Y-87290822D01*
X60251534Y-87278009D01*
X60251534Y-87262169D01*
X60256428Y-87247107D01*
X60256428Y-86532821D01*
X60237330Y-86474042D01*
X60187330Y-86437715D01*
X60125526Y-86437715D01*
X60075526Y-86474042D01*
X60056428Y-86532821D01*
X60056428Y-87147107D01*
X59470714Y-87147107D01*
X59470714Y-86747107D01*
X59451616Y-86688328D01*
X59401616Y-86652001D01*
X59339812Y-86652001D01*
X59289812Y-86688328D01*
X59270714Y-86747107D01*
X59270714Y-87147107D01*
X58756428Y-87147107D01*
X58756428Y-86532821D01*
X58737330Y-86474042D01*
X58687330Y-86437715D01*
X58625526Y-86437715D01*
X58575526Y-86474042D01*
X58556428Y-86532821D01*
X58556428Y-87247107D01*
X58342142Y-87247107D01*
X58342142Y-85675678D01*
X58556428Y-85675678D01*
X58563551Y-85697601D01*
X58566985Y-85720400D01*
X58638414Y-85863256D01*
X58638972Y-85863822D01*
X58639103Y-85864609D01*
X58660620Y-85885802D01*
X58681783Y-85907289D01*
X58682567Y-85907419D01*
X58683135Y-85907978D01*
X58825992Y-85979407D01*
X58848790Y-85982840D01*
X58870714Y-85989964D01*
X59056428Y-85989964D01*
X59056428Y-86104249D01*
X59075526Y-86163028D01*
X59125526Y-86199355D01*
X59187330Y-86199355D01*
X59237330Y-86163028D01*
X59256428Y-86104249D01*
X59256428Y-85989964D01*
X60156428Y-85989964D01*
X60215207Y-85970866D01*
X60251534Y-85920866D01*
X60251534Y-85859062D01*
X60215207Y-85809062D01*
X60156428Y-85789964D01*
X59256428Y-85789964D01*
X59256428Y-85532821D01*
X59237330Y-85474042D01*
X59187330Y-85437715D01*
X59125526Y-85437715D01*
X59075526Y-85474042D01*
X59056428Y-85532821D01*
X59056428Y-85789964D01*
X58894321Y-85789964D01*
X58802393Y-85743999D01*
X58756428Y-85652069D01*
X58756428Y-85532821D01*
X58737330Y-85474042D01*
X58687330Y-85437715D01*
X58625526Y-85437715D01*
X58575526Y-85474042D01*
X58556428Y-85532821D01*
X58556428Y-85675678D01*
X58342142Y-85675678D01*
X58342142Y-84818535D01*
X58556428Y-84818535D01*
X58563551Y-84840458D01*
X58566985Y-84863257D01*
X58638414Y-85006113D01*
X58638972Y-85006679D01*
X58639103Y-85007466D01*
X58660620Y-85028659D01*
X58681783Y-85050146D01*
X58682567Y-85050276D01*
X58683135Y-85050835D01*
X58825992Y-85122264D01*
X58848790Y-85125697D01*
X58870714Y-85132821D01*
X59056428Y-85132821D01*
X59056428Y-85247106D01*
X59075526Y-85305885D01*
X59125526Y-85342212D01*
X59187330Y-85342212D01*
X59237330Y-85305885D01*
X59256428Y-85247106D01*
X59256428Y-85132821D01*
X60156428Y-85132821D01*
X60215207Y-85113723D01*
X60251534Y-85063723D01*
X60251534Y-85001919D01*
X60215207Y-84951919D01*
X60156428Y-84932821D01*
X59256428Y-84932821D01*
X59256428Y-84675678D01*
X59237330Y-84616899D01*
X59187330Y-84580572D01*
X59125526Y-84580572D01*
X59075526Y-84616899D01*
X59056428Y-84675678D01*
X59056428Y-84932821D01*
X58894321Y-84932821D01*
X58802393Y-84886856D01*
X58756428Y-84794926D01*
X58756428Y-84675678D01*
X58737330Y-84616899D01*
X58687330Y-84580572D01*
X58625526Y-84580572D01*
X58575526Y-84616899D01*
X58556428Y-84675678D01*
X58556428Y-84818535D01*
X58342142Y-84818535D01*
X58342142Y-84032821D01*
X59056428Y-84032821D01*
X59063551Y-84054744D01*
X59066985Y-84077543D01*
X59138414Y-84220399D01*
X59138972Y-84220965D01*
X59139103Y-84221752D01*
X59160605Y-84242929D01*
X59181783Y-84264432D01*
X59182569Y-84264562D01*
X59183136Y-84265121D01*
X59325993Y-84336549D01*
X59348790Y-84339982D01*
X59370714Y-84347106D01*
X59942142Y-84347106D01*
X59964065Y-84339982D01*
X59986863Y-84336549D01*
X60129721Y-84265121D01*
X60130287Y-84264562D01*
X60131074Y-84264432D01*
X60152235Y-84242946D01*
X60173754Y-84221753D01*
X60173884Y-84220965D01*
X60174443Y-84220399D01*
X60245871Y-84077542D01*
X60249304Y-84054744D01*
X60256428Y-84032821D01*
X60256428Y-83747106D01*
X60249304Y-83725182D01*
X60245871Y-83702385D01*
X60174443Y-83559528D01*
X60131074Y-83515495D01*
X60070107Y-83505364D01*
X60014828Y-83533003D01*
X59986352Y-83587856D01*
X59995557Y-83648970D01*
X60056428Y-83770712D01*
X60056428Y-84009214D01*
X60010464Y-84101142D01*
X59918535Y-84147106D01*
X59738408Y-84147106D01*
X59611629Y-83513209D01*
X59608677Y-83507950D01*
X59608677Y-83501919D01*
X59593779Y-83481413D01*
X59581374Y-83459317D01*
X59575894Y-83456798D01*
X59572350Y-83451919D01*
X59548246Y-83444087D01*
X59525221Y-83433502D01*
X59519307Y-83434684D01*
X59513571Y-83432821D01*
X59370714Y-83432821D01*
X59348790Y-83439944D01*
X59325993Y-83443378D01*
X59183136Y-83514806D01*
X59182569Y-83515364D01*
X59181783Y-83515495D01*
X59160605Y-83536997D01*
X59139103Y-83558175D01*
X59138972Y-83558961D01*
X59138414Y-83559528D01*
X59066985Y-83702384D01*
X59063551Y-83725182D01*
X59056428Y-83747106D01*
X59056428Y-84032821D01*
X58342142Y-84032821D01*
X58342142Y-82675678D01*
X59056428Y-82675678D01*
X59063551Y-82697601D01*
X59066985Y-82720400D01*
X59138414Y-82863256D01*
X59149788Y-82874804D01*
X59157146Y-82889245D01*
X59228574Y-82960674D01*
X59243015Y-82968032D01*
X59254564Y-82979407D01*
X59397421Y-83050835D01*
X59420218Y-83054268D01*
X59442142Y-83061392D01*
X59870714Y-83061392D01*
X59892637Y-83054268D01*
X59915435Y-83050835D01*
X60058292Y-82979407D01*
X60069839Y-82968033D01*
X60084282Y-82960675D01*
X60155711Y-82889246D01*
X60163069Y-82874803D01*
X60174443Y-82863256D01*
X60245871Y-82720399D01*
X60249304Y-82697601D01*
X60256428Y-82675678D01*
X60256428Y-82389964D01*
X60249304Y-82368040D01*
X60245871Y-82345243D01*
X60174443Y-82202386D01*
X60131074Y-82158353D01*
X60070107Y-82148222D01*
X60014828Y-82175861D01*
X59986352Y-82230714D01*
X59995557Y-82291828D01*
X60056428Y-82413570D01*
X60056428Y-82652071D01*
X60002814Y-82759298D01*
X59954334Y-82807778D01*
X59847107Y-82861392D01*
X59465749Y-82861392D01*
X59358520Y-82807778D01*
X59310044Y-82759301D01*
X59256428Y-82652069D01*
X59256428Y-82413572D01*
X59317300Y-82291829D01*
X59326505Y-82230714D01*
X59298029Y-82175862D01*
X59242750Y-82148222D01*
X59181783Y-82158353D01*
X59138414Y-82202386D01*
X59066985Y-82345242D01*
X59063551Y-82368040D01*
X59056428Y-82389964D01*
X59056428Y-82675678D01*
X58342142Y-82675678D01*
X58342142Y-81635152D01*
X58561322Y-81635152D01*
X58597649Y-81685152D01*
X58656428Y-81704250D01*
X59056428Y-81704250D01*
X59056428Y-81818535D01*
X59075526Y-81877314D01*
X59125526Y-81913641D01*
X59187330Y-81913641D01*
X59237330Y-81877314D01*
X59256428Y-81818535D01*
X59256428Y-81704250D01*
X59942142Y-81704250D01*
X59964065Y-81697126D01*
X59986863Y-81693693D01*
X60129721Y-81622264D01*
X60130287Y-81621705D01*
X60131074Y-81621575D01*
X60152251Y-81600072D01*
X60173754Y-81578895D01*
X60173884Y-81578108D01*
X60174443Y-81577542D01*
X60245871Y-81434685D01*
X60249304Y-81411887D01*
X60256428Y-81389964D01*
X60256428Y-81247107D01*
X60237330Y-81188328D01*
X60187330Y-81152001D01*
X60125526Y-81152001D01*
X60075526Y-81188328D01*
X60056428Y-81247107D01*
X60056428Y-81366357D01*
X60010464Y-81458285D01*
X59918535Y-81504250D01*
X59256428Y-81504250D01*
X59256428Y-81247107D01*
X59237330Y-81188328D01*
X59187330Y-81152001D01*
X59125526Y-81152001D01*
X59075526Y-81188328D01*
X59056428Y-81247107D01*
X59056428Y-81504250D01*
X58656428Y-81504250D01*
X58597649Y-81523348D01*
X58561322Y-81573348D01*
X58561322Y-81635152D01*
X58342142Y-81635152D01*
X58342142Y-79604250D01*
X58556428Y-79604250D01*
X58561322Y-79619312D01*
X58561322Y-79635152D01*
X58570631Y-79647965D01*
X58575526Y-79663029D01*
X58588339Y-79672338D01*
X58597649Y-79685152D01*
X58612712Y-79690046D01*
X58625526Y-79699356D01*
X58641365Y-79699356D01*
X58656428Y-79704250D01*
X60156428Y-79704250D01*
X60215207Y-79685152D01*
X60251534Y-79635152D01*
X60251534Y-79573348D01*
X60215207Y-79523348D01*
X60156428Y-79504250D01*
X59542142Y-79504250D01*
X59542142Y-79032821D01*
X59535018Y-79010897D01*
X59531585Y-78988100D01*
X59460157Y-78845243D01*
X59448783Y-78833695D01*
X59441425Y-78819253D01*
X59369996Y-78747824D01*
X59355553Y-78740465D01*
X59344006Y-78729092D01*
X59201149Y-78657664D01*
X59178351Y-78654230D01*
X59156428Y-78647107D01*
X58942142Y-78647107D01*
X58920218Y-78654230D01*
X58897421Y-78657664D01*
X58754564Y-78729092D01*
X58743015Y-78740466D01*
X58728574Y-78747825D01*
X58657146Y-78819254D01*
X58649788Y-78833694D01*
X58638414Y-78845243D01*
X58566985Y-78988099D01*
X58563551Y-79010897D01*
X58556428Y-79032821D01*
X58556428Y-79604250D01*
X58342142Y-79604250D01*
X58342142Y-77961393D01*
X59056428Y-77961393D01*
X59063551Y-77983316D01*
X59066985Y-78006115D01*
X59138414Y-78148971D01*
X59138972Y-78149537D01*
X59139103Y-78150324D01*
X59160605Y-78171501D01*
X59181783Y-78193004D01*
X59182569Y-78193134D01*
X59183136Y-78193693D01*
X59325993Y-78265121D01*
X59348790Y-78268554D01*
X59370714Y-78275678D01*
X59942142Y-78275678D01*
X59964065Y-78268554D01*
X59986863Y-78265121D01*
X60129721Y-78193693D01*
X60130287Y-78193134D01*
X60131074Y-78193004D01*
X60152235Y-78171518D01*
X60173754Y-78150325D01*
X60173884Y-78149537D01*
X60174443Y-78148971D01*
X60245871Y-78006114D01*
X60249304Y-77983316D01*
X60256428Y-77961393D01*
X60256428Y-77675678D01*
X60249304Y-77653754D01*
X60245871Y-77630957D01*
X60174443Y-77488100D01*
X60131074Y-77444067D01*
X60070107Y-77433936D01*
X60014828Y-77461575D01*
X59986352Y-77516428D01*
X59995557Y-77577542D01*
X60056428Y-77699284D01*
X60056428Y-77937786D01*
X60010464Y-78029714D01*
X59918535Y-78075678D01*
X59738408Y-78075678D01*
X59611629Y-77441781D01*
X59608677Y-77436522D01*
X59608677Y-77430491D01*
X59593779Y-77409985D01*
X59581374Y-77387889D01*
X59575894Y-77385370D01*
X59572350Y-77380491D01*
X59548246Y-77372659D01*
X59525221Y-77362074D01*
X59519307Y-77363256D01*
X59513571Y-77361393D01*
X59370714Y-77361393D01*
X59348790Y-77368516D01*
X59325993Y-77371950D01*
X59183136Y-77443378D01*
X59182569Y-77443936D01*
X59181783Y-77444067D01*
X59160605Y-77465569D01*
X59139103Y-77486747D01*
X59138972Y-77487533D01*
X59138414Y-77488100D01*
X59066985Y-77630956D01*
X59063551Y-77653754D01*
X59056428Y-77675678D01*
X59056428Y-77961393D01*
X58342142Y-77961393D01*
X58342142Y-76206581D01*
X58561322Y-76206581D01*
X58597649Y-76256581D01*
X58656428Y-76275679D01*
X59066704Y-76275679D01*
X59063551Y-76296612D01*
X59056428Y-76318536D01*
X59056428Y-76604250D01*
X59063551Y-76626173D01*
X59066985Y-76648972D01*
X59138414Y-76791828D01*
X59149788Y-76803376D01*
X59157146Y-76817817D01*
X59228574Y-76889246D01*
X59243015Y-76896604D01*
X59254564Y-76907979D01*
X59397421Y-76979407D01*
X59420218Y-76982840D01*
X59442142Y-76989964D01*
X59870714Y-76989964D01*
X59892637Y-76982840D01*
X59915435Y-76979407D01*
X60058292Y-76907979D01*
X60069839Y-76896605D01*
X60084282Y-76889247D01*
X60155711Y-76817818D01*
X60163069Y-76803375D01*
X60174443Y-76791828D01*
X60245871Y-76648971D01*
X60249304Y-76626173D01*
X60256428Y-76604250D01*
X60256428Y-76318536D01*
X60249304Y-76296612D01*
X60245871Y-76273815D01*
X60228266Y-76238605D01*
X60251534Y-76206581D01*
X60251534Y-76144777D01*
X60215207Y-76094777D01*
X60156428Y-76075679D01*
X58656428Y-76075679D01*
X58597649Y-76094777D01*
X58561322Y-76144777D01*
X58561322Y-76206581D01*
X58342142Y-76206581D01*
X58342142Y-75318536D01*
X59056428Y-75318536D01*
X59063551Y-75340459D01*
X59066985Y-75363258D01*
X59138414Y-75506114D01*
X59181783Y-75550147D01*
X59242750Y-75560278D01*
X59298029Y-75532638D01*
X59326505Y-75477786D01*
X59317300Y-75416671D01*
X59256428Y-75294927D01*
X59256428Y-75056429D01*
X59302393Y-74964499D01*
X59394321Y-74918536D01*
X59451767Y-74918536D01*
X59485000Y-74985000D01*
X59485000Y-75318536D01*
X59492123Y-75340459D01*
X59495557Y-75363257D01*
X59566985Y-75506114D01*
X59567543Y-75506680D01*
X59567674Y-75507467D01*
X59589176Y-75528644D01*
X59610354Y-75550147D01*
X59611140Y-75550277D01*
X59611707Y-75550836D01*
X59754564Y-75622264D01*
X59777361Y-75625697D01*
X59799285Y-75632821D01*
X59942142Y-75632821D01*
X59964065Y-75625697D01*
X59986863Y-75622264D01*
X60129721Y-75550836D01*
X60130287Y-75550277D01*
X60131074Y-75550147D01*
X60152235Y-75528661D01*
X60173754Y-75507468D01*
X60173884Y-75506680D01*
X60174443Y-75506114D01*
X60245871Y-75363257D01*
X60249304Y-75340459D01*
X60256428Y-75318536D01*
X60256428Y-74961393D01*
X60249304Y-74939469D01*
X60245871Y-74916672D01*
X60228266Y-74881462D01*
X60251534Y-74849438D01*
X60251534Y-74787634D01*
X60215207Y-74737634D01*
X60156428Y-74718536D01*
X59370714Y-74718536D01*
X59348790Y-74725659D01*
X59325993Y-74729093D01*
X59183136Y-74800521D01*
X59182569Y-74801079D01*
X59181783Y-74801210D01*
X59160605Y-74822712D01*
X59139103Y-74843890D01*
X59138972Y-74844676D01*
X59138414Y-74845243D01*
X59066985Y-74988099D01*
X59063551Y-75010897D01*
X59056428Y-75032821D01*
X59056428Y-75318536D01*
X58342142Y-75318536D01*
X58342142Y-74135152D01*
X58561322Y-74135152D01*
X58597649Y-74185152D01*
X58656428Y-74204250D01*
X59942142Y-74204250D01*
X59964065Y-74197126D01*
X59986863Y-74193693D01*
X60129721Y-74122264D01*
X60130287Y-74121705D01*
X60131074Y-74121575D01*
X60152251Y-74100072D01*
X60173754Y-74078895D01*
X60173884Y-74078108D01*
X60174443Y-74077542D01*
X60245871Y-73934685D01*
X60255076Y-73873570D01*
X60226600Y-73818718D01*
X60171321Y-73791079D01*
X60110354Y-73801210D01*
X60066985Y-73845243D01*
X60010464Y-73958285D01*
X59918535Y-74004250D01*
X58656428Y-74004250D01*
X58597649Y-74023348D01*
X58561322Y-74073348D01*
X58561322Y-74135152D01*
X58342142Y-74135152D01*
X58342142Y-72390723D01*
X58556430Y-72390723D01*
X58575975Y-72449355D01*
X58626249Y-72485302D01*
X58688051Y-72484832D01*
X60188051Y-71984832D01*
X60212314Y-71966921D01*
X60236882Y-71949355D01*
X60237133Y-71948599D01*
X60237774Y-71948127D01*
X60246879Y-71919361D01*
X60256426Y-71890723D01*
X60256185Y-71889964D01*
X60256426Y-71889205D01*
X60246879Y-71860566D01*
X60237774Y-71831801D01*
X60237133Y-71831328D01*
X60236882Y-71830573D01*
X60212314Y-71813006D01*
X60188051Y-71795096D01*
X58688051Y-71295096D01*
X58626249Y-71294626D01*
X58575975Y-71330573D01*
X58556430Y-71389205D01*
X58575082Y-71448127D01*
X58624805Y-71484832D01*
X59840201Y-71889964D01*
X58624805Y-72295096D01*
X58575082Y-72331801D01*
X58556430Y-72390723D01*
X58342142Y-72390723D01*
X58342142Y-70505779D01*
X58560154Y-70505779D01*
X58561322Y-70534734D01*
X58561322Y-70563724D01*
X58562560Y-70565428D01*
X58562645Y-70567532D01*
X58580606Y-70590266D01*
X58597649Y-70613724D01*
X58599652Y-70614375D01*
X58600958Y-70616027D01*
X58807003Y-70753390D01*
X58931384Y-70877770D01*
X58995557Y-71006114D01*
X59038926Y-71050147D01*
X59099893Y-71060278D01*
X59155172Y-71032638D01*
X59183648Y-70977786D01*
X59174443Y-70916671D01*
X59103014Y-70773814D01*
X59091638Y-70762264D01*
X59084281Y-70747825D01*
X58969279Y-70632822D01*
X60056428Y-70632822D01*
X60056428Y-70961393D01*
X60075526Y-71020172D01*
X60125526Y-71056499D01*
X60187330Y-71056499D01*
X60237330Y-71020172D01*
X60256428Y-70961393D01*
X60256428Y-70104250D01*
X60237330Y-70045471D01*
X60187330Y-70009144D01*
X60125526Y-70009144D01*
X60075526Y-70045471D01*
X60056428Y-70104250D01*
X60056428Y-70432822D01*
X58656428Y-70432822D01*
X58654425Y-70433472D01*
X58652397Y-70432903D01*
X58625212Y-70442964D01*
X58597649Y-70451920D01*
X58596410Y-70453624D01*
X58594436Y-70454355D01*
X58578362Y-70478465D01*
X58561322Y-70501920D01*
X58561322Y-70504026D01*
X58560154Y-70505779D01*
X58342142Y-70505779D01*
X58342142Y-69477038D01*
X59914802Y-69477038D01*
X59918465Y-69484226D01*
X59918465Y-69492296D01*
X59923207Y-69498823D01*
X59924470Y-69506793D01*
X59935670Y-69517993D01*
X59942861Y-69532105D01*
X60014290Y-69603533D01*
X60028400Y-69610722D01*
X60039601Y-69621923D01*
X60055245Y-69624400D01*
X60069357Y-69631591D01*
X60085000Y-69629113D01*
X60100643Y-69631591D01*
X60114754Y-69624400D01*
X60130400Y-69621923D01*
X60141599Y-69610723D01*
X60155711Y-69603533D01*
X60227138Y-69532105D01*
X60234327Y-69517994D01*
X60245529Y-69506794D01*
X60246791Y-69498823D01*
X60251534Y-69492296D01*
X60251534Y-69484226D01*
X60255197Y-69477038D01*
X60252719Y-69461394D01*
X60255197Y-69445751D01*
X60251534Y-69438561D01*
X60251534Y-69430492D01*
X60246791Y-69423963D01*
X60245529Y-69415995D01*
X60234328Y-69404794D01*
X60227139Y-69390684D01*
X60155711Y-69319255D01*
X60141599Y-69312064D01*
X60130399Y-69300864D01*
X60114755Y-69298386D01*
X60100644Y-69291196D01*
X60085000Y-69293673D01*
X60069357Y-69291196D01*
X60055244Y-69298386D01*
X60039602Y-69300864D01*
X60028402Y-69312062D01*
X60014289Y-69319254D01*
X59942860Y-69390683D01*
X59935668Y-69404796D01*
X59924470Y-69415996D01*
X59923208Y-69423963D01*
X59918465Y-69430492D01*
X59918465Y-69438561D01*
X59914802Y-69445751D01*
X59917279Y-69461394D01*
X59914802Y-69477038D01*
X58342142Y-69477038D01*
X58342142Y-68461393D01*
X58556428Y-68461393D01*
X58563551Y-68483316D01*
X58566985Y-68506114D01*
X58638414Y-68648972D01*
X58649787Y-68660519D01*
X58657146Y-68674962D01*
X58728574Y-68746389D01*
X58743013Y-68753746D01*
X58754563Y-68765122D01*
X58897420Y-68836551D01*
X58908442Y-68838211D01*
X58917889Y-68844122D01*
X59203604Y-68915550D01*
X59216019Y-68914689D01*
X59227857Y-68918536D01*
X59585000Y-68918536D01*
X59596837Y-68914689D01*
X59609253Y-68915550D01*
X59894967Y-68844122D01*
X59904413Y-68838211D01*
X59915436Y-68836551D01*
X60058292Y-68765122D01*
X60069840Y-68753747D01*
X60084281Y-68746390D01*
X60155710Y-68674962D01*
X60163068Y-68660521D01*
X60174443Y-68648972D01*
X60245871Y-68506114D01*
X60249304Y-68483316D01*
X60256428Y-68461393D01*
X60256428Y-68318536D01*
X60249304Y-68296612D01*
X60245871Y-68273815D01*
X60174443Y-68130958D01*
X60163068Y-68119409D01*
X60155710Y-68104968D01*
X60084281Y-68033540D01*
X60069840Y-68026182D01*
X60058292Y-68014808D01*
X59915436Y-67943379D01*
X59904412Y-67941718D01*
X59894967Y-67935808D01*
X59609254Y-67864379D01*
X59596837Y-67865239D01*
X59585000Y-67861393D01*
X59227857Y-67861393D01*
X59216019Y-67865239D01*
X59203603Y-67864379D01*
X58917888Y-67935808D01*
X58908441Y-67941718D01*
X58897420Y-67943379D01*
X58754563Y-68014808D01*
X58743013Y-68026183D01*
X58728574Y-68033541D01*
X58657146Y-68104968D01*
X58649787Y-68119410D01*
X58638414Y-68130958D01*
X58566985Y-68273814D01*
X58563551Y-68296612D01*
X58556428Y-68318536D01*
X58556428Y-68461393D01*
X58342142Y-68461393D01*
X58342142Y-67647107D01*
X60970714Y-67647107D01*
X60970714Y-95989965D01*
G37*
X69167809Y-82376838D02*
X69167809Y-80376838D01*
X69167809Y-80376838D02*
X69643999Y-80376838D01*
X69643999Y-80376838D02*
X69929714Y-80472076D01*
X69929714Y-80472076D02*
X70120190Y-80662552D01*
X70120190Y-80662552D02*
X70215428Y-80853028D01*
X70215428Y-80853028D02*
X70310666Y-81233980D01*
X70310666Y-81233980D02*
X70310666Y-81519695D01*
X70310666Y-81519695D02*
X70215428Y-81900647D01*
X70215428Y-81900647D02*
X70120190Y-82091123D01*
X70120190Y-82091123D02*
X69929714Y-82281600D01*
X69929714Y-82281600D02*
X69643999Y-82376838D01*
X69643999Y-82376838D02*
X69167809Y-82376838D01*
X72024952Y-82376838D02*
X72024952Y-81329219D01*
X72024952Y-81329219D02*
X71929714Y-81138742D01*
X71929714Y-81138742D02*
X71739238Y-81043504D01*
X71739238Y-81043504D02*
X71358285Y-81043504D01*
X71358285Y-81043504D02*
X71167809Y-81138742D01*
X72024952Y-82281600D02*
X71834476Y-82376838D01*
X71834476Y-82376838D02*
X71358285Y-82376838D01*
X71358285Y-82376838D02*
X71167809Y-82281600D01*
X71167809Y-82281600D02*
X71072571Y-82091123D01*
X71072571Y-82091123D02*
X71072571Y-81900647D01*
X71072571Y-81900647D02*
X71167809Y-81710171D01*
X71167809Y-81710171D02*
X71358285Y-81614933D01*
X71358285Y-81614933D02*
X71834476Y-81614933D01*
X71834476Y-81614933D02*
X72024952Y-81519695D01*
X72977333Y-82376838D02*
X72977333Y-81043504D01*
X72977333Y-80376838D02*
X72882095Y-80472076D01*
X72882095Y-80472076D02*
X72977333Y-80567314D01*
X72977333Y-80567314D02*
X73072571Y-80472076D01*
X73072571Y-80472076D02*
X72977333Y-80376838D01*
X72977333Y-80376838D02*
X72977333Y-80567314D01*
X73834476Y-82281600D02*
X74024952Y-82376838D01*
X74024952Y-82376838D02*
X74405904Y-82376838D01*
X74405904Y-82376838D02*
X74596381Y-82281600D01*
X74596381Y-82281600D02*
X74691619Y-82091123D01*
X74691619Y-82091123D02*
X74691619Y-81995885D01*
X74691619Y-81995885D02*
X74596381Y-81805409D01*
X74596381Y-81805409D02*
X74405904Y-81710171D01*
X74405904Y-81710171D02*
X74120190Y-81710171D01*
X74120190Y-81710171D02*
X73929714Y-81614933D01*
X73929714Y-81614933D02*
X73834476Y-81424457D01*
X73834476Y-81424457D02*
X73834476Y-81329219D01*
X73834476Y-81329219D02*
X73929714Y-81138742D01*
X73929714Y-81138742D02*
X74120190Y-81043504D01*
X74120190Y-81043504D02*
X74405904Y-81043504D01*
X74405904Y-81043504D02*
X74596381Y-81138742D01*
X75358286Y-81043504D02*
X75834476Y-82376838D01*
X76310667Y-81043504D02*
X75834476Y-82376838D01*
X75834476Y-82376838D02*
X75644000Y-82853028D01*
X75644000Y-82853028D02*
X75548762Y-82948266D01*
X75548762Y-82948266D02*
X75358286Y-83043504D01*
X69453523Y-85501600D02*
X69739237Y-85596838D01*
X69739237Y-85596838D02*
X70215428Y-85596838D01*
X70215428Y-85596838D02*
X70405904Y-85501600D01*
X70405904Y-85501600D02*
X70501142Y-85406361D01*
X70501142Y-85406361D02*
X70596380Y-85215885D01*
X70596380Y-85215885D02*
X70596380Y-85025409D01*
X70596380Y-85025409D02*
X70501142Y-84834933D01*
X70501142Y-84834933D02*
X70405904Y-84739695D01*
X70405904Y-84739695D02*
X70215428Y-84644457D01*
X70215428Y-84644457D02*
X69834475Y-84549219D01*
X69834475Y-84549219D02*
X69643999Y-84453980D01*
X69643999Y-84453980D02*
X69548761Y-84358742D01*
X69548761Y-84358742D02*
X69453523Y-84168266D01*
X69453523Y-84168266D02*
X69453523Y-83977790D01*
X69453523Y-83977790D02*
X69548761Y-83787314D01*
X69548761Y-83787314D02*
X69643999Y-83692076D01*
X69643999Y-83692076D02*
X69834475Y-83596838D01*
X69834475Y-83596838D02*
X70310666Y-83596838D01*
X70310666Y-83596838D02*
X70596380Y-83692076D01*
X72215428Y-85501600D02*
X72024952Y-85596838D01*
X72024952Y-85596838D02*
X71643999Y-85596838D01*
X71643999Y-85596838D02*
X71453523Y-85501600D01*
X71453523Y-85501600D02*
X71358285Y-85311123D01*
X71358285Y-85311123D02*
X71358285Y-84549219D01*
X71358285Y-84549219D02*
X71453523Y-84358742D01*
X71453523Y-84358742D02*
X71643999Y-84263504D01*
X71643999Y-84263504D02*
X72024952Y-84263504D01*
X72024952Y-84263504D02*
X72215428Y-84358742D01*
X72215428Y-84358742D02*
X72310666Y-84549219D01*
X72310666Y-84549219D02*
X72310666Y-84739695D01*
X72310666Y-84739695D02*
X71358285Y-84930171D01*
X73929714Y-85501600D02*
X73739238Y-85596838D01*
X73739238Y-85596838D02*
X73358285Y-85596838D01*
X73358285Y-85596838D02*
X73167809Y-85501600D01*
X73167809Y-85501600D02*
X73072571Y-85311123D01*
X73072571Y-85311123D02*
X73072571Y-84549219D01*
X73072571Y-84549219D02*
X73167809Y-84358742D01*
X73167809Y-84358742D02*
X73358285Y-84263504D01*
X73358285Y-84263504D02*
X73739238Y-84263504D01*
X73739238Y-84263504D02*
X73929714Y-84358742D01*
X73929714Y-84358742D02*
X74024952Y-84549219D01*
X74024952Y-84549219D02*
X74024952Y-84739695D01*
X74024952Y-84739695D02*
X73072571Y-84930171D01*
X75739238Y-85596838D02*
X75739238Y-83596838D01*
X75739238Y-85501600D02*
X75548762Y-85596838D01*
X75548762Y-85596838D02*
X75167809Y-85596838D01*
X75167809Y-85596838D02*
X74977333Y-85501600D01*
X74977333Y-85501600D02*
X74882095Y-85406361D01*
X74882095Y-85406361D02*
X74786857Y-85215885D01*
X74786857Y-85215885D02*
X74786857Y-84644457D01*
X74786857Y-84644457D02*
X74882095Y-84453980D01*
X74882095Y-84453980D02*
X74977333Y-84358742D01*
X74977333Y-84358742D02*
X75167809Y-84263504D01*
X75167809Y-84263504D02*
X75548762Y-84263504D01*
X75548762Y-84263504D02*
X75739238Y-84358742D01*
D12*
X31207442Y-114542438D02*
X31457442Y-112542438D01*
X31457442Y-112542438D02*
X31933633Y-112542438D01*
X31933633Y-112542438D02*
X32207442Y-112637676D01*
X32207442Y-112637676D02*
X32374109Y-112828152D01*
X32374109Y-112828152D02*
X32445537Y-113018628D01*
X32445537Y-113018628D02*
X32493157Y-113399580D01*
X32493157Y-113399580D02*
X32457442Y-113685295D01*
X32457442Y-113685295D02*
X32314585Y-114066247D01*
X32314585Y-114066247D02*
X32195537Y-114256723D01*
X32195537Y-114256723D02*
X31981252Y-114447200D01*
X31981252Y-114447200D02*
X31683633Y-114542438D01*
X31683633Y-114542438D02*
X31207442Y-114542438D01*
X33183633Y-113971009D02*
X34136014Y-113971009D01*
X32921728Y-114542438D02*
X33838395Y-112542438D01*
X33838395Y-112542438D02*
X34255061Y-114542438D01*
X34921728Y-114542438D02*
X35171728Y-112542438D01*
X35171728Y-112542438D02*
X35647919Y-112542438D01*
X35647919Y-112542438D02*
X35921728Y-112637676D01*
X35921728Y-112637676D02*
X36088395Y-112828152D01*
X36088395Y-112828152D02*
X36159823Y-113018628D01*
X36159823Y-113018628D02*
X36207443Y-113399580D01*
X36207443Y-113399580D02*
X36171728Y-113685295D01*
X36171728Y-113685295D02*
X36028871Y-114066247D01*
X36028871Y-114066247D02*
X35909823Y-114256723D01*
X35909823Y-114256723D02*
X35695538Y-114447200D01*
X35695538Y-114447200D02*
X35397919Y-114542438D01*
X35397919Y-114542438D02*
X34921728Y-114542438D01*
X38445538Y-114542438D02*
X38695538Y-112542438D01*
X38695538Y-112542438D02*
X39171729Y-112542438D01*
X39171729Y-112542438D02*
X39445538Y-112637676D01*
X39445538Y-112637676D02*
X39612205Y-112828152D01*
X39612205Y-112828152D02*
X39683633Y-113018628D01*
X39683633Y-113018628D02*
X39731253Y-113399580D01*
X39731253Y-113399580D02*
X39695538Y-113685295D01*
X39695538Y-113685295D02*
X39552681Y-114066247D01*
X39552681Y-114066247D02*
X39433633Y-114256723D01*
X39433633Y-114256723D02*
X39219348Y-114447200D01*
X39219348Y-114447200D02*
X38921729Y-114542438D01*
X38921729Y-114542438D02*
X38445538Y-114542438D01*
X41219348Y-114447200D02*
X41016967Y-114542438D01*
X41016967Y-114542438D02*
X40636014Y-114542438D01*
X40636014Y-114542438D02*
X40457443Y-114447200D01*
X40457443Y-114447200D02*
X40386014Y-114256723D01*
X40386014Y-114256723D02*
X40481253Y-113494819D01*
X40481253Y-113494819D02*
X40600300Y-113304342D01*
X40600300Y-113304342D02*
X40802681Y-113209104D01*
X40802681Y-113209104D02*
X41183633Y-113209104D01*
X41183633Y-113209104D02*
X41362205Y-113304342D01*
X41362205Y-113304342D02*
X41433633Y-113494819D01*
X41433633Y-113494819D02*
X41409824Y-113685295D01*
X41409824Y-113685295D02*
X40433633Y-113875771D01*
X42076491Y-114447200D02*
X42255062Y-114542438D01*
X42255062Y-114542438D02*
X42636015Y-114542438D01*
X42636015Y-114542438D02*
X42838396Y-114447200D01*
X42838396Y-114447200D02*
X42957443Y-114256723D01*
X42957443Y-114256723D02*
X42969348Y-114161485D01*
X42969348Y-114161485D02*
X42897919Y-113971009D01*
X42897919Y-113971009D02*
X42719348Y-113875771D01*
X42719348Y-113875771D02*
X42433634Y-113875771D01*
X42433634Y-113875771D02*
X42255062Y-113780533D01*
X42255062Y-113780533D02*
X42183634Y-113590057D01*
X42183634Y-113590057D02*
X42195539Y-113494819D01*
X42195539Y-113494819D02*
X42314586Y-113304342D01*
X42314586Y-113304342D02*
X42516967Y-113209104D01*
X42516967Y-113209104D02*
X42802681Y-113209104D01*
X42802681Y-113209104D02*
X42981253Y-113304342D01*
X43778872Y-114542438D02*
X43945539Y-113209104D01*
X44028872Y-112542438D02*
X43921729Y-112637676D01*
X43921729Y-112637676D02*
X44005063Y-112732914D01*
X44005063Y-112732914D02*
X44112206Y-112637676D01*
X44112206Y-112637676D02*
X44028872Y-112542438D01*
X44028872Y-112542438D02*
X44005063Y-112732914D01*
X45755063Y-113209104D02*
X45552682Y-114828152D01*
X45552682Y-114828152D02*
X45433634Y-115018628D01*
X45433634Y-115018628D02*
X45326491Y-115113866D01*
X45326491Y-115113866D02*
X45124110Y-115209104D01*
X45124110Y-115209104D02*
X44838396Y-115209104D01*
X44838396Y-115209104D02*
X44659825Y-115113866D01*
X45600301Y-114447200D02*
X45397920Y-114542438D01*
X45397920Y-114542438D02*
X45016968Y-114542438D01*
X45016968Y-114542438D02*
X44838396Y-114447200D01*
X44838396Y-114447200D02*
X44755063Y-114351961D01*
X44755063Y-114351961D02*
X44683634Y-114161485D01*
X44683634Y-114161485D02*
X44755063Y-113590057D01*
X44755063Y-113590057D02*
X44874110Y-113399580D01*
X44874110Y-113399580D02*
X44981253Y-113304342D01*
X44981253Y-113304342D02*
X45183634Y-113209104D01*
X45183634Y-113209104D02*
X45564587Y-113209104D01*
X45564587Y-113209104D02*
X45743158Y-113304342D01*
X46707444Y-113209104D02*
X46540777Y-114542438D01*
X46683634Y-113399580D02*
X46790777Y-113304342D01*
X46790777Y-113304342D02*
X46993158Y-113209104D01*
X46993158Y-113209104D02*
X47278872Y-113209104D01*
X47278872Y-113209104D02*
X47457444Y-113304342D01*
X47457444Y-113304342D02*
X47528872Y-113494819D01*
X47528872Y-113494819D02*
X47397920Y-114542438D01*
D10*
X50651409Y-113596993D02*
X50651409Y-113930326D01*
X51175219Y-113930326D02*
X50175219Y-113930326D01*
X50175219Y-113930326D02*
X50175219Y-113454136D01*
X51175219Y-112930326D02*
X51127600Y-113025564D01*
X51127600Y-113025564D02*
X51079980Y-113073183D01*
X51079980Y-113073183D02*
X50984742Y-113120802D01*
X50984742Y-113120802D02*
X50699028Y-113120802D01*
X50699028Y-113120802D02*
X50603790Y-113073183D01*
X50603790Y-113073183D02*
X50556171Y-113025564D01*
X50556171Y-113025564D02*
X50508552Y-112930326D01*
X50508552Y-112930326D02*
X50508552Y-112787469D01*
X50508552Y-112787469D02*
X50556171Y-112692231D01*
X50556171Y-112692231D02*
X50603790Y-112644612D01*
X50603790Y-112644612D02*
X50699028Y-112596993D01*
X50699028Y-112596993D02*
X50984742Y-112596993D01*
X50984742Y-112596993D02*
X51079980Y-112644612D01*
X51079980Y-112644612D02*
X51127600Y-112692231D01*
X51127600Y-112692231D02*
X51175219Y-112787469D01*
X51175219Y-112787469D02*
X51175219Y-112930326D01*
X51175219Y-112025564D02*
X51127600Y-112120802D01*
X51127600Y-112120802D02*
X51079980Y-112168421D01*
X51079980Y-112168421D02*
X50984742Y-112216040D01*
X50984742Y-112216040D02*
X50699028Y-112216040D01*
X50699028Y-112216040D02*
X50603790Y-112168421D01*
X50603790Y-112168421D02*
X50556171Y-112120802D01*
X50556171Y-112120802D02*
X50508552Y-112025564D01*
X50508552Y-112025564D02*
X50508552Y-111882707D01*
X50508552Y-111882707D02*
X50556171Y-111787469D01*
X50556171Y-111787469D02*
X50603790Y-111739850D01*
X50603790Y-111739850D02*
X50699028Y-111692231D01*
X50699028Y-111692231D02*
X50984742Y-111692231D01*
X50984742Y-111692231D02*
X51079980Y-111739850D01*
X51079980Y-111739850D02*
X51127600Y-111787469D01*
X51127600Y-111787469D02*
X51175219Y-111882707D01*
X51175219Y-111882707D02*
X51175219Y-112025564D01*
X50508552Y-111406516D02*
X50508552Y-111025564D01*
X50175219Y-111263659D02*
X51032361Y-111263659D01*
X51032361Y-111263659D02*
X51127600Y-111216040D01*
X51127600Y-111216040D02*
X51175219Y-111120802D01*
X51175219Y-111120802D02*
X51175219Y-111025564D01*
X51127600Y-110739849D02*
X51175219Y-110644611D01*
X51175219Y-110644611D02*
X51175219Y-110454135D01*
X51175219Y-110454135D02*
X51127600Y-110358897D01*
X51127600Y-110358897D02*
X51032361Y-110311278D01*
X51032361Y-110311278D02*
X50984742Y-110311278D01*
X50984742Y-110311278D02*
X50889504Y-110358897D01*
X50889504Y-110358897D02*
X50841885Y-110454135D01*
X50841885Y-110454135D02*
X50841885Y-110596992D01*
X50841885Y-110596992D02*
X50794266Y-110692230D01*
X50794266Y-110692230D02*
X50699028Y-110739849D01*
X50699028Y-110739849D02*
X50651409Y-110739849D01*
X50651409Y-110739849D02*
X50556171Y-110692230D01*
X50556171Y-110692230D02*
X50508552Y-110596992D01*
X50508552Y-110596992D02*
X50508552Y-110454135D01*
X50508552Y-110454135D02*
X50556171Y-110358897D01*
X50508552Y-109977944D02*
X51175219Y-109787468D01*
X51175219Y-109787468D02*
X50699028Y-109596992D01*
X50699028Y-109596992D02*
X51175219Y-109406516D01*
X51175219Y-109406516D02*
X50508552Y-109216040D01*
X51175219Y-108835087D02*
X50508552Y-108835087D01*
X50175219Y-108835087D02*
X50222838Y-108882706D01*
X50222838Y-108882706D02*
X50270457Y-108835087D01*
X50270457Y-108835087D02*
X50222838Y-108787468D01*
X50222838Y-108787468D02*
X50175219Y-108835087D01*
X50175219Y-108835087D02*
X50270457Y-108835087D01*
X50508552Y-108501754D02*
X50508552Y-108120802D01*
X50175219Y-108358897D02*
X51032361Y-108358897D01*
X51032361Y-108358897D02*
X51127600Y-108311278D01*
X51127600Y-108311278D02*
X51175219Y-108216040D01*
X51175219Y-108216040D02*
X51175219Y-108120802D01*
X51127600Y-107358897D02*
X51175219Y-107454135D01*
X51175219Y-107454135D02*
X51175219Y-107644611D01*
X51175219Y-107644611D02*
X51127600Y-107739849D01*
X51127600Y-107739849D02*
X51079980Y-107787468D01*
X51079980Y-107787468D02*
X50984742Y-107835087D01*
X50984742Y-107835087D02*
X50699028Y-107835087D01*
X50699028Y-107835087D02*
X50603790Y-107787468D01*
X50603790Y-107787468D02*
X50556171Y-107739849D01*
X50556171Y-107739849D02*
X50508552Y-107644611D01*
X50508552Y-107644611D02*
X50508552Y-107454135D01*
X50508552Y-107454135D02*
X50556171Y-107358897D01*
X51175219Y-106930325D02*
X50175219Y-106930325D01*
X51175219Y-106501754D02*
X50651409Y-106501754D01*
X50651409Y-106501754D02*
X50556171Y-106549373D01*
X50556171Y-106549373D02*
X50508552Y-106644611D01*
X50508552Y-106644611D02*
X50508552Y-106787468D01*
X50508552Y-106787468D02*
X50556171Y-106882706D01*
X50556171Y-106882706D02*
X50603790Y-106930325D01*
X51175219Y-104739849D02*
X51175219Y-105311277D01*
X51175219Y-105025563D02*
X50175219Y-105025563D01*
X50175219Y-105025563D02*
X50318076Y-105120801D01*
X50318076Y-105120801D02*
X50413314Y-105216039D01*
X50413314Y-105216039D02*
X50460933Y-105311277D01*
D11*
X101038819Y-71254857D02*
X100562628Y-71588190D01*
X101038819Y-71826285D02*
X100038819Y-71826285D01*
X100038819Y-71826285D02*
X100038819Y-71445333D01*
X100038819Y-71445333D02*
X100086438Y-71350095D01*
X100086438Y-71350095D02*
X100134057Y-71302476D01*
X100134057Y-71302476D02*
X100229295Y-71254857D01*
X100229295Y-71254857D02*
X100372152Y-71254857D01*
X100372152Y-71254857D02*
X100467390Y-71302476D01*
X100467390Y-71302476D02*
X100515009Y-71350095D01*
X100515009Y-71350095D02*
X100562628Y-71445333D01*
X100562628Y-71445333D02*
X100562628Y-71826285D01*
X101038819Y-70302476D02*
X101038819Y-70873904D01*
X101038819Y-70588190D02*
X100038819Y-70588190D01*
X100038819Y-70588190D02*
X100181676Y-70683428D01*
X100181676Y-70683428D02*
X100276914Y-70778666D01*
X100276914Y-70778666D02*
X100324533Y-70873904D01*
X100038819Y-69969142D02*
X100038819Y-69350095D01*
X100038819Y-69350095D02*
X100419771Y-69683428D01*
X100419771Y-69683428D02*
X100419771Y-69540571D01*
X100419771Y-69540571D02*
X100467390Y-69445333D01*
X100467390Y-69445333D02*
X100515009Y-69397714D01*
X100515009Y-69397714D02*
X100610247Y-69350095D01*
X100610247Y-69350095D02*
X100848342Y-69350095D01*
X100848342Y-69350095D02*
X100943580Y-69397714D01*
X100943580Y-69397714D02*
X100991200Y-69445333D01*
X100991200Y-69445333D02*
X101038819Y-69540571D01*
X101038819Y-69540571D02*
X101038819Y-69826285D01*
X101038819Y-69826285D02*
X100991200Y-69921523D01*
X100991200Y-69921523D02*
X100943580Y-69969142D01*
X84097905Y-70050819D02*
X84097905Y-69050819D01*
X84097905Y-69050819D02*
X84336000Y-69050819D01*
X84336000Y-69050819D02*
X84478857Y-69098438D01*
X84478857Y-69098438D02*
X84574095Y-69193676D01*
X84574095Y-69193676D02*
X84621714Y-69288914D01*
X84621714Y-69288914D02*
X84669333Y-69479390D01*
X84669333Y-69479390D02*
X84669333Y-69622247D01*
X84669333Y-69622247D02*
X84621714Y-69812723D01*
X84621714Y-69812723D02*
X84574095Y-69907961D01*
X84574095Y-69907961D02*
X84478857Y-70003200D01*
X84478857Y-70003200D02*
X84336000Y-70050819D01*
X84336000Y-70050819D02*
X84097905Y-70050819D01*
X85526476Y-69384152D02*
X85526476Y-70050819D01*
X85288381Y-69003200D02*
X85050286Y-69717485D01*
X85050286Y-69717485D02*
X85669333Y-69717485D01*
X90416095Y-70177819D02*
X90416095Y-69177819D01*
X90987523Y-70177819D02*
X90558952Y-69606390D01*
X90987523Y-69177819D02*
X90416095Y-69749247D01*
X35901333Y-75130819D02*
X35568000Y-74654628D01*
X35329905Y-75130819D02*
X35329905Y-74130819D01*
X35329905Y-74130819D02*
X35710857Y-74130819D01*
X35710857Y-74130819D02*
X35806095Y-74178438D01*
X35806095Y-74178438D02*
X35853714Y-74226057D01*
X35853714Y-74226057D02*
X35901333Y-74321295D01*
X35901333Y-74321295D02*
X35901333Y-74464152D01*
X35901333Y-74464152D02*
X35853714Y-74559390D01*
X35853714Y-74559390D02*
X35806095Y-74607009D01*
X35806095Y-74607009D02*
X35710857Y-74654628D01*
X35710857Y-74654628D02*
X35329905Y-74654628D01*
X36282286Y-74226057D02*
X36329905Y-74178438D01*
X36329905Y-74178438D02*
X36425143Y-74130819D01*
X36425143Y-74130819D02*
X36663238Y-74130819D01*
X36663238Y-74130819D02*
X36758476Y-74178438D01*
X36758476Y-74178438D02*
X36806095Y-74226057D01*
X36806095Y-74226057D02*
X36853714Y-74321295D01*
X36853714Y-74321295D02*
X36853714Y-74416533D01*
X36853714Y-74416533D02*
X36806095Y-74559390D01*
X36806095Y-74559390D02*
X36234667Y-75130819D01*
X36234667Y-75130819D02*
X36853714Y-75130819D01*
X82597714Y-115485104D02*
X83073904Y-115485104D01*
X82502476Y-115770819D02*
X82835809Y-114770819D01*
X82835809Y-114770819D02*
X83169142Y-115770819D01*
X84026285Y-115770819D02*
X83454857Y-115770819D01*
X83740571Y-115770819D02*
X83740571Y-114770819D01*
X83740571Y-114770819D02*
X83645333Y-114913676D01*
X83645333Y-114913676D02*
X83550095Y-115008914D01*
X83550095Y-115008914D02*
X83454857Y-115056533D01*
X32458819Y-106402094D02*
X31458819Y-106402094D01*
X31458819Y-106402094D02*
X31458819Y-106163999D01*
X31458819Y-106163999D02*
X31506438Y-106021142D01*
X31506438Y-106021142D02*
X31601676Y-105925904D01*
X31601676Y-105925904D02*
X31696914Y-105878285D01*
X31696914Y-105878285D02*
X31887390Y-105830666D01*
X31887390Y-105830666D02*
X32030247Y-105830666D01*
X32030247Y-105830666D02*
X32220723Y-105878285D01*
X32220723Y-105878285D02*
X32315961Y-105925904D01*
X32315961Y-105925904D02*
X32411200Y-106021142D01*
X32411200Y-106021142D02*
X32458819Y-106163999D01*
X32458819Y-106163999D02*
X32458819Y-106402094D01*
X31554057Y-105449713D02*
X31506438Y-105402094D01*
X31506438Y-105402094D02*
X31458819Y-105306856D01*
X31458819Y-105306856D02*
X31458819Y-105068761D01*
X31458819Y-105068761D02*
X31506438Y-104973523D01*
X31506438Y-104973523D02*
X31554057Y-104925904D01*
X31554057Y-104925904D02*
X31649295Y-104878285D01*
X31649295Y-104878285D02*
X31744533Y-104878285D01*
X31744533Y-104878285D02*
X31887390Y-104925904D01*
X31887390Y-104925904D02*
X32458819Y-105497332D01*
X32458819Y-105497332D02*
X32458819Y-104878285D01*
X32458819Y-101861904D02*
X31458819Y-101861904D01*
X32458819Y-101290476D02*
X31887390Y-101719047D01*
X31458819Y-101290476D02*
X32030247Y-101861904D01*
X77670819Y-48394857D02*
X77194628Y-48728190D01*
X77670819Y-48966285D02*
X76670819Y-48966285D01*
X76670819Y-48966285D02*
X76670819Y-48585333D01*
X76670819Y-48585333D02*
X76718438Y-48490095D01*
X76718438Y-48490095D02*
X76766057Y-48442476D01*
X76766057Y-48442476D02*
X76861295Y-48394857D01*
X76861295Y-48394857D02*
X77004152Y-48394857D01*
X77004152Y-48394857D02*
X77099390Y-48442476D01*
X77099390Y-48442476D02*
X77147009Y-48490095D01*
X77147009Y-48490095D02*
X77194628Y-48585333D01*
X77194628Y-48585333D02*
X77194628Y-48966285D01*
X77670819Y-47442476D02*
X77670819Y-48013904D01*
X77670819Y-47728190D02*
X76670819Y-47728190D01*
X76670819Y-47728190D02*
X76813676Y-47823428D01*
X76813676Y-47823428D02*
X76908914Y-47918666D01*
X76908914Y-47918666D02*
X76956533Y-48013904D01*
X77004152Y-46585333D02*
X77670819Y-46585333D01*
X76623200Y-46823428D02*
X77337485Y-47061523D01*
X77337485Y-47061523D02*
X77337485Y-46442476D01*
X94829333Y-70558819D02*
X94496000Y-70082628D01*
X94257905Y-70558819D02*
X94257905Y-69558819D01*
X94257905Y-69558819D02*
X94638857Y-69558819D01*
X94638857Y-69558819D02*
X94734095Y-69606438D01*
X94734095Y-69606438D02*
X94781714Y-69654057D01*
X94781714Y-69654057D02*
X94829333Y-69749295D01*
X94829333Y-69749295D02*
X94829333Y-69892152D01*
X94829333Y-69892152D02*
X94781714Y-69987390D01*
X94781714Y-69987390D02*
X94734095Y-70035009D01*
X94734095Y-70035009D02*
X94638857Y-70082628D01*
X94638857Y-70082628D02*
X94257905Y-70082628D01*
X95162667Y-69558819D02*
X95781714Y-69558819D01*
X95781714Y-69558819D02*
X95448381Y-69939771D01*
X95448381Y-69939771D02*
X95591238Y-69939771D01*
X95591238Y-69939771D02*
X95686476Y-69987390D01*
X95686476Y-69987390D02*
X95734095Y-70035009D01*
X95734095Y-70035009D02*
X95781714Y-70130247D01*
X95781714Y-70130247D02*
X95781714Y-70368342D01*
X95781714Y-70368342D02*
X95734095Y-70463580D01*
X95734095Y-70463580D02*
X95686476Y-70511200D01*
X95686476Y-70511200D02*
X95591238Y-70558819D01*
X95591238Y-70558819D02*
X95305524Y-70558819D01*
X95305524Y-70558819D02*
X95210286Y-70511200D01*
X95210286Y-70511200D02*
X95162667Y-70463580D01*
X52157333Y-43539580D02*
X52109714Y-43587200D01*
X52109714Y-43587200D02*
X51966857Y-43634819D01*
X51966857Y-43634819D02*
X51871619Y-43634819D01*
X51871619Y-43634819D02*
X51728762Y-43587200D01*
X51728762Y-43587200D02*
X51633524Y-43491961D01*
X51633524Y-43491961D02*
X51585905Y-43396723D01*
X51585905Y-43396723D02*
X51538286Y-43206247D01*
X51538286Y-43206247D02*
X51538286Y-43063390D01*
X51538286Y-43063390D02*
X51585905Y-42872914D01*
X51585905Y-42872914D02*
X51633524Y-42777676D01*
X51633524Y-42777676D02*
X51728762Y-42682438D01*
X51728762Y-42682438D02*
X51871619Y-42634819D01*
X51871619Y-42634819D02*
X51966857Y-42634819D01*
X51966857Y-42634819D02*
X52109714Y-42682438D01*
X52109714Y-42682438D02*
X52157333Y-42730057D01*
X52490667Y-42634819D02*
X53157333Y-42634819D01*
X53157333Y-42634819D02*
X52728762Y-43634819D01*
X40386095Y-110706819D02*
X40386095Y-111516342D01*
X40386095Y-111516342D02*
X40433714Y-111611580D01*
X40433714Y-111611580D02*
X40481333Y-111659200D01*
X40481333Y-111659200D02*
X40576571Y-111706819D01*
X40576571Y-111706819D02*
X40767047Y-111706819D01*
X40767047Y-111706819D02*
X40862285Y-111659200D01*
X40862285Y-111659200D02*
X40909904Y-111611580D01*
X40909904Y-111611580D02*
X40957523Y-111516342D01*
X40957523Y-111516342D02*
X40957523Y-110706819D01*
X41386095Y-110802057D02*
X41433714Y-110754438D01*
X41433714Y-110754438D02*
X41528952Y-110706819D01*
X41528952Y-110706819D02*
X41767047Y-110706819D01*
X41767047Y-110706819D02*
X41862285Y-110754438D01*
X41862285Y-110754438D02*
X41909904Y-110802057D01*
X41909904Y-110802057D02*
X41957523Y-110897295D01*
X41957523Y-110897295D02*
X41957523Y-110992533D01*
X41957523Y-110992533D02*
X41909904Y-111135390D01*
X41909904Y-111135390D02*
X41338476Y-111706819D01*
X41338476Y-111706819D02*
X41957523Y-111706819D01*
X35506819Y-49506094D02*
X34506819Y-49506094D01*
X34506819Y-49506094D02*
X34506819Y-49267999D01*
X34506819Y-49267999D02*
X34554438Y-49125142D01*
X34554438Y-49125142D02*
X34649676Y-49029904D01*
X34649676Y-49029904D02*
X34744914Y-48982285D01*
X34744914Y-48982285D02*
X34935390Y-48934666D01*
X34935390Y-48934666D02*
X35078247Y-48934666D01*
X35078247Y-48934666D02*
X35268723Y-48982285D01*
X35268723Y-48982285D02*
X35363961Y-49029904D01*
X35363961Y-49029904D02*
X35459200Y-49125142D01*
X35459200Y-49125142D02*
X35506819Y-49267999D01*
X35506819Y-49267999D02*
X35506819Y-49506094D01*
X35506819Y-47982285D02*
X35506819Y-48553713D01*
X35506819Y-48267999D02*
X34506819Y-48267999D01*
X34506819Y-48267999D02*
X34649676Y-48363237D01*
X34649676Y-48363237D02*
X34744914Y-48458475D01*
X34744914Y-48458475D02*
X34792533Y-48553713D01*
X34282095Y-54302819D02*
X34282095Y-53302819D01*
X34853523Y-54302819D02*
X34424952Y-53731390D01*
X34853523Y-53302819D02*
X34282095Y-53874247D01*
X49450666Y-30442819D02*
X49450666Y-31157104D01*
X49450666Y-31157104D02*
X49403047Y-31299961D01*
X49403047Y-31299961D02*
X49307809Y-31395200D01*
X49307809Y-31395200D02*
X49164952Y-31442819D01*
X49164952Y-31442819D02*
X49069714Y-31442819D01*
X49879238Y-30538057D02*
X49926857Y-30490438D01*
X49926857Y-30490438D02*
X50022095Y-30442819D01*
X50022095Y-30442819D02*
X50260190Y-30442819D01*
X50260190Y-30442819D02*
X50355428Y-30490438D01*
X50355428Y-30490438D02*
X50403047Y-30538057D01*
X50403047Y-30538057D02*
X50450666Y-30633295D01*
X50450666Y-30633295D02*
X50450666Y-30728533D01*
X50450666Y-30728533D02*
X50403047Y-30871390D01*
X50403047Y-30871390D02*
X49831619Y-31442819D01*
X49831619Y-31442819D02*
X50450666Y-31442819D01*
X58086666Y-105626819D02*
X58086666Y-106341104D01*
X58086666Y-106341104D02*
X58039047Y-106483961D01*
X58039047Y-106483961D02*
X57943809Y-106579200D01*
X57943809Y-106579200D02*
X57800952Y-106626819D01*
X57800952Y-106626819D02*
X57705714Y-106626819D01*
X58467619Y-105626819D02*
X59134285Y-105626819D01*
X59134285Y-105626819D02*
X58705714Y-106626819D01*
X85751580Y-56514666D02*
X85799200Y-56562285D01*
X85799200Y-56562285D02*
X85846819Y-56705142D01*
X85846819Y-56705142D02*
X85846819Y-56800380D01*
X85846819Y-56800380D02*
X85799200Y-56943237D01*
X85799200Y-56943237D02*
X85703961Y-57038475D01*
X85703961Y-57038475D02*
X85608723Y-57086094D01*
X85608723Y-57086094D02*
X85418247Y-57133713D01*
X85418247Y-57133713D02*
X85275390Y-57133713D01*
X85275390Y-57133713D02*
X85084914Y-57086094D01*
X85084914Y-57086094D02*
X84989676Y-57038475D01*
X84989676Y-57038475D02*
X84894438Y-56943237D01*
X84894438Y-56943237D02*
X84846819Y-56800380D01*
X84846819Y-56800380D02*
X84846819Y-56705142D01*
X84846819Y-56705142D02*
X84894438Y-56562285D01*
X84894438Y-56562285D02*
X84942057Y-56514666D01*
X85275390Y-55943237D02*
X85227771Y-56038475D01*
X85227771Y-56038475D02*
X85180152Y-56086094D01*
X85180152Y-56086094D02*
X85084914Y-56133713D01*
X85084914Y-56133713D02*
X85037295Y-56133713D01*
X85037295Y-56133713D02*
X84942057Y-56086094D01*
X84942057Y-56086094D02*
X84894438Y-56038475D01*
X84894438Y-56038475D02*
X84846819Y-55943237D01*
X84846819Y-55943237D02*
X84846819Y-55752761D01*
X84846819Y-55752761D02*
X84894438Y-55657523D01*
X84894438Y-55657523D02*
X84942057Y-55609904D01*
X84942057Y-55609904D02*
X85037295Y-55562285D01*
X85037295Y-55562285D02*
X85084914Y-55562285D01*
X85084914Y-55562285D02*
X85180152Y-55609904D01*
X85180152Y-55609904D02*
X85227771Y-55657523D01*
X85227771Y-55657523D02*
X85275390Y-55752761D01*
X85275390Y-55752761D02*
X85275390Y-55943237D01*
X85275390Y-55943237D02*
X85323009Y-56038475D01*
X85323009Y-56038475D02*
X85370628Y-56086094D01*
X85370628Y-56086094D02*
X85465866Y-56133713D01*
X85465866Y-56133713D02*
X85656342Y-56133713D01*
X85656342Y-56133713D02*
X85751580Y-56086094D01*
X85751580Y-56086094D02*
X85799200Y-56038475D01*
X85799200Y-56038475D02*
X85846819Y-55943237D01*
X85846819Y-55943237D02*
X85846819Y-55752761D01*
X85846819Y-55752761D02*
X85799200Y-55657523D01*
X85799200Y-55657523D02*
X85751580Y-55609904D01*
X85751580Y-55609904D02*
X85656342Y-55562285D01*
X85656342Y-55562285D02*
X85465866Y-55562285D01*
X85465866Y-55562285D02*
X85370628Y-55609904D01*
X85370628Y-55609904D02*
X85323009Y-55657523D01*
X85323009Y-55657523D02*
X85275390Y-55752761D01*
X32619333Y-58331580D02*
X32571714Y-58379200D01*
X32571714Y-58379200D02*
X32428857Y-58426819D01*
X32428857Y-58426819D02*
X32333619Y-58426819D01*
X32333619Y-58426819D02*
X32190762Y-58379200D01*
X32190762Y-58379200D02*
X32095524Y-58283961D01*
X32095524Y-58283961D02*
X32047905Y-58188723D01*
X32047905Y-58188723D02*
X32000286Y-57998247D01*
X32000286Y-57998247D02*
X32000286Y-57855390D01*
X32000286Y-57855390D02*
X32047905Y-57664914D01*
X32047905Y-57664914D02*
X32095524Y-57569676D01*
X32095524Y-57569676D02*
X32190762Y-57474438D01*
X32190762Y-57474438D02*
X32333619Y-57426819D01*
X32333619Y-57426819D02*
X32428857Y-57426819D01*
X32428857Y-57426819D02*
X32571714Y-57474438D01*
X32571714Y-57474438D02*
X32619333Y-57522057D01*
X33000286Y-57522057D02*
X33047905Y-57474438D01*
X33047905Y-57474438D02*
X33143143Y-57426819D01*
X33143143Y-57426819D02*
X33381238Y-57426819D01*
X33381238Y-57426819D02*
X33476476Y-57474438D01*
X33476476Y-57474438D02*
X33524095Y-57522057D01*
X33524095Y-57522057D02*
X33571714Y-57617295D01*
X33571714Y-57617295D02*
X33571714Y-57712533D01*
X33571714Y-57712533D02*
X33524095Y-57855390D01*
X33524095Y-57855390D02*
X32952667Y-58426819D01*
X32952667Y-58426819D02*
X33571714Y-58426819D01*
X89862819Y-93098857D02*
X89386628Y-93432190D01*
X89862819Y-93670285D02*
X88862819Y-93670285D01*
X88862819Y-93670285D02*
X88862819Y-93289333D01*
X88862819Y-93289333D02*
X88910438Y-93194095D01*
X88910438Y-93194095D02*
X88958057Y-93146476D01*
X88958057Y-93146476D02*
X89053295Y-93098857D01*
X89053295Y-93098857D02*
X89196152Y-93098857D01*
X89196152Y-93098857D02*
X89291390Y-93146476D01*
X89291390Y-93146476D02*
X89339009Y-93194095D01*
X89339009Y-93194095D02*
X89386628Y-93289333D01*
X89386628Y-93289333D02*
X89386628Y-93670285D01*
X89862819Y-92146476D02*
X89862819Y-92717904D01*
X89862819Y-92432190D02*
X88862819Y-92432190D01*
X88862819Y-92432190D02*
X89005676Y-92527428D01*
X89005676Y-92527428D02*
X89100914Y-92622666D01*
X89100914Y-92622666D02*
X89148533Y-92717904D01*
X88862819Y-91527428D02*
X88862819Y-91432190D01*
X88862819Y-91432190D02*
X88910438Y-91336952D01*
X88910438Y-91336952D02*
X88958057Y-91289333D01*
X88958057Y-91289333D02*
X89053295Y-91241714D01*
X89053295Y-91241714D02*
X89243771Y-91194095D01*
X89243771Y-91194095D02*
X89481866Y-91194095D01*
X89481866Y-91194095D02*
X89672342Y-91241714D01*
X89672342Y-91241714D02*
X89767580Y-91289333D01*
X89767580Y-91289333D02*
X89815200Y-91336952D01*
X89815200Y-91336952D02*
X89862819Y-91432190D01*
X89862819Y-91432190D02*
X89862819Y-91527428D01*
X89862819Y-91527428D02*
X89815200Y-91622666D01*
X89815200Y-91622666D02*
X89767580Y-91670285D01*
X89767580Y-91670285D02*
X89672342Y-91717904D01*
X89672342Y-91717904D02*
X89481866Y-91765523D01*
X89481866Y-91765523D02*
X89243771Y-91765523D01*
X89243771Y-91765523D02*
X89053295Y-91717904D01*
X89053295Y-91717904D02*
X88958057Y-91670285D01*
X88958057Y-91670285D02*
X88910438Y-91622666D01*
X88910438Y-91622666D02*
X88862819Y-91527428D01*
X105610819Y-77858857D02*
X105134628Y-78192190D01*
X105610819Y-78430285D02*
X104610819Y-78430285D01*
X104610819Y-78430285D02*
X104610819Y-78049333D01*
X104610819Y-78049333D02*
X104658438Y-77954095D01*
X104658438Y-77954095D02*
X104706057Y-77906476D01*
X104706057Y-77906476D02*
X104801295Y-77858857D01*
X104801295Y-77858857D02*
X104944152Y-77858857D01*
X104944152Y-77858857D02*
X105039390Y-77906476D01*
X105039390Y-77906476D02*
X105087009Y-77954095D01*
X105087009Y-77954095D02*
X105134628Y-78049333D01*
X105134628Y-78049333D02*
X105134628Y-78430285D01*
X105610819Y-76906476D02*
X105610819Y-77477904D01*
X105610819Y-77192190D02*
X104610819Y-77192190D01*
X104610819Y-77192190D02*
X104753676Y-77287428D01*
X104753676Y-77287428D02*
X104848914Y-77382666D01*
X104848914Y-77382666D02*
X104896533Y-77477904D01*
X104706057Y-76525523D02*
X104658438Y-76477904D01*
X104658438Y-76477904D02*
X104610819Y-76382666D01*
X104610819Y-76382666D02*
X104610819Y-76144571D01*
X104610819Y-76144571D02*
X104658438Y-76049333D01*
X104658438Y-76049333D02*
X104706057Y-76001714D01*
X104706057Y-76001714D02*
X104801295Y-75954095D01*
X104801295Y-75954095D02*
X104896533Y-75954095D01*
X104896533Y-75954095D02*
X105039390Y-76001714D01*
X105039390Y-76001714D02*
X105610819Y-76573142D01*
X105610819Y-76573142D02*
X105610819Y-75954095D01*
X45045333Y-64875580D02*
X44997714Y-64923200D01*
X44997714Y-64923200D02*
X44854857Y-64970819D01*
X44854857Y-64970819D02*
X44759619Y-64970819D01*
X44759619Y-64970819D02*
X44616762Y-64923200D01*
X44616762Y-64923200D02*
X44521524Y-64827961D01*
X44521524Y-64827961D02*
X44473905Y-64732723D01*
X44473905Y-64732723D02*
X44426286Y-64542247D01*
X44426286Y-64542247D02*
X44426286Y-64399390D01*
X44426286Y-64399390D02*
X44473905Y-64208914D01*
X44473905Y-64208914D02*
X44521524Y-64113676D01*
X44521524Y-64113676D02*
X44616762Y-64018438D01*
X44616762Y-64018438D02*
X44759619Y-63970819D01*
X44759619Y-63970819D02*
X44854857Y-63970819D01*
X44854857Y-63970819D02*
X44997714Y-64018438D01*
X44997714Y-64018438D02*
X45045333Y-64066057D01*
X45902476Y-64304152D02*
X45902476Y-64970819D01*
X45664381Y-63923200D02*
X45426286Y-64637485D01*
X45426286Y-64637485D02*
X46045333Y-64637485D01*
X83258819Y-92114666D02*
X82782628Y-92447999D01*
X83258819Y-92686094D02*
X82258819Y-92686094D01*
X82258819Y-92686094D02*
X82258819Y-92305142D01*
X82258819Y-92305142D02*
X82306438Y-92209904D01*
X82306438Y-92209904D02*
X82354057Y-92162285D01*
X82354057Y-92162285D02*
X82449295Y-92114666D01*
X82449295Y-92114666D02*
X82592152Y-92114666D01*
X82592152Y-92114666D02*
X82687390Y-92162285D01*
X82687390Y-92162285D02*
X82735009Y-92209904D01*
X82735009Y-92209904D02*
X82782628Y-92305142D01*
X82782628Y-92305142D02*
X82782628Y-92686094D01*
X82258819Y-91781332D02*
X82258819Y-91114666D01*
X82258819Y-91114666D02*
X83258819Y-91543237D01*
X50857580Y-69214666D02*
X50905200Y-69262285D01*
X50905200Y-69262285D02*
X50952819Y-69405142D01*
X50952819Y-69405142D02*
X50952819Y-69500380D01*
X50952819Y-69500380D02*
X50905200Y-69643237D01*
X50905200Y-69643237D02*
X50809961Y-69738475D01*
X50809961Y-69738475D02*
X50714723Y-69786094D01*
X50714723Y-69786094D02*
X50524247Y-69833713D01*
X50524247Y-69833713D02*
X50381390Y-69833713D01*
X50381390Y-69833713D02*
X50190914Y-69786094D01*
X50190914Y-69786094D02*
X50095676Y-69738475D01*
X50095676Y-69738475D02*
X50000438Y-69643237D01*
X50000438Y-69643237D02*
X49952819Y-69500380D01*
X49952819Y-69500380D02*
X49952819Y-69405142D01*
X49952819Y-69405142D02*
X50000438Y-69262285D01*
X50000438Y-69262285D02*
X50048057Y-69214666D01*
X49952819Y-68309904D02*
X49952819Y-68786094D01*
X49952819Y-68786094D02*
X50429009Y-68833713D01*
X50429009Y-68833713D02*
X50381390Y-68786094D01*
X50381390Y-68786094D02*
X50333771Y-68690856D01*
X50333771Y-68690856D02*
X50333771Y-68452761D01*
X50333771Y-68452761D02*
X50381390Y-68357523D01*
X50381390Y-68357523D02*
X50429009Y-68309904D01*
X50429009Y-68309904D02*
X50524247Y-68262285D01*
X50524247Y-68262285D02*
X50762342Y-68262285D01*
X50762342Y-68262285D02*
X50857580Y-68309904D01*
X50857580Y-68309904D02*
X50905200Y-68357523D01*
X50905200Y-68357523D02*
X50952819Y-68452761D01*
X50952819Y-68452761D02*
X50952819Y-68690856D01*
X50952819Y-68690856D02*
X50905200Y-68786094D01*
X50905200Y-68786094D02*
X50857580Y-68833713D01*
X83486666Y-110579819D02*
X83486666Y-111294104D01*
X83486666Y-111294104D02*
X83439047Y-111436961D01*
X83439047Y-111436961D02*
X83343809Y-111532200D01*
X83343809Y-111532200D02*
X83200952Y-111579819D01*
X83200952Y-111579819D02*
X83105714Y-111579819D01*
X84439047Y-110579819D02*
X83962857Y-110579819D01*
X83962857Y-110579819D02*
X83915238Y-111056009D01*
X83915238Y-111056009D02*
X83962857Y-111008390D01*
X83962857Y-111008390D02*
X84058095Y-110960771D01*
X84058095Y-110960771D02*
X84296190Y-110960771D01*
X84296190Y-110960771D02*
X84391428Y-111008390D01*
X84391428Y-111008390D02*
X84439047Y-111056009D01*
X84439047Y-111056009D02*
X84486666Y-111151247D01*
X84486666Y-111151247D02*
X84486666Y-111389342D01*
X84486666Y-111389342D02*
X84439047Y-111484580D01*
X84439047Y-111484580D02*
X84391428Y-111532200D01*
X84391428Y-111532200D02*
X84296190Y-111579819D01*
X84296190Y-111579819D02*
X84058095Y-111579819D01*
X84058095Y-111579819D02*
X83962857Y-111532200D01*
X83962857Y-111532200D02*
X83915238Y-111484580D01*
X54530666Y-54826819D02*
X54530666Y-55541104D01*
X54530666Y-55541104D02*
X54483047Y-55683961D01*
X54483047Y-55683961D02*
X54387809Y-55779200D01*
X54387809Y-55779200D02*
X54244952Y-55826819D01*
X54244952Y-55826819D02*
X54149714Y-55826819D01*
X54911619Y-54826819D02*
X55530666Y-54826819D01*
X55530666Y-54826819D02*
X55197333Y-55207771D01*
X55197333Y-55207771D02*
X55340190Y-55207771D01*
X55340190Y-55207771D02*
X55435428Y-55255390D01*
X55435428Y-55255390D02*
X55483047Y-55303009D01*
X55483047Y-55303009D02*
X55530666Y-55398247D01*
X55530666Y-55398247D02*
X55530666Y-55636342D01*
X55530666Y-55636342D02*
X55483047Y-55731580D01*
X55483047Y-55731580D02*
X55435428Y-55779200D01*
X55435428Y-55779200D02*
X55340190Y-55826819D01*
X55340190Y-55826819D02*
X55054476Y-55826819D01*
X55054476Y-55826819D02*
X54959238Y-55779200D01*
X54959238Y-55779200D02*
X54911619Y-55731580D01*
X46569333Y-95450819D02*
X46236000Y-94974628D01*
X45997905Y-95450819D02*
X45997905Y-94450819D01*
X45997905Y-94450819D02*
X46378857Y-94450819D01*
X46378857Y-94450819D02*
X46474095Y-94498438D01*
X46474095Y-94498438D02*
X46521714Y-94546057D01*
X46521714Y-94546057D02*
X46569333Y-94641295D01*
X46569333Y-94641295D02*
X46569333Y-94784152D01*
X46569333Y-94784152D02*
X46521714Y-94879390D01*
X46521714Y-94879390D02*
X46474095Y-94927009D01*
X46474095Y-94927009D02*
X46378857Y-94974628D01*
X46378857Y-94974628D02*
X45997905Y-94974628D01*
X47521714Y-95450819D02*
X46950286Y-95450819D01*
X47236000Y-95450819D02*
X47236000Y-94450819D01*
X47236000Y-94450819D02*
X47140762Y-94593676D01*
X47140762Y-94593676D02*
X47045524Y-94688914D01*
X47045524Y-94688914D02*
X46950286Y-94736533D01*
X85177333Y-78178819D02*
X84844000Y-77702628D01*
X84605905Y-78178819D02*
X84605905Y-77178819D01*
X84605905Y-77178819D02*
X84986857Y-77178819D01*
X84986857Y-77178819D02*
X85082095Y-77226438D01*
X85082095Y-77226438D02*
X85129714Y-77274057D01*
X85129714Y-77274057D02*
X85177333Y-77369295D01*
X85177333Y-77369295D02*
X85177333Y-77512152D01*
X85177333Y-77512152D02*
X85129714Y-77607390D01*
X85129714Y-77607390D02*
X85082095Y-77655009D01*
X85082095Y-77655009D02*
X84986857Y-77702628D01*
X84986857Y-77702628D02*
X84605905Y-77702628D01*
X86034476Y-77178819D02*
X85844000Y-77178819D01*
X85844000Y-77178819D02*
X85748762Y-77226438D01*
X85748762Y-77226438D02*
X85701143Y-77274057D01*
X85701143Y-77274057D02*
X85605905Y-77416914D01*
X85605905Y-77416914D02*
X85558286Y-77607390D01*
X85558286Y-77607390D02*
X85558286Y-77988342D01*
X85558286Y-77988342D02*
X85605905Y-78083580D01*
X85605905Y-78083580D02*
X85653524Y-78131200D01*
X85653524Y-78131200D02*
X85748762Y-78178819D01*
X85748762Y-78178819D02*
X85939238Y-78178819D01*
X85939238Y-78178819D02*
X86034476Y-78131200D01*
X86034476Y-78131200D02*
X86082095Y-78083580D01*
X86082095Y-78083580D02*
X86129714Y-77988342D01*
X86129714Y-77988342D02*
X86129714Y-77750247D01*
X86129714Y-77750247D02*
X86082095Y-77655009D01*
X86082095Y-77655009D02*
X86034476Y-77607390D01*
X86034476Y-77607390D02*
X85939238Y-77559771D01*
X85939238Y-77559771D02*
X85748762Y-77559771D01*
X85748762Y-77559771D02*
X85653524Y-77607390D01*
X85653524Y-77607390D02*
X85605905Y-77655009D01*
X85605905Y-77655009D02*
X85558286Y-77750247D01*
X34718666Y-41110819D02*
X34718666Y-41825104D01*
X34718666Y-41825104D02*
X34671047Y-41967961D01*
X34671047Y-41967961D02*
X34575809Y-42063200D01*
X34575809Y-42063200D02*
X34432952Y-42110819D01*
X34432952Y-42110819D02*
X34337714Y-42110819D01*
X35718666Y-42110819D02*
X35147238Y-42110819D01*
X35432952Y-42110819D02*
X35432952Y-41110819D01*
X35432952Y-41110819D02*
X35337714Y-41253676D01*
X35337714Y-41253676D02*
X35242476Y-41348914D01*
X35242476Y-41348914D02*
X35147238Y-41396533D01*
X47077333Y-39062819D02*
X46744000Y-38586628D01*
X46505905Y-39062819D02*
X46505905Y-38062819D01*
X46505905Y-38062819D02*
X46886857Y-38062819D01*
X46886857Y-38062819D02*
X46982095Y-38110438D01*
X46982095Y-38110438D02*
X47029714Y-38158057D01*
X47029714Y-38158057D02*
X47077333Y-38253295D01*
X47077333Y-38253295D02*
X47077333Y-38396152D01*
X47077333Y-38396152D02*
X47029714Y-38491390D01*
X47029714Y-38491390D02*
X46982095Y-38539009D01*
X46982095Y-38539009D02*
X46886857Y-38586628D01*
X46886857Y-38586628D02*
X46505905Y-38586628D01*
X47648762Y-38491390D02*
X47553524Y-38443771D01*
X47553524Y-38443771D02*
X47505905Y-38396152D01*
X47505905Y-38396152D02*
X47458286Y-38300914D01*
X47458286Y-38300914D02*
X47458286Y-38253295D01*
X47458286Y-38253295D02*
X47505905Y-38158057D01*
X47505905Y-38158057D02*
X47553524Y-38110438D01*
X47553524Y-38110438D02*
X47648762Y-38062819D01*
X47648762Y-38062819D02*
X47839238Y-38062819D01*
X47839238Y-38062819D02*
X47934476Y-38110438D01*
X47934476Y-38110438D02*
X47982095Y-38158057D01*
X47982095Y-38158057D02*
X48029714Y-38253295D01*
X48029714Y-38253295D02*
X48029714Y-38300914D01*
X48029714Y-38300914D02*
X47982095Y-38396152D01*
X47982095Y-38396152D02*
X47934476Y-38443771D01*
X47934476Y-38443771D02*
X47839238Y-38491390D01*
X47839238Y-38491390D02*
X47648762Y-38491390D01*
X47648762Y-38491390D02*
X47553524Y-38539009D01*
X47553524Y-38539009D02*
X47505905Y-38586628D01*
X47505905Y-38586628D02*
X47458286Y-38681866D01*
X47458286Y-38681866D02*
X47458286Y-38872342D01*
X47458286Y-38872342D02*
X47505905Y-38967580D01*
X47505905Y-38967580D02*
X47553524Y-39015200D01*
X47553524Y-39015200D02*
X47648762Y-39062819D01*
X47648762Y-39062819D02*
X47839238Y-39062819D01*
X47839238Y-39062819D02*
X47934476Y-39015200D01*
X47934476Y-39015200D02*
X47982095Y-38967580D01*
X47982095Y-38967580D02*
X48029714Y-38872342D01*
X48029714Y-38872342D02*
X48029714Y-38681866D01*
X48029714Y-38681866D02*
X47982095Y-38586628D01*
X47982095Y-38586628D02*
X47934476Y-38539009D01*
X47934476Y-38539009D02*
X47839238Y-38491390D01*
X87145905Y-64574819D02*
X87145905Y-63574819D01*
X87145905Y-63574819D02*
X87384000Y-63574819D01*
X87384000Y-63574819D02*
X87526857Y-63622438D01*
X87526857Y-63622438D02*
X87622095Y-63717676D01*
X87622095Y-63717676D02*
X87669714Y-63812914D01*
X87669714Y-63812914D02*
X87717333Y-64003390D01*
X87717333Y-64003390D02*
X87717333Y-64146247D01*
X87717333Y-64146247D02*
X87669714Y-64336723D01*
X87669714Y-64336723D02*
X87622095Y-64431961D01*
X87622095Y-64431961D02*
X87526857Y-64527200D01*
X87526857Y-64527200D02*
X87384000Y-64574819D01*
X87384000Y-64574819D02*
X87145905Y-64574819D01*
X88050667Y-63574819D02*
X88669714Y-63574819D01*
X88669714Y-63574819D02*
X88336381Y-63955771D01*
X88336381Y-63955771D02*
X88479238Y-63955771D01*
X88479238Y-63955771D02*
X88574476Y-64003390D01*
X88574476Y-64003390D02*
X88622095Y-64051009D01*
X88622095Y-64051009D02*
X88669714Y-64146247D01*
X88669714Y-64146247D02*
X88669714Y-64384342D01*
X88669714Y-64384342D02*
X88622095Y-64479580D01*
X88622095Y-64479580D02*
X88574476Y-64527200D01*
X88574476Y-64527200D02*
X88479238Y-64574819D01*
X88479238Y-64574819D02*
X88193524Y-64574819D01*
X88193524Y-64574819D02*
X88098286Y-64527200D01*
X88098286Y-64527200D02*
X88050667Y-64479580D01*
X84955095Y-64716819D02*
X84955095Y-63716819D01*
X85526523Y-64716819D02*
X85097952Y-64145390D01*
X85526523Y-63716819D02*
X84955095Y-64288247D01*
X99401333Y-79607580D02*
X99353714Y-79655200D01*
X99353714Y-79655200D02*
X99210857Y-79702819D01*
X99210857Y-79702819D02*
X99115619Y-79702819D01*
X99115619Y-79702819D02*
X98972762Y-79655200D01*
X98972762Y-79655200D02*
X98877524Y-79559961D01*
X98877524Y-79559961D02*
X98829905Y-79464723D01*
X98829905Y-79464723D02*
X98782286Y-79274247D01*
X98782286Y-79274247D02*
X98782286Y-79131390D01*
X98782286Y-79131390D02*
X98829905Y-78940914D01*
X98829905Y-78940914D02*
X98877524Y-78845676D01*
X98877524Y-78845676D02*
X98972762Y-78750438D01*
X98972762Y-78750438D02*
X99115619Y-78702819D01*
X99115619Y-78702819D02*
X99210857Y-78702819D01*
X99210857Y-78702819D02*
X99353714Y-78750438D01*
X99353714Y-78750438D02*
X99401333Y-78798057D01*
X100353714Y-79702819D02*
X99782286Y-79702819D01*
X100068000Y-79702819D02*
X100068000Y-78702819D01*
X100068000Y-78702819D02*
X99972762Y-78845676D01*
X99972762Y-78845676D02*
X99877524Y-78940914D01*
X99877524Y-78940914D02*
X99782286Y-78988533D01*
X85177333Y-99419580D02*
X85129714Y-99467200D01*
X85129714Y-99467200D02*
X84986857Y-99514819D01*
X84986857Y-99514819D02*
X84891619Y-99514819D01*
X84891619Y-99514819D02*
X84748762Y-99467200D01*
X84748762Y-99467200D02*
X84653524Y-99371961D01*
X84653524Y-99371961D02*
X84605905Y-99276723D01*
X84605905Y-99276723D02*
X84558286Y-99086247D01*
X84558286Y-99086247D02*
X84558286Y-98943390D01*
X84558286Y-98943390D02*
X84605905Y-98752914D01*
X84605905Y-98752914D02*
X84653524Y-98657676D01*
X84653524Y-98657676D02*
X84748762Y-98562438D01*
X84748762Y-98562438D02*
X84891619Y-98514819D01*
X84891619Y-98514819D02*
X84986857Y-98514819D01*
X84986857Y-98514819D02*
X85129714Y-98562438D01*
X85129714Y-98562438D02*
X85177333Y-98610057D01*
X86034476Y-98514819D02*
X85844000Y-98514819D01*
X85844000Y-98514819D02*
X85748762Y-98562438D01*
X85748762Y-98562438D02*
X85701143Y-98610057D01*
X85701143Y-98610057D02*
X85605905Y-98752914D01*
X85605905Y-98752914D02*
X85558286Y-98943390D01*
X85558286Y-98943390D02*
X85558286Y-99324342D01*
X85558286Y-99324342D02*
X85605905Y-99419580D01*
X85605905Y-99419580D02*
X85653524Y-99467200D01*
X85653524Y-99467200D02*
X85748762Y-99514819D01*
X85748762Y-99514819D02*
X85939238Y-99514819D01*
X85939238Y-99514819D02*
X86034476Y-99467200D01*
X86034476Y-99467200D02*
X86082095Y-99419580D01*
X86082095Y-99419580D02*
X86129714Y-99324342D01*
X86129714Y-99324342D02*
X86129714Y-99086247D01*
X86129714Y-99086247D02*
X86082095Y-98991009D01*
X86082095Y-98991009D02*
X86034476Y-98943390D01*
X86034476Y-98943390D02*
X85939238Y-98895771D01*
X85939238Y-98895771D02*
X85748762Y-98895771D01*
X85748762Y-98895771D02*
X85653524Y-98943390D01*
X85653524Y-98943390D02*
X85605905Y-98991009D01*
X85605905Y-98991009D02*
X85558286Y-99086247D01*
X87687580Y-38306666D02*
X87735200Y-38354285D01*
X87735200Y-38354285D02*
X87782819Y-38497142D01*
X87782819Y-38497142D02*
X87782819Y-38592380D01*
X87782819Y-38592380D02*
X87735200Y-38735237D01*
X87735200Y-38735237D02*
X87639961Y-38830475D01*
X87639961Y-38830475D02*
X87544723Y-38878094D01*
X87544723Y-38878094D02*
X87354247Y-38925713D01*
X87354247Y-38925713D02*
X87211390Y-38925713D01*
X87211390Y-38925713D02*
X87020914Y-38878094D01*
X87020914Y-38878094D02*
X86925676Y-38830475D01*
X86925676Y-38830475D02*
X86830438Y-38735237D01*
X86830438Y-38735237D02*
X86782819Y-38592380D01*
X86782819Y-38592380D02*
X86782819Y-38497142D01*
X86782819Y-38497142D02*
X86830438Y-38354285D01*
X86830438Y-38354285D02*
X86878057Y-38306666D01*
X87782819Y-37830475D02*
X87782819Y-37639999D01*
X87782819Y-37639999D02*
X87735200Y-37544761D01*
X87735200Y-37544761D02*
X87687580Y-37497142D01*
X87687580Y-37497142D02*
X87544723Y-37401904D01*
X87544723Y-37401904D02*
X87354247Y-37354285D01*
X87354247Y-37354285D02*
X86973295Y-37354285D01*
X86973295Y-37354285D02*
X86878057Y-37401904D01*
X86878057Y-37401904D02*
X86830438Y-37449523D01*
X86830438Y-37449523D02*
X86782819Y-37544761D01*
X86782819Y-37544761D02*
X86782819Y-37735237D01*
X86782819Y-37735237D02*
X86830438Y-37830475D01*
X86830438Y-37830475D02*
X86878057Y-37878094D01*
X86878057Y-37878094D02*
X86973295Y-37925713D01*
X86973295Y-37925713D02*
X87211390Y-37925713D01*
X87211390Y-37925713D02*
X87306628Y-37878094D01*
X87306628Y-37878094D02*
X87354247Y-37830475D01*
X87354247Y-37830475D02*
X87401866Y-37735237D01*
X87401866Y-37735237D02*
X87401866Y-37544761D01*
X87401866Y-37544761D02*
X87354247Y-37449523D01*
X87354247Y-37449523D02*
X87306628Y-37401904D01*
X87306628Y-37401904D02*
X87211390Y-37354285D01*
X35901333Y-65431580D02*
X35853714Y-65479200D01*
X35853714Y-65479200D02*
X35710857Y-65526819D01*
X35710857Y-65526819D02*
X35615619Y-65526819D01*
X35615619Y-65526819D02*
X35472762Y-65479200D01*
X35472762Y-65479200D02*
X35377524Y-65383961D01*
X35377524Y-65383961D02*
X35329905Y-65288723D01*
X35329905Y-65288723D02*
X35282286Y-65098247D01*
X35282286Y-65098247D02*
X35282286Y-64955390D01*
X35282286Y-64955390D02*
X35329905Y-64764914D01*
X35329905Y-64764914D02*
X35377524Y-64669676D01*
X35377524Y-64669676D02*
X35472762Y-64574438D01*
X35472762Y-64574438D02*
X35615619Y-64526819D01*
X35615619Y-64526819D02*
X35710857Y-64526819D01*
X35710857Y-64526819D02*
X35853714Y-64574438D01*
X35853714Y-64574438D02*
X35901333Y-64622057D01*
X36234667Y-64526819D02*
X36853714Y-64526819D01*
X36853714Y-64526819D02*
X36520381Y-64907771D01*
X36520381Y-64907771D02*
X36663238Y-64907771D01*
X36663238Y-64907771D02*
X36758476Y-64955390D01*
X36758476Y-64955390D02*
X36806095Y-65003009D01*
X36806095Y-65003009D02*
X36853714Y-65098247D01*
X36853714Y-65098247D02*
X36853714Y-65336342D01*
X36853714Y-65336342D02*
X36806095Y-65431580D01*
X36806095Y-65431580D02*
X36758476Y-65479200D01*
X36758476Y-65479200D02*
X36663238Y-65526819D01*
X36663238Y-65526819D02*
X36377524Y-65526819D01*
X36377524Y-65526819D02*
X36282286Y-65479200D01*
X36282286Y-65479200D02*
X36234667Y-65431580D01*
X101854095Y-89370819D02*
X101854095Y-90180342D01*
X101854095Y-90180342D02*
X101901714Y-90275580D01*
X101901714Y-90275580D02*
X101949333Y-90323200D01*
X101949333Y-90323200D02*
X102044571Y-90370819D01*
X102044571Y-90370819D02*
X102235047Y-90370819D01*
X102235047Y-90370819D02*
X102330285Y-90323200D01*
X102330285Y-90323200D02*
X102377904Y-90275580D01*
X102377904Y-90275580D02*
X102425523Y-90180342D01*
X102425523Y-90180342D02*
X102425523Y-89370819D01*
X103425523Y-90370819D02*
X102854095Y-90370819D01*
X103139809Y-90370819D02*
X103139809Y-89370819D01*
X103139809Y-89370819D02*
X103044571Y-89513676D01*
X103044571Y-89513676D02*
X102949333Y-89608914D01*
X102949333Y-89608914D02*
X102854095Y-89656533D01*
X82978666Y-43650819D02*
X82978666Y-44365104D01*
X82978666Y-44365104D02*
X82931047Y-44507961D01*
X82931047Y-44507961D02*
X82835809Y-44603200D01*
X82835809Y-44603200D02*
X82692952Y-44650819D01*
X82692952Y-44650819D02*
X82597714Y-44650819D01*
X83883428Y-43984152D02*
X83883428Y-44650819D01*
X83645333Y-43603200D02*
X83407238Y-44317485D01*
X83407238Y-44317485D02*
X84026285Y-44317485D01*
X62514819Y-51474666D02*
X62038628Y-51807999D01*
X62514819Y-52046094D02*
X61514819Y-52046094D01*
X61514819Y-52046094D02*
X61514819Y-51665142D01*
X61514819Y-51665142D02*
X61562438Y-51569904D01*
X61562438Y-51569904D02*
X61610057Y-51522285D01*
X61610057Y-51522285D02*
X61705295Y-51474666D01*
X61705295Y-51474666D02*
X61848152Y-51474666D01*
X61848152Y-51474666D02*
X61943390Y-51522285D01*
X61943390Y-51522285D02*
X61991009Y-51569904D01*
X61991009Y-51569904D02*
X62038628Y-51665142D01*
X62038628Y-51665142D02*
X62038628Y-52046094D01*
X62514819Y-50998475D02*
X62514819Y-50807999D01*
X62514819Y-50807999D02*
X62467200Y-50712761D01*
X62467200Y-50712761D02*
X62419580Y-50665142D01*
X62419580Y-50665142D02*
X62276723Y-50569904D01*
X62276723Y-50569904D02*
X62086247Y-50522285D01*
X62086247Y-50522285D02*
X61705295Y-50522285D01*
X61705295Y-50522285D02*
X61610057Y-50569904D01*
X61610057Y-50569904D02*
X61562438Y-50617523D01*
X61562438Y-50617523D02*
X61514819Y-50712761D01*
X61514819Y-50712761D02*
X61514819Y-50903237D01*
X61514819Y-50903237D02*
X61562438Y-50998475D01*
X61562438Y-50998475D02*
X61610057Y-51046094D01*
X61610057Y-51046094D02*
X61705295Y-51093713D01*
X61705295Y-51093713D02*
X61943390Y-51093713D01*
X61943390Y-51093713D02*
X62038628Y-51046094D01*
X62038628Y-51046094D02*
X62086247Y-50998475D01*
X62086247Y-50998475D02*
X62133866Y-50903237D01*
X62133866Y-50903237D02*
X62133866Y-50712761D01*
X62133866Y-50712761D02*
X62086247Y-50617523D01*
X62086247Y-50617523D02*
X62038628Y-50569904D01*
X62038628Y-50569904D02*
X61943390Y-50522285D01*
X102481142Y-93926819D02*
X102147809Y-93450628D01*
X101909714Y-93926819D02*
X101909714Y-92926819D01*
X101909714Y-92926819D02*
X102290666Y-92926819D01*
X102290666Y-92926819D02*
X102385904Y-92974438D01*
X102385904Y-92974438D02*
X102433523Y-93022057D01*
X102433523Y-93022057D02*
X102481142Y-93117295D01*
X102481142Y-93117295D02*
X102481142Y-93260152D01*
X102481142Y-93260152D02*
X102433523Y-93355390D01*
X102433523Y-93355390D02*
X102385904Y-93403009D01*
X102385904Y-93403009D02*
X102290666Y-93450628D01*
X102290666Y-93450628D02*
X101909714Y-93450628D01*
X103433523Y-93926819D02*
X102862095Y-93926819D01*
X103147809Y-93926819D02*
X103147809Y-92926819D01*
X103147809Y-92926819D02*
X103052571Y-93069676D01*
X103052571Y-93069676D02*
X102957333Y-93164914D01*
X102957333Y-93164914D02*
X102862095Y-93212533D01*
X104338285Y-92926819D02*
X103862095Y-92926819D01*
X103862095Y-92926819D02*
X103814476Y-93403009D01*
X103814476Y-93403009D02*
X103862095Y-93355390D01*
X103862095Y-93355390D02*
X103957333Y-93307771D01*
X103957333Y-93307771D02*
X104195428Y-93307771D01*
X104195428Y-93307771D02*
X104290666Y-93355390D01*
X104290666Y-93355390D02*
X104338285Y-93403009D01*
X104338285Y-93403009D02*
X104385904Y-93498247D01*
X104385904Y-93498247D02*
X104385904Y-93736342D01*
X104385904Y-93736342D02*
X104338285Y-93831580D01*
X104338285Y-93831580D02*
X104290666Y-93879200D01*
X104290666Y-93879200D02*
X104195428Y-93926819D01*
X104195428Y-93926819D02*
X103957333Y-93926819D01*
X103957333Y-93926819D02*
X103862095Y-93879200D01*
X103862095Y-93879200D02*
X103814476Y-93831580D01*
X53514666Y-105626819D02*
X53514666Y-106341104D01*
X53514666Y-106341104D02*
X53467047Y-106483961D01*
X53467047Y-106483961D02*
X53371809Y-106579200D01*
X53371809Y-106579200D02*
X53228952Y-106626819D01*
X53228952Y-106626819D02*
X53133714Y-106626819D01*
X54419428Y-105626819D02*
X54228952Y-105626819D01*
X54228952Y-105626819D02*
X54133714Y-105674438D01*
X54133714Y-105674438D02*
X54086095Y-105722057D01*
X54086095Y-105722057D02*
X53990857Y-105864914D01*
X53990857Y-105864914D02*
X53943238Y-106055390D01*
X53943238Y-106055390D02*
X53943238Y-106436342D01*
X53943238Y-106436342D02*
X53990857Y-106531580D01*
X53990857Y-106531580D02*
X54038476Y-106579200D01*
X54038476Y-106579200D02*
X54133714Y-106626819D01*
X54133714Y-106626819D02*
X54324190Y-106626819D01*
X54324190Y-106626819D02*
X54419428Y-106579200D01*
X54419428Y-106579200D02*
X54467047Y-106531580D01*
X54467047Y-106531580D02*
X54514666Y-106436342D01*
X54514666Y-106436342D02*
X54514666Y-106198247D01*
X54514666Y-106198247D02*
X54467047Y-106103009D01*
X54467047Y-106103009D02*
X54419428Y-106055390D01*
X54419428Y-106055390D02*
X54324190Y-106007771D01*
X54324190Y-106007771D02*
X54133714Y-106007771D01*
X54133714Y-106007771D02*
X54038476Y-106055390D01*
X54038476Y-106055390D02*
X53990857Y-106103009D01*
X53990857Y-106103009D02*
X53943238Y-106198247D01*
X96845523Y-104086819D02*
X96512190Y-103610628D01*
X96274095Y-104086819D02*
X96274095Y-103086819D01*
X96274095Y-103086819D02*
X96655047Y-103086819D01*
X96655047Y-103086819D02*
X96750285Y-103134438D01*
X96750285Y-103134438D02*
X96797904Y-103182057D01*
X96797904Y-103182057D02*
X96845523Y-103277295D01*
X96845523Y-103277295D02*
X96845523Y-103420152D01*
X96845523Y-103420152D02*
X96797904Y-103515390D01*
X96797904Y-103515390D02*
X96750285Y-103563009D01*
X96750285Y-103563009D02*
X96655047Y-103610628D01*
X96655047Y-103610628D02*
X96274095Y-103610628D01*
X97274095Y-104086819D02*
X97274095Y-103086819D01*
X97274095Y-103086819D02*
X97845523Y-104086819D01*
X97845523Y-104086819D02*
X97845523Y-103086819D01*
X98845523Y-104086819D02*
X98274095Y-104086819D01*
X98559809Y-104086819D02*
X98559809Y-103086819D01*
X98559809Y-103086819D02*
X98464571Y-103229676D01*
X98464571Y-103229676D02*
X98369333Y-103324914D01*
X98369333Y-103324914D02*
X98274095Y-103372533D01*
X94321333Y-102562819D02*
X93988000Y-102086628D01*
X93749905Y-102562819D02*
X93749905Y-101562819D01*
X93749905Y-101562819D02*
X94130857Y-101562819D01*
X94130857Y-101562819D02*
X94226095Y-101610438D01*
X94226095Y-101610438D02*
X94273714Y-101658057D01*
X94273714Y-101658057D02*
X94321333Y-101753295D01*
X94321333Y-101753295D02*
X94321333Y-101896152D01*
X94321333Y-101896152D02*
X94273714Y-101991390D01*
X94273714Y-101991390D02*
X94226095Y-102039009D01*
X94226095Y-102039009D02*
X94130857Y-102086628D01*
X94130857Y-102086628D02*
X93749905Y-102086628D01*
X95178476Y-101896152D02*
X95178476Y-102562819D01*
X94940381Y-101515200D02*
X94702286Y-102229485D01*
X94702286Y-102229485D02*
X95321333Y-102229485D01*
X105102819Y-84970857D02*
X104626628Y-85304190D01*
X105102819Y-85542285D02*
X104102819Y-85542285D01*
X104102819Y-85542285D02*
X104102819Y-85161333D01*
X104102819Y-85161333D02*
X104150438Y-85066095D01*
X104150438Y-85066095D02*
X104198057Y-85018476D01*
X104198057Y-85018476D02*
X104293295Y-84970857D01*
X104293295Y-84970857D02*
X104436152Y-84970857D01*
X104436152Y-84970857D02*
X104531390Y-85018476D01*
X104531390Y-85018476D02*
X104579009Y-85066095D01*
X104579009Y-85066095D02*
X104626628Y-85161333D01*
X104626628Y-85161333D02*
X104626628Y-85542285D01*
X105102819Y-84018476D02*
X105102819Y-84589904D01*
X105102819Y-84304190D02*
X104102819Y-84304190D01*
X104102819Y-84304190D02*
X104245676Y-84399428D01*
X104245676Y-84399428D02*
X104340914Y-84494666D01*
X104340914Y-84494666D02*
X104388533Y-84589904D01*
X105102819Y-83066095D02*
X105102819Y-83637523D01*
X105102819Y-83351809D02*
X104102819Y-83351809D01*
X104102819Y-83351809D02*
X104245676Y-83447047D01*
X104245676Y-83447047D02*
X104340914Y-83542285D01*
X104340914Y-83542285D02*
X104388533Y-83637523D01*
X46569333Y-99514819D02*
X46236000Y-99038628D01*
X45997905Y-99514819D02*
X45997905Y-98514819D01*
X45997905Y-98514819D02*
X46378857Y-98514819D01*
X46378857Y-98514819D02*
X46474095Y-98562438D01*
X46474095Y-98562438D02*
X46521714Y-98610057D01*
X46521714Y-98610057D02*
X46569333Y-98705295D01*
X46569333Y-98705295D02*
X46569333Y-98848152D01*
X46569333Y-98848152D02*
X46521714Y-98943390D01*
X46521714Y-98943390D02*
X46474095Y-98991009D01*
X46474095Y-98991009D02*
X46378857Y-99038628D01*
X46378857Y-99038628D02*
X45997905Y-99038628D01*
X47474095Y-98514819D02*
X46997905Y-98514819D01*
X46997905Y-98514819D02*
X46950286Y-98991009D01*
X46950286Y-98991009D02*
X46997905Y-98943390D01*
X46997905Y-98943390D02*
X47093143Y-98895771D01*
X47093143Y-98895771D02*
X47331238Y-98895771D01*
X47331238Y-98895771D02*
X47426476Y-98943390D01*
X47426476Y-98943390D02*
X47474095Y-98991009D01*
X47474095Y-98991009D02*
X47521714Y-99086247D01*
X47521714Y-99086247D02*
X47521714Y-99324342D01*
X47521714Y-99324342D02*
X47474095Y-99419580D01*
X47474095Y-99419580D02*
X47426476Y-99467200D01*
X47426476Y-99467200D02*
X47331238Y-99514819D01*
X47331238Y-99514819D02*
X47093143Y-99514819D01*
X47093143Y-99514819D02*
X46997905Y-99467200D01*
X46997905Y-99467200D02*
X46950286Y-99419580D01*
D13*
%TO.C,R13*%
X98044000Y-74652000D02*
X98044000Y-73882000D01*
X96674000Y-73882000D02*
X99414000Y-73882000D01*
X99414000Y-73882000D02*
X99414000Y-67342000D01*
X96674000Y-67342000D02*
X96674000Y-73882000D01*
X99414000Y-67342000D02*
X96674000Y-67342000D01*
X98044000Y-66572000D02*
X98044000Y-67342000D01*
%TO.C,D4*%
X91974000Y-68580000D02*
X89524000Y-68580000D01*
X89524000Y-69500000D02*
X89524000Y-67660000D01*
X89524000Y-67660000D02*
X86244000Y-67660000D01*
X89068000Y-69500000D02*
X89068000Y-67660000D01*
X88948000Y-69500000D02*
X88948000Y-67660000D01*
X88828000Y-69500000D02*
X88828000Y-67660000D01*
X86244000Y-69500000D02*
X89524000Y-69500000D01*
X86244000Y-67660000D02*
X86244000Y-69500000D01*
X83794000Y-68580000D02*
X86244000Y-68580000D01*
%TO.C,R2*%
X32536000Y-71882000D02*
X33306000Y-71882000D01*
X33306000Y-70512000D02*
X33306000Y-73252000D01*
X33306000Y-73252000D02*
X39846000Y-73252000D01*
X39846000Y-70512000D02*
X33306000Y-70512000D01*
X39846000Y-73252000D02*
X39846000Y-70512000D01*
X40616000Y-71882000D02*
X39846000Y-71882000D01*
%TO.C,A1*%
X81580000Y-114560000D02*
X81580000Y-112160000D01*
X81280000Y-114260000D02*
X63480000Y-114260000D01*
X81280000Y-63260000D02*
X81280000Y-114260000D01*
X79280000Y-114560000D02*
X81580000Y-114560000D01*
X78800000Y-114260000D02*
X78800000Y-63260000D01*
X76380000Y-115460000D02*
X68380000Y-115460000D01*
X76380000Y-114260000D02*
X76380000Y-115460000D01*
X68380000Y-115460000D02*
X68380000Y-114260000D01*
X66000000Y-114260000D02*
X66000000Y-63260000D01*
X63480000Y-114260000D02*
X63480000Y-63260000D01*
X63480000Y-63260000D02*
X81280000Y-63260000D01*
%TO.C,D2*%
X34290000Y-102894000D02*
X34290000Y-103544000D01*
X35410000Y-103544000D02*
X33170000Y-103544000D01*
X33170000Y-103544000D02*
X33170000Y-107784000D01*
X35410000Y-104144000D02*
X33170000Y-104144000D01*
X35410000Y-104264000D02*
X33170000Y-104264000D01*
X35410000Y-104384000D02*
X33170000Y-104384000D01*
X35410000Y-107784000D02*
X35410000Y-103544000D01*
X33170000Y-107784000D02*
X35410000Y-107784000D01*
X34290000Y-108434000D02*
X34290000Y-107784000D01*
%TO.C,R14*%
X80264000Y-43712000D02*
X80264000Y-44482000D01*
X81634000Y-44482000D02*
X78894000Y-44482000D01*
X78894000Y-44482000D02*
X78894000Y-51022000D01*
X81634000Y-51022000D02*
X81634000Y-44482000D01*
X78894000Y-51022000D02*
X81634000Y-51022000D01*
X80264000Y-51792000D02*
X80264000Y-51022000D01*
%TO.C,R3*%
X93448000Y-72009000D02*
X92678000Y-72009000D01*
X92678000Y-73379000D02*
X92678000Y-70639000D01*
X92678000Y-70639000D02*
X86138000Y-70639000D01*
X86138000Y-73379000D02*
X92678000Y-73379000D01*
X86138000Y-70639000D02*
X86138000Y-73379000D01*
X85368000Y-72009000D02*
X86138000Y-72009000D01*
%TO.C,C7*%
X54038000Y-40802000D02*
X54038000Y-44542000D01*
X54038000Y-40802000D02*
X61278000Y-40802000D01*
X54038000Y-44542000D02*
X61278000Y-44542000D01*
X61278000Y-40802000D02*
X61278000Y-44542000D01*
%TO.C,U2*%
X38498000Y-102048000D02*
X38498000Y-109788000D01*
X38498000Y-109788000D02*
X43798000Y-109788000D01*
X40148000Y-102048000D02*
X38498000Y-102048000D01*
X43798000Y-102048000D02*
X42148000Y-102048000D01*
X43798000Y-109788000D02*
X43798000Y-102048000D01*
X40148000Y-102048000D02*
G75*
G03*
X42148000Y-102048000I1000000J0D01*
G01*
%TO.C,D1*%
X32385000Y-52635000D02*
X32385000Y-51615000D01*
X30915000Y-51615000D02*
X33855000Y-51615000D01*
X33855000Y-51615000D02*
X33855000Y-46175000D01*
X30915000Y-50835000D02*
X33855000Y-50835000D01*
X30915000Y-50715000D02*
X33855000Y-50715000D01*
X30915000Y-50595000D02*
X33855000Y-50595000D01*
X30915000Y-46175000D02*
X30915000Y-51615000D01*
X33855000Y-46175000D02*
X30915000Y-46175000D01*
X32385000Y-45155000D02*
X32385000Y-46175000D01*
D14*
%TO.C,J2*%
X51435000Y-34290000D02*
X59055000Y-34290000D01*
X59055000Y-34290000D02*
X59055000Y-31750000D01*
X59055000Y-31750000D02*
X51435000Y-31750000D01*
X51435000Y-31750000D02*
X51435000Y-34290000D01*
%TO.C,J7*%
X57150000Y-107711000D02*
X59690000Y-107711000D01*
X59690000Y-107711000D02*
X59690000Y-115331000D01*
X59690000Y-115331000D02*
X57150000Y-115331000D01*
X57150000Y-115331000D02*
X57150000Y-107711000D01*
D13*
%TO.C,C8*%
X86522000Y-59968000D02*
X90262000Y-59968000D01*
X86522000Y-59968000D02*
X86522000Y-52728000D01*
X90262000Y-59968000D02*
X90262000Y-52728000D01*
X86522000Y-52728000D02*
X90262000Y-52728000D01*
%TO.C,C2*%
X29981225Y-60247000D02*
X30481225Y-60247000D01*
X30231225Y-59997000D02*
X30231225Y-60497000D01*
X32786000Y-59142000D02*
X32786000Y-64302000D01*
X32826000Y-59142000D02*
X32826000Y-64302000D01*
X32866000Y-59143000D02*
X32866000Y-64301000D01*
X32906000Y-59144000D02*
X32906000Y-64300000D01*
X32946000Y-59146000D02*
X32946000Y-64298000D01*
X32986000Y-59149000D02*
X32986000Y-64295000D01*
X33026000Y-59153000D02*
X33026000Y-60682000D01*
X33026000Y-62762000D02*
X33026000Y-64291000D01*
X33066000Y-59157000D02*
X33066000Y-60682000D01*
X33066000Y-62762000D02*
X33066000Y-64287000D01*
X33106000Y-59161000D02*
X33106000Y-60682000D01*
X33106000Y-62762000D02*
X33106000Y-64283000D01*
X33146000Y-59166000D02*
X33146000Y-60682000D01*
X33146000Y-62762000D02*
X33146000Y-64278000D01*
X33186000Y-59172000D02*
X33186000Y-60682000D01*
X33186000Y-62762000D02*
X33186000Y-64272000D01*
X33226000Y-59179000D02*
X33226000Y-60682000D01*
X33226000Y-62762000D02*
X33226000Y-64265000D01*
X33266000Y-59186000D02*
X33266000Y-60682000D01*
X33266000Y-62762000D02*
X33266000Y-64258000D01*
X33306000Y-59194000D02*
X33306000Y-60682000D01*
X33306000Y-62762000D02*
X33306000Y-64250000D01*
X33346000Y-59202000D02*
X33346000Y-60682000D01*
X33346000Y-62762000D02*
X33346000Y-64242000D01*
X33386000Y-59211000D02*
X33386000Y-60682000D01*
X33386000Y-62762000D02*
X33386000Y-64233000D01*
X33426000Y-59221000D02*
X33426000Y-60682000D01*
X33426000Y-62762000D02*
X33426000Y-64223000D01*
X33466000Y-59231000D02*
X33466000Y-60682000D01*
X33466000Y-62762000D02*
X33466000Y-64213000D01*
X33507000Y-59242000D02*
X33507000Y-60682000D01*
X33507000Y-62762000D02*
X33507000Y-64202000D01*
X33547000Y-59254000D02*
X33547000Y-60682000D01*
X33547000Y-62762000D02*
X33547000Y-64190000D01*
X33587000Y-59267000D02*
X33587000Y-60682000D01*
X33587000Y-62762000D02*
X33587000Y-64177000D01*
X33627000Y-59280000D02*
X33627000Y-60682000D01*
X33627000Y-62762000D02*
X33627000Y-64164000D01*
X33667000Y-59294000D02*
X33667000Y-60682000D01*
X33667000Y-62762000D02*
X33667000Y-64150000D01*
X33707000Y-59308000D02*
X33707000Y-60682000D01*
X33707000Y-62762000D02*
X33707000Y-64136000D01*
X33747000Y-59324000D02*
X33747000Y-60682000D01*
X33747000Y-62762000D02*
X33747000Y-64120000D01*
X33787000Y-59340000D02*
X33787000Y-60682000D01*
X33787000Y-62762000D02*
X33787000Y-64104000D01*
X33827000Y-59357000D02*
X33827000Y-60682000D01*
X33827000Y-62762000D02*
X33827000Y-64087000D01*
X33867000Y-59374000D02*
X33867000Y-60682000D01*
X33867000Y-62762000D02*
X33867000Y-64070000D01*
X33907000Y-59393000D02*
X33907000Y-60682000D01*
X33907000Y-62762000D02*
X33907000Y-64051000D01*
X33947000Y-59412000D02*
X33947000Y-60682000D01*
X33947000Y-62762000D02*
X33947000Y-64032000D01*
X33987000Y-59432000D02*
X33987000Y-60682000D01*
X33987000Y-62762000D02*
X33987000Y-64012000D01*
X34027000Y-59454000D02*
X34027000Y-60682000D01*
X34027000Y-62762000D02*
X34027000Y-63990000D01*
X34067000Y-59475000D02*
X34067000Y-60682000D01*
X34067000Y-62762000D02*
X34067000Y-63969000D01*
X34107000Y-59498000D02*
X34107000Y-60682000D01*
X34107000Y-62762000D02*
X34107000Y-63946000D01*
X34147000Y-59522000D02*
X34147000Y-60682000D01*
X34147000Y-62762000D02*
X34147000Y-63922000D01*
X34187000Y-59547000D02*
X34187000Y-60682000D01*
X34187000Y-62762000D02*
X34187000Y-63897000D01*
X34227000Y-59573000D02*
X34227000Y-60682000D01*
X34227000Y-62762000D02*
X34227000Y-63871000D01*
X34267000Y-59600000D02*
X34267000Y-60682000D01*
X34267000Y-62762000D02*
X34267000Y-63844000D01*
X34307000Y-59627000D02*
X34307000Y-60682000D01*
X34307000Y-62762000D02*
X34307000Y-63817000D01*
X34347000Y-59657000D02*
X34347000Y-60682000D01*
X34347000Y-62762000D02*
X34347000Y-63787000D01*
X34387000Y-59687000D02*
X34387000Y-60682000D01*
X34387000Y-62762000D02*
X34387000Y-63757000D01*
X34427000Y-59718000D02*
X34427000Y-60682000D01*
X34427000Y-62762000D02*
X34427000Y-63726000D01*
X34467000Y-59751000D02*
X34467000Y-60682000D01*
X34467000Y-62762000D02*
X34467000Y-63693000D01*
X34507000Y-59785000D02*
X34507000Y-60682000D01*
X34507000Y-62762000D02*
X34507000Y-63659000D01*
X34547000Y-59821000D02*
X34547000Y-60682000D01*
X34547000Y-62762000D02*
X34547000Y-63623000D01*
X34587000Y-59858000D02*
X34587000Y-60682000D01*
X34587000Y-62762000D02*
X34587000Y-63586000D01*
X34627000Y-59896000D02*
X34627000Y-60682000D01*
X34627000Y-62762000D02*
X34627000Y-63548000D01*
X34667000Y-59937000D02*
X34667000Y-60682000D01*
X34667000Y-62762000D02*
X34667000Y-63507000D01*
X34707000Y-59979000D02*
X34707000Y-60682000D01*
X34707000Y-62762000D02*
X34707000Y-63465000D01*
X34747000Y-60023000D02*
X34747000Y-60682000D01*
X34747000Y-62762000D02*
X34747000Y-63421000D01*
X34787000Y-60069000D02*
X34787000Y-60682000D01*
X34787000Y-62762000D02*
X34787000Y-63375000D01*
X34827000Y-60117000D02*
X34827000Y-60682000D01*
X34827000Y-62762000D02*
X34827000Y-63327000D01*
X34867000Y-60168000D02*
X34867000Y-60682000D01*
X34867000Y-62762000D02*
X34867000Y-63276000D01*
X34907000Y-60222000D02*
X34907000Y-60682000D01*
X34907000Y-62762000D02*
X34907000Y-63222000D01*
X34947000Y-60279000D02*
X34947000Y-60682000D01*
X34947000Y-62762000D02*
X34947000Y-63165000D01*
X34987000Y-60339000D02*
X34987000Y-60682000D01*
X34987000Y-62762000D02*
X34987000Y-63105000D01*
X35027000Y-60403000D02*
X35027000Y-60682000D01*
X35027000Y-62762000D02*
X35027000Y-63041000D01*
X35067000Y-60471000D02*
X35067000Y-60682000D01*
X35067000Y-62762000D02*
X35067000Y-62973000D01*
X35107000Y-60544000D02*
X35107000Y-62900000D01*
X35147000Y-60624000D02*
X35147000Y-62820000D01*
X35187000Y-60711000D02*
X35187000Y-62733000D01*
X35227000Y-60807000D02*
X35227000Y-62637000D01*
X35267000Y-60917000D02*
X35267000Y-62527000D01*
X35307000Y-61045000D02*
X35307000Y-62399000D01*
X35347000Y-61204000D02*
X35347000Y-62240000D01*
X35387000Y-61438000D02*
X35387000Y-62006000D01*
X35406000Y-61722000D02*
G75*
G03*
X30166000Y-61722000I-2620000J0D01*
G01*
X30166000Y-61722000D02*
G75*
G03*
X35406000Y-61722000I2620000J0D01*
G01*
%TO.C,R10*%
X88392000Y-88495000D02*
X88392000Y-87725000D01*
X87022000Y-87725000D02*
X89762000Y-87725000D01*
X89762000Y-87725000D02*
X89762000Y-81185000D01*
X87022000Y-81185000D02*
X87022000Y-87725000D01*
X89762000Y-81185000D02*
X87022000Y-81185000D01*
X88392000Y-80415000D02*
X88392000Y-81185000D01*
%TO.C,R12*%
X102616000Y-81256000D02*
X102616000Y-80486000D01*
X101246000Y-80486000D02*
X103986000Y-80486000D01*
X103986000Y-80486000D02*
X103986000Y-73946000D01*
X101246000Y-73946000D02*
X101246000Y-80486000D01*
X103986000Y-73946000D02*
X101246000Y-73946000D01*
X102616000Y-73176000D02*
X102616000Y-73946000D01*
%TO.C,C4*%
X39125225Y-65073000D02*
X39625225Y-65073000D01*
X39375225Y-64823000D02*
X39375225Y-65323000D01*
X41930000Y-63968000D02*
X41930000Y-69128000D01*
X41970000Y-63968000D02*
X41970000Y-69128000D01*
X42010000Y-63969000D02*
X42010000Y-69127000D01*
X42050000Y-63970000D02*
X42050000Y-69126000D01*
X42090000Y-63972000D02*
X42090000Y-69124000D01*
X42130000Y-63975000D02*
X42130000Y-69121000D01*
X42170000Y-63979000D02*
X42170000Y-65508000D01*
X42170000Y-67588000D02*
X42170000Y-69117000D01*
X42210000Y-63983000D02*
X42210000Y-65508000D01*
X42210000Y-67588000D02*
X42210000Y-69113000D01*
X42250000Y-63987000D02*
X42250000Y-65508000D01*
X42250000Y-67588000D02*
X42250000Y-69109000D01*
X42290000Y-63992000D02*
X42290000Y-65508000D01*
X42290000Y-67588000D02*
X42290000Y-69104000D01*
X42330000Y-63998000D02*
X42330000Y-65508000D01*
X42330000Y-67588000D02*
X42330000Y-69098000D01*
X42370000Y-64005000D02*
X42370000Y-65508000D01*
X42370000Y-67588000D02*
X42370000Y-69091000D01*
X42410000Y-64012000D02*
X42410000Y-65508000D01*
X42410000Y-67588000D02*
X42410000Y-69084000D01*
X42450000Y-64020000D02*
X42450000Y-65508000D01*
X42450000Y-67588000D02*
X42450000Y-69076000D01*
X42490000Y-64028000D02*
X42490000Y-65508000D01*
X42490000Y-67588000D02*
X42490000Y-69068000D01*
X42530000Y-64037000D02*
X42530000Y-65508000D01*
X42530000Y-67588000D02*
X42530000Y-69059000D01*
X42570000Y-64047000D02*
X42570000Y-65508000D01*
X42570000Y-67588000D02*
X42570000Y-69049000D01*
X42610000Y-64057000D02*
X42610000Y-65508000D01*
X42610000Y-67588000D02*
X42610000Y-69039000D01*
X42651000Y-64068000D02*
X42651000Y-65508000D01*
X42651000Y-67588000D02*
X42651000Y-69028000D01*
X42691000Y-64080000D02*
X42691000Y-65508000D01*
X42691000Y-67588000D02*
X42691000Y-69016000D01*
X42731000Y-64093000D02*
X42731000Y-65508000D01*
X42731000Y-67588000D02*
X42731000Y-69003000D01*
X42771000Y-64106000D02*
X42771000Y-65508000D01*
X42771000Y-67588000D02*
X42771000Y-68990000D01*
X42811000Y-64120000D02*
X42811000Y-65508000D01*
X42811000Y-67588000D02*
X42811000Y-68976000D01*
X42851000Y-64134000D02*
X42851000Y-65508000D01*
X42851000Y-67588000D02*
X42851000Y-68962000D01*
X42891000Y-64150000D02*
X42891000Y-65508000D01*
X42891000Y-67588000D02*
X42891000Y-68946000D01*
X42931000Y-64166000D02*
X42931000Y-65508000D01*
X42931000Y-67588000D02*
X42931000Y-68930000D01*
X42971000Y-64183000D02*
X42971000Y-65508000D01*
X42971000Y-67588000D02*
X42971000Y-68913000D01*
X43011000Y-64200000D02*
X43011000Y-65508000D01*
X43011000Y-67588000D02*
X43011000Y-68896000D01*
X43051000Y-64219000D02*
X43051000Y-65508000D01*
X43051000Y-67588000D02*
X43051000Y-68877000D01*
X43091000Y-64238000D02*
X43091000Y-65508000D01*
X43091000Y-67588000D02*
X43091000Y-68858000D01*
X43131000Y-64258000D02*
X43131000Y-65508000D01*
X43131000Y-67588000D02*
X43131000Y-68838000D01*
X43171000Y-64280000D02*
X43171000Y-65508000D01*
X43171000Y-67588000D02*
X43171000Y-68816000D01*
X43211000Y-64301000D02*
X43211000Y-65508000D01*
X43211000Y-67588000D02*
X43211000Y-68795000D01*
X43251000Y-64324000D02*
X43251000Y-65508000D01*
X43251000Y-67588000D02*
X43251000Y-68772000D01*
X43291000Y-64348000D02*
X43291000Y-65508000D01*
X43291000Y-67588000D02*
X43291000Y-68748000D01*
X43331000Y-64373000D02*
X43331000Y-65508000D01*
X43331000Y-67588000D02*
X43331000Y-68723000D01*
X43371000Y-64399000D02*
X43371000Y-65508000D01*
X43371000Y-67588000D02*
X43371000Y-68697000D01*
X43411000Y-64426000D02*
X43411000Y-65508000D01*
X43411000Y-67588000D02*
X43411000Y-68670000D01*
X43451000Y-64453000D02*
X43451000Y-65508000D01*
X43451000Y-67588000D02*
X43451000Y-68643000D01*
X43491000Y-64483000D02*
X43491000Y-65508000D01*
X43491000Y-67588000D02*
X43491000Y-68613000D01*
X43531000Y-64513000D02*
X43531000Y-65508000D01*
X43531000Y-67588000D02*
X43531000Y-68583000D01*
X43571000Y-64544000D02*
X43571000Y-65508000D01*
X43571000Y-67588000D02*
X43571000Y-68552000D01*
X43611000Y-64577000D02*
X43611000Y-65508000D01*
X43611000Y-67588000D02*
X43611000Y-68519000D01*
X43651000Y-64611000D02*
X43651000Y-65508000D01*
X43651000Y-67588000D02*
X43651000Y-68485000D01*
X43691000Y-64647000D02*
X43691000Y-65508000D01*
X43691000Y-67588000D02*
X43691000Y-68449000D01*
X43731000Y-64684000D02*
X43731000Y-65508000D01*
X43731000Y-67588000D02*
X43731000Y-68412000D01*
X43771000Y-64722000D02*
X43771000Y-65508000D01*
X43771000Y-67588000D02*
X43771000Y-68374000D01*
X43811000Y-64763000D02*
X43811000Y-65508000D01*
X43811000Y-67588000D02*
X43811000Y-68333000D01*
X43851000Y-64805000D02*
X43851000Y-65508000D01*
X43851000Y-67588000D02*
X43851000Y-68291000D01*
X43891000Y-64849000D02*
X43891000Y-65508000D01*
X43891000Y-67588000D02*
X43891000Y-68247000D01*
X43931000Y-64895000D02*
X43931000Y-65508000D01*
X43931000Y-67588000D02*
X43931000Y-68201000D01*
X43971000Y-64943000D02*
X43971000Y-65508000D01*
X43971000Y-67588000D02*
X43971000Y-68153000D01*
X44011000Y-64994000D02*
X44011000Y-65508000D01*
X44011000Y-67588000D02*
X44011000Y-68102000D01*
X44051000Y-65048000D02*
X44051000Y-65508000D01*
X44051000Y-67588000D02*
X44051000Y-68048000D01*
X44091000Y-65105000D02*
X44091000Y-65508000D01*
X44091000Y-67588000D02*
X44091000Y-67991000D01*
X44131000Y-65165000D02*
X44131000Y-65508000D01*
X44131000Y-67588000D02*
X44131000Y-67931000D01*
X44171000Y-65229000D02*
X44171000Y-65508000D01*
X44171000Y-67588000D02*
X44171000Y-67867000D01*
X44211000Y-65297000D02*
X44211000Y-65508000D01*
X44211000Y-67588000D02*
X44211000Y-67799000D01*
X44251000Y-65370000D02*
X44251000Y-67726000D01*
X44291000Y-65450000D02*
X44291000Y-67646000D01*
X44331000Y-65537000D02*
X44331000Y-67559000D01*
X44371000Y-65633000D02*
X44371000Y-67463000D01*
X44411000Y-65743000D02*
X44411000Y-67353000D01*
X44451000Y-65871000D02*
X44451000Y-67225000D01*
X44491000Y-66030000D02*
X44491000Y-67066000D01*
X44531000Y-66264000D02*
X44531000Y-66832000D01*
X44550000Y-66548000D02*
G75*
G03*
X39310000Y-66548000I-2620000J0D01*
G01*
X39310000Y-66548000D02*
G75*
G03*
X44550000Y-66548000I2620000J0D01*
G01*
%TO.C,R7*%
X84328000Y-81177000D02*
X84328000Y-81947000D01*
X85698000Y-81947000D02*
X82958000Y-81947000D01*
X82958000Y-81947000D02*
X82958000Y-88487000D01*
X85698000Y-88487000D02*
X85698000Y-81947000D01*
X82958000Y-88487000D02*
X85698000Y-88487000D01*
X84328000Y-89257000D02*
X84328000Y-88487000D01*
%TO.C,C5*%
X49368000Y-65428000D02*
X45628000Y-65428000D01*
X49368000Y-65428000D02*
X49368000Y-72668000D01*
X45628000Y-65428000D02*
X45628000Y-72668000D01*
X49368000Y-72668000D02*
X45628000Y-72668000D01*
%TO.C,J5*%
X85665000Y-112455000D02*
X85665000Y-111125000D01*
X86995000Y-112455000D02*
X85665000Y-112455000D01*
X88265000Y-112455000D02*
X106105000Y-112455000D01*
X88265000Y-112455000D02*
X88265000Y-109795000D01*
X106105000Y-112455000D02*
X106105000Y-109795000D01*
X88265000Y-109795000D02*
X106105000Y-109795000D01*
D14*
%TO.C,J3*%
X53848000Y-45989000D02*
X56388000Y-45989000D01*
X56388000Y-45989000D02*
X56388000Y-53609000D01*
X56388000Y-53609000D02*
X53848000Y-53609000D01*
X53848000Y-53609000D02*
X53848000Y-45989000D01*
D13*
%TO.C,R1*%
X35330000Y-94996000D02*
X36100000Y-94996000D01*
X36100000Y-93626000D02*
X36100000Y-96366000D01*
X36100000Y-96366000D02*
X42640000Y-96366000D01*
X42640000Y-93626000D02*
X36100000Y-93626000D01*
X42640000Y-96366000D02*
X42640000Y-93626000D01*
X43410000Y-94996000D02*
X42640000Y-94996000D01*
%TO.C,R6*%
X85368000Y-75565000D02*
X86138000Y-75565000D01*
X86138000Y-74195000D02*
X86138000Y-76935000D01*
X86138000Y-76935000D02*
X92678000Y-76935000D01*
X92678000Y-74195000D02*
X86138000Y-74195000D01*
X92678000Y-76935000D02*
X92678000Y-74195000D01*
X93448000Y-75565000D02*
X92678000Y-75565000D01*
D14*
%TO.C,J1*%
X33655000Y-39355000D02*
X31115000Y-39355000D01*
X31115000Y-39355000D02*
X31115000Y-31735000D01*
X31115000Y-31735000D02*
X33655000Y-31735000D01*
X33655000Y-31735000D02*
X33655000Y-39355000D01*
D13*
%TO.C,R8*%
X51586000Y-38100000D02*
X52356000Y-38100000D01*
X52356000Y-36730000D02*
X52356000Y-39470000D01*
X52356000Y-39470000D02*
X58896000Y-39470000D01*
X58896000Y-36730000D02*
X52356000Y-36730000D01*
X58896000Y-39470000D02*
X58896000Y-36730000D01*
X59666000Y-38100000D02*
X58896000Y-38100000D01*
%TO.C,D3*%
X83794000Y-66040000D02*
X86244000Y-66040000D01*
X86244000Y-65120000D02*
X86244000Y-66960000D01*
X86244000Y-66960000D02*
X89524000Y-66960000D01*
X86700000Y-65120000D02*
X86700000Y-66960000D01*
X86820000Y-65120000D02*
X86820000Y-66960000D01*
X86940000Y-65120000D02*
X86940000Y-66960000D01*
X89524000Y-65120000D02*
X86244000Y-65120000D01*
X89524000Y-66960000D02*
X89524000Y-65120000D01*
X91974000Y-66040000D02*
X89524000Y-66040000D01*
%TO.C,C1*%
X98148000Y-82007000D02*
X98148000Y-78267000D01*
X98148000Y-82007000D02*
X90908000Y-82007000D01*
X98148000Y-78267000D02*
X90908000Y-78267000D01*
X90908000Y-82007000D02*
X90908000Y-78267000D01*
%TO.C,C6*%
X86819000Y-92465225D02*
X86819000Y-92965225D01*
X87069000Y-92715225D02*
X86569000Y-92715225D01*
X87924000Y-95270000D02*
X82764000Y-95270000D01*
X87924000Y-95310000D02*
X82764000Y-95310000D01*
X87923000Y-95350000D02*
X82765000Y-95350000D01*
X87922000Y-95390000D02*
X82766000Y-95390000D01*
X87920000Y-95430000D02*
X82768000Y-95430000D01*
X87917000Y-95470000D02*
X82771000Y-95470000D01*
X87913000Y-95510000D02*
X86384000Y-95510000D01*
X84304000Y-95510000D02*
X82775000Y-95510000D01*
X87909000Y-95550000D02*
X86384000Y-95550000D01*
X84304000Y-95550000D02*
X82779000Y-95550000D01*
X87905000Y-95590000D02*
X86384000Y-95590000D01*
X84304000Y-95590000D02*
X82783000Y-95590000D01*
X87900000Y-95630000D02*
X86384000Y-95630000D01*
X84304000Y-95630000D02*
X82788000Y-95630000D01*
X87894000Y-95670000D02*
X86384000Y-95670000D01*
X84304000Y-95670000D02*
X82794000Y-95670000D01*
X87887000Y-95710000D02*
X86384000Y-95710000D01*
X84304000Y-95710000D02*
X82801000Y-95710000D01*
X87880000Y-95750000D02*
X86384000Y-95750000D01*
X84304000Y-95750000D02*
X82808000Y-95750000D01*
X87872000Y-95790000D02*
X86384000Y-95790000D01*
X84304000Y-95790000D02*
X82816000Y-95790000D01*
X87864000Y-95830000D02*
X86384000Y-95830000D01*
X84304000Y-95830000D02*
X82824000Y-95830000D01*
X87855000Y-95870000D02*
X86384000Y-95870000D01*
X84304000Y-95870000D02*
X82833000Y-95870000D01*
X87845000Y-95910000D02*
X86384000Y-95910000D01*
X84304000Y-95910000D02*
X82843000Y-95910000D01*
X87835000Y-95950000D02*
X86384000Y-95950000D01*
X84304000Y-95950000D02*
X82853000Y-95950000D01*
X87824000Y-95991000D02*
X86384000Y-95991000D01*
X84304000Y-95991000D02*
X82864000Y-95991000D01*
X87812000Y-96031000D02*
X86384000Y-96031000D01*
X84304000Y-96031000D02*
X82876000Y-96031000D01*
X87799000Y-96071000D02*
X86384000Y-96071000D01*
X84304000Y-96071000D02*
X82889000Y-96071000D01*
X87786000Y-96111000D02*
X86384000Y-96111000D01*
X84304000Y-96111000D02*
X82902000Y-96111000D01*
X87772000Y-96151000D02*
X86384000Y-96151000D01*
X84304000Y-96151000D02*
X82916000Y-96151000D01*
X87758000Y-96191000D02*
X86384000Y-96191000D01*
X84304000Y-96191000D02*
X82930000Y-96191000D01*
X87742000Y-96231000D02*
X86384000Y-96231000D01*
X84304000Y-96231000D02*
X82946000Y-96231000D01*
X87726000Y-96271000D02*
X86384000Y-96271000D01*
X84304000Y-96271000D02*
X82962000Y-96271000D01*
X87709000Y-96311000D02*
X86384000Y-96311000D01*
X84304000Y-96311000D02*
X82979000Y-96311000D01*
X87692000Y-96351000D02*
X86384000Y-96351000D01*
X84304000Y-96351000D02*
X82996000Y-96351000D01*
X87673000Y-96391000D02*
X86384000Y-96391000D01*
X84304000Y-96391000D02*
X83015000Y-96391000D01*
X87654000Y-96431000D02*
X86384000Y-96431000D01*
X84304000Y-96431000D02*
X83034000Y-96431000D01*
X87634000Y-96471000D02*
X86384000Y-96471000D01*
X84304000Y-96471000D02*
X83054000Y-96471000D01*
X87612000Y-96511000D02*
X86384000Y-96511000D01*
X84304000Y-96511000D02*
X83076000Y-96511000D01*
X87591000Y-96551000D02*
X86384000Y-96551000D01*
X84304000Y-96551000D02*
X83097000Y-96551000D01*
X87568000Y-96591000D02*
X86384000Y-96591000D01*
X84304000Y-96591000D02*
X83120000Y-96591000D01*
X87544000Y-96631000D02*
X86384000Y-96631000D01*
X84304000Y-96631000D02*
X83144000Y-96631000D01*
X87519000Y-96671000D02*
X86384000Y-96671000D01*
X84304000Y-96671000D02*
X83169000Y-96671000D01*
X87493000Y-96711000D02*
X86384000Y-96711000D01*
X84304000Y-96711000D02*
X83195000Y-96711000D01*
X87466000Y-96751000D02*
X86384000Y-96751000D01*
X84304000Y-96751000D02*
X83222000Y-96751000D01*
X87439000Y-96791000D02*
X86384000Y-96791000D01*
X84304000Y-96791000D02*
X83249000Y-96791000D01*
X87409000Y-96831000D02*
X86384000Y-96831000D01*
X84304000Y-96831000D02*
X83279000Y-96831000D01*
X87379000Y-96871000D02*
X86384000Y-96871000D01*
X84304000Y-96871000D02*
X83309000Y-96871000D01*
X87348000Y-96911000D02*
X86384000Y-96911000D01*
X84304000Y-96911000D02*
X83340000Y-96911000D01*
X87315000Y-96951000D02*
X86384000Y-96951000D01*
X84304000Y-96951000D02*
X83373000Y-96951000D01*
X87281000Y-96991000D02*
X86384000Y-96991000D01*
X84304000Y-96991000D02*
X83407000Y-96991000D01*
X87245000Y-97031000D02*
X86384000Y-97031000D01*
X84304000Y-97031000D02*
X83443000Y-97031000D01*
X87208000Y-97071000D02*
X86384000Y-97071000D01*
X84304000Y-97071000D02*
X83480000Y-97071000D01*
X87170000Y-97111000D02*
X86384000Y-97111000D01*
X84304000Y-97111000D02*
X83518000Y-97111000D01*
X87129000Y-97151000D02*
X86384000Y-97151000D01*
X84304000Y-97151000D02*
X83559000Y-97151000D01*
X87087000Y-97191000D02*
X86384000Y-97191000D01*
X84304000Y-97191000D02*
X83601000Y-97191000D01*
X87043000Y-97231000D02*
X86384000Y-97231000D01*
X84304000Y-97231000D02*
X83645000Y-97231000D01*
X86997000Y-97271000D02*
X86384000Y-97271000D01*
X84304000Y-97271000D02*
X83691000Y-97271000D01*
X86949000Y-97311000D02*
X86384000Y-97311000D01*
X84304000Y-97311000D02*
X83739000Y-97311000D01*
X86898000Y-97351000D02*
X86384000Y-97351000D01*
X84304000Y-97351000D02*
X83790000Y-97351000D01*
X86844000Y-97391000D02*
X86384000Y-97391000D01*
X84304000Y-97391000D02*
X83844000Y-97391000D01*
X86787000Y-97431000D02*
X86384000Y-97431000D01*
X84304000Y-97431000D02*
X83901000Y-97431000D01*
X86727000Y-97471000D02*
X86384000Y-97471000D01*
X84304000Y-97471000D02*
X83961000Y-97471000D01*
X86663000Y-97511000D02*
X86384000Y-97511000D01*
X84304000Y-97511000D02*
X84025000Y-97511000D01*
X86595000Y-97551000D02*
X86384000Y-97551000D01*
X84304000Y-97551000D02*
X84093000Y-97551000D01*
X86522000Y-97591000D02*
X84166000Y-97591000D01*
X86442000Y-97631000D02*
X84246000Y-97631000D01*
X86355000Y-97671000D02*
X84333000Y-97671000D01*
X86259000Y-97711000D02*
X84429000Y-97711000D01*
X86149000Y-97751000D02*
X84539000Y-97751000D01*
X86021000Y-97791000D02*
X84667000Y-97791000D01*
X85862000Y-97831000D02*
X84826000Y-97831000D01*
X85628000Y-97871000D02*
X85060000Y-97871000D01*
X87964000Y-95270000D02*
G75*
G03*
X82724000Y-95270000I-2620000J0D01*
G01*
X82724000Y-95270000D02*
G75*
G03*
X87964000Y-95270000I2620000J0D01*
G01*
%TO.C,C9*%
X86198000Y-34520000D02*
X82458000Y-34520000D01*
X86198000Y-34520000D02*
X86198000Y-41760000D01*
X82458000Y-34520000D02*
X82458000Y-41760000D01*
X86198000Y-41760000D02*
X82458000Y-41760000D01*
%TO.C,C3*%
X30416000Y-66202000D02*
X30416000Y-69942000D01*
X30416000Y-66202000D02*
X37656000Y-66202000D01*
X30416000Y-69942000D02*
X37656000Y-69942000D01*
X37656000Y-66202000D02*
X37656000Y-69942000D01*
%TO.C,U1*%
X93108000Y-83125000D02*
X93108000Y-93405000D01*
X93108000Y-93405000D02*
X98408000Y-93405000D01*
X94758000Y-83125000D02*
X93108000Y-83125000D01*
X98408000Y-83125000D02*
X96758000Y-83125000D01*
X98408000Y-93405000D02*
X98408000Y-83125000D01*
X94758000Y-83125000D02*
G75*
G03*
X96758000Y-83125000I1000000J0D01*
G01*
D14*
%TO.C,J4*%
X82804000Y-45466000D02*
X85344000Y-45466000D01*
X85344000Y-45466000D02*
X85344000Y-53086000D01*
X85344000Y-53086000D02*
X82804000Y-53086000D01*
X82804000Y-53086000D02*
X82804000Y-45466000D01*
D13*
%TO.C,R9*%
X59690000Y-47268000D02*
X59690000Y-48038000D01*
X61060000Y-48038000D02*
X58320000Y-48038000D01*
X58320000Y-48038000D02*
X58320000Y-54578000D01*
X61060000Y-54578000D02*
X61060000Y-48038000D01*
X58320000Y-54578000D02*
X61060000Y-54578000D01*
X59690000Y-55348000D02*
X59690000Y-54578000D01*
%TO.C,R15*%
X92480000Y-96012000D02*
X93250000Y-96012000D01*
X93250000Y-94642000D02*
X93250000Y-97382000D01*
X93250000Y-97382000D02*
X99790000Y-97382000D01*
X99790000Y-94642000D02*
X93250000Y-94642000D01*
X99790000Y-97382000D02*
X99790000Y-94642000D01*
X100560000Y-96012000D02*
X99790000Y-96012000D01*
D14*
%TO.C,J6*%
X52832000Y-107711000D02*
X55372000Y-107711000D01*
X55372000Y-107711000D02*
X55372000Y-115331000D01*
X55372000Y-115331000D02*
X52832000Y-115331000D01*
X52832000Y-115331000D02*
X52832000Y-107711000D01*
D13*
%TO.C,RN1*%
X88060000Y-105100000D02*
X88060000Y-107900000D01*
X88060000Y-107900000D02*
X106180000Y-107900000D01*
X90770000Y-105100000D02*
X90770000Y-107900000D01*
X106180000Y-105100000D02*
X88060000Y-105100000D01*
X106180000Y-107900000D02*
X106180000Y-105100000D01*
%TO.C,R4*%
X98528000Y-99568000D02*
X97758000Y-99568000D01*
X97758000Y-100938000D02*
X97758000Y-98198000D01*
X97758000Y-98198000D02*
X91218000Y-98198000D01*
X91218000Y-100938000D02*
X97758000Y-100938000D01*
X91218000Y-98198000D02*
X91218000Y-100938000D01*
X90448000Y-99568000D02*
X91218000Y-99568000D01*
%TO.C,R11*%
X106934000Y-80415000D02*
X106934000Y-81185000D01*
X108304000Y-81185000D02*
X105564000Y-81185000D01*
X105564000Y-81185000D02*
X105564000Y-87725000D01*
X108304000Y-87725000D02*
X108304000Y-81185000D01*
X105564000Y-87725000D02*
X108304000Y-87725000D01*
X106934000Y-88495000D02*
X106934000Y-87725000D01*
%TO.C,R5*%
X35330000Y-98806000D02*
X36100000Y-98806000D01*
X36100000Y-97436000D02*
X36100000Y-100176000D01*
X36100000Y-100176000D02*
X42640000Y-100176000D01*
X42640000Y-97436000D02*
X36100000Y-97436000D01*
X42640000Y-100176000D02*
X42640000Y-97436000D01*
X43410000Y-98806000D02*
X42640000Y-98806000D01*
%TD*%
M02*
