M48
; DRILL file {KiCad 7.0.10} date Tue Mar 12 16:09:15 2024
; FORMAT={-:-/ absolute / inch / decimal}
; #@! TF.CreationDate,2024-03-12T16:09:15+01:00
; #@! TF.GenerationSoftware,Kicad,Pcbnew,7.0.10
; #@! TF.FileFunction,Plated,1,2,PTH
FMAT,2
INCH
; #@! TA.AperFunction,Plated,PTH,ViaDrill
T1C0.0157
; #@! TA.AperFunction,Plated,PTH,ViaDrill
T2C0.0236
; #@! TA.AperFunction,Plated,PTH,ComponentDrill
T3C0.0295
; #@! TA.AperFunction,Plated,PTH,ComponentDrill
T4C0.0315
; #@! TA.AperFunction,Plated,PTH,ComponentDrill
T5C0.0394
; #@! TA.AperFunction,Plated,PTH,ComponentDrill
T6C0.0433
; #@! TA.AperFunction,Plated,PTH,ComponentDrill
T7C0.0591
%
G90
G05
T1
X2.005Y-3.7
X2.44Y-2.708
X2.519Y-2.434
X2.671Y-3.171
X2.678Y-3.292
X2.721Y-3.393
X2.772Y-2.993
X2.871Y-2.736
X2.976Y-2.738
X3.011Y-3.692
X3.012Y-3.562
X3.069Y-2.794
X3.58Y-2.84
X3.713Y-4.085
X3.78Y-3.42
X3.86Y-2.8
X3.999Y-3.348
X4.073Y-4.082
X4.08Y-3.62
T2
X2.24Y-2.38
X2.7Y-2.94
X2.7Y-3.04
X2.86Y-4.0
X3.38Y-4.15
T3
X3.26Y-2.6
X3.26Y-2.7
X3.66Y-2.6
X3.66Y-2.7
T4
X1.24Y-2.83
X1.2416Y-2.43
X1.2416Y-2.68
X1.34Y-2.43
X1.35Y-3.74
X1.35Y-3.89
X1.35Y-4.01
X1.35Y-4.31
X1.4384Y-2.68
X1.47Y-4.07
X1.47Y-4.17
X1.47Y-4.27
X1.6016Y-2.62
X1.64Y-2.83
X1.7Y-2.62
X1.75Y-3.74
X1.75Y-3.89
X1.77Y-4.07
X1.77Y-4.17
X1.77Y-4.27
X1.87Y-2.62
X1.87Y-2.8169
X1.99Y-1.5
X2.1716Y-1.68
X2.35Y-1.82
X2.35Y-2.22
X2.3684Y-1.68
X2.39Y-1.5
X3.16Y-1.68
X3.16Y-2.08
X3.32Y-1.4031
X3.32Y-1.6
X3.32Y-2.835
X3.32Y-2.975
X3.32Y-3.155
X3.32Y-3.555
X3.36Y-3.7016
X3.36Y-3.8
X3.48Y-2.12
X3.48Y-2.3169
X3.48Y-3.125
X3.48Y-3.525
X3.52Y-3.92
X3.5236Y-4.1929
X3.6Y-3.78
X3.62Y-3.325
X3.62Y-3.425
X3.62Y-3.525
X3.62Y-3.625
X3.6231Y-3.155
X3.6236Y-4.1929
X3.72Y-2.835
X3.72Y-2.975
X3.7236Y-4.1929
X3.82Y-3.155
X3.8236Y-4.1929
X3.86Y-2.58
X3.86Y-2.98
X3.92Y-3.325
X3.92Y-3.425
X3.92Y-3.525
X3.92Y-3.625
X3.92Y-3.92
X3.9236Y-4.1929
X4.0Y-3.78
X4.0236Y-4.1929
X4.04Y-2.84
X4.04Y-3.24
X4.1236Y-4.1929
X4.21Y-3.125
X4.21Y-3.525
T5
X1.275Y-1.2994
X1.275Y-1.4994
X1.5748Y-1.6732
X1.5748Y-1.8504
X1.5748Y-2.4213
X1.5748Y-2.9528
X1.5748Y-3.5236
X1.6732Y-1.6732
X1.6732Y-2.4213
X1.6732Y-3.5236
X1.7717Y-1.6732
X1.7717Y-1.8504
X1.7717Y-2.4213
X1.7717Y-2.9528
X1.7717Y-3.5236
X2.075Y-1.3
X2.126Y-2.8795
X2.126Y-2.9795
X2.126Y-3.0795
X2.126Y-3.1795
X2.126Y-3.2795
X2.126Y-3.3795
X2.126Y-3.4795
X2.126Y-3.5795
X2.13Y-4.2906
X2.13Y-4.4906
X2.17Y-1.8606
X2.17Y-2.0606
X2.275Y-1.3
X2.3Y-4.2906
X2.3Y-4.4906
X2.6575Y-1.6732
X2.6575Y-1.8504
X2.6575Y-2.4213
X2.7559Y-1.6732
X2.7559Y-2.4213
X2.8543Y-1.6732
X2.8543Y-1.8504
X2.8543Y-2.4213
X3.31Y-1.84
X3.31Y-2.04
X3.425Y-4.375
X3.525Y-4.375
X3.625Y-4.375
X3.725Y-4.375
X3.7402Y-1.6732
X3.7402Y-1.8504
X3.7402Y-2.4213
X3.825Y-4.375
X3.8386Y-1.6732
X3.8386Y-2.4213
X3.925Y-4.375
X3.937Y-1.6732
X3.937Y-1.8504
X3.937Y-2.4213
X4.025Y-4.375
X4.125Y-4.375
T6
X1.275Y-1.725
X1.275Y-2.125
X2.5496Y-2.5433
X2.5496Y-2.6433
X2.5496Y-2.7433
X2.5496Y-2.8433
X2.5496Y-2.9433
X2.5496Y-3.0433
X2.5496Y-3.1433
X2.5496Y-3.2433
X2.5496Y-3.3433
X2.5496Y-3.4433
X2.5496Y-3.5433
X2.5496Y-3.6433
X2.5496Y-3.7433
X2.5496Y-3.8433
X2.5496Y-3.9433
X2.5496Y-4.0433
X2.5496Y-4.1433
X2.5496Y-4.2433
X2.5496Y-4.3433
X2.5496Y-4.4433
X3.1496Y-2.5433
X3.1496Y-2.6433
X3.1496Y-2.7433
X3.1496Y-2.8433
X3.1496Y-2.9433
X3.1496Y-3.0433
X3.1496Y-3.1433
X3.1496Y-3.2433
X3.1496Y-3.3433
X3.1496Y-3.4433
X3.1496Y-3.5433
X3.1496Y-3.6433
X3.1496Y-3.7433
X3.1496Y-3.8433
X3.1496Y-3.9433
X3.1496Y-4.0433
X3.1496Y-4.1433
X3.1496Y-4.2433
X3.1496Y-4.3433
X3.1496Y-4.4433
T6
G00X1.4843Y-1.3642
M15
G01X1.4843Y-1.3917
M16
G05
G00X1.8622Y-1.3642
M15
G01X1.8622Y-1.3917
M16
G05
G00X2.5669Y-1.3642
M15
G01X2.5669Y-1.3917
M16
G05
G00X2.9449Y-1.3642
M15
G01X2.9449Y-1.3917
M16
G05
G00X3.6496Y-1.3642
M15
G01X3.6496Y-1.3917
M16
G05
G00X4.0276Y-1.3642
M15
G01X4.0276Y-1.3917
M16
G05
T7
G00X1.4528Y-2.1516
M15
G01X1.4528Y-2.1004
M16
G05
G00X1.4528Y-3.2539
M15
G01X1.4528Y-3.2028
M16
G05
G00X1.8937Y-2.1516
M15
G01X1.8937Y-2.1004
M16
G05
G00X1.8937Y-3.2539
M15
G01X1.8937Y-3.2028
M16
G05
G00X2.5354Y-2.1516
M15
G01X2.5354Y-2.1004
M16
G05
G00X2.9764Y-2.1516
M15
G01X2.9764Y-2.1004
M16
G05
G00X3.6181Y-2.1516
M15
G01X3.6181Y-2.1004
M16
G05
G00X4.0591Y-2.1516
M15
G01X4.0591Y-2.1004
M16
G05
M30
