%TF.GenerationSoftware,KiCad,Pcbnew,7.0.10*%
%TF.CreationDate,2024-03-12T16:09:05+01:00*%
%TF.ProjectId,DaisyPedal,44616973-7950-4656-9461-6c2e6b696361,1.0*%
%TF.SameCoordinates,Original*%
%TF.FileFunction,Drillmap*%
%TF.FilePolarity,Positive*%
%FSLAX45Y45*%
G04 Gerber Fmt 4.5, Leading zero omitted, Abs format (unit mm)*
G04 Created by KiCad (PCBNEW 7.0.10) date 2024-03-12 16:09:05*
%MOMM*%
%LPD*%
G01*
G04 APERTURE LIST*
%ADD10C,0.100000*%
%ADD11C,0.200000*%
%ADD12C,0.110000*%
%ADD13C,0.150000*%
G04 APERTURE END LIST*
D10*
X2940000Y-2940000D02*
X11060000Y-2940000D01*
X11060000Y-11660000D01*
X2940000Y-11660000D01*
X2940000Y-2940000D01*
D11*
D10*
X5072700Y-9378000D02*
X5112700Y-9418000D01*
X5112700Y-9378000D02*
X5072700Y-9418000D01*
X6177600Y-6858320D02*
X6217600Y-6898320D01*
X6217600Y-6858320D02*
X6177600Y-6898320D01*
X6378260Y-6162360D02*
X6418260Y-6202360D01*
X6418260Y-6162360D02*
X6378260Y-6202360D01*
X6764340Y-8034340D02*
X6804340Y-8074340D01*
X6804340Y-8034340D02*
X6764340Y-8074340D01*
X6782120Y-8341680D02*
X6822120Y-8381680D01*
X6822120Y-8341680D02*
X6782120Y-8381680D01*
X6891340Y-8598220D02*
X6931340Y-8638220D01*
X6931340Y-8598220D02*
X6891340Y-8638220D01*
X7020880Y-7582220D02*
X7060880Y-7622220D01*
X7060880Y-7582220D02*
X7020880Y-7622220D01*
X7272340Y-6929440D02*
X7312340Y-6969440D01*
X7312340Y-6929440D02*
X7272340Y-6969440D01*
X7539040Y-6934520D02*
X7579040Y-6974520D01*
X7579040Y-6934520D02*
X7539040Y-6974520D01*
X7627940Y-9357680D02*
X7667940Y-9397680D01*
X7667940Y-9357680D02*
X7627940Y-9397680D01*
X7630480Y-9027480D02*
X7670480Y-9067480D01*
X7670480Y-9027480D02*
X7630480Y-9067480D01*
X7775260Y-7076760D02*
X7815260Y-7116760D01*
X7815260Y-7076760D02*
X7775260Y-7116760D01*
X9073200Y-7193600D02*
X9113200Y-7233600D01*
X9113200Y-7193600D02*
X9073200Y-7233600D01*
X9411020Y-10355900D02*
X9451020Y-10395900D01*
X9451020Y-10355900D02*
X9411020Y-10395900D01*
X9581200Y-8666800D02*
X9621200Y-8706800D01*
X9621200Y-8666800D02*
X9581200Y-8706800D01*
X9784400Y-7092000D02*
X9824400Y-7132000D01*
X9824400Y-7092000D02*
X9784400Y-7132000D01*
X10137460Y-8483920D02*
X10177460Y-8523920D01*
X10177460Y-8483920D02*
X10137460Y-8523920D01*
X10325420Y-10348280D02*
X10365420Y-10388280D01*
X10365420Y-10348280D02*
X10325420Y-10388280D01*
X10343200Y-9174800D02*
X10383200Y-9214800D01*
X10383200Y-9174800D02*
X10343200Y-9214800D01*
X5719600Y-6045200D02*
G75*
G03*
X5659600Y-6045200I-30000J0D01*
G01*
X5659600Y-6045200D02*
G75*
G03*
X5719600Y-6045200I30000J0D01*
G01*
X6888000Y-7467600D02*
G75*
G03*
X6828000Y-7467600I-30000J0D01*
G01*
X6828000Y-7467600D02*
G75*
G03*
X6888000Y-7467600I30000J0D01*
G01*
X6888000Y-7721600D02*
G75*
G03*
X6828000Y-7721600I-30000J0D01*
G01*
X6828000Y-7721600D02*
G75*
G03*
X6888000Y-7721600I30000J0D01*
G01*
X7294400Y-10160000D02*
G75*
G03*
X7234400Y-10160000I-30000J0D01*
G01*
X7234400Y-10160000D02*
G75*
G03*
X7294400Y-10160000I30000J0D01*
G01*
X8615200Y-10541000D02*
G75*
G03*
X8555200Y-10541000I-30000J0D01*
G01*
X8555200Y-10541000D02*
G75*
G03*
X8615200Y-10541000I30000J0D01*
G01*
X8280400Y-6566500D02*
X8280400Y-6641500D01*
X8242900Y-6604000D02*
X8317900Y-6604000D01*
X8280400Y-6820500D02*
X8280400Y-6895500D01*
X8242900Y-6858000D02*
X8317900Y-6858000D01*
X9296400Y-6566500D02*
X9296400Y-6641500D01*
X9258900Y-6604000D02*
X9333900Y-6604000D01*
X9296400Y-6820500D02*
X9296400Y-6895500D01*
X9258900Y-6858000D02*
X9333900Y-6858000D01*
X3177884Y-7216484D02*
X3177884Y-7159915D01*
X3121315Y-7159915D01*
X3121315Y-7216484D01*
X3177884Y-7216484D01*
X3181884Y-6200484D02*
X3181884Y-6143915D01*
X3125315Y-6143915D01*
X3125315Y-6200484D01*
X3181884Y-6200484D01*
X3181884Y-6835484D02*
X3181884Y-6778915D01*
X3125315Y-6778915D01*
X3125315Y-6835484D01*
X3181884Y-6835484D01*
X3431884Y-6200484D02*
X3431884Y-6143915D01*
X3375315Y-6143915D01*
X3375315Y-6200484D01*
X3431884Y-6200484D01*
X3457284Y-9527885D02*
X3457284Y-9471316D01*
X3400715Y-9471316D01*
X3400715Y-9527885D01*
X3457284Y-9527885D01*
X3457284Y-9908885D02*
X3457284Y-9852316D01*
X3400715Y-9852316D01*
X3400715Y-9908885D01*
X3457284Y-9908885D01*
X3457284Y-10213685D02*
X3457284Y-10157116D01*
X3400715Y-10157116D01*
X3400715Y-10213685D01*
X3457284Y-10213685D01*
X3457284Y-10975685D02*
X3457284Y-10919116D01*
X3400715Y-10919116D01*
X3400715Y-10975685D01*
X3457284Y-10975685D01*
X3681884Y-6835484D02*
X3681884Y-6778915D01*
X3625315Y-6778915D01*
X3625315Y-6835484D01*
X3681884Y-6835484D01*
X3762084Y-10366085D02*
X3762084Y-10309516D01*
X3705515Y-10309516D01*
X3705515Y-10366085D01*
X3762084Y-10366085D01*
X3762084Y-10620085D02*
X3762084Y-10563516D01*
X3705515Y-10563516D01*
X3705515Y-10620085D01*
X3762084Y-10620085D01*
X3762084Y-10874085D02*
X3762084Y-10817516D01*
X3705515Y-10817516D01*
X3705515Y-10874085D01*
X3762084Y-10874085D01*
X4096284Y-6683084D02*
X4096284Y-6626515D01*
X4039715Y-6626515D01*
X4039715Y-6683084D01*
X4096284Y-6683084D01*
X4193884Y-7216484D02*
X4193884Y-7159915D01*
X4137315Y-7159915D01*
X4137315Y-7216484D01*
X4193884Y-7216484D01*
X4346285Y-6683084D02*
X4346285Y-6626515D01*
X4289716Y-6626515D01*
X4289716Y-6683084D01*
X4346285Y-6683084D01*
X4473285Y-9527885D02*
X4473285Y-9471316D01*
X4416716Y-9471316D01*
X4416716Y-9527885D01*
X4473285Y-9527885D01*
X4473285Y-9908885D02*
X4473285Y-9852316D01*
X4416716Y-9852316D01*
X4416716Y-9908885D01*
X4473285Y-9908885D01*
X4524085Y-10366085D02*
X4524085Y-10309516D01*
X4467516Y-10309516D01*
X4467516Y-10366085D01*
X4524085Y-10366085D01*
X4524085Y-10620085D02*
X4524085Y-10563516D01*
X4467516Y-10563516D01*
X4467516Y-10620085D01*
X4524085Y-10620085D01*
X4524085Y-10874085D02*
X4524085Y-10817516D01*
X4467516Y-10817516D01*
X4467516Y-10874085D01*
X4524085Y-10874085D01*
X4778085Y-6683084D02*
X4778085Y-6626515D01*
X4721516Y-6626515D01*
X4721516Y-6683084D01*
X4778085Y-6683084D01*
X4778085Y-7183084D02*
X4778085Y-7126515D01*
X4721516Y-7126515D01*
X4721516Y-7183084D01*
X4778085Y-7183084D01*
X5082885Y-3838284D02*
X5082885Y-3781715D01*
X5026316Y-3781715D01*
X5026316Y-3838284D01*
X5082885Y-3838284D01*
X5544085Y-4295485D02*
X5544085Y-4238916D01*
X5487516Y-4238916D01*
X5487516Y-4295485D01*
X5544085Y-4295485D01*
X5997284Y-4651085D02*
X5997284Y-4594516D01*
X5940715Y-4594516D01*
X5940715Y-4651085D01*
X5997284Y-4651085D01*
X5997284Y-5667084D02*
X5997284Y-5610515D01*
X5940715Y-5610515D01*
X5940715Y-5667084D01*
X5997284Y-5667084D01*
X6044084Y-4295485D02*
X6044084Y-4238916D01*
X5987515Y-4238916D01*
X5987515Y-4295485D01*
X6044084Y-4295485D01*
X6098884Y-3838284D02*
X6098884Y-3781715D01*
X6042315Y-3781715D01*
X6042315Y-3838284D01*
X6098884Y-3838284D01*
X8054684Y-4295485D02*
X8054684Y-4238916D01*
X7998115Y-4238916D01*
X7998115Y-4295485D01*
X8054684Y-4295485D01*
X8054684Y-5311485D02*
X8054684Y-5254916D01*
X7998115Y-5254916D01*
X7998115Y-5311485D01*
X8054684Y-5311485D01*
X8461085Y-3592284D02*
X8461085Y-3535715D01*
X8404516Y-3535715D01*
X8404516Y-3592284D01*
X8461085Y-3592284D01*
X8461085Y-4092284D02*
X8461085Y-4035715D01*
X8404516Y-4035715D01*
X8404516Y-4092284D01*
X8461085Y-4092284D01*
X8461085Y-7229184D02*
X8461085Y-7172615D01*
X8404516Y-7172615D01*
X8404516Y-7229184D01*
X8461085Y-7229184D01*
X8461085Y-7584784D02*
X8461085Y-7528215D01*
X8404516Y-7528215D01*
X8404516Y-7584784D01*
X8461085Y-7584784D01*
X8461085Y-8041984D02*
X8461085Y-7985415D01*
X8404516Y-7985415D01*
X8404516Y-8041984D01*
X8461085Y-8041984D01*
X8461085Y-9057985D02*
X8461085Y-9001416D01*
X8404516Y-9001416D01*
X8404516Y-9057985D01*
X8461085Y-9057985D01*
X8562685Y-9430285D02*
X8562685Y-9373716D01*
X8506116Y-9373716D01*
X8506116Y-9430285D01*
X8562685Y-9430285D01*
X8562685Y-9680285D02*
X8562685Y-9623716D01*
X8506116Y-9623716D01*
X8506116Y-9680285D01*
X8562685Y-9680285D01*
X8867485Y-5413085D02*
X8867485Y-5356516D01*
X8810916Y-5356516D01*
X8810916Y-5413085D01*
X8867485Y-5413085D01*
X8867485Y-5913084D02*
X8867485Y-5856515D01*
X8810916Y-5856515D01*
X8810916Y-5913084D01*
X8867485Y-5913084D01*
X8867485Y-7965784D02*
X8867485Y-7909215D01*
X8810916Y-7909215D01*
X8810916Y-7965784D01*
X8867485Y-7965784D01*
X8867485Y-8981785D02*
X8867485Y-8925216D01*
X8810916Y-8925216D01*
X8810916Y-8981785D01*
X8867485Y-8981785D01*
X8969085Y-9985085D02*
X8969085Y-9928516D01*
X8912516Y-9928516D01*
X8912516Y-9985085D01*
X8969085Y-9985085D01*
X8978285Y-10678285D02*
X8978285Y-10621716D01*
X8921716Y-10621716D01*
X8921716Y-10678285D01*
X8978285Y-10678285D01*
X9172285Y-9629485D02*
X9172285Y-9572916D01*
X9115716Y-9572916D01*
X9115716Y-9629485D01*
X9172285Y-9629485D01*
X9223085Y-8473785D02*
X9223085Y-8417216D01*
X9166516Y-8417216D01*
X9166516Y-8473785D01*
X9223085Y-8473785D01*
X9223085Y-8727785D02*
X9223085Y-8671216D01*
X9166516Y-8671216D01*
X9166516Y-8727785D01*
X9223085Y-8727785D01*
X9223085Y-8981785D02*
X9223085Y-8925216D01*
X9166516Y-8925216D01*
X9166516Y-8981785D01*
X9223085Y-8981785D01*
X9223085Y-9235785D02*
X9223085Y-9179216D01*
X9166516Y-9179216D01*
X9166516Y-9235785D01*
X9223085Y-9235785D01*
X9231085Y-8041984D02*
X9231085Y-7985415D01*
X9174516Y-7985415D01*
X9174516Y-8041984D01*
X9231085Y-8041984D01*
X9232285Y-10678285D02*
X9232285Y-10621716D01*
X9175716Y-10621716D01*
X9175716Y-10678285D01*
X9232285Y-10678285D01*
X9477085Y-7229184D02*
X9477085Y-7172615D01*
X9420516Y-7172615D01*
X9420516Y-7229184D01*
X9477085Y-7229184D01*
X9477085Y-7584784D02*
X9477085Y-7528215D01*
X9420516Y-7528215D01*
X9420516Y-7584784D01*
X9477085Y-7584784D01*
X9486285Y-10678285D02*
X9486285Y-10621716D01*
X9429716Y-10621716D01*
X9429716Y-10678285D01*
X9486285Y-10678285D01*
X9731085Y-8041984D02*
X9731085Y-7985415D01*
X9674516Y-7985415D01*
X9674516Y-8041984D01*
X9731085Y-8041984D01*
X9740285Y-10678285D02*
X9740285Y-10621716D01*
X9683716Y-10621716D01*
X9683716Y-10678285D01*
X9740285Y-10678285D01*
X9832685Y-6581484D02*
X9832685Y-6524915D01*
X9776116Y-6524915D01*
X9776116Y-6581484D01*
X9832685Y-6581484D01*
X9832685Y-7597484D02*
X9832685Y-7540915D01*
X9776116Y-7540915D01*
X9776116Y-7597484D01*
X9832685Y-7597484D01*
X9985085Y-8473785D02*
X9985085Y-8417216D01*
X9928516Y-8417216D01*
X9928516Y-8473785D01*
X9985085Y-8473785D01*
X9985085Y-8727785D02*
X9985085Y-8671216D01*
X9928516Y-8671216D01*
X9928516Y-8727785D01*
X9985085Y-8727785D01*
X9985085Y-8981785D02*
X9985085Y-8925216D01*
X9928516Y-8925216D01*
X9928516Y-8981785D01*
X9985085Y-8981785D01*
X9985085Y-9235785D02*
X9985085Y-9179216D01*
X9928516Y-9179216D01*
X9928516Y-9235785D01*
X9985085Y-9235785D01*
X9985085Y-9985085D02*
X9985085Y-9928516D01*
X9928516Y-9928516D01*
X9928516Y-9985085D01*
X9985085Y-9985085D01*
X9994285Y-10678285D02*
X9994285Y-10621716D01*
X9937716Y-10621716D01*
X9937716Y-10678285D01*
X9994285Y-10678285D01*
X10188285Y-9629485D02*
X10188285Y-9572916D01*
X10131716Y-9572916D01*
X10131716Y-9629485D01*
X10188285Y-9629485D01*
X10248285Y-10678285D02*
X10248285Y-10621716D01*
X10191716Y-10621716D01*
X10191716Y-10678285D01*
X10248285Y-10678285D01*
X10289885Y-7241884D02*
X10289885Y-7185315D01*
X10233316Y-7185315D01*
X10233316Y-7241884D01*
X10289885Y-7241884D01*
X10289885Y-8257884D02*
X10289885Y-8201315D01*
X10233316Y-8201315D01*
X10233316Y-8257884D01*
X10289885Y-8257884D01*
X10502285Y-10678285D02*
X10502285Y-10621716D01*
X10445716Y-10621716D01*
X10445716Y-10678285D01*
X10502285Y-10678285D01*
X10721685Y-7965784D02*
X10721685Y-7909215D01*
X10665116Y-7909215D01*
X10665116Y-7965784D01*
X10721685Y-7965784D01*
X10721685Y-8981785D02*
X10721685Y-8925216D01*
X10665116Y-8925216D01*
X10665116Y-8981785D01*
X10721685Y-8981785D01*
X3238500Y-3350500D02*
X3288500Y-3300500D01*
X3238500Y-3250500D01*
X3188500Y-3300500D01*
X3238500Y-3350500D01*
X3238500Y-3858500D02*
X3288500Y-3808500D01*
X3238500Y-3758500D01*
X3188500Y-3808500D01*
X3238500Y-3858500D01*
X4000000Y-4300000D02*
X4050000Y-4250000D01*
X4000000Y-4200000D01*
X3950000Y-4250000D01*
X4000000Y-4300000D01*
X4000000Y-4750000D02*
X4050000Y-4700000D01*
X4000000Y-4650000D01*
X3950000Y-4700000D01*
X4000000Y-4750000D01*
X4000000Y-6200000D02*
X4050000Y-6150000D01*
X4000000Y-6100000D01*
X3950000Y-6150000D01*
X4000000Y-6200000D01*
X4000000Y-7550000D02*
X4050000Y-7500000D01*
X4000000Y-7450000D01*
X3950000Y-7500000D01*
X4000000Y-7550000D01*
X4000000Y-9000000D02*
X4050000Y-8950000D01*
X4000000Y-8900000D01*
X3950000Y-8950000D01*
X4000000Y-9000000D01*
X4250000Y-4300000D02*
X4300000Y-4250000D01*
X4250000Y-4200000D01*
X4200000Y-4250000D01*
X4250000Y-4300000D01*
X4250000Y-6200000D02*
X4300000Y-6150000D01*
X4250000Y-6100000D01*
X4200000Y-6150000D01*
X4250000Y-6200000D01*
X4250000Y-9000000D02*
X4300000Y-8950000D01*
X4250000Y-8900000D01*
X4200000Y-8950000D01*
X4250000Y-9000000D01*
X4500000Y-4300000D02*
X4550000Y-4250000D01*
X4500000Y-4200000D01*
X4450000Y-4250000D01*
X4500000Y-4300000D01*
X4500000Y-4750000D02*
X4550000Y-4700000D01*
X4500000Y-4650000D01*
X4450000Y-4700000D01*
X4500000Y-4750000D01*
X4500000Y-6200000D02*
X4550000Y-6150000D01*
X4500000Y-6100000D01*
X4450000Y-6150000D01*
X4500000Y-6200000D01*
X4500000Y-7550000D02*
X4550000Y-7500000D01*
X4500000Y-7450000D01*
X4450000Y-7500000D01*
X4500000Y-7550000D01*
X4500000Y-9000000D02*
X4550000Y-8950000D01*
X4500000Y-8900000D01*
X4450000Y-8950000D01*
X4500000Y-9000000D01*
X5270500Y-3352000D02*
X5320500Y-3302000D01*
X5270500Y-3252000D01*
X5220500Y-3302000D01*
X5270500Y-3352000D01*
X5400000Y-7364000D02*
X5450000Y-7314000D01*
X5400000Y-7264000D01*
X5350000Y-7314000D01*
X5400000Y-7364000D01*
X5400000Y-7618000D02*
X5450000Y-7568000D01*
X5400000Y-7518000D01*
X5350000Y-7568000D01*
X5400000Y-7618000D01*
X5400000Y-7872000D02*
X5450000Y-7822000D01*
X5400000Y-7772000D01*
X5350000Y-7822000D01*
X5400000Y-7872000D01*
X5400000Y-8126000D02*
X5450000Y-8076000D01*
X5400000Y-8026000D01*
X5350000Y-8076000D01*
X5400000Y-8126000D01*
X5400000Y-8380000D02*
X5450000Y-8330000D01*
X5400000Y-8280000D01*
X5350000Y-8330000D01*
X5400000Y-8380000D01*
X5400000Y-8634000D02*
X5450000Y-8584000D01*
X5400000Y-8534000D01*
X5350000Y-8584000D01*
X5400000Y-8634000D01*
X5400000Y-8888000D02*
X5450000Y-8838000D01*
X5400000Y-8788000D01*
X5350000Y-8838000D01*
X5400000Y-8888000D01*
X5400000Y-9142000D02*
X5450000Y-9092000D01*
X5400000Y-9042000D01*
X5350000Y-9092000D01*
X5400000Y-9142000D01*
X5410200Y-10948100D02*
X5460200Y-10898100D01*
X5410200Y-10848100D01*
X5360200Y-10898100D01*
X5410200Y-10948100D01*
X5410200Y-11456100D02*
X5460200Y-11406100D01*
X5410200Y-11356100D01*
X5360200Y-11406100D01*
X5410200Y-11456100D01*
X5511800Y-4775900D02*
X5561800Y-4725900D01*
X5511800Y-4675900D01*
X5461800Y-4725900D01*
X5511800Y-4775900D01*
X5511800Y-5283900D02*
X5561800Y-5233900D01*
X5511800Y-5183900D01*
X5461800Y-5233900D01*
X5511800Y-5283900D01*
X5778500Y-3352000D02*
X5828500Y-3302000D01*
X5778500Y-3252000D01*
X5728500Y-3302000D01*
X5778500Y-3352000D01*
X5842000Y-10948100D02*
X5892000Y-10898100D01*
X5842000Y-10848100D01*
X5792000Y-10898100D01*
X5842000Y-10948100D01*
X5842000Y-11456100D02*
X5892000Y-11406100D01*
X5842000Y-11356100D01*
X5792000Y-11406100D01*
X5842000Y-11456100D01*
X6750000Y-4300000D02*
X6800000Y-4250000D01*
X6750000Y-4200000D01*
X6700000Y-4250000D01*
X6750000Y-4300000D01*
X6750000Y-4750000D02*
X6800000Y-4700000D01*
X6750000Y-4650000D01*
X6700000Y-4700000D01*
X6750000Y-4750000D01*
X6750000Y-6200000D02*
X6800000Y-6150000D01*
X6750000Y-6100000D01*
X6700000Y-6150000D01*
X6750000Y-6200000D01*
X7000000Y-4300000D02*
X7050000Y-4250000D01*
X7000000Y-4200000D01*
X6950000Y-4250000D01*
X7000000Y-4300000D01*
X7000000Y-6200000D02*
X7050000Y-6150000D01*
X7000000Y-6100000D01*
X6950000Y-6150000D01*
X7000000Y-6200000D01*
X7250000Y-4300000D02*
X7300000Y-4250000D01*
X7250000Y-4200000D01*
X7200000Y-4250000D01*
X7250000Y-4300000D01*
X7250000Y-4750000D02*
X7300000Y-4700000D01*
X7250000Y-4650000D01*
X7200000Y-4700000D01*
X7250000Y-4750000D01*
X7250000Y-6200000D02*
X7300000Y-6150000D01*
X7250000Y-6100000D01*
X7200000Y-6150000D01*
X7250000Y-6200000D01*
X8407400Y-4723600D02*
X8457400Y-4673600D01*
X8407400Y-4623600D01*
X8357400Y-4673600D01*
X8407400Y-4723600D01*
X8407400Y-5231600D02*
X8457400Y-5181600D01*
X8407400Y-5131600D01*
X8357400Y-5181600D01*
X8407400Y-5231600D01*
X8699500Y-11162500D02*
X8749500Y-11112500D01*
X8699500Y-11062500D01*
X8649500Y-11112500D01*
X8699500Y-11162500D01*
X8953500Y-11162500D02*
X9003500Y-11112500D01*
X8953500Y-11062500D01*
X8903500Y-11112500D01*
X8953500Y-11162500D01*
X9207500Y-11162500D02*
X9257500Y-11112500D01*
X9207500Y-11062500D01*
X9157500Y-11112500D01*
X9207500Y-11162500D01*
X9461500Y-11162500D02*
X9511500Y-11112500D01*
X9461500Y-11062500D01*
X9411500Y-11112500D01*
X9461500Y-11162500D01*
X9500000Y-4300000D02*
X9550000Y-4250000D01*
X9500000Y-4200000D01*
X9450000Y-4250000D01*
X9500000Y-4300000D01*
X9500000Y-4750000D02*
X9550000Y-4700000D01*
X9500000Y-4650000D01*
X9450000Y-4700000D01*
X9500000Y-4750000D01*
X9500000Y-6200000D02*
X9550000Y-6150000D01*
X9500000Y-6100000D01*
X9450000Y-6150000D01*
X9500000Y-6200000D01*
X9715500Y-11162500D02*
X9765500Y-11112500D01*
X9715500Y-11062500D01*
X9665500Y-11112500D01*
X9715500Y-11162500D01*
X9750000Y-4300000D02*
X9800000Y-4250000D01*
X9750000Y-4200000D01*
X9700000Y-4250000D01*
X9750000Y-4300000D01*
X9750000Y-6200000D02*
X9800000Y-6150000D01*
X9750000Y-6100000D01*
X9700000Y-6150000D01*
X9750000Y-6200000D01*
X9969500Y-11162500D02*
X10019500Y-11112500D01*
X9969500Y-11062500D01*
X9919500Y-11112500D01*
X9969500Y-11162500D01*
X10000000Y-4300000D02*
X10050000Y-4250000D01*
X10000000Y-4200000D01*
X9950000Y-4250000D01*
X10000000Y-4300000D01*
X10000000Y-4750000D02*
X10050000Y-4700000D01*
X10000000Y-4650000D01*
X9950000Y-4700000D01*
X10000000Y-4750000D01*
X10000000Y-6200000D02*
X10050000Y-6150000D01*
X10000000Y-6100000D01*
X9950000Y-6150000D01*
X10000000Y-6200000D01*
X10223500Y-11162500D02*
X10273500Y-11112500D01*
X10223500Y-11062500D01*
X10173500Y-11112500D01*
X10223500Y-11162500D01*
X10477500Y-11162500D02*
X10527500Y-11112500D01*
X10477500Y-11062500D01*
X10427500Y-11112500D01*
X10477500Y-11162500D01*
D12*
X3183500Y-4326500D02*
X3293500Y-4436500D01*
X3293500Y-4326500D02*
X3183500Y-4436500D01*
X3293500Y-4381500D02*
G75*
G03*
X3183500Y-4381500I-55000J0D01*
G01*
X3183500Y-4381500D02*
G75*
G03*
X3293500Y-4381500I55000J0D01*
G01*
X3183500Y-5342500D02*
X3293500Y-5452500D01*
X3293500Y-5342500D02*
X3183500Y-5452500D01*
X3293500Y-5397500D02*
G75*
G03*
X3183500Y-5397500I-55000J0D01*
G01*
X3183500Y-5397500D02*
G75*
G03*
X3293500Y-5397500I55000J0D01*
G01*
X3715000Y-3445000D02*
X3825000Y-3555000D01*
X3825000Y-3445000D02*
X3715000Y-3555000D01*
X3825000Y-3500000D02*
G75*
G03*
X3715000Y-3500000I-55000J0D01*
G01*
X3715000Y-3500000D02*
G75*
G03*
X3825000Y-3500000I55000J0D01*
G01*
D10*
X3715000Y-3465000D02*
X3715000Y-3535000D01*
X3715000Y-3535000D02*
G75*
G03*
X3825000Y-3535000I55000J0D01*
G01*
X3825000Y-3535000D02*
X3825000Y-3465000D01*
X3825000Y-3465000D02*
G75*
G03*
X3715000Y-3465000I-55000J0D01*
G01*
D12*
X4675000Y-3445000D02*
X4785000Y-3555000D01*
X4785000Y-3445000D02*
X4675000Y-3555000D01*
X4785000Y-3500000D02*
G75*
G03*
X4675000Y-3500000I-55000J0D01*
G01*
X4675000Y-3500000D02*
G75*
G03*
X4785000Y-3500000I55000J0D01*
G01*
D10*
X4675000Y-3465000D02*
X4675000Y-3535000D01*
X4675000Y-3535000D02*
G75*
G03*
X4785000Y-3535000I55000J0D01*
G01*
X4785000Y-3535000D02*
X4785000Y-3465000D01*
X4785000Y-3465000D02*
G75*
G03*
X4675000Y-3465000I-55000J0D01*
G01*
D12*
X6421000Y-6405000D02*
X6531000Y-6515000D01*
X6531000Y-6405000D02*
X6421000Y-6515000D01*
X6531000Y-6460000D02*
G75*
G03*
X6421000Y-6460000I-55000J0D01*
G01*
X6421000Y-6460000D02*
G75*
G03*
X6531000Y-6460000I55000J0D01*
G01*
X6421000Y-6659000D02*
X6531000Y-6769000D01*
X6531000Y-6659000D02*
X6421000Y-6769000D01*
X6531000Y-6714000D02*
G75*
G03*
X6421000Y-6714000I-55000J0D01*
G01*
X6421000Y-6714000D02*
G75*
G03*
X6531000Y-6714000I55000J0D01*
G01*
X6421000Y-6913000D02*
X6531000Y-7023000D01*
X6531000Y-6913000D02*
X6421000Y-7023000D01*
X6531000Y-6968000D02*
G75*
G03*
X6421000Y-6968000I-55000J0D01*
G01*
X6421000Y-6968000D02*
G75*
G03*
X6531000Y-6968000I55000J0D01*
G01*
X6421000Y-7167000D02*
X6531000Y-7277000D01*
X6531000Y-7167000D02*
X6421000Y-7277000D01*
X6531000Y-7222000D02*
G75*
G03*
X6421000Y-7222000I-55000J0D01*
G01*
X6421000Y-7222000D02*
G75*
G03*
X6531000Y-7222000I55000J0D01*
G01*
X6421000Y-7421000D02*
X6531000Y-7531000D01*
X6531000Y-7421000D02*
X6421000Y-7531000D01*
X6531000Y-7476000D02*
G75*
G03*
X6421000Y-7476000I-55000J0D01*
G01*
X6421000Y-7476000D02*
G75*
G03*
X6531000Y-7476000I55000J0D01*
G01*
X6421000Y-7675000D02*
X6531000Y-7785000D01*
X6531000Y-7675000D02*
X6421000Y-7785000D01*
X6531000Y-7730000D02*
G75*
G03*
X6421000Y-7730000I-55000J0D01*
G01*
X6421000Y-7730000D02*
G75*
G03*
X6531000Y-7730000I55000J0D01*
G01*
X6421000Y-7929000D02*
X6531000Y-8039000D01*
X6531000Y-7929000D02*
X6421000Y-8039000D01*
X6531000Y-7984000D02*
G75*
G03*
X6421000Y-7984000I-55000J0D01*
G01*
X6421000Y-7984000D02*
G75*
G03*
X6531000Y-7984000I55000J0D01*
G01*
X6421000Y-8183000D02*
X6531000Y-8293000D01*
X6531000Y-8183000D02*
X6421000Y-8293000D01*
X6531000Y-8238000D02*
G75*
G03*
X6421000Y-8238000I-55000J0D01*
G01*
X6421000Y-8238000D02*
G75*
G03*
X6531000Y-8238000I55000J0D01*
G01*
X6421000Y-8437000D02*
X6531000Y-8547000D01*
X6531000Y-8437000D02*
X6421000Y-8547000D01*
X6531000Y-8492000D02*
G75*
G03*
X6421000Y-8492000I-55000J0D01*
G01*
X6421000Y-8492000D02*
G75*
G03*
X6531000Y-8492000I55000J0D01*
G01*
X6421000Y-8691000D02*
X6531000Y-8801000D01*
X6531000Y-8691000D02*
X6421000Y-8801000D01*
X6531000Y-8746000D02*
G75*
G03*
X6421000Y-8746000I-55000J0D01*
G01*
X6421000Y-8746000D02*
G75*
G03*
X6531000Y-8746000I55000J0D01*
G01*
X6421000Y-8945000D02*
X6531000Y-9055000D01*
X6531000Y-8945000D02*
X6421000Y-9055000D01*
X6531000Y-9000000D02*
G75*
G03*
X6421000Y-9000000I-55000J0D01*
G01*
X6421000Y-9000000D02*
G75*
G03*
X6531000Y-9000000I55000J0D01*
G01*
X6421000Y-9199000D02*
X6531000Y-9309000D01*
X6531000Y-9199000D02*
X6421000Y-9309000D01*
X6531000Y-9254000D02*
G75*
G03*
X6421000Y-9254000I-55000J0D01*
G01*
X6421000Y-9254000D02*
G75*
G03*
X6531000Y-9254000I55000J0D01*
G01*
X6421000Y-9453000D02*
X6531000Y-9563000D01*
X6531000Y-9453000D02*
X6421000Y-9563000D01*
X6531000Y-9508000D02*
G75*
G03*
X6421000Y-9508000I-55000J0D01*
G01*
X6421000Y-9508000D02*
G75*
G03*
X6531000Y-9508000I55000J0D01*
G01*
X6421000Y-9707000D02*
X6531000Y-9817000D01*
X6531000Y-9707000D02*
X6421000Y-9817000D01*
X6531000Y-9762000D02*
G75*
G03*
X6421000Y-9762000I-55000J0D01*
G01*
X6421000Y-9762000D02*
G75*
G03*
X6531000Y-9762000I55000J0D01*
G01*
X6421000Y-9961000D02*
X6531000Y-10071000D01*
X6531000Y-9961000D02*
X6421000Y-10071000D01*
X6531000Y-10016000D02*
G75*
G03*
X6421000Y-10016000I-55000J0D01*
G01*
X6421000Y-10016000D02*
G75*
G03*
X6531000Y-10016000I55000J0D01*
G01*
X6421000Y-10215000D02*
X6531000Y-10325000D01*
X6531000Y-10215000D02*
X6421000Y-10325000D01*
X6531000Y-10270000D02*
G75*
G03*
X6421000Y-10270000I-55000J0D01*
G01*
X6421000Y-10270000D02*
G75*
G03*
X6531000Y-10270000I55000J0D01*
G01*
X6421000Y-10469000D02*
X6531000Y-10579000D01*
X6531000Y-10469000D02*
X6421000Y-10579000D01*
X6531000Y-10524000D02*
G75*
G03*
X6421000Y-10524000I-55000J0D01*
G01*
X6421000Y-10524000D02*
G75*
G03*
X6531000Y-10524000I55000J0D01*
G01*
X6421000Y-10723000D02*
X6531000Y-10833000D01*
X6531000Y-10723000D02*
X6421000Y-10833000D01*
X6531000Y-10778000D02*
G75*
G03*
X6421000Y-10778000I-55000J0D01*
G01*
X6421000Y-10778000D02*
G75*
G03*
X6531000Y-10778000I55000J0D01*
G01*
X6421000Y-10977000D02*
X6531000Y-11087000D01*
X6531000Y-10977000D02*
X6421000Y-11087000D01*
X6531000Y-11032000D02*
G75*
G03*
X6421000Y-11032000I-55000J0D01*
G01*
X6421000Y-11032000D02*
G75*
G03*
X6531000Y-11032000I55000J0D01*
G01*
X6421000Y-11231000D02*
X6531000Y-11341000D01*
X6531000Y-11231000D02*
X6421000Y-11341000D01*
X6531000Y-11286000D02*
G75*
G03*
X6421000Y-11286000I-55000J0D01*
G01*
X6421000Y-11286000D02*
G75*
G03*
X6531000Y-11286000I55000J0D01*
G01*
X6465000Y-3445000D02*
X6575000Y-3555000D01*
X6575000Y-3445000D02*
X6465000Y-3555000D01*
X6575000Y-3500000D02*
G75*
G03*
X6465000Y-3500000I-55000J0D01*
G01*
X6465000Y-3500000D02*
G75*
G03*
X6575000Y-3500000I55000J0D01*
G01*
D10*
X6465000Y-3465000D02*
X6465000Y-3535000D01*
X6465000Y-3535000D02*
G75*
G03*
X6575000Y-3535000I55000J0D01*
G01*
X6575000Y-3535000D02*
X6575000Y-3465000D01*
X6575000Y-3465000D02*
G75*
G03*
X6465000Y-3465000I-55000J0D01*
G01*
D12*
X7425000Y-3445000D02*
X7535000Y-3555000D01*
X7535000Y-3445000D02*
X7425000Y-3555000D01*
X7535000Y-3500000D02*
G75*
G03*
X7425000Y-3500000I-55000J0D01*
G01*
X7425000Y-3500000D02*
G75*
G03*
X7535000Y-3500000I55000J0D01*
G01*
D10*
X7425000Y-3465000D02*
X7425000Y-3535000D01*
X7425000Y-3535000D02*
G75*
G03*
X7535000Y-3535000I55000J0D01*
G01*
X7535000Y-3535000D02*
X7535000Y-3465000D01*
X7535000Y-3465000D02*
G75*
G03*
X7425000Y-3465000I-55000J0D01*
G01*
D12*
X7945000Y-6405000D02*
X8055000Y-6515000D01*
X8055000Y-6405000D02*
X7945000Y-6515000D01*
X8055000Y-6460000D02*
G75*
G03*
X7945000Y-6460000I-55000J0D01*
G01*
X7945000Y-6460000D02*
G75*
G03*
X8055000Y-6460000I55000J0D01*
G01*
X7945000Y-6659000D02*
X8055000Y-6769000D01*
X8055000Y-6659000D02*
X7945000Y-6769000D01*
X8055000Y-6714000D02*
G75*
G03*
X7945000Y-6714000I-55000J0D01*
G01*
X7945000Y-6714000D02*
G75*
G03*
X8055000Y-6714000I55000J0D01*
G01*
X7945000Y-6913000D02*
X8055000Y-7023000D01*
X8055000Y-6913000D02*
X7945000Y-7023000D01*
X8055000Y-6968000D02*
G75*
G03*
X7945000Y-6968000I-55000J0D01*
G01*
X7945000Y-6968000D02*
G75*
G03*
X8055000Y-6968000I55000J0D01*
G01*
X7945000Y-7167000D02*
X8055000Y-7277000D01*
X8055000Y-7167000D02*
X7945000Y-7277000D01*
X8055000Y-7222000D02*
G75*
G03*
X7945000Y-7222000I-55000J0D01*
G01*
X7945000Y-7222000D02*
G75*
G03*
X8055000Y-7222000I55000J0D01*
G01*
X7945000Y-7421000D02*
X8055000Y-7531000D01*
X8055000Y-7421000D02*
X7945000Y-7531000D01*
X8055000Y-7476000D02*
G75*
G03*
X7945000Y-7476000I-55000J0D01*
G01*
X7945000Y-7476000D02*
G75*
G03*
X8055000Y-7476000I55000J0D01*
G01*
X7945000Y-7675000D02*
X8055000Y-7785000D01*
X8055000Y-7675000D02*
X7945000Y-7785000D01*
X8055000Y-7730000D02*
G75*
G03*
X7945000Y-7730000I-55000J0D01*
G01*
X7945000Y-7730000D02*
G75*
G03*
X8055000Y-7730000I55000J0D01*
G01*
X7945000Y-7929000D02*
X8055000Y-8039000D01*
X8055000Y-7929000D02*
X7945000Y-8039000D01*
X8055000Y-7984000D02*
G75*
G03*
X7945000Y-7984000I-55000J0D01*
G01*
X7945000Y-7984000D02*
G75*
G03*
X8055000Y-7984000I55000J0D01*
G01*
X7945000Y-8183000D02*
X8055000Y-8293000D01*
X8055000Y-8183000D02*
X7945000Y-8293000D01*
X8055000Y-8238000D02*
G75*
G03*
X7945000Y-8238000I-55000J0D01*
G01*
X7945000Y-8238000D02*
G75*
G03*
X8055000Y-8238000I55000J0D01*
G01*
X7945000Y-8437000D02*
X8055000Y-8547000D01*
X8055000Y-8437000D02*
X7945000Y-8547000D01*
X8055000Y-8492000D02*
G75*
G03*
X7945000Y-8492000I-55000J0D01*
G01*
X7945000Y-8492000D02*
G75*
G03*
X8055000Y-8492000I55000J0D01*
G01*
X7945000Y-8691000D02*
X8055000Y-8801000D01*
X8055000Y-8691000D02*
X7945000Y-8801000D01*
X8055000Y-8746000D02*
G75*
G03*
X7945000Y-8746000I-55000J0D01*
G01*
X7945000Y-8746000D02*
G75*
G03*
X8055000Y-8746000I55000J0D01*
G01*
X7945000Y-8945000D02*
X8055000Y-9055000D01*
X8055000Y-8945000D02*
X7945000Y-9055000D01*
X8055000Y-9000000D02*
G75*
G03*
X7945000Y-9000000I-55000J0D01*
G01*
X7945000Y-9000000D02*
G75*
G03*
X8055000Y-9000000I55000J0D01*
G01*
X7945000Y-9199000D02*
X8055000Y-9309000D01*
X8055000Y-9199000D02*
X7945000Y-9309000D01*
X8055000Y-9254000D02*
G75*
G03*
X7945000Y-9254000I-55000J0D01*
G01*
X7945000Y-9254000D02*
G75*
G03*
X8055000Y-9254000I55000J0D01*
G01*
X7945000Y-9453000D02*
X8055000Y-9563000D01*
X8055000Y-9453000D02*
X7945000Y-9563000D01*
X8055000Y-9508000D02*
G75*
G03*
X7945000Y-9508000I-55000J0D01*
G01*
X7945000Y-9508000D02*
G75*
G03*
X8055000Y-9508000I55000J0D01*
G01*
X7945000Y-9707000D02*
X8055000Y-9817000D01*
X8055000Y-9707000D02*
X7945000Y-9817000D01*
X8055000Y-9762000D02*
G75*
G03*
X7945000Y-9762000I-55000J0D01*
G01*
X7945000Y-9762000D02*
G75*
G03*
X8055000Y-9762000I55000J0D01*
G01*
X7945000Y-9961000D02*
X8055000Y-10071000D01*
X8055000Y-9961000D02*
X7945000Y-10071000D01*
X8055000Y-10016000D02*
G75*
G03*
X7945000Y-10016000I-55000J0D01*
G01*
X7945000Y-10016000D02*
G75*
G03*
X8055000Y-10016000I55000J0D01*
G01*
X7945000Y-10215000D02*
X8055000Y-10325000D01*
X8055000Y-10215000D02*
X7945000Y-10325000D01*
X8055000Y-10270000D02*
G75*
G03*
X7945000Y-10270000I-55000J0D01*
G01*
X7945000Y-10270000D02*
G75*
G03*
X8055000Y-10270000I55000J0D01*
G01*
X7945000Y-10469000D02*
X8055000Y-10579000D01*
X8055000Y-10469000D02*
X7945000Y-10579000D01*
X8055000Y-10524000D02*
G75*
G03*
X7945000Y-10524000I-55000J0D01*
G01*
X7945000Y-10524000D02*
G75*
G03*
X8055000Y-10524000I55000J0D01*
G01*
X7945000Y-10723000D02*
X8055000Y-10833000D01*
X8055000Y-10723000D02*
X7945000Y-10833000D01*
X8055000Y-10778000D02*
G75*
G03*
X7945000Y-10778000I-55000J0D01*
G01*
X7945000Y-10778000D02*
G75*
G03*
X8055000Y-10778000I55000J0D01*
G01*
X7945000Y-10977000D02*
X8055000Y-11087000D01*
X8055000Y-10977000D02*
X7945000Y-11087000D01*
X8055000Y-11032000D02*
G75*
G03*
X7945000Y-11032000I-55000J0D01*
G01*
X7945000Y-11032000D02*
G75*
G03*
X8055000Y-11032000I55000J0D01*
G01*
X7945000Y-11231000D02*
X8055000Y-11341000D01*
X8055000Y-11231000D02*
X7945000Y-11341000D01*
X8055000Y-11286000D02*
G75*
G03*
X7945000Y-11286000I-55000J0D01*
G01*
X7945000Y-11286000D02*
G75*
G03*
X8055000Y-11286000I55000J0D01*
G01*
X9215000Y-3445000D02*
X9325000Y-3555000D01*
X9325000Y-3445000D02*
X9215000Y-3555000D01*
X9325000Y-3500000D02*
G75*
G03*
X9215000Y-3500000I-55000J0D01*
G01*
X9215000Y-3500000D02*
G75*
G03*
X9325000Y-3500000I55000J0D01*
G01*
D10*
X9215000Y-3465000D02*
X9215000Y-3535000D01*
X9215000Y-3535000D02*
G75*
G03*
X9325000Y-3535000I55000J0D01*
G01*
X9325000Y-3535000D02*
X9325000Y-3465000D01*
X9325000Y-3465000D02*
G75*
G03*
X9215000Y-3465000I-55000J0D01*
G01*
D12*
X10175000Y-3445000D02*
X10285000Y-3555000D01*
X10285000Y-3445000D02*
X10175000Y-3555000D01*
X10285000Y-3500000D02*
G75*
G03*
X10175000Y-3500000I-55000J0D01*
G01*
X10175000Y-3500000D02*
G75*
G03*
X10285000Y-3500000I55000J0D01*
G01*
D10*
X10175000Y-3465000D02*
X10175000Y-3535000D01*
X10175000Y-3535000D02*
G75*
G03*
X10285000Y-3535000I55000J0D01*
G01*
X10285000Y-3535000D02*
X10285000Y-3465000D01*
X10285000Y-3465000D02*
G75*
G03*
X10175000Y-3465000I-55000J0D01*
G01*
D13*
X3615000Y-5325000D02*
X3765000Y-5475000D01*
X3765000Y-5325000D02*
X3615000Y-5475000D01*
X3690000Y-5325000D02*
X3690000Y-5475000D01*
X3615000Y-5400000D02*
X3765000Y-5400000D01*
D10*
X3765000Y-5465000D02*
X3765000Y-5335000D01*
X3765000Y-5335000D02*
G75*
G03*
X3615000Y-5335000I-75000J0D01*
G01*
X3615000Y-5335000D02*
X3615000Y-5465000D01*
X3615000Y-5465000D02*
G75*
G03*
X3765000Y-5465000I75000J0D01*
G01*
D13*
X3615000Y-8125000D02*
X3765000Y-8275000D01*
X3765000Y-8125000D02*
X3615000Y-8275000D01*
X3690000Y-8125000D02*
X3690000Y-8275000D01*
X3615000Y-8200000D02*
X3765000Y-8200000D01*
D10*
X3765000Y-8265000D02*
X3765000Y-8135000D01*
X3765000Y-8135000D02*
G75*
G03*
X3615000Y-8135000I-75000J0D01*
G01*
X3615000Y-8135000D02*
X3615000Y-8265000D01*
X3615000Y-8265000D02*
G75*
G03*
X3765000Y-8265000I75000J0D01*
G01*
D13*
X4735000Y-5325000D02*
X4885000Y-5475000D01*
X4885000Y-5325000D02*
X4735000Y-5475000D01*
X4810000Y-5325000D02*
X4810000Y-5475000D01*
X4735000Y-5400000D02*
X4885000Y-5400000D01*
D10*
X4885000Y-5465000D02*
X4885000Y-5335000D01*
X4885000Y-5335000D02*
G75*
G03*
X4735000Y-5335000I-75000J0D01*
G01*
X4735000Y-5335000D02*
X4735000Y-5465000D01*
X4735000Y-5465000D02*
G75*
G03*
X4885000Y-5465000I75000J0D01*
G01*
D13*
X4735000Y-8125000D02*
X4885000Y-8275000D01*
X4885000Y-8125000D02*
X4735000Y-8275000D01*
X4810000Y-8125000D02*
X4810000Y-8275000D01*
X4735000Y-8200000D02*
X4885000Y-8200000D01*
D10*
X4885000Y-8265000D02*
X4885000Y-8135000D01*
X4885000Y-8135000D02*
G75*
G03*
X4735000Y-8135000I-75000J0D01*
G01*
X4735000Y-8135000D02*
X4735000Y-8265000D01*
X4735000Y-8265000D02*
G75*
G03*
X4885000Y-8265000I75000J0D01*
G01*
D13*
X6365000Y-5325000D02*
X6515000Y-5475000D01*
X6515000Y-5325000D02*
X6365000Y-5475000D01*
X6440000Y-5325000D02*
X6440000Y-5475000D01*
X6365000Y-5400000D02*
X6515000Y-5400000D01*
D10*
X6515000Y-5465000D02*
X6515000Y-5335000D01*
X6515000Y-5335000D02*
G75*
G03*
X6365000Y-5335000I-75000J0D01*
G01*
X6365000Y-5335000D02*
X6365000Y-5465000D01*
X6365000Y-5465000D02*
G75*
G03*
X6515000Y-5465000I75000J0D01*
G01*
D13*
X7485000Y-5325000D02*
X7635000Y-5475000D01*
X7635000Y-5325000D02*
X7485000Y-5475000D01*
X7560000Y-5325000D02*
X7560000Y-5475000D01*
X7485000Y-5400000D02*
X7635000Y-5400000D01*
D10*
X7635000Y-5465000D02*
X7635000Y-5335000D01*
X7635000Y-5335000D02*
G75*
G03*
X7485000Y-5335000I-75000J0D01*
G01*
X7485000Y-5335000D02*
X7485000Y-5465000D01*
X7485000Y-5465000D02*
G75*
G03*
X7635000Y-5465000I75000J0D01*
G01*
D13*
X9115000Y-5325000D02*
X9265000Y-5475000D01*
X9265000Y-5325000D02*
X9115000Y-5475000D01*
X9190000Y-5325000D02*
X9190000Y-5475000D01*
X9115000Y-5400000D02*
X9265000Y-5400000D01*
D10*
X9265000Y-5465000D02*
X9265000Y-5335000D01*
X9265000Y-5335000D02*
G75*
G03*
X9115000Y-5335000I-75000J0D01*
G01*
X9115000Y-5335000D02*
X9115000Y-5465000D01*
X9115000Y-5465000D02*
G75*
G03*
X9265000Y-5465000I75000J0D01*
G01*
D13*
X10235000Y-5325000D02*
X10385000Y-5475000D01*
X10385000Y-5325000D02*
X10235000Y-5475000D01*
X10310000Y-5325000D02*
X10310000Y-5475000D01*
X10235000Y-5400000D02*
X10385000Y-5400000D01*
D10*
X10385000Y-5465000D02*
X10385000Y-5335000D01*
X10385000Y-5335000D02*
G75*
G03*
X10235000Y-5335000I-75000J0D01*
G01*
X10235000Y-5335000D02*
X10235000Y-5465000D01*
X10235000Y-5465000D02*
G75*
G03*
X10385000Y-5465000I75000J0D01*
G01*
D11*
X3195777Y-11976484D02*
X3195777Y-11776484D01*
X3195777Y-11776484D02*
X3243396Y-11776484D01*
X3243396Y-11776484D02*
X3271967Y-11786008D01*
X3271967Y-11786008D02*
X3291015Y-11805055D01*
X3291015Y-11805055D02*
X3300539Y-11824103D01*
X3300539Y-11824103D02*
X3310062Y-11862198D01*
X3310062Y-11862198D02*
X3310062Y-11890769D01*
X3310062Y-11890769D02*
X3300539Y-11928865D01*
X3300539Y-11928865D02*
X3291015Y-11947912D01*
X3291015Y-11947912D02*
X3271967Y-11966960D01*
X3271967Y-11966960D02*
X3243396Y-11976484D01*
X3243396Y-11976484D02*
X3195777Y-11976484D01*
X3395777Y-11976484D02*
X3395777Y-11843150D01*
X3395777Y-11881246D02*
X3405301Y-11862198D01*
X3405301Y-11862198D02*
X3414824Y-11852674D01*
X3414824Y-11852674D02*
X3433872Y-11843150D01*
X3433872Y-11843150D02*
X3452920Y-11843150D01*
X3519586Y-11976484D02*
X3519586Y-11843150D01*
X3519586Y-11776484D02*
X3510062Y-11786008D01*
X3510062Y-11786008D02*
X3519586Y-11795531D01*
X3519586Y-11795531D02*
X3529110Y-11786008D01*
X3529110Y-11786008D02*
X3519586Y-11776484D01*
X3519586Y-11776484D02*
X3519586Y-11795531D01*
X3643396Y-11976484D02*
X3624348Y-11966960D01*
X3624348Y-11966960D02*
X3614824Y-11947912D01*
X3614824Y-11947912D02*
X3614824Y-11776484D01*
X3748158Y-11976484D02*
X3729110Y-11966960D01*
X3729110Y-11966960D02*
X3719586Y-11947912D01*
X3719586Y-11947912D02*
X3719586Y-11776484D01*
X3976729Y-11976484D02*
X3976729Y-11776484D01*
X3976729Y-11776484D02*
X4043396Y-11919341D01*
X4043396Y-11919341D02*
X4110062Y-11776484D01*
X4110062Y-11776484D02*
X4110062Y-11976484D01*
X4291015Y-11976484D02*
X4291015Y-11871722D01*
X4291015Y-11871722D02*
X4281491Y-11852674D01*
X4281491Y-11852674D02*
X4262444Y-11843150D01*
X4262444Y-11843150D02*
X4224348Y-11843150D01*
X4224348Y-11843150D02*
X4205301Y-11852674D01*
X4291015Y-11966960D02*
X4271967Y-11976484D01*
X4271967Y-11976484D02*
X4224348Y-11976484D01*
X4224348Y-11976484D02*
X4205301Y-11966960D01*
X4205301Y-11966960D02*
X4195777Y-11947912D01*
X4195777Y-11947912D02*
X4195777Y-11928865D01*
X4195777Y-11928865D02*
X4205301Y-11909817D01*
X4205301Y-11909817D02*
X4224348Y-11900293D01*
X4224348Y-11900293D02*
X4271967Y-11900293D01*
X4271967Y-11900293D02*
X4291015Y-11890769D01*
X4386253Y-11843150D02*
X4386253Y-12043150D01*
X4386253Y-11852674D02*
X4405301Y-11843150D01*
X4405301Y-11843150D02*
X4443396Y-11843150D01*
X4443396Y-11843150D02*
X4462444Y-11852674D01*
X4462444Y-11852674D02*
X4471967Y-11862198D01*
X4471967Y-11862198D02*
X4481491Y-11881246D01*
X4481491Y-11881246D02*
X4481491Y-11938388D01*
X4481491Y-11938388D02*
X4471967Y-11957436D01*
X4471967Y-11957436D02*
X4462444Y-11966960D01*
X4462444Y-11966960D02*
X4443396Y-11976484D01*
X4443396Y-11976484D02*
X4405301Y-11976484D01*
X4405301Y-11976484D02*
X4386253Y-11966960D01*
X4567205Y-11957436D02*
X4576729Y-11966960D01*
X4576729Y-11966960D02*
X4567205Y-11976484D01*
X4567205Y-11976484D02*
X4557682Y-11966960D01*
X4557682Y-11966960D02*
X4567205Y-11957436D01*
X4567205Y-11957436D02*
X4567205Y-11976484D01*
X4567205Y-11852674D02*
X4576729Y-11862198D01*
X4576729Y-11862198D02*
X4567205Y-11871722D01*
X4567205Y-11871722D02*
X4557682Y-11862198D01*
X4557682Y-11862198D02*
X4567205Y-11852674D01*
X4567205Y-11852674D02*
X4567205Y-11871722D01*
D10*
X2895000Y-12285000D02*
X2935000Y-12325000D01*
X2935000Y-12285000D02*
X2895000Y-12325000D01*
D11*
X3233872Y-12196484D02*
X3252920Y-12196484D01*
X3252920Y-12196484D02*
X3271967Y-12206008D01*
X3271967Y-12206008D02*
X3281491Y-12215531D01*
X3281491Y-12215531D02*
X3291015Y-12234579D01*
X3291015Y-12234579D02*
X3300539Y-12272674D01*
X3300539Y-12272674D02*
X3300539Y-12320293D01*
X3300539Y-12320293D02*
X3291015Y-12358388D01*
X3291015Y-12358388D02*
X3281491Y-12377436D01*
X3281491Y-12377436D02*
X3271967Y-12386960D01*
X3271967Y-12386960D02*
X3252920Y-12396484D01*
X3252920Y-12396484D02*
X3233872Y-12396484D01*
X3233872Y-12396484D02*
X3214824Y-12386960D01*
X3214824Y-12386960D02*
X3205301Y-12377436D01*
X3205301Y-12377436D02*
X3195777Y-12358388D01*
X3195777Y-12358388D02*
X3186253Y-12320293D01*
X3186253Y-12320293D02*
X3186253Y-12272674D01*
X3186253Y-12272674D02*
X3195777Y-12234579D01*
X3195777Y-12234579D02*
X3205301Y-12215531D01*
X3205301Y-12215531D02*
X3214824Y-12206008D01*
X3214824Y-12206008D02*
X3233872Y-12196484D01*
X3386253Y-12377436D02*
X3395777Y-12386960D01*
X3395777Y-12386960D02*
X3386253Y-12396484D01*
X3386253Y-12396484D02*
X3376729Y-12386960D01*
X3376729Y-12386960D02*
X3386253Y-12377436D01*
X3386253Y-12377436D02*
X3386253Y-12396484D01*
X3567205Y-12263150D02*
X3567205Y-12396484D01*
X3519586Y-12186960D02*
X3471967Y-12329817D01*
X3471967Y-12329817D02*
X3595777Y-12329817D01*
X3710062Y-12196484D02*
X3729110Y-12196484D01*
X3729110Y-12196484D02*
X3748158Y-12206008D01*
X3748158Y-12206008D02*
X3757682Y-12215531D01*
X3757682Y-12215531D02*
X3767205Y-12234579D01*
X3767205Y-12234579D02*
X3776729Y-12272674D01*
X3776729Y-12272674D02*
X3776729Y-12320293D01*
X3776729Y-12320293D02*
X3767205Y-12358388D01*
X3767205Y-12358388D02*
X3757682Y-12377436D01*
X3757682Y-12377436D02*
X3748158Y-12386960D01*
X3748158Y-12386960D02*
X3729110Y-12396484D01*
X3729110Y-12396484D02*
X3710062Y-12396484D01*
X3710062Y-12396484D02*
X3691015Y-12386960D01*
X3691015Y-12386960D02*
X3681491Y-12377436D01*
X3681491Y-12377436D02*
X3671967Y-12358388D01*
X3671967Y-12358388D02*
X3662443Y-12320293D01*
X3662443Y-12320293D02*
X3662443Y-12272674D01*
X3662443Y-12272674D02*
X3671967Y-12234579D01*
X3671967Y-12234579D02*
X3681491Y-12215531D01*
X3681491Y-12215531D02*
X3691015Y-12206008D01*
X3691015Y-12206008D02*
X3710062Y-12196484D01*
X3900539Y-12196484D02*
X3919586Y-12196484D01*
X3919586Y-12196484D02*
X3938634Y-12206008D01*
X3938634Y-12206008D02*
X3948158Y-12215531D01*
X3948158Y-12215531D02*
X3957682Y-12234579D01*
X3957682Y-12234579D02*
X3967205Y-12272674D01*
X3967205Y-12272674D02*
X3967205Y-12320293D01*
X3967205Y-12320293D02*
X3957682Y-12358388D01*
X3957682Y-12358388D02*
X3948158Y-12377436D01*
X3948158Y-12377436D02*
X3938634Y-12386960D01*
X3938634Y-12386960D02*
X3919586Y-12396484D01*
X3919586Y-12396484D02*
X3900539Y-12396484D01*
X3900539Y-12396484D02*
X3881491Y-12386960D01*
X3881491Y-12386960D02*
X3871967Y-12377436D01*
X3871967Y-12377436D02*
X3862443Y-12358388D01*
X3862443Y-12358388D02*
X3852920Y-12320293D01*
X3852920Y-12320293D02*
X3852920Y-12272674D01*
X3852920Y-12272674D02*
X3862443Y-12234579D01*
X3862443Y-12234579D02*
X3871967Y-12215531D01*
X3871967Y-12215531D02*
X3881491Y-12206008D01*
X3881491Y-12206008D02*
X3900539Y-12196484D01*
X4052920Y-12396484D02*
X4052920Y-12263150D01*
X4052920Y-12282198D02*
X4062443Y-12272674D01*
X4062443Y-12272674D02*
X4081491Y-12263150D01*
X4081491Y-12263150D02*
X4110063Y-12263150D01*
X4110063Y-12263150D02*
X4129110Y-12272674D01*
X4129110Y-12272674D02*
X4138634Y-12291722D01*
X4138634Y-12291722D02*
X4138634Y-12396484D01*
X4138634Y-12291722D02*
X4148158Y-12272674D01*
X4148158Y-12272674D02*
X4167205Y-12263150D01*
X4167205Y-12263150D02*
X4195777Y-12263150D01*
X4195777Y-12263150D02*
X4214825Y-12272674D01*
X4214825Y-12272674D02*
X4224348Y-12291722D01*
X4224348Y-12291722D02*
X4224348Y-12396484D01*
X4319586Y-12396484D02*
X4319586Y-12263150D01*
X4319586Y-12282198D02*
X4329110Y-12272674D01*
X4329110Y-12272674D02*
X4348158Y-12263150D01*
X4348158Y-12263150D02*
X4376729Y-12263150D01*
X4376729Y-12263150D02*
X4395777Y-12272674D01*
X4395777Y-12272674D02*
X4405301Y-12291722D01*
X4405301Y-12291722D02*
X4405301Y-12396484D01*
X4405301Y-12291722D02*
X4414825Y-12272674D01*
X4414825Y-12272674D02*
X4433872Y-12263150D01*
X4433872Y-12263150D02*
X4462444Y-12263150D01*
X4462444Y-12263150D02*
X4481491Y-12272674D01*
X4481491Y-12272674D02*
X4491015Y-12291722D01*
X4491015Y-12291722D02*
X4491015Y-12396484D01*
X4881491Y-12186960D02*
X4710063Y-12444103D01*
X5138634Y-12196484D02*
X5157682Y-12196484D01*
X5157682Y-12196484D02*
X5176729Y-12206008D01*
X5176729Y-12206008D02*
X5186253Y-12215531D01*
X5186253Y-12215531D02*
X5195777Y-12234579D01*
X5195777Y-12234579D02*
X5205301Y-12272674D01*
X5205301Y-12272674D02*
X5205301Y-12320293D01*
X5205301Y-12320293D02*
X5195777Y-12358388D01*
X5195777Y-12358388D02*
X5186253Y-12377436D01*
X5186253Y-12377436D02*
X5176729Y-12386960D01*
X5176729Y-12386960D02*
X5157682Y-12396484D01*
X5157682Y-12396484D02*
X5138634Y-12396484D01*
X5138634Y-12396484D02*
X5119587Y-12386960D01*
X5119587Y-12386960D02*
X5110063Y-12377436D01*
X5110063Y-12377436D02*
X5100539Y-12358388D01*
X5100539Y-12358388D02*
X5091015Y-12320293D01*
X5091015Y-12320293D02*
X5091015Y-12272674D01*
X5091015Y-12272674D02*
X5100539Y-12234579D01*
X5100539Y-12234579D02*
X5110063Y-12215531D01*
X5110063Y-12215531D02*
X5119587Y-12206008D01*
X5119587Y-12206008D02*
X5138634Y-12196484D01*
X5291015Y-12377436D02*
X5300539Y-12386960D01*
X5300539Y-12386960D02*
X5291015Y-12396484D01*
X5291015Y-12396484D02*
X5281491Y-12386960D01*
X5281491Y-12386960D02*
X5291015Y-12377436D01*
X5291015Y-12377436D02*
X5291015Y-12396484D01*
X5424348Y-12196484D02*
X5443396Y-12196484D01*
X5443396Y-12196484D02*
X5462444Y-12206008D01*
X5462444Y-12206008D02*
X5471968Y-12215531D01*
X5471968Y-12215531D02*
X5481491Y-12234579D01*
X5481491Y-12234579D02*
X5491015Y-12272674D01*
X5491015Y-12272674D02*
X5491015Y-12320293D01*
X5491015Y-12320293D02*
X5481491Y-12358388D01*
X5481491Y-12358388D02*
X5471968Y-12377436D01*
X5471968Y-12377436D02*
X5462444Y-12386960D01*
X5462444Y-12386960D02*
X5443396Y-12396484D01*
X5443396Y-12396484D02*
X5424348Y-12396484D01*
X5424348Y-12396484D02*
X5405301Y-12386960D01*
X5405301Y-12386960D02*
X5395777Y-12377436D01*
X5395777Y-12377436D02*
X5386253Y-12358388D01*
X5386253Y-12358388D02*
X5376729Y-12320293D01*
X5376729Y-12320293D02*
X5376729Y-12272674D01*
X5376729Y-12272674D02*
X5386253Y-12234579D01*
X5386253Y-12234579D02*
X5395777Y-12215531D01*
X5395777Y-12215531D02*
X5405301Y-12206008D01*
X5405301Y-12206008D02*
X5424348Y-12196484D01*
X5681491Y-12396484D02*
X5567206Y-12396484D01*
X5624348Y-12396484D02*
X5624348Y-12196484D01*
X5624348Y-12196484D02*
X5605301Y-12225055D01*
X5605301Y-12225055D02*
X5586253Y-12244103D01*
X5586253Y-12244103D02*
X5567206Y-12253627D01*
X5862444Y-12196484D02*
X5767206Y-12196484D01*
X5767206Y-12196484D02*
X5757682Y-12291722D01*
X5757682Y-12291722D02*
X5767206Y-12282198D01*
X5767206Y-12282198D02*
X5786253Y-12272674D01*
X5786253Y-12272674D02*
X5833872Y-12272674D01*
X5833872Y-12272674D02*
X5852920Y-12282198D01*
X5852920Y-12282198D02*
X5862444Y-12291722D01*
X5862444Y-12291722D02*
X5871967Y-12310769D01*
X5871967Y-12310769D02*
X5871967Y-12358388D01*
X5871967Y-12358388D02*
X5862444Y-12377436D01*
X5862444Y-12377436D02*
X5852920Y-12386960D01*
X5852920Y-12386960D02*
X5833872Y-12396484D01*
X5833872Y-12396484D02*
X5786253Y-12396484D01*
X5786253Y-12396484D02*
X5767206Y-12386960D01*
X5767206Y-12386960D02*
X5757682Y-12377436D01*
X5938634Y-12196484D02*
X6071967Y-12196484D01*
X6071967Y-12196484D02*
X5986253Y-12396484D01*
X6138634Y-12196484D02*
X6138634Y-12234579D01*
X6214825Y-12196484D02*
X6214825Y-12234579D01*
X6510063Y-12472674D02*
X6500539Y-12463150D01*
X6500539Y-12463150D02*
X6481491Y-12434579D01*
X6481491Y-12434579D02*
X6471968Y-12415531D01*
X6471968Y-12415531D02*
X6462444Y-12386960D01*
X6462444Y-12386960D02*
X6452920Y-12339341D01*
X6452920Y-12339341D02*
X6452920Y-12301246D01*
X6452920Y-12301246D02*
X6462444Y-12253627D01*
X6462444Y-12253627D02*
X6471968Y-12225055D01*
X6471968Y-12225055D02*
X6481491Y-12206008D01*
X6481491Y-12206008D02*
X6500539Y-12177436D01*
X6500539Y-12177436D02*
X6510063Y-12167912D01*
X6691015Y-12396484D02*
X6576729Y-12396484D01*
X6633872Y-12396484D02*
X6633872Y-12196484D01*
X6633872Y-12196484D02*
X6614825Y-12225055D01*
X6614825Y-12225055D02*
X6595777Y-12244103D01*
X6595777Y-12244103D02*
X6576729Y-12253627D01*
X6786253Y-12396484D02*
X6824348Y-12396484D01*
X6824348Y-12396484D02*
X6843396Y-12386960D01*
X6843396Y-12386960D02*
X6852920Y-12377436D01*
X6852920Y-12377436D02*
X6871968Y-12348865D01*
X6871968Y-12348865D02*
X6881491Y-12310769D01*
X6881491Y-12310769D02*
X6881491Y-12234579D01*
X6881491Y-12234579D02*
X6871968Y-12215531D01*
X6871968Y-12215531D02*
X6862444Y-12206008D01*
X6862444Y-12206008D02*
X6843396Y-12196484D01*
X6843396Y-12196484D02*
X6805301Y-12196484D01*
X6805301Y-12196484D02*
X6786253Y-12206008D01*
X6786253Y-12206008D02*
X6776729Y-12215531D01*
X6776729Y-12215531D02*
X6767206Y-12234579D01*
X6767206Y-12234579D02*
X6767206Y-12282198D01*
X6767206Y-12282198D02*
X6776729Y-12301246D01*
X6776729Y-12301246D02*
X6786253Y-12310769D01*
X6786253Y-12310769D02*
X6805301Y-12320293D01*
X6805301Y-12320293D02*
X6843396Y-12320293D01*
X6843396Y-12320293D02*
X6862444Y-12310769D01*
X6862444Y-12310769D02*
X6871968Y-12301246D01*
X6871968Y-12301246D02*
X6881491Y-12282198D01*
X7119587Y-12396484D02*
X7119587Y-12196484D01*
X7205301Y-12396484D02*
X7205301Y-12291722D01*
X7205301Y-12291722D02*
X7195777Y-12272674D01*
X7195777Y-12272674D02*
X7176730Y-12263150D01*
X7176730Y-12263150D02*
X7148158Y-12263150D01*
X7148158Y-12263150D02*
X7129110Y-12272674D01*
X7129110Y-12272674D02*
X7119587Y-12282198D01*
X7329110Y-12396484D02*
X7310063Y-12386960D01*
X7310063Y-12386960D02*
X7300539Y-12377436D01*
X7300539Y-12377436D02*
X7291015Y-12358388D01*
X7291015Y-12358388D02*
X7291015Y-12301246D01*
X7291015Y-12301246D02*
X7300539Y-12282198D01*
X7300539Y-12282198D02*
X7310063Y-12272674D01*
X7310063Y-12272674D02*
X7329110Y-12263150D01*
X7329110Y-12263150D02*
X7357682Y-12263150D01*
X7357682Y-12263150D02*
X7376730Y-12272674D01*
X7376730Y-12272674D02*
X7386253Y-12282198D01*
X7386253Y-12282198D02*
X7395777Y-12301246D01*
X7395777Y-12301246D02*
X7395777Y-12358388D01*
X7395777Y-12358388D02*
X7386253Y-12377436D01*
X7386253Y-12377436D02*
X7376730Y-12386960D01*
X7376730Y-12386960D02*
X7357682Y-12396484D01*
X7357682Y-12396484D02*
X7329110Y-12396484D01*
X7510063Y-12396484D02*
X7491015Y-12386960D01*
X7491015Y-12386960D02*
X7481491Y-12367912D01*
X7481491Y-12367912D02*
X7481491Y-12196484D01*
X7662444Y-12386960D02*
X7643396Y-12396484D01*
X7643396Y-12396484D02*
X7605301Y-12396484D01*
X7605301Y-12396484D02*
X7586253Y-12386960D01*
X7586253Y-12386960D02*
X7576730Y-12367912D01*
X7576730Y-12367912D02*
X7576730Y-12291722D01*
X7576730Y-12291722D02*
X7586253Y-12272674D01*
X7586253Y-12272674D02*
X7605301Y-12263150D01*
X7605301Y-12263150D02*
X7643396Y-12263150D01*
X7643396Y-12263150D02*
X7662444Y-12272674D01*
X7662444Y-12272674D02*
X7671968Y-12291722D01*
X7671968Y-12291722D02*
X7671968Y-12310769D01*
X7671968Y-12310769D02*
X7576730Y-12329817D01*
X7748158Y-12386960D02*
X7767206Y-12396484D01*
X7767206Y-12396484D02*
X7805301Y-12396484D01*
X7805301Y-12396484D02*
X7824349Y-12386960D01*
X7824349Y-12386960D02*
X7833872Y-12367912D01*
X7833872Y-12367912D02*
X7833872Y-12358388D01*
X7833872Y-12358388D02*
X7824349Y-12339341D01*
X7824349Y-12339341D02*
X7805301Y-12329817D01*
X7805301Y-12329817D02*
X7776730Y-12329817D01*
X7776730Y-12329817D02*
X7757682Y-12320293D01*
X7757682Y-12320293D02*
X7748158Y-12301246D01*
X7748158Y-12301246D02*
X7748158Y-12291722D01*
X7748158Y-12291722D02*
X7757682Y-12272674D01*
X7757682Y-12272674D02*
X7776730Y-12263150D01*
X7776730Y-12263150D02*
X7805301Y-12263150D01*
X7805301Y-12263150D02*
X7824349Y-12272674D01*
X7900539Y-12472674D02*
X7910063Y-12463150D01*
X7910063Y-12463150D02*
X7929111Y-12434579D01*
X7929111Y-12434579D02*
X7938634Y-12415531D01*
X7938634Y-12415531D02*
X7948158Y-12386960D01*
X7948158Y-12386960D02*
X7957682Y-12339341D01*
X7957682Y-12339341D02*
X7957682Y-12301246D01*
X7957682Y-12301246D02*
X7948158Y-12253627D01*
X7948158Y-12253627D02*
X7938634Y-12225055D01*
X7938634Y-12225055D02*
X7929111Y-12206008D01*
X7929111Y-12206008D02*
X7910063Y-12177436D01*
X7910063Y-12177436D02*
X7900539Y-12167912D01*
D10*
X2935000Y-12569000D02*
G75*
G03*
X2875000Y-12569000I-30000J0D01*
G01*
X2875000Y-12569000D02*
G75*
G03*
X2935000Y-12569000I30000J0D01*
G01*
D11*
X3233872Y-12460484D02*
X3252920Y-12460484D01*
X3252920Y-12460484D02*
X3271967Y-12470008D01*
X3271967Y-12470008D02*
X3281491Y-12479531D01*
X3281491Y-12479531D02*
X3291015Y-12498579D01*
X3291015Y-12498579D02*
X3300539Y-12536674D01*
X3300539Y-12536674D02*
X3300539Y-12584293D01*
X3300539Y-12584293D02*
X3291015Y-12622388D01*
X3291015Y-12622388D02*
X3281491Y-12641436D01*
X3281491Y-12641436D02*
X3271967Y-12650960D01*
X3271967Y-12650960D02*
X3252920Y-12660484D01*
X3252920Y-12660484D02*
X3233872Y-12660484D01*
X3233872Y-12660484D02*
X3214824Y-12650960D01*
X3214824Y-12650960D02*
X3205301Y-12641436D01*
X3205301Y-12641436D02*
X3195777Y-12622388D01*
X3195777Y-12622388D02*
X3186253Y-12584293D01*
X3186253Y-12584293D02*
X3186253Y-12536674D01*
X3186253Y-12536674D02*
X3195777Y-12498579D01*
X3195777Y-12498579D02*
X3205301Y-12479531D01*
X3205301Y-12479531D02*
X3214824Y-12470008D01*
X3214824Y-12470008D02*
X3233872Y-12460484D01*
X3386253Y-12641436D02*
X3395777Y-12650960D01*
X3395777Y-12650960D02*
X3386253Y-12660484D01*
X3386253Y-12660484D02*
X3376729Y-12650960D01*
X3376729Y-12650960D02*
X3386253Y-12641436D01*
X3386253Y-12641436D02*
X3386253Y-12660484D01*
X3567205Y-12460484D02*
X3529110Y-12460484D01*
X3529110Y-12460484D02*
X3510062Y-12470008D01*
X3510062Y-12470008D02*
X3500539Y-12479531D01*
X3500539Y-12479531D02*
X3481491Y-12508103D01*
X3481491Y-12508103D02*
X3471967Y-12546198D01*
X3471967Y-12546198D02*
X3471967Y-12622388D01*
X3471967Y-12622388D02*
X3481491Y-12641436D01*
X3481491Y-12641436D02*
X3491015Y-12650960D01*
X3491015Y-12650960D02*
X3510062Y-12660484D01*
X3510062Y-12660484D02*
X3548158Y-12660484D01*
X3548158Y-12660484D02*
X3567205Y-12650960D01*
X3567205Y-12650960D02*
X3576729Y-12641436D01*
X3576729Y-12641436D02*
X3586253Y-12622388D01*
X3586253Y-12622388D02*
X3586253Y-12574769D01*
X3586253Y-12574769D02*
X3576729Y-12555722D01*
X3576729Y-12555722D02*
X3567205Y-12546198D01*
X3567205Y-12546198D02*
X3548158Y-12536674D01*
X3548158Y-12536674D02*
X3510062Y-12536674D01*
X3510062Y-12536674D02*
X3491015Y-12546198D01*
X3491015Y-12546198D02*
X3481491Y-12555722D01*
X3481491Y-12555722D02*
X3471967Y-12574769D01*
X3710062Y-12460484D02*
X3729110Y-12460484D01*
X3729110Y-12460484D02*
X3748158Y-12470008D01*
X3748158Y-12470008D02*
X3757682Y-12479531D01*
X3757682Y-12479531D02*
X3767205Y-12498579D01*
X3767205Y-12498579D02*
X3776729Y-12536674D01*
X3776729Y-12536674D02*
X3776729Y-12584293D01*
X3776729Y-12584293D02*
X3767205Y-12622388D01*
X3767205Y-12622388D02*
X3757682Y-12641436D01*
X3757682Y-12641436D02*
X3748158Y-12650960D01*
X3748158Y-12650960D02*
X3729110Y-12660484D01*
X3729110Y-12660484D02*
X3710062Y-12660484D01*
X3710062Y-12660484D02*
X3691015Y-12650960D01*
X3691015Y-12650960D02*
X3681491Y-12641436D01*
X3681491Y-12641436D02*
X3671967Y-12622388D01*
X3671967Y-12622388D02*
X3662443Y-12584293D01*
X3662443Y-12584293D02*
X3662443Y-12536674D01*
X3662443Y-12536674D02*
X3671967Y-12498579D01*
X3671967Y-12498579D02*
X3681491Y-12479531D01*
X3681491Y-12479531D02*
X3691015Y-12470008D01*
X3691015Y-12470008D02*
X3710062Y-12460484D01*
X3900539Y-12460484D02*
X3919586Y-12460484D01*
X3919586Y-12460484D02*
X3938634Y-12470008D01*
X3938634Y-12470008D02*
X3948158Y-12479531D01*
X3948158Y-12479531D02*
X3957682Y-12498579D01*
X3957682Y-12498579D02*
X3967205Y-12536674D01*
X3967205Y-12536674D02*
X3967205Y-12584293D01*
X3967205Y-12584293D02*
X3957682Y-12622388D01*
X3957682Y-12622388D02*
X3948158Y-12641436D01*
X3948158Y-12641436D02*
X3938634Y-12650960D01*
X3938634Y-12650960D02*
X3919586Y-12660484D01*
X3919586Y-12660484D02*
X3900539Y-12660484D01*
X3900539Y-12660484D02*
X3881491Y-12650960D01*
X3881491Y-12650960D02*
X3871967Y-12641436D01*
X3871967Y-12641436D02*
X3862443Y-12622388D01*
X3862443Y-12622388D02*
X3852920Y-12584293D01*
X3852920Y-12584293D02*
X3852920Y-12536674D01*
X3852920Y-12536674D02*
X3862443Y-12498579D01*
X3862443Y-12498579D02*
X3871967Y-12479531D01*
X3871967Y-12479531D02*
X3881491Y-12470008D01*
X3881491Y-12470008D02*
X3900539Y-12460484D01*
X4052920Y-12660484D02*
X4052920Y-12527150D01*
X4052920Y-12546198D02*
X4062443Y-12536674D01*
X4062443Y-12536674D02*
X4081491Y-12527150D01*
X4081491Y-12527150D02*
X4110063Y-12527150D01*
X4110063Y-12527150D02*
X4129110Y-12536674D01*
X4129110Y-12536674D02*
X4138634Y-12555722D01*
X4138634Y-12555722D02*
X4138634Y-12660484D01*
X4138634Y-12555722D02*
X4148158Y-12536674D01*
X4148158Y-12536674D02*
X4167205Y-12527150D01*
X4167205Y-12527150D02*
X4195777Y-12527150D01*
X4195777Y-12527150D02*
X4214825Y-12536674D01*
X4214825Y-12536674D02*
X4224348Y-12555722D01*
X4224348Y-12555722D02*
X4224348Y-12660484D01*
X4319586Y-12660484D02*
X4319586Y-12527150D01*
X4319586Y-12546198D02*
X4329110Y-12536674D01*
X4329110Y-12536674D02*
X4348158Y-12527150D01*
X4348158Y-12527150D02*
X4376729Y-12527150D01*
X4376729Y-12527150D02*
X4395777Y-12536674D01*
X4395777Y-12536674D02*
X4405301Y-12555722D01*
X4405301Y-12555722D02*
X4405301Y-12660484D01*
X4405301Y-12555722D02*
X4414825Y-12536674D01*
X4414825Y-12536674D02*
X4433872Y-12527150D01*
X4433872Y-12527150D02*
X4462444Y-12527150D01*
X4462444Y-12527150D02*
X4481491Y-12536674D01*
X4481491Y-12536674D02*
X4491015Y-12555722D01*
X4491015Y-12555722D02*
X4491015Y-12660484D01*
X4881491Y-12450960D02*
X4710063Y-12708103D01*
X5138634Y-12460484D02*
X5157682Y-12460484D01*
X5157682Y-12460484D02*
X5176729Y-12470008D01*
X5176729Y-12470008D02*
X5186253Y-12479531D01*
X5186253Y-12479531D02*
X5195777Y-12498579D01*
X5195777Y-12498579D02*
X5205301Y-12536674D01*
X5205301Y-12536674D02*
X5205301Y-12584293D01*
X5205301Y-12584293D02*
X5195777Y-12622388D01*
X5195777Y-12622388D02*
X5186253Y-12641436D01*
X5186253Y-12641436D02*
X5176729Y-12650960D01*
X5176729Y-12650960D02*
X5157682Y-12660484D01*
X5157682Y-12660484D02*
X5138634Y-12660484D01*
X5138634Y-12660484D02*
X5119587Y-12650960D01*
X5119587Y-12650960D02*
X5110063Y-12641436D01*
X5110063Y-12641436D02*
X5100539Y-12622388D01*
X5100539Y-12622388D02*
X5091015Y-12584293D01*
X5091015Y-12584293D02*
X5091015Y-12536674D01*
X5091015Y-12536674D02*
X5100539Y-12498579D01*
X5100539Y-12498579D02*
X5110063Y-12479531D01*
X5110063Y-12479531D02*
X5119587Y-12470008D01*
X5119587Y-12470008D02*
X5138634Y-12460484D01*
X5291015Y-12641436D02*
X5300539Y-12650960D01*
X5300539Y-12650960D02*
X5291015Y-12660484D01*
X5291015Y-12660484D02*
X5281491Y-12650960D01*
X5281491Y-12650960D02*
X5291015Y-12641436D01*
X5291015Y-12641436D02*
X5291015Y-12660484D01*
X5424348Y-12460484D02*
X5443396Y-12460484D01*
X5443396Y-12460484D02*
X5462444Y-12470008D01*
X5462444Y-12470008D02*
X5471968Y-12479531D01*
X5471968Y-12479531D02*
X5481491Y-12498579D01*
X5481491Y-12498579D02*
X5491015Y-12536674D01*
X5491015Y-12536674D02*
X5491015Y-12584293D01*
X5491015Y-12584293D02*
X5481491Y-12622388D01*
X5481491Y-12622388D02*
X5471968Y-12641436D01*
X5471968Y-12641436D02*
X5462444Y-12650960D01*
X5462444Y-12650960D02*
X5443396Y-12660484D01*
X5443396Y-12660484D02*
X5424348Y-12660484D01*
X5424348Y-12660484D02*
X5405301Y-12650960D01*
X5405301Y-12650960D02*
X5395777Y-12641436D01*
X5395777Y-12641436D02*
X5386253Y-12622388D01*
X5386253Y-12622388D02*
X5376729Y-12584293D01*
X5376729Y-12584293D02*
X5376729Y-12536674D01*
X5376729Y-12536674D02*
X5386253Y-12498579D01*
X5386253Y-12498579D02*
X5395777Y-12479531D01*
X5395777Y-12479531D02*
X5405301Y-12470008D01*
X5405301Y-12470008D02*
X5424348Y-12460484D01*
X5567206Y-12479531D02*
X5576729Y-12470008D01*
X5576729Y-12470008D02*
X5595777Y-12460484D01*
X5595777Y-12460484D02*
X5643396Y-12460484D01*
X5643396Y-12460484D02*
X5662444Y-12470008D01*
X5662444Y-12470008D02*
X5671967Y-12479531D01*
X5671967Y-12479531D02*
X5681491Y-12498579D01*
X5681491Y-12498579D02*
X5681491Y-12517627D01*
X5681491Y-12517627D02*
X5671967Y-12546198D01*
X5671967Y-12546198D02*
X5557682Y-12660484D01*
X5557682Y-12660484D02*
X5681491Y-12660484D01*
X5748158Y-12460484D02*
X5871967Y-12460484D01*
X5871967Y-12460484D02*
X5805301Y-12536674D01*
X5805301Y-12536674D02*
X5833872Y-12536674D01*
X5833872Y-12536674D02*
X5852920Y-12546198D01*
X5852920Y-12546198D02*
X5862444Y-12555722D01*
X5862444Y-12555722D02*
X5871967Y-12574769D01*
X5871967Y-12574769D02*
X5871967Y-12622388D01*
X5871967Y-12622388D02*
X5862444Y-12641436D01*
X5862444Y-12641436D02*
X5852920Y-12650960D01*
X5852920Y-12650960D02*
X5833872Y-12660484D01*
X5833872Y-12660484D02*
X5776729Y-12660484D01*
X5776729Y-12660484D02*
X5757682Y-12650960D01*
X5757682Y-12650960D02*
X5748158Y-12641436D01*
X6043396Y-12460484D02*
X6005301Y-12460484D01*
X6005301Y-12460484D02*
X5986253Y-12470008D01*
X5986253Y-12470008D02*
X5976729Y-12479531D01*
X5976729Y-12479531D02*
X5957682Y-12508103D01*
X5957682Y-12508103D02*
X5948158Y-12546198D01*
X5948158Y-12546198D02*
X5948158Y-12622388D01*
X5948158Y-12622388D02*
X5957682Y-12641436D01*
X5957682Y-12641436D02*
X5967206Y-12650960D01*
X5967206Y-12650960D02*
X5986253Y-12660484D01*
X5986253Y-12660484D02*
X6024348Y-12660484D01*
X6024348Y-12660484D02*
X6043396Y-12650960D01*
X6043396Y-12650960D02*
X6052920Y-12641436D01*
X6052920Y-12641436D02*
X6062444Y-12622388D01*
X6062444Y-12622388D02*
X6062444Y-12574769D01*
X6062444Y-12574769D02*
X6052920Y-12555722D01*
X6052920Y-12555722D02*
X6043396Y-12546198D01*
X6043396Y-12546198D02*
X6024348Y-12536674D01*
X6024348Y-12536674D02*
X5986253Y-12536674D01*
X5986253Y-12536674D02*
X5967206Y-12546198D01*
X5967206Y-12546198D02*
X5957682Y-12555722D01*
X5957682Y-12555722D02*
X5948158Y-12574769D01*
X6138634Y-12460484D02*
X6138634Y-12498579D01*
X6214825Y-12460484D02*
X6214825Y-12498579D01*
X6510063Y-12736674D02*
X6500539Y-12727150D01*
X6500539Y-12727150D02*
X6481491Y-12698579D01*
X6481491Y-12698579D02*
X6471968Y-12679531D01*
X6471968Y-12679531D02*
X6462444Y-12650960D01*
X6462444Y-12650960D02*
X6452920Y-12603341D01*
X6452920Y-12603341D02*
X6452920Y-12565246D01*
X6452920Y-12565246D02*
X6462444Y-12517627D01*
X6462444Y-12517627D02*
X6471968Y-12489055D01*
X6471968Y-12489055D02*
X6481491Y-12470008D01*
X6481491Y-12470008D02*
X6500539Y-12441436D01*
X6500539Y-12441436D02*
X6510063Y-12431912D01*
X6681491Y-12460484D02*
X6586253Y-12460484D01*
X6586253Y-12460484D02*
X6576729Y-12555722D01*
X6576729Y-12555722D02*
X6586253Y-12546198D01*
X6586253Y-12546198D02*
X6605301Y-12536674D01*
X6605301Y-12536674D02*
X6652920Y-12536674D01*
X6652920Y-12536674D02*
X6671968Y-12546198D01*
X6671968Y-12546198D02*
X6681491Y-12555722D01*
X6681491Y-12555722D02*
X6691015Y-12574769D01*
X6691015Y-12574769D02*
X6691015Y-12622388D01*
X6691015Y-12622388D02*
X6681491Y-12641436D01*
X6681491Y-12641436D02*
X6671968Y-12650960D01*
X6671968Y-12650960D02*
X6652920Y-12660484D01*
X6652920Y-12660484D02*
X6605301Y-12660484D01*
X6605301Y-12660484D02*
X6586253Y-12650960D01*
X6586253Y-12650960D02*
X6576729Y-12641436D01*
X6929110Y-12660484D02*
X6929110Y-12460484D01*
X7014825Y-12660484D02*
X7014825Y-12555722D01*
X7014825Y-12555722D02*
X7005301Y-12536674D01*
X7005301Y-12536674D02*
X6986253Y-12527150D01*
X6986253Y-12527150D02*
X6957682Y-12527150D01*
X6957682Y-12527150D02*
X6938634Y-12536674D01*
X6938634Y-12536674D02*
X6929110Y-12546198D01*
X7138634Y-12660484D02*
X7119587Y-12650960D01*
X7119587Y-12650960D02*
X7110063Y-12641436D01*
X7110063Y-12641436D02*
X7100539Y-12622388D01*
X7100539Y-12622388D02*
X7100539Y-12565246D01*
X7100539Y-12565246D02*
X7110063Y-12546198D01*
X7110063Y-12546198D02*
X7119587Y-12536674D01*
X7119587Y-12536674D02*
X7138634Y-12527150D01*
X7138634Y-12527150D02*
X7167206Y-12527150D01*
X7167206Y-12527150D02*
X7186253Y-12536674D01*
X7186253Y-12536674D02*
X7195777Y-12546198D01*
X7195777Y-12546198D02*
X7205301Y-12565246D01*
X7205301Y-12565246D02*
X7205301Y-12622388D01*
X7205301Y-12622388D02*
X7195777Y-12641436D01*
X7195777Y-12641436D02*
X7186253Y-12650960D01*
X7186253Y-12650960D02*
X7167206Y-12660484D01*
X7167206Y-12660484D02*
X7138634Y-12660484D01*
X7319587Y-12660484D02*
X7300539Y-12650960D01*
X7300539Y-12650960D02*
X7291015Y-12631912D01*
X7291015Y-12631912D02*
X7291015Y-12460484D01*
X7471968Y-12650960D02*
X7452920Y-12660484D01*
X7452920Y-12660484D02*
X7414825Y-12660484D01*
X7414825Y-12660484D02*
X7395777Y-12650960D01*
X7395777Y-12650960D02*
X7386253Y-12631912D01*
X7386253Y-12631912D02*
X7386253Y-12555722D01*
X7386253Y-12555722D02*
X7395777Y-12536674D01*
X7395777Y-12536674D02*
X7414825Y-12527150D01*
X7414825Y-12527150D02*
X7452920Y-12527150D01*
X7452920Y-12527150D02*
X7471968Y-12536674D01*
X7471968Y-12536674D02*
X7481491Y-12555722D01*
X7481491Y-12555722D02*
X7481491Y-12574769D01*
X7481491Y-12574769D02*
X7386253Y-12593817D01*
X7557682Y-12650960D02*
X7576730Y-12660484D01*
X7576730Y-12660484D02*
X7614825Y-12660484D01*
X7614825Y-12660484D02*
X7633872Y-12650960D01*
X7633872Y-12650960D02*
X7643396Y-12631912D01*
X7643396Y-12631912D02*
X7643396Y-12622388D01*
X7643396Y-12622388D02*
X7633872Y-12603341D01*
X7633872Y-12603341D02*
X7614825Y-12593817D01*
X7614825Y-12593817D02*
X7586253Y-12593817D01*
X7586253Y-12593817D02*
X7567206Y-12584293D01*
X7567206Y-12584293D02*
X7557682Y-12565246D01*
X7557682Y-12565246D02*
X7557682Y-12555722D01*
X7557682Y-12555722D02*
X7567206Y-12536674D01*
X7567206Y-12536674D02*
X7586253Y-12527150D01*
X7586253Y-12527150D02*
X7614825Y-12527150D01*
X7614825Y-12527150D02*
X7633872Y-12536674D01*
X7710063Y-12736674D02*
X7719587Y-12727150D01*
X7719587Y-12727150D02*
X7738634Y-12698579D01*
X7738634Y-12698579D02*
X7748158Y-12679531D01*
X7748158Y-12679531D02*
X7757682Y-12650960D01*
X7757682Y-12650960D02*
X7767206Y-12603341D01*
X7767206Y-12603341D02*
X7767206Y-12565246D01*
X7767206Y-12565246D02*
X7757682Y-12517627D01*
X7757682Y-12517627D02*
X7748158Y-12489055D01*
X7748158Y-12489055D02*
X7738634Y-12470008D01*
X7738634Y-12470008D02*
X7719587Y-12441436D01*
X7719587Y-12441436D02*
X7710063Y-12431912D01*
D10*
X2897500Y-12795500D02*
X2897500Y-12870500D01*
X2860000Y-12833000D02*
X2935000Y-12833000D01*
D11*
X3233872Y-12724484D02*
X3252920Y-12724484D01*
X3252920Y-12724484D02*
X3271967Y-12734008D01*
X3271967Y-12734008D02*
X3281491Y-12743531D01*
X3281491Y-12743531D02*
X3291015Y-12762579D01*
X3291015Y-12762579D02*
X3300539Y-12800674D01*
X3300539Y-12800674D02*
X3300539Y-12848293D01*
X3300539Y-12848293D02*
X3291015Y-12886388D01*
X3291015Y-12886388D02*
X3281491Y-12905436D01*
X3281491Y-12905436D02*
X3271967Y-12914960D01*
X3271967Y-12914960D02*
X3252920Y-12924484D01*
X3252920Y-12924484D02*
X3233872Y-12924484D01*
X3233872Y-12924484D02*
X3214824Y-12914960D01*
X3214824Y-12914960D02*
X3205301Y-12905436D01*
X3205301Y-12905436D02*
X3195777Y-12886388D01*
X3195777Y-12886388D02*
X3186253Y-12848293D01*
X3186253Y-12848293D02*
X3186253Y-12800674D01*
X3186253Y-12800674D02*
X3195777Y-12762579D01*
X3195777Y-12762579D02*
X3205301Y-12743531D01*
X3205301Y-12743531D02*
X3214824Y-12734008D01*
X3214824Y-12734008D02*
X3233872Y-12724484D01*
X3386253Y-12905436D02*
X3395777Y-12914960D01*
X3395777Y-12914960D02*
X3386253Y-12924484D01*
X3386253Y-12924484D02*
X3376729Y-12914960D01*
X3376729Y-12914960D02*
X3386253Y-12905436D01*
X3386253Y-12905436D02*
X3386253Y-12924484D01*
X3462443Y-12724484D02*
X3595777Y-12724484D01*
X3595777Y-12724484D02*
X3510062Y-12924484D01*
X3767205Y-12724484D02*
X3671967Y-12724484D01*
X3671967Y-12724484D02*
X3662443Y-12819722D01*
X3662443Y-12819722D02*
X3671967Y-12810198D01*
X3671967Y-12810198D02*
X3691015Y-12800674D01*
X3691015Y-12800674D02*
X3738634Y-12800674D01*
X3738634Y-12800674D02*
X3757682Y-12810198D01*
X3757682Y-12810198D02*
X3767205Y-12819722D01*
X3767205Y-12819722D02*
X3776729Y-12838769D01*
X3776729Y-12838769D02*
X3776729Y-12886388D01*
X3776729Y-12886388D02*
X3767205Y-12905436D01*
X3767205Y-12905436D02*
X3757682Y-12914960D01*
X3757682Y-12914960D02*
X3738634Y-12924484D01*
X3738634Y-12924484D02*
X3691015Y-12924484D01*
X3691015Y-12924484D02*
X3671967Y-12914960D01*
X3671967Y-12914960D02*
X3662443Y-12905436D01*
X3900539Y-12724484D02*
X3919586Y-12724484D01*
X3919586Y-12724484D02*
X3938634Y-12734008D01*
X3938634Y-12734008D02*
X3948158Y-12743531D01*
X3948158Y-12743531D02*
X3957682Y-12762579D01*
X3957682Y-12762579D02*
X3967205Y-12800674D01*
X3967205Y-12800674D02*
X3967205Y-12848293D01*
X3967205Y-12848293D02*
X3957682Y-12886388D01*
X3957682Y-12886388D02*
X3948158Y-12905436D01*
X3948158Y-12905436D02*
X3938634Y-12914960D01*
X3938634Y-12914960D02*
X3919586Y-12924484D01*
X3919586Y-12924484D02*
X3900539Y-12924484D01*
X3900539Y-12924484D02*
X3881491Y-12914960D01*
X3881491Y-12914960D02*
X3871967Y-12905436D01*
X3871967Y-12905436D02*
X3862443Y-12886388D01*
X3862443Y-12886388D02*
X3852920Y-12848293D01*
X3852920Y-12848293D02*
X3852920Y-12800674D01*
X3852920Y-12800674D02*
X3862443Y-12762579D01*
X3862443Y-12762579D02*
X3871967Y-12743531D01*
X3871967Y-12743531D02*
X3881491Y-12734008D01*
X3881491Y-12734008D02*
X3900539Y-12724484D01*
X4052920Y-12924484D02*
X4052920Y-12791150D01*
X4052920Y-12810198D02*
X4062443Y-12800674D01*
X4062443Y-12800674D02*
X4081491Y-12791150D01*
X4081491Y-12791150D02*
X4110063Y-12791150D01*
X4110063Y-12791150D02*
X4129110Y-12800674D01*
X4129110Y-12800674D02*
X4138634Y-12819722D01*
X4138634Y-12819722D02*
X4138634Y-12924484D01*
X4138634Y-12819722D02*
X4148158Y-12800674D01*
X4148158Y-12800674D02*
X4167205Y-12791150D01*
X4167205Y-12791150D02*
X4195777Y-12791150D01*
X4195777Y-12791150D02*
X4214825Y-12800674D01*
X4214825Y-12800674D02*
X4224348Y-12819722D01*
X4224348Y-12819722D02*
X4224348Y-12924484D01*
X4319586Y-12924484D02*
X4319586Y-12791150D01*
X4319586Y-12810198D02*
X4329110Y-12800674D01*
X4329110Y-12800674D02*
X4348158Y-12791150D01*
X4348158Y-12791150D02*
X4376729Y-12791150D01*
X4376729Y-12791150D02*
X4395777Y-12800674D01*
X4395777Y-12800674D02*
X4405301Y-12819722D01*
X4405301Y-12819722D02*
X4405301Y-12924484D01*
X4405301Y-12819722D02*
X4414825Y-12800674D01*
X4414825Y-12800674D02*
X4433872Y-12791150D01*
X4433872Y-12791150D02*
X4462444Y-12791150D01*
X4462444Y-12791150D02*
X4481491Y-12800674D01*
X4481491Y-12800674D02*
X4491015Y-12819722D01*
X4491015Y-12819722D02*
X4491015Y-12924484D01*
X4881491Y-12714960D02*
X4710063Y-12972103D01*
X5138634Y-12724484D02*
X5157682Y-12724484D01*
X5157682Y-12724484D02*
X5176729Y-12734008D01*
X5176729Y-12734008D02*
X5186253Y-12743531D01*
X5186253Y-12743531D02*
X5195777Y-12762579D01*
X5195777Y-12762579D02*
X5205301Y-12800674D01*
X5205301Y-12800674D02*
X5205301Y-12848293D01*
X5205301Y-12848293D02*
X5195777Y-12886388D01*
X5195777Y-12886388D02*
X5186253Y-12905436D01*
X5186253Y-12905436D02*
X5176729Y-12914960D01*
X5176729Y-12914960D02*
X5157682Y-12924484D01*
X5157682Y-12924484D02*
X5138634Y-12924484D01*
X5138634Y-12924484D02*
X5119587Y-12914960D01*
X5119587Y-12914960D02*
X5110063Y-12905436D01*
X5110063Y-12905436D02*
X5100539Y-12886388D01*
X5100539Y-12886388D02*
X5091015Y-12848293D01*
X5091015Y-12848293D02*
X5091015Y-12800674D01*
X5091015Y-12800674D02*
X5100539Y-12762579D01*
X5100539Y-12762579D02*
X5110063Y-12743531D01*
X5110063Y-12743531D02*
X5119587Y-12734008D01*
X5119587Y-12734008D02*
X5138634Y-12724484D01*
X5291015Y-12905436D02*
X5300539Y-12914960D01*
X5300539Y-12914960D02*
X5291015Y-12924484D01*
X5291015Y-12924484D02*
X5281491Y-12914960D01*
X5281491Y-12914960D02*
X5291015Y-12905436D01*
X5291015Y-12905436D02*
X5291015Y-12924484D01*
X5424348Y-12724484D02*
X5443396Y-12724484D01*
X5443396Y-12724484D02*
X5462444Y-12734008D01*
X5462444Y-12734008D02*
X5471968Y-12743531D01*
X5471968Y-12743531D02*
X5481491Y-12762579D01*
X5481491Y-12762579D02*
X5491015Y-12800674D01*
X5491015Y-12800674D02*
X5491015Y-12848293D01*
X5491015Y-12848293D02*
X5481491Y-12886388D01*
X5481491Y-12886388D02*
X5471968Y-12905436D01*
X5471968Y-12905436D02*
X5462444Y-12914960D01*
X5462444Y-12914960D02*
X5443396Y-12924484D01*
X5443396Y-12924484D02*
X5424348Y-12924484D01*
X5424348Y-12924484D02*
X5405301Y-12914960D01*
X5405301Y-12914960D02*
X5395777Y-12905436D01*
X5395777Y-12905436D02*
X5386253Y-12886388D01*
X5386253Y-12886388D02*
X5376729Y-12848293D01*
X5376729Y-12848293D02*
X5376729Y-12800674D01*
X5376729Y-12800674D02*
X5386253Y-12762579D01*
X5386253Y-12762579D02*
X5395777Y-12743531D01*
X5395777Y-12743531D02*
X5405301Y-12734008D01*
X5405301Y-12734008D02*
X5424348Y-12724484D01*
X5567206Y-12743531D02*
X5576729Y-12734008D01*
X5576729Y-12734008D02*
X5595777Y-12724484D01*
X5595777Y-12724484D02*
X5643396Y-12724484D01*
X5643396Y-12724484D02*
X5662444Y-12734008D01*
X5662444Y-12734008D02*
X5671967Y-12743531D01*
X5671967Y-12743531D02*
X5681491Y-12762579D01*
X5681491Y-12762579D02*
X5681491Y-12781627D01*
X5681491Y-12781627D02*
X5671967Y-12810198D01*
X5671967Y-12810198D02*
X5557682Y-12924484D01*
X5557682Y-12924484D02*
X5681491Y-12924484D01*
X5776729Y-12924484D02*
X5814825Y-12924484D01*
X5814825Y-12924484D02*
X5833872Y-12914960D01*
X5833872Y-12914960D02*
X5843396Y-12905436D01*
X5843396Y-12905436D02*
X5862444Y-12876865D01*
X5862444Y-12876865D02*
X5871967Y-12838769D01*
X5871967Y-12838769D02*
X5871967Y-12762579D01*
X5871967Y-12762579D02*
X5862444Y-12743531D01*
X5862444Y-12743531D02*
X5852920Y-12734008D01*
X5852920Y-12734008D02*
X5833872Y-12724484D01*
X5833872Y-12724484D02*
X5795777Y-12724484D01*
X5795777Y-12724484D02*
X5776729Y-12734008D01*
X5776729Y-12734008D02*
X5767206Y-12743531D01*
X5767206Y-12743531D02*
X5757682Y-12762579D01*
X5757682Y-12762579D02*
X5757682Y-12810198D01*
X5757682Y-12810198D02*
X5767206Y-12829246D01*
X5767206Y-12829246D02*
X5776729Y-12838769D01*
X5776729Y-12838769D02*
X5795777Y-12848293D01*
X5795777Y-12848293D02*
X5833872Y-12848293D01*
X5833872Y-12848293D02*
X5852920Y-12838769D01*
X5852920Y-12838769D02*
X5862444Y-12829246D01*
X5862444Y-12829246D02*
X5871967Y-12810198D01*
X6052920Y-12724484D02*
X5957682Y-12724484D01*
X5957682Y-12724484D02*
X5948158Y-12819722D01*
X5948158Y-12819722D02*
X5957682Y-12810198D01*
X5957682Y-12810198D02*
X5976729Y-12800674D01*
X5976729Y-12800674D02*
X6024348Y-12800674D01*
X6024348Y-12800674D02*
X6043396Y-12810198D01*
X6043396Y-12810198D02*
X6052920Y-12819722D01*
X6052920Y-12819722D02*
X6062444Y-12838769D01*
X6062444Y-12838769D02*
X6062444Y-12886388D01*
X6062444Y-12886388D02*
X6052920Y-12905436D01*
X6052920Y-12905436D02*
X6043396Y-12914960D01*
X6043396Y-12914960D02*
X6024348Y-12924484D01*
X6024348Y-12924484D02*
X5976729Y-12924484D01*
X5976729Y-12924484D02*
X5957682Y-12914960D01*
X5957682Y-12914960D02*
X5948158Y-12905436D01*
X6138634Y-12724484D02*
X6138634Y-12762579D01*
X6214825Y-12724484D02*
X6214825Y-12762579D01*
X6510063Y-13000674D02*
X6500539Y-12991150D01*
X6500539Y-12991150D02*
X6481491Y-12962579D01*
X6481491Y-12962579D02*
X6471968Y-12943531D01*
X6471968Y-12943531D02*
X6462444Y-12914960D01*
X6462444Y-12914960D02*
X6452920Y-12867341D01*
X6452920Y-12867341D02*
X6452920Y-12829246D01*
X6452920Y-12829246D02*
X6462444Y-12781627D01*
X6462444Y-12781627D02*
X6471968Y-12753055D01*
X6471968Y-12753055D02*
X6481491Y-12734008D01*
X6481491Y-12734008D02*
X6500539Y-12705436D01*
X6500539Y-12705436D02*
X6510063Y-12695912D01*
X6671968Y-12791150D02*
X6671968Y-12924484D01*
X6624348Y-12714960D02*
X6576729Y-12857817D01*
X6576729Y-12857817D02*
X6700539Y-12857817D01*
X6929110Y-12924484D02*
X6929110Y-12724484D01*
X7014825Y-12924484D02*
X7014825Y-12819722D01*
X7014825Y-12819722D02*
X7005301Y-12800674D01*
X7005301Y-12800674D02*
X6986253Y-12791150D01*
X6986253Y-12791150D02*
X6957682Y-12791150D01*
X6957682Y-12791150D02*
X6938634Y-12800674D01*
X6938634Y-12800674D02*
X6929110Y-12810198D01*
X7138634Y-12924484D02*
X7119587Y-12914960D01*
X7119587Y-12914960D02*
X7110063Y-12905436D01*
X7110063Y-12905436D02*
X7100539Y-12886388D01*
X7100539Y-12886388D02*
X7100539Y-12829246D01*
X7100539Y-12829246D02*
X7110063Y-12810198D01*
X7110063Y-12810198D02*
X7119587Y-12800674D01*
X7119587Y-12800674D02*
X7138634Y-12791150D01*
X7138634Y-12791150D02*
X7167206Y-12791150D01*
X7167206Y-12791150D02*
X7186253Y-12800674D01*
X7186253Y-12800674D02*
X7195777Y-12810198D01*
X7195777Y-12810198D02*
X7205301Y-12829246D01*
X7205301Y-12829246D02*
X7205301Y-12886388D01*
X7205301Y-12886388D02*
X7195777Y-12905436D01*
X7195777Y-12905436D02*
X7186253Y-12914960D01*
X7186253Y-12914960D02*
X7167206Y-12924484D01*
X7167206Y-12924484D02*
X7138634Y-12924484D01*
X7319587Y-12924484D02*
X7300539Y-12914960D01*
X7300539Y-12914960D02*
X7291015Y-12895912D01*
X7291015Y-12895912D02*
X7291015Y-12724484D01*
X7471968Y-12914960D02*
X7452920Y-12924484D01*
X7452920Y-12924484D02*
X7414825Y-12924484D01*
X7414825Y-12924484D02*
X7395777Y-12914960D01*
X7395777Y-12914960D02*
X7386253Y-12895912D01*
X7386253Y-12895912D02*
X7386253Y-12819722D01*
X7386253Y-12819722D02*
X7395777Y-12800674D01*
X7395777Y-12800674D02*
X7414825Y-12791150D01*
X7414825Y-12791150D02*
X7452920Y-12791150D01*
X7452920Y-12791150D02*
X7471968Y-12800674D01*
X7471968Y-12800674D02*
X7481491Y-12819722D01*
X7481491Y-12819722D02*
X7481491Y-12838769D01*
X7481491Y-12838769D02*
X7386253Y-12857817D01*
X7557682Y-12914960D02*
X7576730Y-12924484D01*
X7576730Y-12924484D02*
X7614825Y-12924484D01*
X7614825Y-12924484D02*
X7633872Y-12914960D01*
X7633872Y-12914960D02*
X7643396Y-12895912D01*
X7643396Y-12895912D02*
X7643396Y-12886388D01*
X7643396Y-12886388D02*
X7633872Y-12867341D01*
X7633872Y-12867341D02*
X7614825Y-12857817D01*
X7614825Y-12857817D02*
X7586253Y-12857817D01*
X7586253Y-12857817D02*
X7567206Y-12848293D01*
X7567206Y-12848293D02*
X7557682Y-12829246D01*
X7557682Y-12829246D02*
X7557682Y-12819722D01*
X7557682Y-12819722D02*
X7567206Y-12800674D01*
X7567206Y-12800674D02*
X7586253Y-12791150D01*
X7586253Y-12791150D02*
X7614825Y-12791150D01*
X7614825Y-12791150D02*
X7633872Y-12800674D01*
X7710063Y-13000674D02*
X7719587Y-12991150D01*
X7719587Y-12991150D02*
X7738634Y-12962579D01*
X7738634Y-12962579D02*
X7748158Y-12943531D01*
X7748158Y-12943531D02*
X7757682Y-12914960D01*
X7757682Y-12914960D02*
X7767206Y-12867341D01*
X7767206Y-12867341D02*
X7767206Y-12829246D01*
X7767206Y-12829246D02*
X7757682Y-12781627D01*
X7757682Y-12781627D02*
X7748158Y-12753055D01*
X7748158Y-12753055D02*
X7738634Y-12734008D01*
X7738634Y-12734008D02*
X7719587Y-12705436D01*
X7719587Y-12705436D02*
X7710063Y-12695912D01*
D10*
X2923284Y-13125284D02*
X2923284Y-13068715D01*
X2866715Y-13068715D01*
X2866715Y-13125284D01*
X2923284Y-13125284D01*
D11*
X3233872Y-12988484D02*
X3252920Y-12988484D01*
X3252920Y-12988484D02*
X3271967Y-12998008D01*
X3271967Y-12998008D02*
X3281491Y-13007531D01*
X3281491Y-13007531D02*
X3291015Y-13026579D01*
X3291015Y-13026579D02*
X3300539Y-13064674D01*
X3300539Y-13064674D02*
X3300539Y-13112293D01*
X3300539Y-13112293D02*
X3291015Y-13150388D01*
X3291015Y-13150388D02*
X3281491Y-13169436D01*
X3281491Y-13169436D02*
X3271967Y-13178960D01*
X3271967Y-13178960D02*
X3252920Y-13188484D01*
X3252920Y-13188484D02*
X3233872Y-13188484D01*
X3233872Y-13188484D02*
X3214824Y-13178960D01*
X3214824Y-13178960D02*
X3205301Y-13169436D01*
X3205301Y-13169436D02*
X3195777Y-13150388D01*
X3195777Y-13150388D02*
X3186253Y-13112293D01*
X3186253Y-13112293D02*
X3186253Y-13064674D01*
X3186253Y-13064674D02*
X3195777Y-13026579D01*
X3195777Y-13026579D02*
X3205301Y-13007531D01*
X3205301Y-13007531D02*
X3214824Y-12998008D01*
X3214824Y-12998008D02*
X3233872Y-12988484D01*
X3386253Y-13169436D02*
X3395777Y-13178960D01*
X3395777Y-13178960D02*
X3386253Y-13188484D01*
X3386253Y-13188484D02*
X3376729Y-13178960D01*
X3376729Y-13178960D02*
X3386253Y-13169436D01*
X3386253Y-13169436D02*
X3386253Y-13188484D01*
X3510062Y-13074198D02*
X3491015Y-13064674D01*
X3491015Y-13064674D02*
X3481491Y-13055150D01*
X3481491Y-13055150D02*
X3471967Y-13036103D01*
X3471967Y-13036103D02*
X3471967Y-13026579D01*
X3471967Y-13026579D02*
X3481491Y-13007531D01*
X3481491Y-13007531D02*
X3491015Y-12998008D01*
X3491015Y-12998008D02*
X3510062Y-12988484D01*
X3510062Y-12988484D02*
X3548158Y-12988484D01*
X3548158Y-12988484D02*
X3567205Y-12998008D01*
X3567205Y-12998008D02*
X3576729Y-13007531D01*
X3576729Y-13007531D02*
X3586253Y-13026579D01*
X3586253Y-13026579D02*
X3586253Y-13036103D01*
X3586253Y-13036103D02*
X3576729Y-13055150D01*
X3576729Y-13055150D02*
X3567205Y-13064674D01*
X3567205Y-13064674D02*
X3548158Y-13074198D01*
X3548158Y-13074198D02*
X3510062Y-13074198D01*
X3510062Y-13074198D02*
X3491015Y-13083722D01*
X3491015Y-13083722D02*
X3481491Y-13093246D01*
X3481491Y-13093246D02*
X3471967Y-13112293D01*
X3471967Y-13112293D02*
X3471967Y-13150388D01*
X3471967Y-13150388D02*
X3481491Y-13169436D01*
X3481491Y-13169436D02*
X3491015Y-13178960D01*
X3491015Y-13178960D02*
X3510062Y-13188484D01*
X3510062Y-13188484D02*
X3548158Y-13188484D01*
X3548158Y-13188484D02*
X3567205Y-13178960D01*
X3567205Y-13178960D02*
X3576729Y-13169436D01*
X3576729Y-13169436D02*
X3586253Y-13150388D01*
X3586253Y-13150388D02*
X3586253Y-13112293D01*
X3586253Y-13112293D02*
X3576729Y-13093246D01*
X3576729Y-13093246D02*
X3567205Y-13083722D01*
X3567205Y-13083722D02*
X3548158Y-13074198D01*
X3710062Y-12988484D02*
X3729110Y-12988484D01*
X3729110Y-12988484D02*
X3748158Y-12998008D01*
X3748158Y-12998008D02*
X3757682Y-13007531D01*
X3757682Y-13007531D02*
X3767205Y-13026579D01*
X3767205Y-13026579D02*
X3776729Y-13064674D01*
X3776729Y-13064674D02*
X3776729Y-13112293D01*
X3776729Y-13112293D02*
X3767205Y-13150388D01*
X3767205Y-13150388D02*
X3757682Y-13169436D01*
X3757682Y-13169436D02*
X3748158Y-13178960D01*
X3748158Y-13178960D02*
X3729110Y-13188484D01*
X3729110Y-13188484D02*
X3710062Y-13188484D01*
X3710062Y-13188484D02*
X3691015Y-13178960D01*
X3691015Y-13178960D02*
X3681491Y-13169436D01*
X3681491Y-13169436D02*
X3671967Y-13150388D01*
X3671967Y-13150388D02*
X3662443Y-13112293D01*
X3662443Y-13112293D02*
X3662443Y-13064674D01*
X3662443Y-13064674D02*
X3671967Y-13026579D01*
X3671967Y-13026579D02*
X3681491Y-13007531D01*
X3681491Y-13007531D02*
X3691015Y-12998008D01*
X3691015Y-12998008D02*
X3710062Y-12988484D01*
X3900539Y-12988484D02*
X3919586Y-12988484D01*
X3919586Y-12988484D02*
X3938634Y-12998008D01*
X3938634Y-12998008D02*
X3948158Y-13007531D01*
X3948158Y-13007531D02*
X3957682Y-13026579D01*
X3957682Y-13026579D02*
X3967205Y-13064674D01*
X3967205Y-13064674D02*
X3967205Y-13112293D01*
X3967205Y-13112293D02*
X3957682Y-13150388D01*
X3957682Y-13150388D02*
X3948158Y-13169436D01*
X3948158Y-13169436D02*
X3938634Y-13178960D01*
X3938634Y-13178960D02*
X3919586Y-13188484D01*
X3919586Y-13188484D02*
X3900539Y-13188484D01*
X3900539Y-13188484D02*
X3881491Y-13178960D01*
X3881491Y-13178960D02*
X3871967Y-13169436D01*
X3871967Y-13169436D02*
X3862443Y-13150388D01*
X3862443Y-13150388D02*
X3852920Y-13112293D01*
X3852920Y-13112293D02*
X3852920Y-13064674D01*
X3852920Y-13064674D02*
X3862443Y-13026579D01*
X3862443Y-13026579D02*
X3871967Y-13007531D01*
X3871967Y-13007531D02*
X3881491Y-12998008D01*
X3881491Y-12998008D02*
X3900539Y-12988484D01*
X4052920Y-13188484D02*
X4052920Y-13055150D01*
X4052920Y-13074198D02*
X4062443Y-13064674D01*
X4062443Y-13064674D02*
X4081491Y-13055150D01*
X4081491Y-13055150D02*
X4110063Y-13055150D01*
X4110063Y-13055150D02*
X4129110Y-13064674D01*
X4129110Y-13064674D02*
X4138634Y-13083722D01*
X4138634Y-13083722D02*
X4138634Y-13188484D01*
X4138634Y-13083722D02*
X4148158Y-13064674D01*
X4148158Y-13064674D02*
X4167205Y-13055150D01*
X4167205Y-13055150D02*
X4195777Y-13055150D01*
X4195777Y-13055150D02*
X4214825Y-13064674D01*
X4214825Y-13064674D02*
X4224348Y-13083722D01*
X4224348Y-13083722D02*
X4224348Y-13188484D01*
X4319586Y-13188484D02*
X4319586Y-13055150D01*
X4319586Y-13074198D02*
X4329110Y-13064674D01*
X4329110Y-13064674D02*
X4348158Y-13055150D01*
X4348158Y-13055150D02*
X4376729Y-13055150D01*
X4376729Y-13055150D02*
X4395777Y-13064674D01*
X4395777Y-13064674D02*
X4405301Y-13083722D01*
X4405301Y-13083722D02*
X4405301Y-13188484D01*
X4405301Y-13083722D02*
X4414825Y-13064674D01*
X4414825Y-13064674D02*
X4433872Y-13055150D01*
X4433872Y-13055150D02*
X4462444Y-13055150D01*
X4462444Y-13055150D02*
X4481491Y-13064674D01*
X4481491Y-13064674D02*
X4491015Y-13083722D01*
X4491015Y-13083722D02*
X4491015Y-13188484D01*
X4881491Y-12978960D02*
X4710063Y-13236103D01*
X5138634Y-12988484D02*
X5157682Y-12988484D01*
X5157682Y-12988484D02*
X5176729Y-12998008D01*
X5176729Y-12998008D02*
X5186253Y-13007531D01*
X5186253Y-13007531D02*
X5195777Y-13026579D01*
X5195777Y-13026579D02*
X5205301Y-13064674D01*
X5205301Y-13064674D02*
X5205301Y-13112293D01*
X5205301Y-13112293D02*
X5195777Y-13150388D01*
X5195777Y-13150388D02*
X5186253Y-13169436D01*
X5186253Y-13169436D02*
X5176729Y-13178960D01*
X5176729Y-13178960D02*
X5157682Y-13188484D01*
X5157682Y-13188484D02*
X5138634Y-13188484D01*
X5138634Y-13188484D02*
X5119587Y-13178960D01*
X5119587Y-13178960D02*
X5110063Y-13169436D01*
X5110063Y-13169436D02*
X5100539Y-13150388D01*
X5100539Y-13150388D02*
X5091015Y-13112293D01*
X5091015Y-13112293D02*
X5091015Y-13064674D01*
X5091015Y-13064674D02*
X5100539Y-13026579D01*
X5100539Y-13026579D02*
X5110063Y-13007531D01*
X5110063Y-13007531D02*
X5119587Y-12998008D01*
X5119587Y-12998008D02*
X5138634Y-12988484D01*
X5291015Y-13169436D02*
X5300539Y-13178960D01*
X5300539Y-13178960D02*
X5291015Y-13188484D01*
X5291015Y-13188484D02*
X5281491Y-13178960D01*
X5281491Y-13178960D02*
X5291015Y-13169436D01*
X5291015Y-13169436D02*
X5291015Y-13188484D01*
X5424348Y-12988484D02*
X5443396Y-12988484D01*
X5443396Y-12988484D02*
X5462444Y-12998008D01*
X5462444Y-12998008D02*
X5471968Y-13007531D01*
X5471968Y-13007531D02*
X5481491Y-13026579D01*
X5481491Y-13026579D02*
X5491015Y-13064674D01*
X5491015Y-13064674D02*
X5491015Y-13112293D01*
X5491015Y-13112293D02*
X5481491Y-13150388D01*
X5481491Y-13150388D02*
X5471968Y-13169436D01*
X5471968Y-13169436D02*
X5462444Y-13178960D01*
X5462444Y-13178960D02*
X5443396Y-13188484D01*
X5443396Y-13188484D02*
X5424348Y-13188484D01*
X5424348Y-13188484D02*
X5405301Y-13178960D01*
X5405301Y-13178960D02*
X5395777Y-13169436D01*
X5395777Y-13169436D02*
X5386253Y-13150388D01*
X5386253Y-13150388D02*
X5376729Y-13112293D01*
X5376729Y-13112293D02*
X5376729Y-13064674D01*
X5376729Y-13064674D02*
X5386253Y-13026579D01*
X5386253Y-13026579D02*
X5395777Y-13007531D01*
X5395777Y-13007531D02*
X5405301Y-12998008D01*
X5405301Y-12998008D02*
X5424348Y-12988484D01*
X5557682Y-12988484D02*
X5681491Y-12988484D01*
X5681491Y-12988484D02*
X5614825Y-13064674D01*
X5614825Y-13064674D02*
X5643396Y-13064674D01*
X5643396Y-13064674D02*
X5662444Y-13074198D01*
X5662444Y-13074198D02*
X5671967Y-13083722D01*
X5671967Y-13083722D02*
X5681491Y-13102769D01*
X5681491Y-13102769D02*
X5681491Y-13150388D01*
X5681491Y-13150388D02*
X5671967Y-13169436D01*
X5671967Y-13169436D02*
X5662444Y-13178960D01*
X5662444Y-13178960D02*
X5643396Y-13188484D01*
X5643396Y-13188484D02*
X5586253Y-13188484D01*
X5586253Y-13188484D02*
X5567206Y-13178960D01*
X5567206Y-13178960D02*
X5557682Y-13169436D01*
X5871967Y-13188484D02*
X5757682Y-13188484D01*
X5814825Y-13188484D02*
X5814825Y-12988484D01*
X5814825Y-12988484D02*
X5795777Y-13017055D01*
X5795777Y-13017055D02*
X5776729Y-13036103D01*
X5776729Y-13036103D02*
X5757682Y-13045627D01*
X6052920Y-12988484D02*
X5957682Y-12988484D01*
X5957682Y-12988484D02*
X5948158Y-13083722D01*
X5948158Y-13083722D02*
X5957682Y-13074198D01*
X5957682Y-13074198D02*
X5976729Y-13064674D01*
X5976729Y-13064674D02*
X6024348Y-13064674D01*
X6024348Y-13064674D02*
X6043396Y-13074198D01*
X6043396Y-13074198D02*
X6052920Y-13083722D01*
X6052920Y-13083722D02*
X6062444Y-13102769D01*
X6062444Y-13102769D02*
X6062444Y-13150388D01*
X6062444Y-13150388D02*
X6052920Y-13169436D01*
X6052920Y-13169436D02*
X6043396Y-13178960D01*
X6043396Y-13178960D02*
X6024348Y-13188484D01*
X6024348Y-13188484D02*
X5976729Y-13188484D01*
X5976729Y-13188484D02*
X5957682Y-13178960D01*
X5957682Y-13178960D02*
X5948158Y-13169436D01*
X6138634Y-12988484D02*
X6138634Y-13026579D01*
X6214825Y-12988484D02*
X6214825Y-13026579D01*
X6510063Y-13264674D02*
X6500539Y-13255150D01*
X6500539Y-13255150D02*
X6481491Y-13226579D01*
X6481491Y-13226579D02*
X6471968Y-13207531D01*
X6471968Y-13207531D02*
X6462444Y-13178960D01*
X6462444Y-13178960D02*
X6452920Y-13131341D01*
X6452920Y-13131341D02*
X6452920Y-13093246D01*
X6452920Y-13093246D02*
X6462444Y-13045627D01*
X6462444Y-13045627D02*
X6471968Y-13017055D01*
X6471968Y-13017055D02*
X6481491Y-12998008D01*
X6481491Y-12998008D02*
X6500539Y-12969436D01*
X6500539Y-12969436D02*
X6510063Y-12959912D01*
X6567206Y-12988484D02*
X6700539Y-12988484D01*
X6700539Y-12988484D02*
X6614825Y-13188484D01*
X6881491Y-13188484D02*
X6767206Y-13188484D01*
X6824348Y-13188484D02*
X6824348Y-12988484D01*
X6824348Y-12988484D02*
X6805301Y-13017055D01*
X6805301Y-13017055D02*
X6786253Y-13036103D01*
X6786253Y-13036103D02*
X6767206Y-13045627D01*
X7119587Y-13188484D02*
X7119587Y-12988484D01*
X7205301Y-13188484D02*
X7205301Y-13083722D01*
X7205301Y-13083722D02*
X7195777Y-13064674D01*
X7195777Y-13064674D02*
X7176730Y-13055150D01*
X7176730Y-13055150D02*
X7148158Y-13055150D01*
X7148158Y-13055150D02*
X7129110Y-13064674D01*
X7129110Y-13064674D02*
X7119587Y-13074198D01*
X7329110Y-13188484D02*
X7310063Y-13178960D01*
X7310063Y-13178960D02*
X7300539Y-13169436D01*
X7300539Y-13169436D02*
X7291015Y-13150388D01*
X7291015Y-13150388D02*
X7291015Y-13093246D01*
X7291015Y-13093246D02*
X7300539Y-13074198D01*
X7300539Y-13074198D02*
X7310063Y-13064674D01*
X7310063Y-13064674D02*
X7329110Y-13055150D01*
X7329110Y-13055150D02*
X7357682Y-13055150D01*
X7357682Y-13055150D02*
X7376730Y-13064674D01*
X7376730Y-13064674D02*
X7386253Y-13074198D01*
X7386253Y-13074198D02*
X7395777Y-13093246D01*
X7395777Y-13093246D02*
X7395777Y-13150388D01*
X7395777Y-13150388D02*
X7386253Y-13169436D01*
X7386253Y-13169436D02*
X7376730Y-13178960D01*
X7376730Y-13178960D02*
X7357682Y-13188484D01*
X7357682Y-13188484D02*
X7329110Y-13188484D01*
X7510063Y-13188484D02*
X7491015Y-13178960D01*
X7491015Y-13178960D02*
X7481491Y-13159912D01*
X7481491Y-13159912D02*
X7481491Y-12988484D01*
X7662444Y-13178960D02*
X7643396Y-13188484D01*
X7643396Y-13188484D02*
X7605301Y-13188484D01*
X7605301Y-13188484D02*
X7586253Y-13178960D01*
X7586253Y-13178960D02*
X7576730Y-13159912D01*
X7576730Y-13159912D02*
X7576730Y-13083722D01*
X7576730Y-13083722D02*
X7586253Y-13064674D01*
X7586253Y-13064674D02*
X7605301Y-13055150D01*
X7605301Y-13055150D02*
X7643396Y-13055150D01*
X7643396Y-13055150D02*
X7662444Y-13064674D01*
X7662444Y-13064674D02*
X7671968Y-13083722D01*
X7671968Y-13083722D02*
X7671968Y-13102769D01*
X7671968Y-13102769D02*
X7576730Y-13121817D01*
X7748158Y-13178960D02*
X7767206Y-13188484D01*
X7767206Y-13188484D02*
X7805301Y-13188484D01*
X7805301Y-13188484D02*
X7824349Y-13178960D01*
X7824349Y-13178960D02*
X7833872Y-13159912D01*
X7833872Y-13159912D02*
X7833872Y-13150388D01*
X7833872Y-13150388D02*
X7824349Y-13131341D01*
X7824349Y-13131341D02*
X7805301Y-13121817D01*
X7805301Y-13121817D02*
X7776730Y-13121817D01*
X7776730Y-13121817D02*
X7757682Y-13112293D01*
X7757682Y-13112293D02*
X7748158Y-13093246D01*
X7748158Y-13093246D02*
X7748158Y-13083722D01*
X7748158Y-13083722D02*
X7757682Y-13064674D01*
X7757682Y-13064674D02*
X7776730Y-13055150D01*
X7776730Y-13055150D02*
X7805301Y-13055150D01*
X7805301Y-13055150D02*
X7824349Y-13064674D01*
X7900539Y-13264674D02*
X7910063Y-13255150D01*
X7910063Y-13255150D02*
X7929111Y-13226579D01*
X7929111Y-13226579D02*
X7938634Y-13207531D01*
X7938634Y-13207531D02*
X7948158Y-13178960D01*
X7948158Y-13178960D02*
X7957682Y-13131341D01*
X7957682Y-13131341D02*
X7957682Y-13093246D01*
X7957682Y-13093246D02*
X7948158Y-13045627D01*
X7948158Y-13045627D02*
X7938634Y-13017055D01*
X7938634Y-13017055D02*
X7929111Y-12998008D01*
X7929111Y-12998008D02*
X7910063Y-12969436D01*
X7910063Y-12969436D02*
X7900539Y-12959912D01*
D10*
X2885000Y-13411000D02*
X2935000Y-13361000D01*
X2885000Y-13311000D01*
X2835000Y-13361000D01*
X2885000Y-13411000D01*
D11*
X3300539Y-13452484D02*
X3186253Y-13452484D01*
X3243396Y-13452484D02*
X3243396Y-13252484D01*
X3243396Y-13252484D02*
X3224348Y-13281055D01*
X3224348Y-13281055D02*
X3205301Y-13300103D01*
X3205301Y-13300103D02*
X3186253Y-13309627D01*
X3386253Y-13433436D02*
X3395777Y-13442960D01*
X3395777Y-13442960D02*
X3386253Y-13452484D01*
X3386253Y-13452484D02*
X3376729Y-13442960D01*
X3376729Y-13442960D02*
X3386253Y-13433436D01*
X3386253Y-13433436D02*
X3386253Y-13452484D01*
X3519586Y-13252484D02*
X3538634Y-13252484D01*
X3538634Y-13252484D02*
X3557682Y-13262008D01*
X3557682Y-13262008D02*
X3567205Y-13271531D01*
X3567205Y-13271531D02*
X3576729Y-13290579D01*
X3576729Y-13290579D02*
X3586253Y-13328674D01*
X3586253Y-13328674D02*
X3586253Y-13376293D01*
X3586253Y-13376293D02*
X3576729Y-13414388D01*
X3576729Y-13414388D02*
X3567205Y-13433436D01*
X3567205Y-13433436D02*
X3557682Y-13442960D01*
X3557682Y-13442960D02*
X3538634Y-13452484D01*
X3538634Y-13452484D02*
X3519586Y-13452484D01*
X3519586Y-13452484D02*
X3500539Y-13442960D01*
X3500539Y-13442960D02*
X3491015Y-13433436D01*
X3491015Y-13433436D02*
X3481491Y-13414388D01*
X3481491Y-13414388D02*
X3471967Y-13376293D01*
X3471967Y-13376293D02*
X3471967Y-13328674D01*
X3471967Y-13328674D02*
X3481491Y-13290579D01*
X3481491Y-13290579D02*
X3491015Y-13271531D01*
X3491015Y-13271531D02*
X3500539Y-13262008D01*
X3500539Y-13262008D02*
X3519586Y-13252484D01*
X3710062Y-13252484D02*
X3729110Y-13252484D01*
X3729110Y-13252484D02*
X3748158Y-13262008D01*
X3748158Y-13262008D02*
X3757682Y-13271531D01*
X3757682Y-13271531D02*
X3767205Y-13290579D01*
X3767205Y-13290579D02*
X3776729Y-13328674D01*
X3776729Y-13328674D02*
X3776729Y-13376293D01*
X3776729Y-13376293D02*
X3767205Y-13414388D01*
X3767205Y-13414388D02*
X3757682Y-13433436D01*
X3757682Y-13433436D02*
X3748158Y-13442960D01*
X3748158Y-13442960D02*
X3729110Y-13452484D01*
X3729110Y-13452484D02*
X3710062Y-13452484D01*
X3710062Y-13452484D02*
X3691015Y-13442960D01*
X3691015Y-13442960D02*
X3681491Y-13433436D01*
X3681491Y-13433436D02*
X3671967Y-13414388D01*
X3671967Y-13414388D02*
X3662443Y-13376293D01*
X3662443Y-13376293D02*
X3662443Y-13328674D01*
X3662443Y-13328674D02*
X3671967Y-13290579D01*
X3671967Y-13290579D02*
X3681491Y-13271531D01*
X3681491Y-13271531D02*
X3691015Y-13262008D01*
X3691015Y-13262008D02*
X3710062Y-13252484D01*
X3900539Y-13252484D02*
X3919586Y-13252484D01*
X3919586Y-13252484D02*
X3938634Y-13262008D01*
X3938634Y-13262008D02*
X3948158Y-13271531D01*
X3948158Y-13271531D02*
X3957682Y-13290579D01*
X3957682Y-13290579D02*
X3967205Y-13328674D01*
X3967205Y-13328674D02*
X3967205Y-13376293D01*
X3967205Y-13376293D02*
X3957682Y-13414388D01*
X3957682Y-13414388D02*
X3948158Y-13433436D01*
X3948158Y-13433436D02*
X3938634Y-13442960D01*
X3938634Y-13442960D02*
X3919586Y-13452484D01*
X3919586Y-13452484D02*
X3900539Y-13452484D01*
X3900539Y-13452484D02*
X3881491Y-13442960D01*
X3881491Y-13442960D02*
X3871967Y-13433436D01*
X3871967Y-13433436D02*
X3862443Y-13414388D01*
X3862443Y-13414388D02*
X3852920Y-13376293D01*
X3852920Y-13376293D02*
X3852920Y-13328674D01*
X3852920Y-13328674D02*
X3862443Y-13290579D01*
X3862443Y-13290579D02*
X3871967Y-13271531D01*
X3871967Y-13271531D02*
X3881491Y-13262008D01*
X3881491Y-13262008D02*
X3900539Y-13252484D01*
X4052920Y-13452484D02*
X4052920Y-13319150D01*
X4052920Y-13338198D02*
X4062443Y-13328674D01*
X4062443Y-13328674D02*
X4081491Y-13319150D01*
X4081491Y-13319150D02*
X4110063Y-13319150D01*
X4110063Y-13319150D02*
X4129110Y-13328674D01*
X4129110Y-13328674D02*
X4138634Y-13347722D01*
X4138634Y-13347722D02*
X4138634Y-13452484D01*
X4138634Y-13347722D02*
X4148158Y-13328674D01*
X4148158Y-13328674D02*
X4167205Y-13319150D01*
X4167205Y-13319150D02*
X4195777Y-13319150D01*
X4195777Y-13319150D02*
X4214825Y-13328674D01*
X4214825Y-13328674D02*
X4224348Y-13347722D01*
X4224348Y-13347722D02*
X4224348Y-13452484D01*
X4319586Y-13452484D02*
X4319586Y-13319150D01*
X4319586Y-13338198D02*
X4329110Y-13328674D01*
X4329110Y-13328674D02*
X4348158Y-13319150D01*
X4348158Y-13319150D02*
X4376729Y-13319150D01*
X4376729Y-13319150D02*
X4395777Y-13328674D01*
X4395777Y-13328674D02*
X4405301Y-13347722D01*
X4405301Y-13347722D02*
X4405301Y-13452484D01*
X4405301Y-13347722D02*
X4414825Y-13328674D01*
X4414825Y-13328674D02*
X4433872Y-13319150D01*
X4433872Y-13319150D02*
X4462444Y-13319150D01*
X4462444Y-13319150D02*
X4481491Y-13328674D01*
X4481491Y-13328674D02*
X4491015Y-13347722D01*
X4491015Y-13347722D02*
X4491015Y-13452484D01*
X4881491Y-13242960D02*
X4710063Y-13500103D01*
X5138634Y-13252484D02*
X5157682Y-13252484D01*
X5157682Y-13252484D02*
X5176729Y-13262008D01*
X5176729Y-13262008D02*
X5186253Y-13271531D01*
X5186253Y-13271531D02*
X5195777Y-13290579D01*
X5195777Y-13290579D02*
X5205301Y-13328674D01*
X5205301Y-13328674D02*
X5205301Y-13376293D01*
X5205301Y-13376293D02*
X5195777Y-13414388D01*
X5195777Y-13414388D02*
X5186253Y-13433436D01*
X5186253Y-13433436D02*
X5176729Y-13442960D01*
X5176729Y-13442960D02*
X5157682Y-13452484D01*
X5157682Y-13452484D02*
X5138634Y-13452484D01*
X5138634Y-13452484D02*
X5119587Y-13442960D01*
X5119587Y-13442960D02*
X5110063Y-13433436D01*
X5110063Y-13433436D02*
X5100539Y-13414388D01*
X5100539Y-13414388D02*
X5091015Y-13376293D01*
X5091015Y-13376293D02*
X5091015Y-13328674D01*
X5091015Y-13328674D02*
X5100539Y-13290579D01*
X5100539Y-13290579D02*
X5110063Y-13271531D01*
X5110063Y-13271531D02*
X5119587Y-13262008D01*
X5119587Y-13262008D02*
X5138634Y-13252484D01*
X5291015Y-13433436D02*
X5300539Y-13442960D01*
X5300539Y-13442960D02*
X5291015Y-13452484D01*
X5291015Y-13452484D02*
X5281491Y-13442960D01*
X5281491Y-13442960D02*
X5291015Y-13433436D01*
X5291015Y-13433436D02*
X5291015Y-13452484D01*
X5424348Y-13252484D02*
X5443396Y-13252484D01*
X5443396Y-13252484D02*
X5462444Y-13262008D01*
X5462444Y-13262008D02*
X5471968Y-13271531D01*
X5471968Y-13271531D02*
X5481491Y-13290579D01*
X5481491Y-13290579D02*
X5491015Y-13328674D01*
X5491015Y-13328674D02*
X5491015Y-13376293D01*
X5491015Y-13376293D02*
X5481491Y-13414388D01*
X5481491Y-13414388D02*
X5471968Y-13433436D01*
X5471968Y-13433436D02*
X5462444Y-13442960D01*
X5462444Y-13442960D02*
X5443396Y-13452484D01*
X5443396Y-13452484D02*
X5424348Y-13452484D01*
X5424348Y-13452484D02*
X5405301Y-13442960D01*
X5405301Y-13442960D02*
X5395777Y-13433436D01*
X5395777Y-13433436D02*
X5386253Y-13414388D01*
X5386253Y-13414388D02*
X5376729Y-13376293D01*
X5376729Y-13376293D02*
X5376729Y-13328674D01*
X5376729Y-13328674D02*
X5386253Y-13290579D01*
X5386253Y-13290579D02*
X5395777Y-13271531D01*
X5395777Y-13271531D02*
X5405301Y-13262008D01*
X5405301Y-13262008D02*
X5424348Y-13252484D01*
X5557682Y-13252484D02*
X5681491Y-13252484D01*
X5681491Y-13252484D02*
X5614825Y-13328674D01*
X5614825Y-13328674D02*
X5643396Y-13328674D01*
X5643396Y-13328674D02*
X5662444Y-13338198D01*
X5662444Y-13338198D02*
X5671967Y-13347722D01*
X5671967Y-13347722D02*
X5681491Y-13366769D01*
X5681491Y-13366769D02*
X5681491Y-13414388D01*
X5681491Y-13414388D02*
X5671967Y-13433436D01*
X5671967Y-13433436D02*
X5662444Y-13442960D01*
X5662444Y-13442960D02*
X5643396Y-13452484D01*
X5643396Y-13452484D02*
X5586253Y-13452484D01*
X5586253Y-13452484D02*
X5567206Y-13442960D01*
X5567206Y-13442960D02*
X5557682Y-13433436D01*
X5776729Y-13452484D02*
X5814825Y-13452484D01*
X5814825Y-13452484D02*
X5833872Y-13442960D01*
X5833872Y-13442960D02*
X5843396Y-13433436D01*
X5843396Y-13433436D02*
X5862444Y-13404865D01*
X5862444Y-13404865D02*
X5871967Y-13366769D01*
X5871967Y-13366769D02*
X5871967Y-13290579D01*
X5871967Y-13290579D02*
X5862444Y-13271531D01*
X5862444Y-13271531D02*
X5852920Y-13262008D01*
X5852920Y-13262008D02*
X5833872Y-13252484D01*
X5833872Y-13252484D02*
X5795777Y-13252484D01*
X5795777Y-13252484D02*
X5776729Y-13262008D01*
X5776729Y-13262008D02*
X5767206Y-13271531D01*
X5767206Y-13271531D02*
X5757682Y-13290579D01*
X5757682Y-13290579D02*
X5757682Y-13338198D01*
X5757682Y-13338198D02*
X5767206Y-13357246D01*
X5767206Y-13357246D02*
X5776729Y-13366769D01*
X5776729Y-13366769D02*
X5795777Y-13376293D01*
X5795777Y-13376293D02*
X5833872Y-13376293D01*
X5833872Y-13376293D02*
X5852920Y-13366769D01*
X5852920Y-13366769D02*
X5862444Y-13357246D01*
X5862444Y-13357246D02*
X5871967Y-13338198D01*
X6043396Y-13319150D02*
X6043396Y-13452484D01*
X5995777Y-13242960D02*
X5948158Y-13385817D01*
X5948158Y-13385817D02*
X6071967Y-13385817D01*
X6138634Y-13252484D02*
X6138634Y-13290579D01*
X6214825Y-13252484D02*
X6214825Y-13290579D01*
X6510063Y-13528674D02*
X6500539Y-13519150D01*
X6500539Y-13519150D02*
X6481491Y-13490579D01*
X6481491Y-13490579D02*
X6471968Y-13471531D01*
X6471968Y-13471531D02*
X6462444Y-13442960D01*
X6462444Y-13442960D02*
X6452920Y-13395341D01*
X6452920Y-13395341D02*
X6452920Y-13357246D01*
X6452920Y-13357246D02*
X6462444Y-13309627D01*
X6462444Y-13309627D02*
X6471968Y-13281055D01*
X6471968Y-13281055D02*
X6481491Y-13262008D01*
X6481491Y-13262008D02*
X6500539Y-13233436D01*
X6500539Y-13233436D02*
X6510063Y-13223912D01*
X6681491Y-13252484D02*
X6586253Y-13252484D01*
X6586253Y-13252484D02*
X6576729Y-13347722D01*
X6576729Y-13347722D02*
X6586253Y-13338198D01*
X6586253Y-13338198D02*
X6605301Y-13328674D01*
X6605301Y-13328674D02*
X6652920Y-13328674D01*
X6652920Y-13328674D02*
X6671968Y-13338198D01*
X6671968Y-13338198D02*
X6681491Y-13347722D01*
X6681491Y-13347722D02*
X6691015Y-13366769D01*
X6691015Y-13366769D02*
X6691015Y-13414388D01*
X6691015Y-13414388D02*
X6681491Y-13433436D01*
X6681491Y-13433436D02*
X6671968Y-13442960D01*
X6671968Y-13442960D02*
X6652920Y-13452484D01*
X6652920Y-13452484D02*
X6605301Y-13452484D01*
X6605301Y-13452484D02*
X6586253Y-13442960D01*
X6586253Y-13442960D02*
X6576729Y-13433436D01*
X6757682Y-13252484D02*
X6891015Y-13252484D01*
X6891015Y-13252484D02*
X6805301Y-13452484D01*
X7119587Y-13452484D02*
X7119587Y-13252484D01*
X7205301Y-13452484D02*
X7205301Y-13347722D01*
X7205301Y-13347722D02*
X7195777Y-13328674D01*
X7195777Y-13328674D02*
X7176730Y-13319150D01*
X7176730Y-13319150D02*
X7148158Y-13319150D01*
X7148158Y-13319150D02*
X7129110Y-13328674D01*
X7129110Y-13328674D02*
X7119587Y-13338198D01*
X7329110Y-13452484D02*
X7310063Y-13442960D01*
X7310063Y-13442960D02*
X7300539Y-13433436D01*
X7300539Y-13433436D02*
X7291015Y-13414388D01*
X7291015Y-13414388D02*
X7291015Y-13357246D01*
X7291015Y-13357246D02*
X7300539Y-13338198D01*
X7300539Y-13338198D02*
X7310063Y-13328674D01*
X7310063Y-13328674D02*
X7329110Y-13319150D01*
X7329110Y-13319150D02*
X7357682Y-13319150D01*
X7357682Y-13319150D02*
X7376730Y-13328674D01*
X7376730Y-13328674D02*
X7386253Y-13338198D01*
X7386253Y-13338198D02*
X7395777Y-13357246D01*
X7395777Y-13357246D02*
X7395777Y-13414388D01*
X7395777Y-13414388D02*
X7386253Y-13433436D01*
X7386253Y-13433436D02*
X7376730Y-13442960D01*
X7376730Y-13442960D02*
X7357682Y-13452484D01*
X7357682Y-13452484D02*
X7329110Y-13452484D01*
X7510063Y-13452484D02*
X7491015Y-13442960D01*
X7491015Y-13442960D02*
X7481491Y-13423912D01*
X7481491Y-13423912D02*
X7481491Y-13252484D01*
X7662444Y-13442960D02*
X7643396Y-13452484D01*
X7643396Y-13452484D02*
X7605301Y-13452484D01*
X7605301Y-13452484D02*
X7586253Y-13442960D01*
X7586253Y-13442960D02*
X7576730Y-13423912D01*
X7576730Y-13423912D02*
X7576730Y-13347722D01*
X7576730Y-13347722D02*
X7586253Y-13328674D01*
X7586253Y-13328674D02*
X7605301Y-13319150D01*
X7605301Y-13319150D02*
X7643396Y-13319150D01*
X7643396Y-13319150D02*
X7662444Y-13328674D01*
X7662444Y-13328674D02*
X7671968Y-13347722D01*
X7671968Y-13347722D02*
X7671968Y-13366769D01*
X7671968Y-13366769D02*
X7576730Y-13385817D01*
X7748158Y-13442960D02*
X7767206Y-13452484D01*
X7767206Y-13452484D02*
X7805301Y-13452484D01*
X7805301Y-13452484D02*
X7824349Y-13442960D01*
X7824349Y-13442960D02*
X7833872Y-13423912D01*
X7833872Y-13423912D02*
X7833872Y-13414388D01*
X7833872Y-13414388D02*
X7824349Y-13395341D01*
X7824349Y-13395341D02*
X7805301Y-13385817D01*
X7805301Y-13385817D02*
X7776730Y-13385817D01*
X7776730Y-13385817D02*
X7757682Y-13376293D01*
X7757682Y-13376293D02*
X7748158Y-13357246D01*
X7748158Y-13357246D02*
X7748158Y-13347722D01*
X7748158Y-13347722D02*
X7757682Y-13328674D01*
X7757682Y-13328674D02*
X7776730Y-13319150D01*
X7776730Y-13319150D02*
X7805301Y-13319150D01*
X7805301Y-13319150D02*
X7824349Y-13328674D01*
X7900539Y-13528674D02*
X7910063Y-13519150D01*
X7910063Y-13519150D02*
X7929111Y-13490579D01*
X7929111Y-13490579D02*
X7938634Y-13471531D01*
X7938634Y-13471531D02*
X7948158Y-13442960D01*
X7948158Y-13442960D02*
X7957682Y-13395341D01*
X7957682Y-13395341D02*
X7957682Y-13357246D01*
X7957682Y-13357246D02*
X7948158Y-13309627D01*
X7948158Y-13309627D02*
X7938634Y-13281055D01*
X7938634Y-13281055D02*
X7929111Y-13262008D01*
X7929111Y-13262008D02*
X7910063Y-13233436D01*
X7910063Y-13233436D02*
X7900539Y-13223912D01*
D12*
X2825000Y-13570000D02*
X2935000Y-13680000D01*
X2935000Y-13570000D02*
X2825000Y-13680000D01*
X2935000Y-13625000D02*
G75*
G03*
X2825000Y-13625000I-55000J0D01*
G01*
X2825000Y-13625000D02*
G75*
G03*
X2935000Y-13625000I55000J0D01*
G01*
D11*
X3300539Y-13716484D02*
X3186253Y-13716484D01*
X3243396Y-13716484D02*
X3243396Y-13516484D01*
X3243396Y-13516484D02*
X3224348Y-13545055D01*
X3224348Y-13545055D02*
X3205301Y-13564103D01*
X3205301Y-13564103D02*
X3186253Y-13573627D01*
X3386253Y-13697436D02*
X3395777Y-13706960D01*
X3395777Y-13706960D02*
X3386253Y-13716484D01*
X3386253Y-13716484D02*
X3376729Y-13706960D01*
X3376729Y-13706960D02*
X3386253Y-13697436D01*
X3386253Y-13697436D02*
X3386253Y-13716484D01*
X3586253Y-13716484D02*
X3471967Y-13716484D01*
X3529110Y-13716484D02*
X3529110Y-13516484D01*
X3529110Y-13516484D02*
X3510062Y-13545055D01*
X3510062Y-13545055D02*
X3491015Y-13564103D01*
X3491015Y-13564103D02*
X3471967Y-13573627D01*
X3710062Y-13516484D02*
X3729110Y-13516484D01*
X3729110Y-13516484D02*
X3748158Y-13526008D01*
X3748158Y-13526008D02*
X3757682Y-13535531D01*
X3757682Y-13535531D02*
X3767205Y-13554579D01*
X3767205Y-13554579D02*
X3776729Y-13592674D01*
X3776729Y-13592674D02*
X3776729Y-13640293D01*
X3776729Y-13640293D02*
X3767205Y-13678388D01*
X3767205Y-13678388D02*
X3757682Y-13697436D01*
X3757682Y-13697436D02*
X3748158Y-13706960D01*
X3748158Y-13706960D02*
X3729110Y-13716484D01*
X3729110Y-13716484D02*
X3710062Y-13716484D01*
X3710062Y-13716484D02*
X3691015Y-13706960D01*
X3691015Y-13706960D02*
X3681491Y-13697436D01*
X3681491Y-13697436D02*
X3671967Y-13678388D01*
X3671967Y-13678388D02*
X3662443Y-13640293D01*
X3662443Y-13640293D02*
X3662443Y-13592674D01*
X3662443Y-13592674D02*
X3671967Y-13554579D01*
X3671967Y-13554579D02*
X3681491Y-13535531D01*
X3681491Y-13535531D02*
X3691015Y-13526008D01*
X3691015Y-13526008D02*
X3710062Y-13516484D01*
X3900539Y-13516484D02*
X3919586Y-13516484D01*
X3919586Y-13516484D02*
X3938634Y-13526008D01*
X3938634Y-13526008D02*
X3948158Y-13535531D01*
X3948158Y-13535531D02*
X3957682Y-13554579D01*
X3957682Y-13554579D02*
X3967205Y-13592674D01*
X3967205Y-13592674D02*
X3967205Y-13640293D01*
X3967205Y-13640293D02*
X3957682Y-13678388D01*
X3957682Y-13678388D02*
X3948158Y-13697436D01*
X3948158Y-13697436D02*
X3938634Y-13706960D01*
X3938634Y-13706960D02*
X3919586Y-13716484D01*
X3919586Y-13716484D02*
X3900539Y-13716484D01*
X3900539Y-13716484D02*
X3881491Y-13706960D01*
X3881491Y-13706960D02*
X3871967Y-13697436D01*
X3871967Y-13697436D02*
X3862443Y-13678388D01*
X3862443Y-13678388D02*
X3852920Y-13640293D01*
X3852920Y-13640293D02*
X3852920Y-13592674D01*
X3852920Y-13592674D02*
X3862443Y-13554579D01*
X3862443Y-13554579D02*
X3871967Y-13535531D01*
X3871967Y-13535531D02*
X3881491Y-13526008D01*
X3881491Y-13526008D02*
X3900539Y-13516484D01*
X4052920Y-13716484D02*
X4052920Y-13583150D01*
X4052920Y-13602198D02*
X4062443Y-13592674D01*
X4062443Y-13592674D02*
X4081491Y-13583150D01*
X4081491Y-13583150D02*
X4110063Y-13583150D01*
X4110063Y-13583150D02*
X4129110Y-13592674D01*
X4129110Y-13592674D02*
X4138634Y-13611722D01*
X4138634Y-13611722D02*
X4138634Y-13716484D01*
X4138634Y-13611722D02*
X4148158Y-13592674D01*
X4148158Y-13592674D02*
X4167205Y-13583150D01*
X4167205Y-13583150D02*
X4195777Y-13583150D01*
X4195777Y-13583150D02*
X4214825Y-13592674D01*
X4214825Y-13592674D02*
X4224348Y-13611722D01*
X4224348Y-13611722D02*
X4224348Y-13716484D01*
X4319586Y-13716484D02*
X4319586Y-13583150D01*
X4319586Y-13602198D02*
X4329110Y-13592674D01*
X4329110Y-13592674D02*
X4348158Y-13583150D01*
X4348158Y-13583150D02*
X4376729Y-13583150D01*
X4376729Y-13583150D02*
X4395777Y-13592674D01*
X4395777Y-13592674D02*
X4405301Y-13611722D01*
X4405301Y-13611722D02*
X4405301Y-13716484D01*
X4405301Y-13611722D02*
X4414825Y-13592674D01*
X4414825Y-13592674D02*
X4433872Y-13583150D01*
X4433872Y-13583150D02*
X4462444Y-13583150D01*
X4462444Y-13583150D02*
X4481491Y-13592674D01*
X4481491Y-13592674D02*
X4491015Y-13611722D01*
X4491015Y-13611722D02*
X4491015Y-13716484D01*
X4881491Y-13506960D02*
X4710063Y-13764103D01*
X5138634Y-13516484D02*
X5157682Y-13516484D01*
X5157682Y-13516484D02*
X5176729Y-13526008D01*
X5176729Y-13526008D02*
X5186253Y-13535531D01*
X5186253Y-13535531D02*
X5195777Y-13554579D01*
X5195777Y-13554579D02*
X5205301Y-13592674D01*
X5205301Y-13592674D02*
X5205301Y-13640293D01*
X5205301Y-13640293D02*
X5195777Y-13678388D01*
X5195777Y-13678388D02*
X5186253Y-13697436D01*
X5186253Y-13697436D02*
X5176729Y-13706960D01*
X5176729Y-13706960D02*
X5157682Y-13716484D01*
X5157682Y-13716484D02*
X5138634Y-13716484D01*
X5138634Y-13716484D02*
X5119587Y-13706960D01*
X5119587Y-13706960D02*
X5110063Y-13697436D01*
X5110063Y-13697436D02*
X5100539Y-13678388D01*
X5100539Y-13678388D02*
X5091015Y-13640293D01*
X5091015Y-13640293D02*
X5091015Y-13592674D01*
X5091015Y-13592674D02*
X5100539Y-13554579D01*
X5100539Y-13554579D02*
X5110063Y-13535531D01*
X5110063Y-13535531D02*
X5119587Y-13526008D01*
X5119587Y-13526008D02*
X5138634Y-13516484D01*
X5291015Y-13697436D02*
X5300539Y-13706960D01*
X5300539Y-13706960D02*
X5291015Y-13716484D01*
X5291015Y-13716484D02*
X5281491Y-13706960D01*
X5281491Y-13706960D02*
X5291015Y-13697436D01*
X5291015Y-13697436D02*
X5291015Y-13716484D01*
X5424348Y-13516484D02*
X5443396Y-13516484D01*
X5443396Y-13516484D02*
X5462444Y-13526008D01*
X5462444Y-13526008D02*
X5471968Y-13535531D01*
X5471968Y-13535531D02*
X5481491Y-13554579D01*
X5481491Y-13554579D02*
X5491015Y-13592674D01*
X5491015Y-13592674D02*
X5491015Y-13640293D01*
X5491015Y-13640293D02*
X5481491Y-13678388D01*
X5481491Y-13678388D02*
X5471968Y-13697436D01*
X5471968Y-13697436D02*
X5462444Y-13706960D01*
X5462444Y-13706960D02*
X5443396Y-13716484D01*
X5443396Y-13716484D02*
X5424348Y-13716484D01*
X5424348Y-13716484D02*
X5405301Y-13706960D01*
X5405301Y-13706960D02*
X5395777Y-13697436D01*
X5395777Y-13697436D02*
X5386253Y-13678388D01*
X5386253Y-13678388D02*
X5376729Y-13640293D01*
X5376729Y-13640293D02*
X5376729Y-13592674D01*
X5376729Y-13592674D02*
X5386253Y-13554579D01*
X5386253Y-13554579D02*
X5395777Y-13535531D01*
X5395777Y-13535531D02*
X5405301Y-13526008D01*
X5405301Y-13526008D02*
X5424348Y-13516484D01*
X5662444Y-13583150D02*
X5662444Y-13716484D01*
X5614825Y-13506960D02*
X5567206Y-13649817D01*
X5567206Y-13649817D02*
X5691015Y-13649817D01*
X5748158Y-13516484D02*
X5871967Y-13516484D01*
X5871967Y-13516484D02*
X5805301Y-13592674D01*
X5805301Y-13592674D02*
X5833872Y-13592674D01*
X5833872Y-13592674D02*
X5852920Y-13602198D01*
X5852920Y-13602198D02*
X5862444Y-13611722D01*
X5862444Y-13611722D02*
X5871967Y-13630769D01*
X5871967Y-13630769D02*
X5871967Y-13678388D01*
X5871967Y-13678388D02*
X5862444Y-13697436D01*
X5862444Y-13697436D02*
X5852920Y-13706960D01*
X5852920Y-13706960D02*
X5833872Y-13716484D01*
X5833872Y-13716484D02*
X5776729Y-13716484D01*
X5776729Y-13716484D02*
X5757682Y-13706960D01*
X5757682Y-13706960D02*
X5748158Y-13697436D01*
X5938634Y-13516484D02*
X6062444Y-13516484D01*
X6062444Y-13516484D02*
X5995777Y-13592674D01*
X5995777Y-13592674D02*
X6024348Y-13592674D01*
X6024348Y-13592674D02*
X6043396Y-13602198D01*
X6043396Y-13602198D02*
X6052920Y-13611722D01*
X6052920Y-13611722D02*
X6062444Y-13630769D01*
X6062444Y-13630769D02*
X6062444Y-13678388D01*
X6062444Y-13678388D02*
X6052920Y-13697436D01*
X6052920Y-13697436D02*
X6043396Y-13706960D01*
X6043396Y-13706960D02*
X6024348Y-13716484D01*
X6024348Y-13716484D02*
X5967206Y-13716484D01*
X5967206Y-13716484D02*
X5948158Y-13706960D01*
X5948158Y-13706960D02*
X5938634Y-13697436D01*
X6138634Y-13516484D02*
X6138634Y-13554579D01*
X6214825Y-13516484D02*
X6214825Y-13554579D01*
X6510063Y-13792674D02*
X6500539Y-13783150D01*
X6500539Y-13783150D02*
X6481491Y-13754579D01*
X6481491Y-13754579D02*
X6471968Y-13735531D01*
X6471968Y-13735531D02*
X6462444Y-13706960D01*
X6462444Y-13706960D02*
X6452920Y-13659341D01*
X6452920Y-13659341D02*
X6452920Y-13621246D01*
X6452920Y-13621246D02*
X6462444Y-13573627D01*
X6462444Y-13573627D02*
X6471968Y-13545055D01*
X6471968Y-13545055D02*
X6481491Y-13526008D01*
X6481491Y-13526008D02*
X6500539Y-13497436D01*
X6500539Y-13497436D02*
X6510063Y-13487912D01*
X6671968Y-13583150D02*
X6671968Y-13716484D01*
X6624348Y-13506960D02*
X6576729Y-13649817D01*
X6576729Y-13649817D02*
X6700539Y-13649817D01*
X6767206Y-13535531D02*
X6776729Y-13526008D01*
X6776729Y-13526008D02*
X6795777Y-13516484D01*
X6795777Y-13516484D02*
X6843396Y-13516484D01*
X6843396Y-13516484D02*
X6862444Y-13526008D01*
X6862444Y-13526008D02*
X6871968Y-13535531D01*
X6871968Y-13535531D02*
X6881491Y-13554579D01*
X6881491Y-13554579D02*
X6881491Y-13573627D01*
X6881491Y-13573627D02*
X6871968Y-13602198D01*
X6871968Y-13602198D02*
X6757682Y-13716484D01*
X6757682Y-13716484D02*
X6881491Y-13716484D01*
X7119587Y-13716484D02*
X7119587Y-13516484D01*
X7205301Y-13716484D02*
X7205301Y-13611722D01*
X7205301Y-13611722D02*
X7195777Y-13592674D01*
X7195777Y-13592674D02*
X7176730Y-13583150D01*
X7176730Y-13583150D02*
X7148158Y-13583150D01*
X7148158Y-13583150D02*
X7129110Y-13592674D01*
X7129110Y-13592674D02*
X7119587Y-13602198D01*
X7329110Y-13716484D02*
X7310063Y-13706960D01*
X7310063Y-13706960D02*
X7300539Y-13697436D01*
X7300539Y-13697436D02*
X7291015Y-13678388D01*
X7291015Y-13678388D02*
X7291015Y-13621246D01*
X7291015Y-13621246D02*
X7300539Y-13602198D01*
X7300539Y-13602198D02*
X7310063Y-13592674D01*
X7310063Y-13592674D02*
X7329110Y-13583150D01*
X7329110Y-13583150D02*
X7357682Y-13583150D01*
X7357682Y-13583150D02*
X7376730Y-13592674D01*
X7376730Y-13592674D02*
X7386253Y-13602198D01*
X7386253Y-13602198D02*
X7395777Y-13621246D01*
X7395777Y-13621246D02*
X7395777Y-13678388D01*
X7395777Y-13678388D02*
X7386253Y-13697436D01*
X7386253Y-13697436D02*
X7376730Y-13706960D01*
X7376730Y-13706960D02*
X7357682Y-13716484D01*
X7357682Y-13716484D02*
X7329110Y-13716484D01*
X7510063Y-13716484D02*
X7491015Y-13706960D01*
X7491015Y-13706960D02*
X7481491Y-13687912D01*
X7481491Y-13687912D02*
X7481491Y-13516484D01*
X7662444Y-13706960D02*
X7643396Y-13716484D01*
X7643396Y-13716484D02*
X7605301Y-13716484D01*
X7605301Y-13716484D02*
X7586253Y-13706960D01*
X7586253Y-13706960D02*
X7576730Y-13687912D01*
X7576730Y-13687912D02*
X7576730Y-13611722D01*
X7576730Y-13611722D02*
X7586253Y-13592674D01*
X7586253Y-13592674D02*
X7605301Y-13583150D01*
X7605301Y-13583150D02*
X7643396Y-13583150D01*
X7643396Y-13583150D02*
X7662444Y-13592674D01*
X7662444Y-13592674D02*
X7671968Y-13611722D01*
X7671968Y-13611722D02*
X7671968Y-13630769D01*
X7671968Y-13630769D02*
X7576730Y-13649817D01*
X7748158Y-13706960D02*
X7767206Y-13716484D01*
X7767206Y-13716484D02*
X7805301Y-13716484D01*
X7805301Y-13716484D02*
X7824349Y-13706960D01*
X7824349Y-13706960D02*
X7833872Y-13687912D01*
X7833872Y-13687912D02*
X7833872Y-13678388D01*
X7833872Y-13678388D02*
X7824349Y-13659341D01*
X7824349Y-13659341D02*
X7805301Y-13649817D01*
X7805301Y-13649817D02*
X7776730Y-13649817D01*
X7776730Y-13649817D02*
X7757682Y-13640293D01*
X7757682Y-13640293D02*
X7748158Y-13621246D01*
X7748158Y-13621246D02*
X7748158Y-13611722D01*
X7748158Y-13611722D02*
X7757682Y-13592674D01*
X7757682Y-13592674D02*
X7776730Y-13583150D01*
X7776730Y-13583150D02*
X7805301Y-13583150D01*
X7805301Y-13583150D02*
X7824349Y-13592674D01*
X8071968Y-13640293D02*
X8224349Y-13640293D01*
X8148158Y-13716484D02*
X8148158Y-13564103D01*
X8557682Y-13516484D02*
X8519587Y-13516484D01*
X8519587Y-13516484D02*
X8500539Y-13526008D01*
X8500539Y-13526008D02*
X8491015Y-13535531D01*
X8491015Y-13535531D02*
X8471968Y-13564103D01*
X8471968Y-13564103D02*
X8462444Y-13602198D01*
X8462444Y-13602198D02*
X8462444Y-13678388D01*
X8462444Y-13678388D02*
X8471968Y-13697436D01*
X8471968Y-13697436D02*
X8481492Y-13706960D01*
X8481492Y-13706960D02*
X8500539Y-13716484D01*
X8500539Y-13716484D02*
X8538635Y-13716484D01*
X8538635Y-13716484D02*
X8557682Y-13706960D01*
X8557682Y-13706960D02*
X8567206Y-13697436D01*
X8567206Y-13697436D02*
X8576730Y-13678388D01*
X8576730Y-13678388D02*
X8576730Y-13630769D01*
X8576730Y-13630769D02*
X8567206Y-13611722D01*
X8567206Y-13611722D02*
X8557682Y-13602198D01*
X8557682Y-13602198D02*
X8538635Y-13592674D01*
X8538635Y-13592674D02*
X8500539Y-13592674D01*
X8500539Y-13592674D02*
X8481492Y-13602198D01*
X8481492Y-13602198D02*
X8471968Y-13611722D01*
X8471968Y-13611722D02*
X8462444Y-13630769D01*
X8805301Y-13706960D02*
X8824349Y-13716484D01*
X8824349Y-13716484D02*
X8862444Y-13716484D01*
X8862444Y-13716484D02*
X8881492Y-13706960D01*
X8881492Y-13706960D02*
X8891016Y-13687912D01*
X8891016Y-13687912D02*
X8891016Y-13678388D01*
X8891016Y-13678388D02*
X8881492Y-13659341D01*
X8881492Y-13659341D02*
X8862444Y-13649817D01*
X8862444Y-13649817D02*
X8833873Y-13649817D01*
X8833873Y-13649817D02*
X8814825Y-13640293D01*
X8814825Y-13640293D02*
X8805301Y-13621246D01*
X8805301Y-13621246D02*
X8805301Y-13611722D01*
X8805301Y-13611722D02*
X8814825Y-13592674D01*
X8814825Y-13592674D02*
X8833873Y-13583150D01*
X8833873Y-13583150D02*
X8862444Y-13583150D01*
X8862444Y-13583150D02*
X8881492Y-13592674D01*
X9005301Y-13716484D02*
X8986254Y-13706960D01*
X8986254Y-13706960D02*
X8976730Y-13687912D01*
X8976730Y-13687912D02*
X8976730Y-13516484D01*
X9110063Y-13716484D02*
X9091016Y-13706960D01*
X9091016Y-13706960D02*
X9081492Y-13697436D01*
X9081492Y-13697436D02*
X9071968Y-13678388D01*
X9071968Y-13678388D02*
X9071968Y-13621246D01*
X9071968Y-13621246D02*
X9081492Y-13602198D01*
X9081492Y-13602198D02*
X9091016Y-13592674D01*
X9091016Y-13592674D02*
X9110063Y-13583150D01*
X9110063Y-13583150D02*
X9138635Y-13583150D01*
X9138635Y-13583150D02*
X9157682Y-13592674D01*
X9157682Y-13592674D02*
X9167206Y-13602198D01*
X9167206Y-13602198D02*
X9176730Y-13621246D01*
X9176730Y-13621246D02*
X9176730Y-13678388D01*
X9176730Y-13678388D02*
X9167206Y-13697436D01*
X9167206Y-13697436D02*
X9157682Y-13706960D01*
X9157682Y-13706960D02*
X9138635Y-13716484D01*
X9138635Y-13716484D02*
X9110063Y-13716484D01*
X9233873Y-13583150D02*
X9310063Y-13583150D01*
X9262444Y-13516484D02*
X9262444Y-13687912D01*
X9262444Y-13687912D02*
X9271968Y-13706960D01*
X9271968Y-13706960D02*
X9291016Y-13716484D01*
X9291016Y-13716484D02*
X9310063Y-13716484D01*
X9367206Y-13706960D02*
X9386254Y-13716484D01*
X9386254Y-13716484D02*
X9424349Y-13716484D01*
X9424349Y-13716484D02*
X9443397Y-13706960D01*
X9443397Y-13706960D02*
X9452920Y-13687912D01*
X9452920Y-13687912D02*
X9452920Y-13678388D01*
X9452920Y-13678388D02*
X9443397Y-13659341D01*
X9443397Y-13659341D02*
X9424349Y-13649817D01*
X9424349Y-13649817D02*
X9395777Y-13649817D01*
X9395777Y-13649817D02*
X9376730Y-13640293D01*
X9376730Y-13640293D02*
X9367206Y-13621246D01*
X9367206Y-13621246D02*
X9367206Y-13611722D01*
X9367206Y-13611722D02*
X9376730Y-13592674D01*
X9376730Y-13592674D02*
X9395777Y-13583150D01*
X9395777Y-13583150D02*
X9424349Y-13583150D01*
X9424349Y-13583150D02*
X9443397Y-13592674D01*
X9519587Y-13792674D02*
X9529111Y-13783150D01*
X9529111Y-13783150D02*
X9548158Y-13754579D01*
X9548158Y-13754579D02*
X9557682Y-13735531D01*
X9557682Y-13735531D02*
X9567206Y-13706960D01*
X9567206Y-13706960D02*
X9576730Y-13659341D01*
X9576730Y-13659341D02*
X9576730Y-13621246D01*
X9576730Y-13621246D02*
X9567206Y-13573627D01*
X9567206Y-13573627D02*
X9557682Y-13545055D01*
X9557682Y-13545055D02*
X9548158Y-13526008D01*
X9548158Y-13526008D02*
X9529111Y-13497436D01*
X9529111Y-13497436D02*
X9519587Y-13487912D01*
D13*
X2785000Y-13814000D02*
X2935000Y-13964000D01*
X2935000Y-13814000D02*
X2785000Y-13964000D01*
X2860000Y-13814000D02*
X2860000Y-13964000D01*
X2785000Y-13889000D02*
X2935000Y-13889000D01*
D11*
X3300539Y-13980484D02*
X3186253Y-13980484D01*
X3243396Y-13980484D02*
X3243396Y-13780484D01*
X3243396Y-13780484D02*
X3224348Y-13809055D01*
X3224348Y-13809055D02*
X3205301Y-13828103D01*
X3205301Y-13828103D02*
X3186253Y-13837627D01*
X3386253Y-13961436D02*
X3395777Y-13970960D01*
X3395777Y-13970960D02*
X3386253Y-13980484D01*
X3386253Y-13980484D02*
X3376729Y-13970960D01*
X3376729Y-13970960D02*
X3386253Y-13961436D01*
X3386253Y-13961436D02*
X3386253Y-13980484D01*
X3576729Y-13780484D02*
X3481491Y-13780484D01*
X3481491Y-13780484D02*
X3471967Y-13875722D01*
X3471967Y-13875722D02*
X3481491Y-13866198D01*
X3481491Y-13866198D02*
X3500539Y-13856674D01*
X3500539Y-13856674D02*
X3548158Y-13856674D01*
X3548158Y-13856674D02*
X3567205Y-13866198D01*
X3567205Y-13866198D02*
X3576729Y-13875722D01*
X3576729Y-13875722D02*
X3586253Y-13894769D01*
X3586253Y-13894769D02*
X3586253Y-13942388D01*
X3586253Y-13942388D02*
X3576729Y-13961436D01*
X3576729Y-13961436D02*
X3567205Y-13970960D01*
X3567205Y-13970960D02*
X3548158Y-13980484D01*
X3548158Y-13980484D02*
X3500539Y-13980484D01*
X3500539Y-13980484D02*
X3481491Y-13970960D01*
X3481491Y-13970960D02*
X3471967Y-13961436D01*
X3710062Y-13780484D02*
X3729110Y-13780484D01*
X3729110Y-13780484D02*
X3748158Y-13790008D01*
X3748158Y-13790008D02*
X3757682Y-13799531D01*
X3757682Y-13799531D02*
X3767205Y-13818579D01*
X3767205Y-13818579D02*
X3776729Y-13856674D01*
X3776729Y-13856674D02*
X3776729Y-13904293D01*
X3776729Y-13904293D02*
X3767205Y-13942388D01*
X3767205Y-13942388D02*
X3757682Y-13961436D01*
X3757682Y-13961436D02*
X3748158Y-13970960D01*
X3748158Y-13970960D02*
X3729110Y-13980484D01*
X3729110Y-13980484D02*
X3710062Y-13980484D01*
X3710062Y-13980484D02*
X3691015Y-13970960D01*
X3691015Y-13970960D02*
X3681491Y-13961436D01*
X3681491Y-13961436D02*
X3671967Y-13942388D01*
X3671967Y-13942388D02*
X3662443Y-13904293D01*
X3662443Y-13904293D02*
X3662443Y-13856674D01*
X3662443Y-13856674D02*
X3671967Y-13818579D01*
X3671967Y-13818579D02*
X3681491Y-13799531D01*
X3681491Y-13799531D02*
X3691015Y-13790008D01*
X3691015Y-13790008D02*
X3710062Y-13780484D01*
X3900539Y-13780484D02*
X3919586Y-13780484D01*
X3919586Y-13780484D02*
X3938634Y-13790008D01*
X3938634Y-13790008D02*
X3948158Y-13799531D01*
X3948158Y-13799531D02*
X3957682Y-13818579D01*
X3957682Y-13818579D02*
X3967205Y-13856674D01*
X3967205Y-13856674D02*
X3967205Y-13904293D01*
X3967205Y-13904293D02*
X3957682Y-13942388D01*
X3957682Y-13942388D02*
X3948158Y-13961436D01*
X3948158Y-13961436D02*
X3938634Y-13970960D01*
X3938634Y-13970960D02*
X3919586Y-13980484D01*
X3919586Y-13980484D02*
X3900539Y-13980484D01*
X3900539Y-13980484D02*
X3881491Y-13970960D01*
X3881491Y-13970960D02*
X3871967Y-13961436D01*
X3871967Y-13961436D02*
X3862443Y-13942388D01*
X3862443Y-13942388D02*
X3852920Y-13904293D01*
X3852920Y-13904293D02*
X3852920Y-13856674D01*
X3852920Y-13856674D02*
X3862443Y-13818579D01*
X3862443Y-13818579D02*
X3871967Y-13799531D01*
X3871967Y-13799531D02*
X3881491Y-13790008D01*
X3881491Y-13790008D02*
X3900539Y-13780484D01*
X4052920Y-13980484D02*
X4052920Y-13847150D01*
X4052920Y-13866198D02*
X4062443Y-13856674D01*
X4062443Y-13856674D02*
X4081491Y-13847150D01*
X4081491Y-13847150D02*
X4110063Y-13847150D01*
X4110063Y-13847150D02*
X4129110Y-13856674D01*
X4129110Y-13856674D02*
X4138634Y-13875722D01*
X4138634Y-13875722D02*
X4138634Y-13980484D01*
X4138634Y-13875722D02*
X4148158Y-13856674D01*
X4148158Y-13856674D02*
X4167205Y-13847150D01*
X4167205Y-13847150D02*
X4195777Y-13847150D01*
X4195777Y-13847150D02*
X4214825Y-13856674D01*
X4214825Y-13856674D02*
X4224348Y-13875722D01*
X4224348Y-13875722D02*
X4224348Y-13980484D01*
X4319586Y-13980484D02*
X4319586Y-13847150D01*
X4319586Y-13866198D02*
X4329110Y-13856674D01*
X4329110Y-13856674D02*
X4348158Y-13847150D01*
X4348158Y-13847150D02*
X4376729Y-13847150D01*
X4376729Y-13847150D02*
X4395777Y-13856674D01*
X4395777Y-13856674D02*
X4405301Y-13875722D01*
X4405301Y-13875722D02*
X4405301Y-13980484D01*
X4405301Y-13875722D02*
X4414825Y-13856674D01*
X4414825Y-13856674D02*
X4433872Y-13847150D01*
X4433872Y-13847150D02*
X4462444Y-13847150D01*
X4462444Y-13847150D02*
X4481491Y-13856674D01*
X4481491Y-13856674D02*
X4491015Y-13875722D01*
X4491015Y-13875722D02*
X4491015Y-13980484D01*
X4881491Y-13770960D02*
X4710063Y-14028103D01*
X5138634Y-13780484D02*
X5157682Y-13780484D01*
X5157682Y-13780484D02*
X5176729Y-13790008D01*
X5176729Y-13790008D02*
X5186253Y-13799531D01*
X5186253Y-13799531D02*
X5195777Y-13818579D01*
X5195777Y-13818579D02*
X5205301Y-13856674D01*
X5205301Y-13856674D02*
X5205301Y-13904293D01*
X5205301Y-13904293D02*
X5195777Y-13942388D01*
X5195777Y-13942388D02*
X5186253Y-13961436D01*
X5186253Y-13961436D02*
X5176729Y-13970960D01*
X5176729Y-13970960D02*
X5157682Y-13980484D01*
X5157682Y-13980484D02*
X5138634Y-13980484D01*
X5138634Y-13980484D02*
X5119587Y-13970960D01*
X5119587Y-13970960D02*
X5110063Y-13961436D01*
X5110063Y-13961436D02*
X5100539Y-13942388D01*
X5100539Y-13942388D02*
X5091015Y-13904293D01*
X5091015Y-13904293D02*
X5091015Y-13856674D01*
X5091015Y-13856674D02*
X5100539Y-13818579D01*
X5100539Y-13818579D02*
X5110063Y-13799531D01*
X5110063Y-13799531D02*
X5119587Y-13790008D01*
X5119587Y-13790008D02*
X5138634Y-13780484D01*
X5291015Y-13961436D02*
X5300539Y-13970960D01*
X5300539Y-13970960D02*
X5291015Y-13980484D01*
X5291015Y-13980484D02*
X5281491Y-13970960D01*
X5281491Y-13970960D02*
X5291015Y-13961436D01*
X5291015Y-13961436D02*
X5291015Y-13980484D01*
X5424348Y-13780484D02*
X5443396Y-13780484D01*
X5443396Y-13780484D02*
X5462444Y-13790008D01*
X5462444Y-13790008D02*
X5471968Y-13799531D01*
X5471968Y-13799531D02*
X5481491Y-13818579D01*
X5481491Y-13818579D02*
X5491015Y-13856674D01*
X5491015Y-13856674D02*
X5491015Y-13904293D01*
X5491015Y-13904293D02*
X5481491Y-13942388D01*
X5481491Y-13942388D02*
X5471968Y-13961436D01*
X5471968Y-13961436D02*
X5462444Y-13970960D01*
X5462444Y-13970960D02*
X5443396Y-13980484D01*
X5443396Y-13980484D02*
X5424348Y-13980484D01*
X5424348Y-13980484D02*
X5405301Y-13970960D01*
X5405301Y-13970960D02*
X5395777Y-13961436D01*
X5395777Y-13961436D02*
X5386253Y-13942388D01*
X5386253Y-13942388D02*
X5376729Y-13904293D01*
X5376729Y-13904293D02*
X5376729Y-13856674D01*
X5376729Y-13856674D02*
X5386253Y-13818579D01*
X5386253Y-13818579D02*
X5395777Y-13799531D01*
X5395777Y-13799531D02*
X5405301Y-13790008D01*
X5405301Y-13790008D02*
X5424348Y-13780484D01*
X5671967Y-13780484D02*
X5576729Y-13780484D01*
X5576729Y-13780484D02*
X5567206Y-13875722D01*
X5567206Y-13875722D02*
X5576729Y-13866198D01*
X5576729Y-13866198D02*
X5595777Y-13856674D01*
X5595777Y-13856674D02*
X5643396Y-13856674D01*
X5643396Y-13856674D02*
X5662444Y-13866198D01*
X5662444Y-13866198D02*
X5671967Y-13875722D01*
X5671967Y-13875722D02*
X5681491Y-13894769D01*
X5681491Y-13894769D02*
X5681491Y-13942388D01*
X5681491Y-13942388D02*
X5671967Y-13961436D01*
X5671967Y-13961436D02*
X5662444Y-13970960D01*
X5662444Y-13970960D02*
X5643396Y-13980484D01*
X5643396Y-13980484D02*
X5595777Y-13980484D01*
X5595777Y-13980484D02*
X5576729Y-13970960D01*
X5576729Y-13970960D02*
X5567206Y-13961436D01*
X5776729Y-13980484D02*
X5814825Y-13980484D01*
X5814825Y-13980484D02*
X5833872Y-13970960D01*
X5833872Y-13970960D02*
X5843396Y-13961436D01*
X5843396Y-13961436D02*
X5862444Y-13932865D01*
X5862444Y-13932865D02*
X5871967Y-13894769D01*
X5871967Y-13894769D02*
X5871967Y-13818579D01*
X5871967Y-13818579D02*
X5862444Y-13799531D01*
X5862444Y-13799531D02*
X5852920Y-13790008D01*
X5852920Y-13790008D02*
X5833872Y-13780484D01*
X5833872Y-13780484D02*
X5795777Y-13780484D01*
X5795777Y-13780484D02*
X5776729Y-13790008D01*
X5776729Y-13790008D02*
X5767206Y-13799531D01*
X5767206Y-13799531D02*
X5757682Y-13818579D01*
X5757682Y-13818579D02*
X5757682Y-13866198D01*
X5757682Y-13866198D02*
X5767206Y-13885246D01*
X5767206Y-13885246D02*
X5776729Y-13894769D01*
X5776729Y-13894769D02*
X5795777Y-13904293D01*
X5795777Y-13904293D02*
X5833872Y-13904293D01*
X5833872Y-13904293D02*
X5852920Y-13894769D01*
X5852920Y-13894769D02*
X5862444Y-13885246D01*
X5862444Y-13885246D02*
X5871967Y-13866198D01*
X6062444Y-13980484D02*
X5948158Y-13980484D01*
X6005301Y-13980484D02*
X6005301Y-13780484D01*
X6005301Y-13780484D02*
X5986253Y-13809055D01*
X5986253Y-13809055D02*
X5967206Y-13828103D01*
X5967206Y-13828103D02*
X5948158Y-13837627D01*
X6138634Y-13780484D02*
X6138634Y-13818579D01*
X6214825Y-13780484D02*
X6214825Y-13818579D01*
X6510063Y-14056674D02*
X6500539Y-14047150D01*
X6500539Y-14047150D02*
X6481491Y-14018579D01*
X6481491Y-14018579D02*
X6471968Y-13999531D01*
X6471968Y-13999531D02*
X6462444Y-13970960D01*
X6462444Y-13970960D02*
X6452920Y-13923341D01*
X6452920Y-13923341D02*
X6452920Y-13885246D01*
X6452920Y-13885246D02*
X6462444Y-13837627D01*
X6462444Y-13837627D02*
X6471968Y-13809055D01*
X6471968Y-13809055D02*
X6481491Y-13790008D01*
X6481491Y-13790008D02*
X6500539Y-13761436D01*
X6500539Y-13761436D02*
X6510063Y-13751912D01*
X6624348Y-13780484D02*
X6643396Y-13780484D01*
X6643396Y-13780484D02*
X6662444Y-13790008D01*
X6662444Y-13790008D02*
X6671968Y-13799531D01*
X6671968Y-13799531D02*
X6681491Y-13818579D01*
X6681491Y-13818579D02*
X6691015Y-13856674D01*
X6691015Y-13856674D02*
X6691015Y-13904293D01*
X6691015Y-13904293D02*
X6681491Y-13942388D01*
X6681491Y-13942388D02*
X6671968Y-13961436D01*
X6671968Y-13961436D02*
X6662444Y-13970960D01*
X6662444Y-13970960D02*
X6643396Y-13980484D01*
X6643396Y-13980484D02*
X6624348Y-13980484D01*
X6624348Y-13980484D02*
X6605301Y-13970960D01*
X6605301Y-13970960D02*
X6595777Y-13961436D01*
X6595777Y-13961436D02*
X6586253Y-13942388D01*
X6586253Y-13942388D02*
X6576729Y-13904293D01*
X6576729Y-13904293D02*
X6576729Y-13856674D01*
X6576729Y-13856674D02*
X6586253Y-13818579D01*
X6586253Y-13818579D02*
X6595777Y-13799531D01*
X6595777Y-13799531D02*
X6605301Y-13790008D01*
X6605301Y-13790008D02*
X6624348Y-13780484D01*
X6929110Y-13980484D02*
X6929110Y-13780484D01*
X7014825Y-13980484D02*
X7014825Y-13875722D01*
X7014825Y-13875722D02*
X7005301Y-13856674D01*
X7005301Y-13856674D02*
X6986253Y-13847150D01*
X6986253Y-13847150D02*
X6957682Y-13847150D01*
X6957682Y-13847150D02*
X6938634Y-13856674D01*
X6938634Y-13856674D02*
X6929110Y-13866198D01*
X7138634Y-13980484D02*
X7119587Y-13970960D01*
X7119587Y-13970960D02*
X7110063Y-13961436D01*
X7110063Y-13961436D02*
X7100539Y-13942388D01*
X7100539Y-13942388D02*
X7100539Y-13885246D01*
X7100539Y-13885246D02*
X7110063Y-13866198D01*
X7110063Y-13866198D02*
X7119587Y-13856674D01*
X7119587Y-13856674D02*
X7138634Y-13847150D01*
X7138634Y-13847150D02*
X7167206Y-13847150D01*
X7167206Y-13847150D02*
X7186253Y-13856674D01*
X7186253Y-13856674D02*
X7195777Y-13866198D01*
X7195777Y-13866198D02*
X7205301Y-13885246D01*
X7205301Y-13885246D02*
X7205301Y-13942388D01*
X7205301Y-13942388D02*
X7195777Y-13961436D01*
X7195777Y-13961436D02*
X7186253Y-13970960D01*
X7186253Y-13970960D02*
X7167206Y-13980484D01*
X7167206Y-13980484D02*
X7138634Y-13980484D01*
X7319587Y-13980484D02*
X7300539Y-13970960D01*
X7300539Y-13970960D02*
X7291015Y-13951912D01*
X7291015Y-13951912D02*
X7291015Y-13780484D01*
X7471968Y-13970960D02*
X7452920Y-13980484D01*
X7452920Y-13980484D02*
X7414825Y-13980484D01*
X7414825Y-13980484D02*
X7395777Y-13970960D01*
X7395777Y-13970960D02*
X7386253Y-13951912D01*
X7386253Y-13951912D02*
X7386253Y-13875722D01*
X7386253Y-13875722D02*
X7395777Y-13856674D01*
X7395777Y-13856674D02*
X7414825Y-13847150D01*
X7414825Y-13847150D02*
X7452920Y-13847150D01*
X7452920Y-13847150D02*
X7471968Y-13856674D01*
X7471968Y-13856674D02*
X7481491Y-13875722D01*
X7481491Y-13875722D02*
X7481491Y-13894769D01*
X7481491Y-13894769D02*
X7386253Y-13913817D01*
X7557682Y-13970960D02*
X7576730Y-13980484D01*
X7576730Y-13980484D02*
X7614825Y-13980484D01*
X7614825Y-13980484D02*
X7633872Y-13970960D01*
X7633872Y-13970960D02*
X7643396Y-13951912D01*
X7643396Y-13951912D02*
X7643396Y-13942388D01*
X7643396Y-13942388D02*
X7633872Y-13923341D01*
X7633872Y-13923341D02*
X7614825Y-13913817D01*
X7614825Y-13913817D02*
X7586253Y-13913817D01*
X7586253Y-13913817D02*
X7567206Y-13904293D01*
X7567206Y-13904293D02*
X7557682Y-13885246D01*
X7557682Y-13885246D02*
X7557682Y-13875722D01*
X7557682Y-13875722D02*
X7567206Y-13856674D01*
X7567206Y-13856674D02*
X7586253Y-13847150D01*
X7586253Y-13847150D02*
X7614825Y-13847150D01*
X7614825Y-13847150D02*
X7633872Y-13856674D01*
X7881492Y-13904293D02*
X8033873Y-13904293D01*
X7957682Y-13980484D02*
X7957682Y-13828103D01*
X8310063Y-13866198D02*
X8291015Y-13856674D01*
X8291015Y-13856674D02*
X8281492Y-13847150D01*
X8281492Y-13847150D02*
X8271968Y-13828103D01*
X8271968Y-13828103D02*
X8271968Y-13818579D01*
X8271968Y-13818579D02*
X8281492Y-13799531D01*
X8281492Y-13799531D02*
X8291015Y-13790008D01*
X8291015Y-13790008D02*
X8310063Y-13780484D01*
X8310063Y-13780484D02*
X8348158Y-13780484D01*
X8348158Y-13780484D02*
X8367206Y-13790008D01*
X8367206Y-13790008D02*
X8376730Y-13799531D01*
X8376730Y-13799531D02*
X8386253Y-13818579D01*
X8386253Y-13818579D02*
X8386253Y-13828103D01*
X8386253Y-13828103D02*
X8376730Y-13847150D01*
X8376730Y-13847150D02*
X8367206Y-13856674D01*
X8367206Y-13856674D02*
X8348158Y-13866198D01*
X8348158Y-13866198D02*
X8310063Y-13866198D01*
X8310063Y-13866198D02*
X8291015Y-13875722D01*
X8291015Y-13875722D02*
X8281492Y-13885246D01*
X8281492Y-13885246D02*
X8271968Y-13904293D01*
X8271968Y-13904293D02*
X8271968Y-13942388D01*
X8271968Y-13942388D02*
X8281492Y-13961436D01*
X8281492Y-13961436D02*
X8291015Y-13970960D01*
X8291015Y-13970960D02*
X8310063Y-13980484D01*
X8310063Y-13980484D02*
X8348158Y-13980484D01*
X8348158Y-13980484D02*
X8367206Y-13970960D01*
X8367206Y-13970960D02*
X8376730Y-13961436D01*
X8376730Y-13961436D02*
X8386253Y-13942388D01*
X8386253Y-13942388D02*
X8386253Y-13904293D01*
X8386253Y-13904293D02*
X8376730Y-13885246D01*
X8376730Y-13885246D02*
X8367206Y-13875722D01*
X8367206Y-13875722D02*
X8348158Y-13866198D01*
X8614825Y-13970960D02*
X8633873Y-13980484D01*
X8633873Y-13980484D02*
X8671968Y-13980484D01*
X8671968Y-13980484D02*
X8691016Y-13970960D01*
X8691016Y-13970960D02*
X8700539Y-13951912D01*
X8700539Y-13951912D02*
X8700539Y-13942388D01*
X8700539Y-13942388D02*
X8691016Y-13923341D01*
X8691016Y-13923341D02*
X8671968Y-13913817D01*
X8671968Y-13913817D02*
X8643396Y-13913817D01*
X8643396Y-13913817D02*
X8624349Y-13904293D01*
X8624349Y-13904293D02*
X8614825Y-13885246D01*
X8614825Y-13885246D02*
X8614825Y-13875722D01*
X8614825Y-13875722D02*
X8624349Y-13856674D01*
X8624349Y-13856674D02*
X8643396Y-13847150D01*
X8643396Y-13847150D02*
X8671968Y-13847150D01*
X8671968Y-13847150D02*
X8691016Y-13856674D01*
X8814825Y-13980484D02*
X8795777Y-13970960D01*
X8795777Y-13970960D02*
X8786254Y-13951912D01*
X8786254Y-13951912D02*
X8786254Y-13780484D01*
X8919587Y-13980484D02*
X8900539Y-13970960D01*
X8900539Y-13970960D02*
X8891016Y-13961436D01*
X8891016Y-13961436D02*
X8881492Y-13942388D01*
X8881492Y-13942388D02*
X8881492Y-13885246D01*
X8881492Y-13885246D02*
X8891016Y-13866198D01*
X8891016Y-13866198D02*
X8900539Y-13856674D01*
X8900539Y-13856674D02*
X8919587Y-13847150D01*
X8919587Y-13847150D02*
X8948158Y-13847150D01*
X8948158Y-13847150D02*
X8967206Y-13856674D01*
X8967206Y-13856674D02*
X8976730Y-13866198D01*
X8976730Y-13866198D02*
X8986254Y-13885246D01*
X8986254Y-13885246D02*
X8986254Y-13942388D01*
X8986254Y-13942388D02*
X8976730Y-13961436D01*
X8976730Y-13961436D02*
X8967206Y-13970960D01*
X8967206Y-13970960D02*
X8948158Y-13980484D01*
X8948158Y-13980484D02*
X8919587Y-13980484D01*
X9043397Y-13847150D02*
X9119587Y-13847150D01*
X9071968Y-13780484D02*
X9071968Y-13951912D01*
X9071968Y-13951912D02*
X9081492Y-13970960D01*
X9081492Y-13970960D02*
X9100539Y-13980484D01*
X9100539Y-13980484D02*
X9119587Y-13980484D01*
X9176730Y-13970960D02*
X9195777Y-13980484D01*
X9195777Y-13980484D02*
X9233873Y-13980484D01*
X9233873Y-13980484D02*
X9252920Y-13970960D01*
X9252920Y-13970960D02*
X9262444Y-13951912D01*
X9262444Y-13951912D02*
X9262444Y-13942388D01*
X9262444Y-13942388D02*
X9252920Y-13923341D01*
X9252920Y-13923341D02*
X9233873Y-13913817D01*
X9233873Y-13913817D02*
X9205301Y-13913817D01*
X9205301Y-13913817D02*
X9186254Y-13904293D01*
X9186254Y-13904293D02*
X9176730Y-13885246D01*
X9176730Y-13885246D02*
X9176730Y-13875722D01*
X9176730Y-13875722D02*
X9186254Y-13856674D01*
X9186254Y-13856674D02*
X9205301Y-13847150D01*
X9205301Y-13847150D02*
X9233873Y-13847150D01*
X9233873Y-13847150D02*
X9252920Y-13856674D01*
X9329111Y-14056674D02*
X9338635Y-14047150D01*
X9338635Y-14047150D02*
X9357682Y-14018579D01*
X9357682Y-14018579D02*
X9367206Y-13999531D01*
X9367206Y-13999531D02*
X9376730Y-13970960D01*
X9376730Y-13970960D02*
X9386254Y-13923341D01*
X9386254Y-13923341D02*
X9386254Y-13885246D01*
X9386254Y-13885246D02*
X9376730Y-13837627D01*
X9376730Y-13837627D02*
X9367206Y-13809055D01*
X9367206Y-13809055D02*
X9357682Y-13790008D01*
X9357682Y-13790008D02*
X9338635Y-13761436D01*
X9338635Y-13761436D02*
X9329111Y-13751912D01*
M02*
